<?xml version="1.0" standalone="no"?>
<!DOCTYPE svg PUBLIC "-//W3C//DTD SVG 1.1//EN" "http://www.w3.org/Graphics/SVG/1.1/DTD/svg11.dtd" >
<svg xmlns="http://www.w3.org/2000/svg" xmlns:xlink="http://www.w3.org/1999/xlink" version="1.1">
<metadata></metadata>
<defs>
<font id="codec_warmextra_bold" horiz-adv-x="846" >
<font-face units-per-em="2048" ascent="1638" descent="-410" />
<missing-glyph horiz-adv-x="478" />
<glyph horiz-adv-x="0" />
<glyph horiz-adv-x="0" />
<glyph unicode="&#xd;" horiz-adv-x="478" />
<glyph horiz-adv-x="1672" />
<glyph unicode=" "  horiz-adv-x="478" />
<glyph unicode="&#x09;" horiz-adv-x="478" />
<glyph unicode="&#xa0;" horiz-adv-x="478" />
<glyph unicode="!" horiz-adv-x="609" d="M135 133q0 33 12 62.5t34 51.5t53.5 35t69.5 13q39 0 70 -13t53.5 -35t34.5 -51.5t12 -62.5t-12 -62.5t-34.5 -51.5t-53.5 -35t-70 -13q-38 0 -69.5 13t-53.5 35t-34 51.5t-12 62.5zM149 729v631h309v-633l-41 -297h-228z" />
<glyph unicode="&#x22;" horiz-adv-x="948" d="M142 1397h285l-27 -575h-235zM523 1397h286l-26 -575h-236z" />
<glyph unicode="#" horiz-adv-x="1251" d="M80 314l5 229h179l40 244h-155l5 228h188l57 345h273l-57 -345h138l57 345h273l-57 -345h144l-3 -228h-179l-40 -244h153l-4 -229h-186l-46 -281h-273l46 281h-138l-46 -281h-274l46 281h-146zM537 543h138l40 244h-138z" />
<glyph unicode="$" horiz-adv-x="1305" d="M49 101l97 274q42 -19 99 -42.5t120.5 -43.5t130 -33.5t128.5 -13.5q69 0 115.5 11.5t75.5 32t41.5 49.5t12.5 63q0 39 -21.5 66t-63 48t-102 39t-137.5 40q-38 10 -86.5 23.5t-98.5 33t-98 47t-85 64.5t-60 85.5t-23 110.5q0 173 95.5 284.5t300.5 142.5v211h299v-209 q106 -16 199 -48t174 -67l-85 -263q-28 14 -81.5 33.5t-117 37.5t-130.5 30.5t-123 12.5q-64 0 -105.5 -11t-65.5 -30t-33.5 -42.5t-9.5 -49.5q0 -35 22.5 -60.5t61.5 -44t92 -31.5t115 -24q107 -25 196.5 -56.5t154.5 -80.5t101.5 -122t36.5 -181q0 -83 -29.5 -150 t-82.5 -118t-126.5 -85t-162.5 -51v-206h-300v194q-73 7 -137 20.5t-119.5 31.5t-101.5 38.5t-83 39.5z" />
<glyph unicode="%" horiz-adv-x="1813" d="M81 1039q0 74 29 137.5t79.5 110.5t119.5 74t148 27q80 0 148.5 -26.5t118.5 -73t79 -110t29 -137.5q0 -73 -29 -136.5t-79.5 -110.5t-119 -73.5t-148.5 -26.5q-79 0 -147.5 26.5t-119 73t-79.5 109.5t-29 136zM338 1040q0 -56 32.5 -93.5t86.5 -37.5t86.5 37t32.5 92 q0 59 -32.5 97.5t-87.5 38.5q-54 0 -86 -37.5t-32 -96.5zM364 -1l833 1360h283l-837 -1360h-279zM984 318q0 74 29 137.5t79.5 110.5t119 74t148.5 27q79 0 147.5 -26.5t118.5 -73t79 -110t29 -137.5q0 -73 -29 -136.5t-79.5 -110.5t-119 -73.5t-148.5 -26.5 q-79 0 -147 26.5t-118.5 73t-79.5 109.5t-29 136zM1240 319q0 -27 8.5 -51t24.5 -42t38 -28t49 -10q54 0 86.5 37t32.5 92q0 59 -33 97.5t-87 38.5t-86.5 -37.5t-32.5 -96.5z" />
<glyph unicode="&#x26;" horiz-adv-x="1505" d="M77 388q0 78 27.5 137.5t71 105.5t96 81t103.5 63q-28 23 -54.5 52.5t-47.5 65t-33.5 78t-12.5 92.5q0 77 31 138.5t86 104.5t129.5 65.5t161.5 22.5q95 0 173 -22.5t133.5 -66t86 -107t30.5 -147.5q0 -53 -19.5 -100.5t-52.5 -88.5t-77 -76t-94 -64l211 -241 q35 51 55.5 107.5t24.5 115.5l280 -1q-5 -121 -53 -229.5t-126 -199.5l241 -274h-370l-83 92q-95 -59 -196 -91t-198 -32q-106 0 -201 30t-167 85t-114 132.5t-42 171.5zM387 396q0 -40 17.5 -70.5t46.5 -51t65.5 -31t74.5 -10.5q57 0 113.5 15.5t109.5 43.5l-269 298 q-29 -17 -57.5 -36t-51 -42t-36 -51.5t-13.5 -64.5zM535 1032q0 -21 7 -40t18 -36t25 -32.5t27 -30.5q21 11 45.5 23.5t45 30.5t34.5 42t14 56q0 45 -28 72.5t-76 27.5q-56 0 -84 -33.5t-28 -79.5z" />
<glyph unicode="'" horiz-adv-x="563" d="M140 1397h286l-27 -575h-235z" />
<glyph unicode="(" horiz-adv-x="741" d="M100 679q0 128 15 250.5t52 240t99 231.5t156 226h291q-63 -74 -118 -185.5t-96.5 -240t-65 -264t-23.5 -257.5q0 -123 21.5 -254t61.5 -256t95.5 -238t124.5 -198h-288q-94 105 -156.5 219t-100 233.5t-53 243.5t-15.5 249z" />
<glyph unicode=")" horiz-adv-x="741" d="M12 -266q69 85 125 198t95.5 238t61.5 256t22 254q0 122 -24 257.5t-65 264t-96.5 240t-118.5 185.5h291q94 -112 156 -226t99 -231.5t52 -240t15 -250.5q0 -125 -15.5 -249t-53 -243.5t-100 -233.5t-156.5 -219h-288z" />
<glyph unicode="*" horiz-adv-x="841" d="M90 1005l172 84l-172 85l92 160l159 -104l-11 190h184l-12 -189l158 104l93 -160l-173 -86l173 -84l-92 -160l-160 105l11 -189h-182l10 189l-158 -105z" />
<glyph unicode="+" horiz-adv-x="1396" d="M234 498v254h332v347h256l1 -347h338v-254h-338v-345h-257v345h-332z" />
<glyph unicode="," horiz-adv-x="554" d="M33 -234l120 465h298l-192 -465h-226z" />
<glyph unicode="-" d="M122 360v256h614v-256h-614z" />
<glyph unicode="." horiz-adv-x="553" d="M107 132q0 33 12 62.5t34 51.5t53.5 35t69.5 13q39 0 70 -13t53.5 -35t34.5 -51.5t12 -62.5t-12 -62.5t-34.5 -51.5t-53.5 -34.5t-70 -12.5q-38 0 -69.5 13t-53.5 34.5t-34 51t-12 62.5z" />
<glyph unicode="/" horiz-adv-x="923" d="M-64 -209l655 1633h311l-653 -1632z" />
<glyph unicode="0" horiz-adv-x="1409" d="M116 674q0 149 38.5 280.5t113.5 229t187 154t259 56.5q163 0 276.5 -60t185 -159.5t104 -228.5t32.5 -267q0 -145 -36.5 -274t-110.5 -226.5t-186.5 -154.5t-264.5 -57q-154 0 -267 57t-186.5 154t-109 225.5t-35.5 270.5zM424 678q0 -84 16 -164.5t50.5 -144t90 -102.5 t133.5 -39q75 0 129.5 39t90.5 102.5t53 145t17 165.5q0 80 -16 160.5t-51 145t-90 105.5t-134 41q-76 0 -130.5 -40t-89.5 -104.5t-52 -145.5t-17 -164z" />
<glyph unicode="1" horiz-adv-x="784" d="M84 1255l284 106h247v-1361h-301l5 1115l-234 -84z" />
<glyph unicode="2" horiz-adv-x="1217" d="M84 0v179l419 356q69 57 121 106t87 95.5t53 93.5t18 100q0 44 -13 79.5t-37 61t-57.5 39.5t-73.5 14t-74.5 -13.5t-59.5 -40t-39.5 -66t-14.5 -91.5h-312q0 47 9.5 100.5t32 106t59.5 101.5t91.5 86t128.5 59t170 22q122 0 215.5 -36.5t156.5 -99t95 -145t32 -175.5 q0 -142 -66 -256.5t-185 -212.5l-258 -216q22 4 49 8q23 2 55 4.5t70 2.5h364v-262h-1036z" />
<glyph unicode="3" horiz-adv-x="1150" d="M49 410h307q7 -46 25.5 -80.5t45.5 -57t61.5 -33.5t72.5 -11q48 0 89 15t70 41.5t45.5 63t16.5 79.5t-15.5 79.5t-44 63t-69.5 42t-91 15.5l-243 2v161l231 308h-459v262h864v-166l-270 -333q11 -1 22 -3q9 -2 19 -4t18 -5q62 -12 123.5 -40t111 -77t80.5 -122t31 -176 q0 -100 -39.5 -186t-108.5 -148t-162.5 -97.5t-201.5 -35.5q-102 0 -195 22.5t-165 74t-117 136.5t-52 210z" />
<glyph unicode="4" horiz-adv-x="1329" d="M73 470l627 894l347 -1v-832h197v-262h-197v-269h-307v269h-644zM439 529h301l1 407z" />
<glyph unicode="5" horiz-adv-x="1190" d="M64 410h307q7 -46 25.5 -80.5t45.5 -57t61.5 -33.5t72.5 -11q48 0 89 15t70 41.5t45.5 63t16.5 79.5t-15.5 79t-44 62.5t-69.5 41t-91 14.5l-317 1l-130 118l80 618h792v-263h-517l-25 -213h178q107 0 193.5 -32t147 -91t93.5 -142t33 -186q0 -100 -39.5 -186 t-108.5 -148t-162.5 -97.5t-201.5 -35.5q-102 0 -195 22.5t-165 74t-117 136.5t-52 210z" />
<glyph unicode="6" horiz-adv-x="1176" d="M63 442q0 54 9 101t28.5 96t51 105t76.5 128l306 488h365l-333 -505q52 33 120 33q78 0 152.5 -34.5t132 -94.5t93 -141.5t35.5 -175.5q0 -99 -36 -185t-103.5 -150t-163.5 -101t-215 -37t-214.5 37t-163 101t-104 150t-36.5 185zM369 438q0 -45 17.5 -83.5t47 -66 t68 -43t80.5 -15.5t80.5 15.5t67.5 43t46 66t17 83.5t-17 83.5t-46 67t-67.5 44.5t-80.5 16q-47 0 -86 -19t-67.5 -49.5t-44 -68t-15.5 -74.5z" />
<glyph unicode="7" horiz-adv-x="1121" d="M72 1098v262h979v-163l-567 -1197h-335l527 1098h-604z" />
<glyph unicode="8" horiz-adv-x="1197" d="M73 398q0 71 20 128.5t52 100.5t73 71.5t83 40.5q-33 11 -63.5 38t-54 63.5t-37 80t-13.5 88.5q0 95 37.5 167t101.5 120t148.5 72.5t178.5 24.5q98 0 183 -24t147.5 -72t98 -119.5t35.5 -166.5q0 -45 -14 -89.5t-37 -82t-54 -64.5t-64 -37q44 -12 85.5 -39.5t73.5 -70.5 t51.5 -101t19.5 -129q0 -92 -35.5 -171t-103 -136.5t-165 -90.5t-221.5 -33q-125 0 -223 33t-165.5 90.5t-102.5 136.5t-35 171zM382 412q0 -40 17 -73.5t46.5 -57.5t69 -37.5t83.5 -13.5q45 0 84.5 13.5t69 37.5t46.5 57.5t17 73.5q0 41 -17 74.5t-46.5 57.5t-69 37 t-84.5 13q-44 0 -83.5 -13t-69 -37t-46.5 -57.5t-17 -74.5zM440 995q0 -27 11 -52.5t32 -44.5t50 -30.5t65 -11.5q35 0 64 11.5t49.5 30.5t31.5 44.5t11 52.5t-11.5 52t-32 43.5t-49 30t-63.5 11.5t-64 -11.5t-50 -30t-32.5 -43.5t-11.5 -52z" />
<glyph unicode="9" horiz-adv-x="1191" d="M83 920q0 99 36 185t103.5 150.5t163.5 101.5t215 37t215 -37t163.5 -101.5t103.5 -150.5t36 -185q0 -54 -9 -100.5t-28.5 -95.5t-51 -105.5t-77.5 -128.5l-307 -490h-365l334 508q-25 -16 -54.5 -24.5t-65.5 -8.5q-78 0 -152 34.5t-131.5 94.5t-93 141t-35.5 175z M389 925q0 -45 17 -84t45.5 -67t67 -44t80.5 -16q47 0 86.5 19t68 49.5t44 68t15.5 74.5q0 45 -17.5 83t-47.5 66t-68.5 43.5t-80.5 15.5t-80.5 -15.5t-67 -43.5t-45.5 -66t-17 -83z" />
<glyph unicode=":" horiz-adv-x="553" d="M107 129q0 33 12 62.5t34 51.5t53.5 35t69.5 13q39 0 70 -13t53.5 -35t34.5 -51.5t12 -62.5t-12 -62.5t-34.5 -51.5t-53.5 -34.5t-70 -12.5q-38 0 -69.5 13t-53.5 35t-34 51t-12 62zM107 889q0 33 12 62t34 51t53.5 35t69.5 13q39 0 70 -13t53.5 -35t34.5 -51t12 -62 q0 -34 -12 -63.5t-34.5 -51.5t-53.5 -34.5t-70 -12.5q-38 0 -69.5 13t-53.5 35t-34 51.5t-12 62.5z" />
<glyph unicode=";" horiz-adv-x="553" d="M33 -234l120 465h298l-192 -465h-226zM107 882v13q0 9 1 13q1 21 11 43q1 3 2 5.5t3 5.5l9 16l4 5q2 4 5.5 7.5l6.5 6.5l9 9q22 22 55 33t63 11h7q4 0 7.5 -0.5t7.5 -0.5q3 -1 8 -1l14 -3q5 -2 9.5 -3t9.5 -3q29 -9 51 -29q5 -4 9 -8l9 -9q14 -17 23 -37l3 -5l6 -18 q6 -21 6 -44q0 -5 -0.5 -10t-0.5 -10l-5 -26q-7 -23 -17.5 -39.5t-27.5 -33.5l-12 -10t-14 -9q-5 -4 -11 -6.5t-12 -5.5l-13 -4q-13 -4 -27 -6q-3 -1 -8 -1q-5 -1 -15 -1h-7h-12t-11 1q-17 2 -33.5 7t-31.5 13l-11 7q-7 5 -12.5 9.5t-11.5 9.5l-4 5q-8 9 -16 19l-6 11 q-10 18 -14 35l-2 6q-2 8 -3 16t-1 16z" />
<glyph unicode="&#x3c;" horiz-adv-x="1247" d="M133 497v194l898 420v-295l-535 -222l535 -220v-296z" />
<glyph unicode="=" horiz-adv-x="1396" d="M234 232v253l927 1v-254h-927zM234 703v254l927 1v-255h-927z" />
<glyph unicode="&#x3e;" horiz-adv-x="1248" d="M218 7v296l534 220l-534 222v295l897 -419v-194z" />
<glyph unicode="?" horiz-adv-x="981" d="M3 973q0 98 29 176t88 132.5t149 83.5t212 29q96 0 179.5 -28t146 -80t98 -126t35.5 -165q0 -70 -21.5 -120.5t-55.5 -89t-77 -69.5t-85 -62q-33 -25 -58 -46t-41 -42t-24 -44t-8 -52v-40h-276v41q0 59 9.5 106t27.5 86t44 71.5t59 63.5q36 34 71.5 58.5t63.5 45.5t45 42 t17 48q0 65 -39.5 102t-121.5 37q-158 0 -158 -158h-309zM270 132q0 33 12 62.5t34 51.5t53.5 35t69.5 13t69.5 -13t54 -35t34.5 -51.5t12 -62.5t-12 -62.5t-34.5 -51.5t-54 -34.5t-70.5 -12.5q-38 0 -69 13t-53 34.5t-34 51t-12 62.5z" />
<glyph unicode="@" horiz-adv-x="2030" d="M85 497q0 128 34.5 242t97 210t150 172t194.5 129.5t230 82t256 28.5q191 0 355.5 -55.5t285.5 -155t189.5 -238.5t68.5 -306q0 -157 -45.5 -267.5t-120 -180t-171 -101t-198.5 -31.5q-53 0 -99.5 12t-82.5 35t-60 55.5t-32 74.5q-24 -35 -57.5 -59t-72 -39t-79 -21.5 t-77.5 -6.5q-43 0 -78 8q-52 14 -93.5 45.5t-70.5 76.5t-45 102.5t-16 123.5q0 92 24 170t66.5 137.5t100 99t124.5 54.5q19 4 46 4q30 0 62.5 -6t62.5 -18.5t55 -32.5t39 -47l12 71l298 -1l-73 -470q-6 -38 -2.5 -61t14 -35.5t26 -16.5t32.5 -4q29 0 65 17t67.5 55.5 t52.5 100.5t21 152q0 119 -43 212.5t-122 158.5t-188.5 99t-243.5 34q-133 0 -252.5 -44.5t-210.5 -125t-144.5 -192.5t-53.5 -247q0 -149 43.5 -266.5t127.5 -198.5t206.5 -124.5t280.5 -43.5l465 -1l1 -253l-459 -2q-247 -1 -428 66t-300 186t-177 282t-58 355zM840 437 q0 -23 5.5 -46.5t17.5 -42t30 -30.5t42 -12q23 0 45.5 12.5t41.5 31t32.5 41.5t16.5 44l29 173q-18 24 -47.5 37t-53.5 13q-10 0 -14 -1q-28 -6 -53.5 -22.5t-45 -44t-32 -65.5t-14.5 -88z" />
<glyph unicode="A" horiz-adv-x="1460" d="M22 0l557 1361h298l557 -1361h-334l-87 216h-570l-86 -216h-335zM552 486h352l-165 411l-10 44h-2l-10 -44z" />
<glyph unicode="B" horiz-adv-x="1324" d="M142 0v1360h605q100 0 181 -25.5t138.5 -74t88.5 -119t31 -161.5q0 -42 -13.5 -83t-36 -75.5t-52.5 -60.5t-63 -40q49 -17 92.5 -47.5t76.5 -71.5t52 -90.5t19 -105.5q0 -109 -40 -186.5t-104.5 -126t-146.5 -71t-166 -22.5h-662zM458 261h314q25 0 53.5 9.5t52.5 29 t40 49.5t16 71q0 36 -13 64.5t-35 49t-51.5 31.5t-62.5 11h-314v-315zM458 815h270q25 0 49 10t43 28.5t31 44.5t12 58q0 31 -11.5 57.5t-30.5 45.5t-43 29.5t-49 10.5h-271v-284z" />
<glyph unicode="C" horiz-adv-x="1442" d="M92 682q0 149 58.5 278.5t159 226t236 152t289.5 55.5q81 0 154 -16.5t138 -45.5t122 -70t106 -90l-193 -205q-59 74 -145 114t-182 40q-88 0 -166 -33.5t-136 -92.5t-91.5 -139.5t-33.5 -174.5t33.5 -174.5t91.5 -139.5t136 -92.5t166 -33.5q95 0 181.5 41t146.5 113 l192 -204q-45 -46 -101 -86.5t-122 -70.5t-140.5 -47.5t-156.5 -17.5q-154 0 -289.5 56t-236 152.5t-159 226.5t-58.5 278z" />
<glyph unicode="D" horiz-adv-x="1512" d="M142 0v1360h552q155 0 288 -44t230.5 -130t153 -212.5t55.5 -292.5q0 -152 -47.5 -277.5t-140 -215t-227.5 -139t-309 -49.5h-555zM459 272h230q202 0 308.5 104.5t106.5 300.5q0 94 -25.5 170t-77 129.5t-129.5 82.5t-183 29h-230v-816z" />
<glyph unicode="E" horiz-adv-x="1188" d="M142 0v1360h958v-273h-641v-278h550v-272h-550v-265h650v-272h-967z" />
<glyph unicode="F" horiz-adv-x="1166" d="M142 0v1360h958v-273h-641v-327h550v-272h-550v-488h-317z" />
<glyph unicode="G" horiz-adv-x="1581" d="M95 682q0 149 58.5 279t159 227t236 153t289.5 56q81 0 157.5 -16t146 -46t130.5 -72.5t112 -95.5l-225 -192q-58 69 -140.5 109t-180.5 40q-88 0 -166 -34t-136 -93.5t-91.5 -140.5t-33.5 -175t33.5 -175t91.5 -140.5t136 -93.5t166 -34q75 0 144.5 24.5t125.5 69.5v155 h-202l1 230h517v-492q-52 -62 -120 -110.5t-144.5 -81.5t-158.5 -50t-163 -17q-154 0 -289.5 55.5t-236 152.5t-159 227.5t-58.5 280.5z" />
<glyph unicode="H" horiz-adv-x="1512" d="M142 0v1360h317v-551h593v551h318v-1360h-318v537h-593v-537h-317z" />
<glyph unicode="I" horiz-adv-x="600" d="M142 0v1360h317v-1360h-317z" />
<glyph unicode="J" horiz-adv-x="854" d="M52 0v273h174q92 0 136.5 47t44.5 136l1 904h315v-906q0 -111 -36.5 -196t-102 -142.5t-157 -86.5t-201.5 -29h-174z" />
<glyph unicode="K" horiz-adv-x="1393" d="M142 0v1360h317v-684l526 684h368l-477 -606l498 -754h-374l-330 521l-211 -267v-254h-317z" />
<glyph unicode="L" horiz-adv-x="1097" d="M142 0v1360h317v-1088h570v-272h-887z" />
<glyph unicode="M" horiz-adv-x="1688" d="M142 0v1360h278l423 -578l428 578h277v-1360h-316v841l-350 -480h-79l-344 483v-844h-317z" />
<glyph unicode="N" horiz-adv-x="1524" d="M142 0v1360h276l648 -813v813h316v-1360h-274l-649 815v-815h-317z" />
<glyph unicode="O" horiz-adv-x="1672" d="M92 682q0 149 58.5 278.5t159 226t236 152t289.5 55.5t289.5 -55.5t236.5 -152t159.5 -226t58.5 -278.5q0 -148 -58.5 -278t-159.5 -226.5t-236.5 -152.5t-289.5 -56t-289.5 56t-236 152.5t-159 226.5t-58.5 278zM408 681q0 -94 33.5 -174.5t91.5 -139.5t136 -92.5 t166 -33.5q90 0 168 33.5t135.5 92.5t91 139.5t33.5 174.5t-33.5 174.5t-91 139.5t-135.5 92.5t-168 33.5q-88 0 -166 -33.5t-136 -92.5t-91.5 -139.5t-33.5 -174.5z" />
<glyph unicode="P" horiz-adv-x="1265" d="M142 0v1360h587q107 0 197.5 -35.5t155.5 -98.5t101.5 -149.5t36.5 -189.5q0 -104 -36 -190.5t-100.5 -148.5t-154 -96.5t-195.5 -34.5h-275v-417h-317zM459 689h257q39 0 73 15.5t59.5 42t40 62.5t14.5 78q0 41 -14.5 77.5t-40 64t-59.5 43.5t-73 16h-257v-399z" />
<glyph unicode="Q" horiz-adv-x="1672" d="M94 682q0 149 58.5 279t159.5 227t236.5 153t289.5 56q153 0 288.5 -56t237 -153t160 -227t58.5 -279q0 -107 -31.5 -205.5t-87.5 -182.5t-134.5 -150.5t-173.5 -109.5q44 -68 117 -94.5t159 -26.5q50 0 100.5 6t98.5 19l89 -234q-30 -17 -65 -29t-72 -19t-74 -10t-71 -3 q-97 0 -185.5 23.5t-163 66.5t-130.5 102.5t-88 131.5q-8 -1 -16 -1h-16q-154 0 -289.5 56.5t-236.5 153.5t-159.5 227.5t-58.5 278.5zM411 681q0 -94 33.5 -175t91.5 -140.5t136 -93.5t166 -34q90 0 167.5 34t135.5 93.5t91 140.5t33 175t-33 175t-91 140.5t-135.5 93.5 t-167.5 34q-88 0 -166 -34t-136 -93.5t-91.5 -140.5t-33.5 -175z" />
<glyph unicode="R" horiz-adv-x="1317" d="M142 0v1360h596q107 0 197.5 -33.5t155.5 -94t101.5 -145t36.5 -187.5q0 -72 -17.5 -135.5t-50.5 -115.5t-80 -92t-106 -67l287 -490h-364l-237 443h-202v-443h-317zM459 715h266q39 0 73 13.5t59.5 37.5t40 58t14.5 76q0 41 -14.5 75.5t-40 59.5t-59.5 39t-73 14h-266 v-373z" />
<glyph unicode="S" horiz-adv-x="1300" d="M54 101l97 274q42 -19 99 -42.5t120.5 -43.5t130 -33.5t128.5 -13.5q69 0 115.5 11.5t75.5 32t41.5 49.5t12.5 63q0 39 -21.5 66t-63 48t-102 39t-138.5 40q-38 10 -86.5 23.5t-98.5 33t-97.5 47t-85 64.5t-60 85.5t-22.5 110.5q0 102 33 183.5t101.5 138.5t174.5 87 t251 30q74 0 143 -11t132.5 -29t121.5 -40t111 -45l-85 -263q-28 14 -81.5 33.5t-117 37.5t-130.5 30.5t-123 12.5q-64 0 -105.5 -11t-65.5 -30t-33.5 -42.5t-9.5 -49.5q0 -35 22.5 -60.5t61.5 -44t92 -31.5t115 -24q107 -25 196.5 -56.5t154.5 -80.5t101.5 -122t36.5 -181 q0 -103 -44.5 -181.5t-123.5 -131.5t-186.5 -80.5t-232.5 -27.5q-94 0 -176 12.5t-151.5 32t-126.5 43.5t-101 47z" />
<glyph unicode="T" horiz-adv-x="1169" d="M47 1088v272h1076v-272h-380v-1088h-316v1088h-380z" />
<glyph unicode="U" horiz-adv-x="1443" d="M123 525v835h316v-836q0 -61 18.5 -113.5t54 -90.5t88 -60t121.5 -22q67 0 119 21.5t88 60t54.5 90.5t18.5 113v837h317v-835q0 -121 -42.5 -223t-120.5 -176.5t-188 -116t-246 -41.5q-126 0 -235.5 38.5t-190 111t-126.5 175.5t-46 232z" />
<glyph unicode="V" horiz-adv-x="1477" d="M31 1361h335l370 -934h4l370 934h334l-563 -1361h-286z" />
<glyph unicode="W" horiz-adv-x="2100" d="M31 1361h335l348 -856l20 -78h7l20 78l124 304l-228 552h335l348 -856l19 -78h8l19 78l349 856h334l-563 -1361h-286l-170 410l-169 -410h-286z" />
<glyph unicode="X" horiz-adv-x="1449" d="M28 0l498 714l-448 646h372l274 -417l274 417h372l-448 -646l498 -714h-373l-323 488l-322 -488h-374z" />
<glyph unicode="Y" horiz-adv-x="1402" d="M20 1360h369l311 -557h3l311 557h370l-525 -845l1 -515h-317v514z" />
<glyph unicode="Z" horiz-adv-x="1282" d="M71 240l693 849h-652v271h1071l-1 -234l-695 -854h719v-272h-1132z" />
<glyph unicode="[" horiz-adv-x="733" d="M142 -291v1943h549v-256h-251v-1433h251v-254h-549z" />
<glyph unicode="\" horiz-adv-x="945" d="M12 1439h312l655 -1634l-313 1z" />
<glyph unicode="]" horiz-adv-x="731" d="M40 -37h251v1433h-251v256h549v-1943h-549v254z" />
<glyph unicode="^" horiz-adv-x="1080" d="M107 772l364 663h135l364 -663l-297 -5l-134 317l-136 -317z" />
<glyph unicode="_" horiz-adv-x="1052" d="M22 -68h1008v-258h-1008v258z" />
<glyph unicode="`" horiz-adv-x="471" d="M-14 1391l225 81l190 -320h-218z" />
<glyph unicode="a" horiz-adv-x="1224" d="M66 337q0 86 40 143.5t111 91.5t167.5 48t209.5 14q44 0 92.5 -1t96.5 -2v70q-2 51 -54 84t-140 33q-37 0 -70.5 -8.5t-58 -22t-39 -31.5t-14.5 -38l-312 -1q3 89 40 155t100.5 110t151.5 66t194 22q117 0 211.5 -23.5t161.5 -68t103 -110t36 -149.5v-719h-250l-22 96 q-79 -58 -180 -90.5t-201 -32.5q-87 0 -156 23.5t-117.5 70t-74.5 114.5t-26 156zM383 323q0 -30 12.5 -50.5t34.5 -33t51 -18.5t62 -6q29 0 64.5 6t69.5 19t62 33.5t43 48.5v97q-30 1 -64.5 2t-82.5 1q-52 0 -98 -4.5t-80 -15.5t-54 -30t-20 -49z" />
<glyph unicode="b" horiz-adv-x="1383" d="M145 0v1409h309v-431q56 41 129.5 67t167.5 26q128 0 230 -44t173 -119t109 -175.5t38 -214.5t-39 -214.5t-111.5 -176t-175 -119t-229.5 -43.5q-102 0 -184 34.5t-140 80.5l-14 -80h-263zM439 519q0 -65 21.5 -118.5t59 -91t87.5 -58t108 -20.5q57 0 107.5 20.5t88 58.5 t59 91t21.5 118q0 64 -21 116.5t-58 90t-87.5 58t-108.5 20.5q-57 0 -107.5 -20.5t-88 -58t-59.5 -90t-22 -116.5z" />
<glyph unicode="c" horiz-adv-x="1127" d="M83 518q0 113 42 213.5t118 176t182 119.5t234 44q116 0 216.5 -37t180.5 -109l-187 -196q-36 36 -89.5 55.5t-118.5 19.5q-54 0 -103 -19.5t-86 -56t-58.5 -89.5t-21.5 -120t21.5 -119.5t58.5 -89.5t86 -56.5t103 -19.5q137 0 211 77l186 -196q-79 -73 -180 -111 q-98 -37 -213 -37h-6q-127 1 -233 44.5t-182.5 118.5t-118.5 175t-42 213z" />
<glyph unicode="d" horiz-adv-x="1399" d="M83 518q0 114 38 214.5t109 175.5t173 119t230 44q94 0 167 -26t130 -67v431h309v-1409h-263l-15 86q-58 -51 -139.5 -86t-183.5 -35q-127 0 -229.5 43.5t-175 119t-111.5 176t-39 214.5zM392 519q0 -65 22 -118t59.5 -91t88 -58.5t107.5 -20.5t107.5 20.5t88 58t59 91 t21.5 118.5q0 64 -22 116.5t-59.5 90t-88 58t-107.5 20.5q-58 0 -108.5 -20.5t-87.5 -58t-58.5 -90t-21.5 -116.5z" />
<glyph unicode="e" horiz-adv-x="1212" d="M81 518q0 113 42 213.5t118 176t181 119.5t232 44q111 0 200.5 -26.5t152.5 -74.5t97.5 -115t34.5 -148q0 -64 -18 -122t-61.5 -101.5t-116 -69t-180.5 -25.5h-358q34 -75 102 -118t150 -43q48 0 83 6t62 16.5t48.5 25t43.5 31.5l168 -184q-27 -26 -67.5 -54t-92 -51 t-114.5 -38t-135 -15q-126 0 -231 44t-180.5 119.5t-118 176t-42.5 213.5zM401 639h313q60 0 95.5 21t35.5 57q0 17 -11 34.5t-34 32t-57 23.5t-81 9q-43 0 -82.5 -12.5t-73.5 -36t-61 -56t-44 -72.5z" />
<glyph unicode="f" horiz-adv-x="870" d="M40 772v265h190v39q0 71 18.5 142.5t62.5 129.5t117.5 94t184.5 36h208v-252l-132 1q-41 0 -69 -12.5t-45.5 -33.5t-25.5 -49.5t-8 -61.5v-33h278v-265h-278v-772h-311v772h-190z" />
<glyph unicode="g" horiz-adv-x="1244" d="M43 -161q0 53 34.5 109t85.5 104q-36 32 -54.5 73.5t-18.5 89.5q0 66 34 127.5t85 115.5q-47 50 -71 111.5t-24 130.5q0 80 33.5 151.5t96.5 125.5t153 85.5t204 31.5q81 0 150 -16.5t126 -45.5q36 28 85.5 51t114.5 23h154v-213h-88q-26 0 -50 -8t-45 -19 q20 -38 31 -79.5t11 -86.5q0 -81 -34 -152t-97 -123t-154 -82t-205 -30q-107 0 -194 27q-11 -17 -16 -35.5t-4 -34.5q0 -22 12 -34.5t30 -19t39 -8t39 -1.5h190q124 0 211.5 -26t143.5 -69.5t82 -101t26 -119.5q0 -95 -44 -166.5t-120.5 -119.5t-180 -72.5t-222.5 -24.5 q-109 0 -208 19.5t-175 60t-121 103t-45 148.5zM308 -121q0 -38 21.5 -63t59.5 -40t89 -21t110 -6q61 0 109.5 10t82 27t51.5 41t18 53q0 30 -14 50t-39.5 32.5t-61 18t-78.5 5.5l-289 -1q-5 0 -8.5 0.5t-8.5 0.5q-18 -23 -30 -49.5t-12 -57.5zM415 703q0 -37 14 -68.5 t39 -53.5t59 -34.5t74 -12.5q42 0 76.5 12t60 34.5t39.5 53.5t14 69q0 37 -14 67.5t-39.5 52.5t-60 34.5t-76.5 12.5q-40 0 -74.5 -12t-59 -34t-38.5 -53t-14 -68z" />
<glyph unicode="h" horiz-adv-x="1338" d="M145 -1v1410h307l-2 -439q59 42 135 71t162 29q124 0 213 -35t146 -101t84 -161t27 -215v-558h-311v552q0 75 -15 123.5t-43.5 77t-69.5 40t-92 11.5t-94 -19t-73.5 -53.5t-47.5 -81.5t-17 -104v-547h-309z" />
<glyph unicode="i" horiz-adv-x="601" d="M118 1316q0 33 13 63t37.5 52.5t58.5 35.5t76 13t76 -13t58.5 -35.5t37.5 -52.5t13 -63q0 -34 -13 -63.5t-37.5 -51.5t-59 -35t-76.5 -13q-41 0 -75 13t-58 35.5t-37.5 52t-13.5 62.5zM145 0v1037h311v-1037h-311z" />
<glyph unicode="j" horiz-adv-x="627" d="M-74 -132h106q54 0 83.5 39.5t29.5 112.5v1017h312v-1021q0 -108 -32 -185.5t-87.5 -127.5t-131 -74t-162.5 -24h-118v263zM119 1316q0 33 13 63t37 52.5t58 35.5t76 13t76 -13t58.5 -35.5t37.5 -52.5t13 -63q0 -34 -13 -63.5t-37.5 -51.5t-59 -35t-76.5 -13 q-41 0 -75 13t-58 35.5t-37 52t-13 62.5z" />
<glyph unicode="k" horiz-adv-x="1207" d="M145 0v1409h309v-811l344 439h362l-349 -432l381 -605h-368l-234 403l-136 -162v-241h-309z" />
<glyph unicode="l" horiz-adv-x="698" d="M144 373v1036h309v-1032q0 -36 4 -58.5t14.5 -35t28 -17t44.5 -4.5h51v-263h-65q-117 0 -192 18t-118 61.5t-59.5 115t-16.5 179.5z" />
<glyph unicode="m" horiz-adv-x="1990" d="M145 0v1037h249l18 -72q58 43 137.5 74t176.5 31q103 0 184 -35.5t138 -100.5q31 27 70 52t85.5 43.5t101 29.5t116.5 11q108 0 191 -35t139.5 -101t85 -160.5t28.5 -213.5v-560h-310v552q0 130 -43 191t-128 61q-50 0 -91 -17t-70 -49t-45 -77.5t-18 -102.5v-558h-311 v552q0 130 -43 191t-128 61q-103 0 -163.5 -68.5t-60.5 -192.5v-543h-309z" />
<glyph unicode="n" horiz-adv-x="1339" d="M145 0v1037h249l19 -79q32 23 71 43.5t82 35.5t89 24t92 9q124 0 213 -35.5t146 -102t84 -161.5t27 -215v-556h-311v549q0 72 -15 121t-42 78.5t-64.5 42.5t-82.5 13q-57 0 -103 -21.5t-78.5 -59t-49.5 -89.5t-17 -113v-521h-309z" />
<glyph unicode="o" horiz-adv-x="1317" d="M81 518q0 114 42 214.5t118.5 175.5t182.5 118.5t233 43.5q129 0 235.5 -43.5t183 -118.5t119 -175.5t42.5 -214.5t-42.5 -214.5t-119 -175.5t-183.5 -118t-236 -43q-127 0 -232.5 43.5t-181.5 118t-118.5 175t-42.5 214.5zM390 519q0 -64 21 -117t58 -91t86 -58.5 t105 -20.5q57 0 106 20.5t85 58t57 90.5t21 118q0 64 -21 116.5t-57.5 90t-86 58t-105.5 20.5t-105 -20.5t-85.5 -58t-57.5 -90t-21 -116.5z" />
<glyph unicode="p" horiz-adv-x="1384" d="M145 -354v1391h249l20 -88q29 24 64.5 46t77.5 38.5t89.5 26.5t100.5 10q127 0 229.5 -43.5t175 -118t111.5 -175t39 -214.5t-38 -214.5t-109 -175.5t-173 -118.5t-230 -43.5q-94 0 -167.5 25.5t-129.5 66.5v-413h-309zM439 518q0 -64 22 -116.5t59.5 -90t88 -58 t107.5 -20.5q58 0 108.5 20.5t87.5 57.5t58 90t21 117q0 65 -21.5 118t-59 91t-88 58.5t-107.5 20.5q-58 0 -108 -20.5t-87.5 -58t-59 -91t-21.5 -118.5z" />
<glyph unicode="q" horiz-adv-x="1400" d="M85 520q0 114 39 214.5t111.5 175.5t175 118.5t229.5 43.5q52 0 98.5 -11.5t88 -31t76.5 -45t64 -52.5l24 106h249v-1392h-307l-1 414q-57 -41 -130.5 -67t-167.5 -26q-128 0 -229.5 44t-172.5 119t-109 175.5t-38 214.5zM394 519q0 -64 21 -117t58 -90t87.5 -57.5 t108.5 -20.5t108.5 20.5t88 58t59 90t21.5 116.5q0 65 -21.5 118t-59 90.5t-87.5 58t-108 20.5q-57 0 -107 -20.5t-87.5 -58.5t-59.5 -90.5t-22 -117.5z" />
<glyph unicode="r" horiz-adv-x="900" d="M142 0v1037h248l24 -98q50 42 121.5 70t168.5 28h147v-269l-130 -1q-128 0 -199.5 -71t-71.5 -214v-482h-308z" />
<glyph unicode="s" horiz-adv-x="1064" d="M70 69l86 256q54 -31 100.5 -51.5t87.5 -32.5t77 -17t69 -5q88 0 133 23t45 65q0 25 -15.5 40.5t-47 27t-80 21.5t-115.5 25q-46 9 -101.5 25.5t-104 49.5t-81.5 89t-33 145q0 159 112.5 249.5t333.5 90.5q122 0 228 -22.5t209 -71.5l-80 -241q-81 33 -170.5 58.5 t-177.5 25.5q-39 0 -65.5 -7t-43.5 -19t-24 -27.5t-7 -32.5q0 -38 45.5 -57t150.5 -33q82 -15 156 -33.5t129.5 -52.5t88.5 -88.5t33 -140.5t-37 -153.5t-102 -114t-153.5 -71t-192.5 -24.5q-65 0 -122 4.5t-111 16t-107.5 32t-112.5 51.5z" />
<glyph unicode="t" horiz-adv-x="896" d="M29 772v236l157 60l94 255l222 2v-288h301v-265h-301v-364q0 -48 11.5 -79.5t31 -50t46.5 -25.5t58 -7h173l-2 -253h-201q-87 0 -164.5 15.5t-135.5 60t-91.5 125t-33.5 211.5v367h-165z" />
<glyph unicode="u" horiz-adv-x="1290" d="M115 485v552h310v-542q0 -74 15 -124.5t43.5 -81t69.5 -43.5t92 -13t92 13t69.5 43.5t43.5 80.5t15 125v542h310v-552q0 -142 -40 -240.5t-111 -160t-168 -89.5t-211 -28t-211 28t-168 89.5t-111 160t-40 240.5z" />
<glyph unicode="v" horiz-adv-x="1185" d="M20 1037h331l240 -623h2l241 623h332l-435 -1037h-277z" />
<glyph unicode="w" horiz-adv-x="1782" d="M21 1037h331l203 -548l20 -75h6l19 75l127 314l-98 234h331l223 -548l18 -75h7l19 75l203 548h333l-420 -1037h-277l-189 448l-160 -448h-278z" />
<glyph unicode="x" horiz-adv-x="1190" d="M32 0l352 540l-332 497h365l178 -289l179 289h362l-330 -496l353 -541h-368l-199 322l-200 -322h-360z" />
<glyph unicode="y" horiz-adv-x="1177" d="M16 1036h341l224 -552l17 -64l246 616l332 1l-443 -1019q-50 -122 -95.5 -193.5t-97.5 -109.5t-116.5 -49t-151.5 -11h-156l-2 253h173q27 0 47 13.5t35.5 37t29 55.5t27.5 68z" />
<glyph unicode="z" horiz-adv-x="1104" d="M67 0v191l497 582h-470v264h908v-194l-492 -578h518v-265h-961z" />
<glyph unicode="{" horiz-adv-x="766" d="M55 558v242q53 5 87 18.5t54 40.5t27.5 70t7.5 108v223q-1 199 108.5 297.5t345.5 98.5h25l1 -246q-53 -3 -88 -7.5t-56 -19.5t-29.5 -43t-8.5 -77v-288q0 -115 -38 -184.5t-106 -111.5q39 -21 66.5 -53.5t45 -72t25 -83.5t7.5 -88v-246q0 -64 6.5 -100.5t26 -55 t55.5 -24.5t94 -9l-1 -247q-106 0 -194.5 17.5t-152 62.5t-98 121.5t-34.5 195.5v224q0 64 -6.5 107t-26 70.5t-53.5 41t-90 18.5z" />
<glyph unicode="|" horiz-adv-x="591" d="M146 -380v2011h299v-2011h-299z" />
<glyph unicode="}" horiz-adv-x="766" d="M52 -53q59 3 94.5 9t55 24.5t26 55t6.5 100.5v246q0 44 8 88t25 83.5t44.5 72t67.5 53.5q-68 42 -106.5 111.5t-38.5 184.5v288q0 49 -8.5 77t-29.5 43t-56 19.5t-88 7.5l1 246h25q236 0 346 -98.5t109 -297.5l-1 -223q0 -65 7.5 -108t27.5 -70t54 -40.5t87 -18.5v-242 q-55 -5 -89.5 -18.5t-54 -41t-26 -70.5t-6.5 -107l1 -224q0 -119 -35 -195.5t-98.5 -121.5t-152 -62.5t-194.5 -17.5z" />
<glyph unicode="~" horiz-adv-x="1221" d="M122 699q22 18 51.5 36.5t64.5 33.5t74 24.5t80 9.5q62 0 118.5 -18t109.5 -39.5t103 -39.5t98 -18q79 0 134.5 23.5t103.5 57.5l41 -231q-21 -18 -51 -36.5t-65.5 -33.5t-75.5 -24.5t-82 -9.5q-60 0 -117.5 18t-111.5 40t-104.5 40t-96.5 18q-68 0 -127.5 -22.5 t-107.5 -60.5z" />
<glyph unicode="&#xa2;" horiz-adv-x="1308" d="M95 518q0 97 31 185t88.5 159.5t138 121.5t179.5 72v190h293v-194q139 -33 243 -127l-186 -196q-36 36 -90 55.5t-119 19.5q-54 0 -103 -19.5t-86 -56t-58.5 -89.5t-21.5 -120t22 -119.5t58.5 -89.5t85.5 -56.5t103 -19.5q137 0 211 77l187 -196q-53 -49 -115 -82 t-133 -49v-153h-291v152q-99 22 -179.5 72t-137.5 120.5t-88.5 158t-31.5 184.5z" />
<glyph unicode="&#xa3;" horiz-adv-x="1183" d="M82 0v204q33 15 60.5 45.5t50 70.5t39.5 86t28 94h-127v260h135q-7 37 -16 70t-17 64t-14 60.5t-6 60.5q0 99 33 170.5t92.5 118t140.5 68.5t177 22q70 0 147.5 -22t143 -73.5t108 -136.5t42.5 -211l-304 -1q0 36 -9.5 69t-27 58t-41 40t-51.5 15q-65 0 -100.5 -34 t-35.5 -106q0 -29 5 -55.5t12.5 -54.5t15.5 -57.5t14 -64.5h270l2 -261h-279q-8 -38 -19.5 -74.5t-25 -68t-29 -56t-31.5 -38.5h657v-262h-1040z" />
<glyph unicode="&#xa5;" horiz-adv-x="1299" d="M37 1360h345l266 -455l267 455h344l-374 -583h276v-225h-1023v224h272zM138 203v223l1022 1v-224h-363v-203h-298v203h-361z" />
<glyph unicode="&#xa8;" horiz-adv-x="868" d="M114 1288q0 24 9.5 46t27.5 38t43.5 25.5t56.5 9.5q32 0 57.5 -9.5t43.5 -25.5t28 -38t10 -46q0 -25 -10 -46.5t-28 -38t-43.5 -26t-57.5 -9.5q-31 0 -56.5 9.5t-43.5 26t-27.5 38t-9.5 46.5zM500 1288q0 24 10 46t28 38t43.5 25.5t56.5 9.5q32 0 57.5 -9.5t43.5 -25.5 t28 -38t10 -46q0 -25 -10 -46.5t-28 -38t-43.5 -26t-57.5 -9.5q-31 0 -56.5 9.5t-43.5 26t-28 38t-10 46.5z" />
<glyph unicode="&#xa9;" horiz-adv-x="1648" d="M80 682q0 149 56.5 279t156.5 227t236 153t295 56q158 0 294 -56t236 -153t157 -227t57 -279q0 -148 -57 -278.5t-157 -227.5t-236 -153.5t-294 -56.5q-159 0 -295 56.5t-236 153.5t-156.5 227.5t-56.5 278.5zM263 682q0 -126 44 -228.5t120 -175.5t178 -113t219 -40 q118 0 220.5 40t178.5 113t119.5 175.5t43.5 228.5t-43.5 228t-119.5 175t-178.5 112.5t-220.5 39.5q-117 0 -219 -39.5t-178 -112.5t-120 -175t-44 -228zM382 680q0 89 32.5 167.5t91.5 137t141 93t181 34.5q102 0 173 -34.5t124 -91.5l-124 -103q-1 1 -11 11.5t-30 23 t-51 22.5t-74 10q-53 0 -99 -20t-79.5 -55.5t-53 -85t-19.5 -108.5q0 -58 19.5 -107.5t53.5 -84.5t80 -55t99 -20q44 0 75 9.5t53 23.5q24 14 40 32l122 -107q-56 -56 -127 -88t-172 -32q-98 0 -179.5 34t-140.5 92.5t-92 136t-33 165.5z" />
<glyph unicode="&#xab;" horiz-adv-x="1418" d="M115 488l282 380h317l-284 -380l284 -380l-317 -1zM679 488l283 380h317l-285 -380l284 -380l-316 -1z" />
<glyph unicode="&#xad;" d="M122 360v256h614v-256h-614z" />
<glyph unicode="&#xae;" horiz-adv-x="1648" d="M80 682q0 149 56.5 279t156.5 227t236 153t295 56q158 0 294 -56t236 -153t157 -227t57 -279q0 -148 -57 -278.5t-157 -227.5t-236 -153.5t-294 -56.5q-159 0 -295 56.5t-236 153.5t-156.5 227.5t-56.5 278.5zM263 682q0 -126 44 -228.5t120 -175.5t178 -113t219 -40 q118 0 220.5 40t178.5 113t119.5 175.5t43.5 228.5t-43.5 228t-119.5 175t-178.5 112.5t-220.5 39.5q-117 0 -219 -39.5t-178 -112.5t-120 -175t-44 -228zM525 262v837h355q61 0 114.5 -21t93.5 -58.5t63.5 -89t23.5 -112.5q0 -80 -37 -141t-98 -97l157 -318h-211l-132 277 h-131v-277h-198zM723 698h139q23 0 44 9.5t37 25.5t25 38t9 47t-9 47t-24.5 38.5t-36 26t-44.5 9.5h-140v-241z" />
<glyph unicode="&#xb4;" horiz-adv-x="471" d="M9 1152l189 320l225 -81l-197 -239h-217z" />
<glyph unicode="&#xb8;" horiz-adv-x="414" d="M60 -521l60 157q24 -13 47.5 -21t52.5 -8q14 0 28.5 6t26.5 17t20 26.5t8 34.5q0 25 -12.5 41.5t-32 26.5t-42 14.5t-42.5 4.5v1l-1 -1l98 260l148 -3l-54 -137q71 -25 111 -76.5t40 -124.5q0 -59 -23 -108.5t-60.5 -85.5t-86.5 -56t-100 -20q-57 0 -104.5 11t-81.5 41z " />
<glyph unicode="&#xbb;" horiz-adv-x="1399" d="M138 108l284 380l-284 380h317l282 -380l-282 -381zM702 108l284 380l-284 380h317l282 -380l-282 -381z" />
<glyph unicode="&#x2c6;" horiz-adv-x="777" d="M38 1304l349 207l352 -207l-92 -167l-259 145l-258 -145z" />
<glyph unicode="&#x2da;" horiz-adv-x="551" d="M16 1260q0 47 18.5 88.5t52 72.5t81 48.5t105.5 17.5q59 0 107 -17.5t81.5 -48.5t52 -72.5t18.5 -88.5q0 -46 -18.5 -87.5t-52.5 -72t-81.5 -48.5t-106.5 -18t-106.5 18t-81 48.5t-51.5 72t-18 87.5zM186 1259q0 -32 24.5 -55t63.5 -23t63.5 23t24.5 55q0 35 -24.5 58 t-63.5 23t-63.5 -23t-24.5 -58z" />
<glyph unicode="&#x2dc;" d="M83 1202q13 37 34.5 70.5t50.5 59t64 41t74 15.5q4 0 7.5 -0.5t7.5 -0.5q43 -2 76.5 -12t61 -21.5t51 -20.5t46.5 -9q31 0 57.5 18.5t46.5 63.5l127 -90q-34 -91 -93 -145.5t-142 -54.5q-45 0 -83.5 10t-70 21.5t-57 21.5t-45.5 10q-24 0 -45.5 -11.5t-43.5 -54.5z" />
<glyph unicode="&#x401;" horiz-adv-x="1188" d="M142 0v1360h958v-273h-641v-278h550v-272h-550v-265h650v-272h-967zM283 1680q0 24 9.5 46t27.5 38t43.5 25.5t56.5 9.5q32 0 57.5 -9.5t43.5 -25.5t28 -38t10 -46q0 -25 -10 -46.5t-28 -38t-43.5 -26t-57.5 -9.5q-31 0 -56.5 9.5t-43.5 26t-27.5 38t-9.5 46.5zM669 1680 q0 24 10 46t28 38t43.5 25.5t56.5 9.5q32 0 57.5 -9.5t43.5 -25.5t28 -38t10 -46q0 -25 -10 -46.5t-28 -38t-43.5 -26t-57.5 -9.5q-31 0 -56.5 9.5t-43.5 26t-28 38t-10 46.5z" />
<glyph unicode="&#x402;" horiz-adv-x="1574" d="M28 1088v272h1114v-272h-399v-270q39 48 105 80.5t163 32.5q115 0 198.5 -37.5t138 -104t80.5 -157.5t26 -198v-451q0 -102 -28.5 -172.5t-77.5 -114.5t-114.5 -64t-139.5 -20q-56 0 -98 14.5t-72 33.5t-48 36.5t-26 23.5l131 184q7 -4 12.5 -8.5t12.5 -8.5t17 -7t26 -3 q47 0 67.5 31t20.5 91v435q0 65 -12 108.5t-35.5 70t-58 37.5t-79.5 11q-46 0 -84.5 -20t-66 -54t-42.5 -79t-15 -96v-82l-1 -1v-329h-316v1088h-399z" />
<glyph unicode="&#x403;" horiz-adv-x="1162" d="M143 0v1360h958v-273h-641v-1087h-317zM507 1550l189 320l225 -81l-197 -239h-217z" />
<glyph unicode="&#x404;" horiz-adv-x="1444" d="M93 682q0 149 58.5 279t159.5 227t236.5 153t289.5 56q81 0 157 -16t145.5 -46t131 -72.5t112.5 -95.5l-226 -192q-58 69 -140.5 109t-179.5 40q-72 0 -136.5 -23t-116 -64.5t-88 -97.5t-52.5 -122h667l2 -273h-669q16 -66 53 -122t88.5 -97t116 -64t135.5 -23 q97 0 179.5 40t140.5 110l225 -192q-103 -107 -243.5 -168.5t-301.5 -61.5q-154 0 -289.5 56.5t-236.5 153.5t-159.5 227.5t-58.5 278.5z" />
<glyph unicode="&#x405;" horiz-adv-x="1174" d="M49 101l97 274q42 -19 99 -42.5t120.5 -43.5t130 -33.5t128.5 -13.5q69 0 115.5 11.5t75.5 32t41.5 49.5t12.5 63q0 39 -21.5 66t-63 48t-102 39t-138.5 40q-38 10 -86.5 23.5t-98.5 33t-97.5 47t-85 64.5t-60 85.5t-22.5 110.5q0 102 33 183.5t101.5 138.5t174.5 87 t251 30q74 0 143 -11t132.5 -29t121.5 -40t111 -45l-85 -263q-28 14 -81.5 33.5t-117 37.5t-130.5 30.5t-123 12.5q-64 0 -105.5 -11t-65.5 -30t-33.5 -42.5t-9.5 -49.5q0 -35 22.5 -60.5t61.5 -44t92 -31.5t115 -24q107 -25 196.5 -56.5t154.5 -80.5t101.5 -122t36.5 -181 q0 -103 -44.5 -181.5t-123.5 -131.5t-186.5 -80.5t-232.5 -27.5q-94 0 -176 12.5t-151.5 32t-126.5 43.5t-101 47z" />
<glyph unicode="&#x406;" horiz-adv-x="600" d="M142 0v1360h317v-1360h-317z" />
<glyph unicode="&#x407;" horiz-adv-x="600" d="M-12 1686q0 24 9.5 46t27.5 38t43.5 25.5t56.5 9.5q32 0 57.5 -9.5t43.5 -25.5t28 -38t10 -46q0 -25 -10 -46.5t-28 -38t-43.5 -26t-57.5 -9.5q-31 0 -56.5 9.5t-43.5 26t-27.5 38t-9.5 46.5zM142 0v1360h317v-1360h-317zM374 1686q0 24 10 46t28 38t43.5 25.5t56.5 9.5 q32 0 57.5 -9.5t43.5 -25.5t28 -38t10 -46q0 -25 -10 -46.5t-28 -38t-43.5 -26t-57.5 -9.5q-31 0 -56.5 9.5t-43.5 26t-28 38t-10 46.5z" />
<glyph unicode="&#x408;" horiz-adv-x="854" d="M52 0v273h174q92 0 136.5 47t44.5 136l1 904h315v-906q0 -111 -36.5 -196t-102 -142.5t-157 -86.5t-201.5 -29h-174z" />
<glyph unicode="&#x409;" horiz-adv-x="2178" d="M-5 -18l55 263q2 0 11 -1t19 -2t19.5 -1.5t12.5 -0.5q47 0 72.5 30t25.5 90v1000h1183v-493h234q113 0 202.5 -33.5t151.5 -92t94.5 -137.5t32.5 -169q0 -100 -38 -180.5t-104 -137t-154.5 -87t-188.5 -30.5h-547v1087h-550v-743q0 -102 -35.5 -173.5t-93 -116.5 t-129.5 -65.5t-146 -20.5q-38 0 -70.5 4t-56.5 10zM1393 273h223q36 0 68 11t55.5 31.5t37.5 50.5t14 69q0 40 -14.5 70t-38.5 50t-55.5 30t-66.5 10h-223v-322z" />
<glyph unicode="&#x40a;" horiz-adv-x="2182" d="M171 0v1360h318v-505h610l1 -1v506h317v-504h235q113 0 202 -33t151 -90t95 -135t33 -168q0 -100 -38.5 -180t-104.5 -135.5t-154.5 -85t-188.5 -29.5h-547v584l-1 -1h-610v-583h-318zM1417 273h224q36 0 67.5 10t55.5 29.5t38 49t14 68.5t-14.5 68t-38.5 48t-56 28.5 t-67 9.5h-223v-311z" />
<glyph unicode="&#x40b;" horiz-adv-x="1574" d="M28 1088v272h1114v-272h-399v-270q39 48 105 80.5t163 32.5q115 0 198.5 -37.5t138 -104t80.5 -157.5t26 -198v-434h-317v434q0 65 -12 108.5t-35.5 70t-58 37.5t-79.5 11q-46 0 -84.5 -20t-66 -54t-42.5 -79t-15 -96v-82l-1 -1v-329h-316v1088h-399z" />
<glyph unicode="&#x40c;" horiz-adv-x="1393" d="M142 0v1360h317v-684l526 684h368l-477 -606l498 -754h-374l-330 521l-211 -267v-254h-317zM618 1550l189 320l225 -81l-197 -239h-217z" />
<glyph unicode="&#x40e;" horiz-adv-x="1291" d="M20 1360h348l279 -593l278 593h348l-580 -1188q-27 -54 -68 -93t-90.5 -64t-104 -37t-110.5 -12q-38 0 -70 4t-56 10l54 262q2 0 11 -1t19 -1.5t19.5 -1t12.5 -0.5q29 0 54 9.5t37 36.5l74 147zM311 1845l210 14q9 -23 19 -41t24.5 -30.5t35 -19t51.5 -6.5t51.5 6.5 t35 19t24.5 30.5t19 41l210 -14q-5 -64 -28.5 -118.5t-66 -94t-104 -61.5t-141.5 -22t-141.5 22t-104 61.5t-66 94t-28.5 118.5z" />
<glyph unicode="&#x40f;" horiz-adv-x="1511" d="M157 0v1360h317v-1087h566v1087h315v-1165h-5l-5 -195h-431v-371h-316v371h-441z" />
<glyph unicode="&#x410;" horiz-adv-x="1460" d="M22 0l557 1361h298l557 -1361h-334l-87 216h-570l-86 -216h-335zM552 486h352l-165 411l-10 44h-2l-10 -44z" />
<glyph unicode="&#x411;" horiz-adv-x="1259" d="M142 0v1360h925v-272h-608v-221h235q113 0 202 -33.5t151 -92t94.5 -137.5t32.5 -169q0 -100 -38 -180.5t-104 -137t-154.5 -87t-188.5 -30.5h-547zM459 273h223q36 0 68 11t56 31.5t38 50.5t14 69q0 40 -14.5 70t-39 50t-56 30t-66.5 10h-223v-322z" />
<glyph unicode="&#x412;" horiz-adv-x="1324" d="M142 0v1360h605q100 0 181 -25.5t138.5 -74t88.5 -119t31 -161.5q0 -42 -13.5 -83t-36 -75.5t-52.5 -60.5t-63 -40q49 -17 92.5 -47.5t76.5 -71.5t52 -90.5t19 -105.5q0 -109 -40 -186.5t-104.5 -126t-146.5 -71t-166 -22.5h-662zM458 261h314q25 0 53.5 9.5t52.5 29 t40 49.5t16 71q0 36 -13 64.5t-35 49t-51.5 31.5t-62.5 11h-314v-315zM458 815h270q25 0 49 10t43 28.5t31 44.5t12 58q0 31 -11.5 57.5t-30.5 45.5t-43 29.5t-49 10.5h-271v-284z" />
<glyph unicode="&#x413;" horiz-adv-x="1132" d="M142 0v1360h958v-273h-641v-1087h-317z" />
<glyph unicode="&#x414;" horiz-adv-x="1556" d="M46 273h86q26 20 50 54.5t44.5 77t37.5 90t30 93t21 86t11 68.5l66 618h956v-1087h156v-577h-316v304h-827v-304h-315v577zM501 273h532v814h-352l-40 -378q-14 -132 -47.5 -239.5t-92.5 -196.5z" />
<glyph unicode="&#x415;" horiz-adv-x="1188" d="M142 0v1360h958v-273h-641v-278h550v-272h-550v-265h650v-272h-967z" />
<glyph unicode="&#x416;" horiz-adv-x="2114" d="M55 1360h397l415 -485l31 33v452h318v-452l31 -34l415 486h397l-605 -709l602 -651h-405l-435 463v-463h-318v463l-434 -463h-406l602 651z" />
<glyph unicode="&#x417;" horiz-adv-x="1266" d="M44 165l194 187q33 -32 74 -54t86 -35.5t90.5 -19t85.5 -5.5q46 0 94.5 9.5t88 29.5t65 51t25.5 75q0 46 -20 76t-60 48t-99.5 27t-139.5 13h-204v272h249q59 4 101 12.5t69.5 25t40.5 42t13 62.5q0 39 -19 66.5t-50.5 45t-73 25.5t-86.5 8q-31 0 -68.5 -3t-77 -11.5 t-78.5 -24.5t-73 -42l-160 202q36 40 89.5 68.5t117 47t133.5 27.5t138 9q118 0 214.5 -27.5t165.5 -80.5t107 -131t38 -180q0 -54 -15.5 -98t-41.5 -79t-60 -61t-72 -44q45 -14 88.5 -38t77 -61.5t54.5 -89.5t21 -123q0 -109 -51 -188.5t-133.5 -131t-186.5 -76t-210 -24.5 q-79 0 -157 10t-148.5 33t-131 61t-104.5 95z" />
<glyph unicode="&#x418;" horiz-adv-x="1524" d="M142 0v1360h315v-813l649 813h276v-1360h-317v815l-649 -815h-274z" />
<glyph unicode="&#x419;" horiz-adv-x="1524" d="M142 0v1360h315v-813l649 813h276v-1360h-317v815l-649 -815h-274zM422 1818l210 14q9 -23 19 -41t24.5 -30.5t35 -19t51.5 -6.5t51.5 6.5t35 19t24.5 30.5t19 41l210 -14q-5 -64 -28.5 -118.5t-66 -94t-104 -61.5t-141.5 -22t-141.5 22t-104 61.5t-66 94t-28.5 118.5z " />
<glyph unicode="&#x41a;" horiz-adv-x="1393" d="M142 0v1360h317v-684l526 684h368l-477 -606l498 -754h-374l-330 521l-211 -267v-254h-317z" />
<glyph unicode="&#x41b;" horiz-adv-x="1535" d="M-5 -18l55 263q2 0 11 -1t19 -2t19.5 -1.5t12.5 -0.5q47 0 72.5 30t25.5 90v1000h1183v-1360h-315v1087h-552v-743q0 -102 -35.5 -173.5t-93 -116.5t-129.5 -65.5t-146 -20.5q-38 0 -70.5 4t-56.5 10z" />
<glyph unicode="&#x41c;" horiz-adv-x="1688" d="M142 0v1360h278l423 -578l428 578h277v-1360h-316v841l-350 -480h-79l-344 483v-844h-317z" />
<glyph unicode="&#x41d;" horiz-adv-x="1512" d="M142 0v1360h317v-551h593v551h318v-1360h-318v537h-593v-537h-317z" />
<glyph unicode="&#x41e;" horiz-adv-x="1672" d="M92 682q0 149 58.5 278.5t159 226t236 152t289.5 55.5t289.5 -55.5t236.5 -152t159.5 -226t58.5 -278.5q0 -148 -58.5 -278t-159.5 -226.5t-236.5 -152.5t-289.5 -56t-289.5 56t-236 152.5t-159 226.5t-58.5 278zM408 681q0 -94 33.5 -174.5t91.5 -139.5t136 -92.5 t166 -33.5q90 0 168 33.5t135.5 92.5t91 139.5t33.5 174.5t-33.5 174.5t-91 139.5t-135.5 92.5t-168 33.5q-88 0 -166 -33.5t-136 -92.5t-91.5 -139.5t-33.5 -174.5z" />
<glyph unicode="&#x41f;" horiz-adv-x="1512" d="M142 0v1360h1237v-1360h-316v1087h-604v-1087h-317z" />
<glyph unicode="&#x420;" horiz-adv-x="1258" d="M142 0v1360h587q107 0 197.5 -35.5t155.5 -98.5t101.5 -149.5t36.5 -189.5q0 -104 -36 -190.5t-100.5 -148.5t-154 -96.5t-195.5 -34.5h-275v-417h-317zM459 689h257q39 0 73 15.5t59.5 42t40 62.5t14.5 78q0 41 -14.5 77.5t-40 64t-59.5 43.5t-73 16h-257v-399z" />
<glyph unicode="&#x421;" horiz-adv-x="1442" d="M92 682q0 149 58.5 278.5t159 226t236 152t289.5 55.5q81 0 154 -16.5t138 -45.5t122 -70t106 -90l-193 -205q-59 74 -145 114t-182 40q-88 0 -166 -33.5t-136 -92.5t-91.5 -139.5t-33.5 -174.5t33.5 -174.5t91.5 -139.5t136 -92.5t166 -33.5q95 0 181.5 41t146.5 113 l192 -204q-45 -46 -101 -86.5t-122 -70.5t-140.5 -47.5t-156.5 -17.5q-154 0 -289.5 56t-236 152.5t-159 226.5t-58.5 278z" />
<glyph unicode="&#x422;" horiz-adv-x="1169" d="M47 1088v272h1076v-272h-380v-1088h-316v1088h-380z" />
<glyph unicode="&#x423;" horiz-adv-x="1291" d="M20 1360h348l279 -593l278 593h348l-580 -1188q-27 -54 -68 -93t-90.5 -64t-104 -37t-110.5 -12q-38 0 -70 4t-56 10l54 262q2 0 11 -1t19 -1.5t19.5 -1t12.5 -0.5q29 0 54 9.5t37 36.5l74 147z" />
<glyph unicode="&#x424;" horiz-adv-x="1708" d="M78 682q0 131 44 232t125 172.5t195.5 114.5t255.5 58v101h315v-101q140 -15 254 -58t195 -114.5t125 -172.5t44 -232q0 -130 -44 -231t-125 -173t-195 -115.5t-254 -58.5v-104h-315v104q-141 15 -255.5 58t-195.5 115t-125 173t-44 232zM395 681q0 -72 23.5 -124.5 t64.5 -88.5t96 -57.5t119 -31.5v604q-64 -10 -119 -31t-96 -57t-64.5 -88.5t-23.5 -125.5zM1013 379q63 10 118 31.5t95.5 57.5t64 88.5t23.5 124.5t-23.5 124.5t-64 88.5t-95.5 57t-118 31v-603z" />
<glyph unicode="&#x425;" horiz-adv-x="1449" d="M28 0l498 714l-448 646h372l274 -417l274 417h372l-448 -646l498 -714h-373l-323 488l-322 -488h-374z" />
<glyph unicode="&#x426;" horiz-adv-x="1650" d="M142 0v1360h317v-1087h566v1087h315v-1087h223v-577h-316v304h-1105z" />
<glyph unicode="&#x427;" horiz-adv-x="1325" d="M123 860v500h316v-500q0 -65 13.5 -108.5t39 -69.5t61.5 -37t81 -11q47 0 85.5 20t65.5 53.5t42 78.5t15 96v478h318v-1360h-308l-2 485q-38 -50 -106.5 -85.5t-168.5 -35.5q-114 0 -199 37.5t-141.5 103.5t-84 157t-27.5 198z" />
<glyph unicode="&#x428;" horiz-adv-x="2108" d="M142 0v1360h317v-1087h437v1087h315v-1087h440v1087h316v-1360h-1825z" />
<glyph unicode="&#x429;" horiz-adv-x="2286" d="M142 0v1360h317v-1087h437v1087h315v-1087h440v1087h316v-1087h222v-577h-315v304h-1732z" />
<glyph unicode="&#x42a;" horiz-adv-x="1446" d="M31 1087v273h616v-417h276q106 0 195 -34.5t153.5 -96.5t101 -148.5t36.5 -190.5q0 -103 -36.5 -189.5t-101.5 -149.5t-155.5 -98.5t-197.5 -35.5h-588v1087h-299zM647 272h258q39 0 73 16t59 43.5t39.5 64t14.5 77.5q0 42 -14.5 78t-39.5 62.5t-59 42t-73 15.5h-258 v-399z" />
<glyph unicode="&#x42b;" horiz-adv-x="1838" d="M142 0v1360h317v-417h275q106 0 195.5 -34.5t154 -96.5t100.5 -148.5t36 -190.5q0 -103 -36.5 -189.5t-101.5 -149.5t-155.5 -98.5t-197.5 -35.5h-587zM459 272h257q39 0 73 16t59.5 43.5t40 64t14.5 77.5q0 42 -14.5 78t-40 62.5t-59.5 42t-73 15.5h-257v-399zM1343 0 v1360h317v-1360h-317z" />
<glyph unicode="&#x42c;" horiz-adv-x="1258" d="M142 0v1360h317v-417h275q106 0 195.5 -34.5t154 -96.5t100.5 -148.5t36 -190.5q0 -103 -36.5 -189.5t-101.5 -149.5t-155.5 -98.5t-197.5 -35.5h-587zM459 272h257q39 0 73 16t59.5 43.5t40 64t14.5 77.5q0 42 -14.5 78t-40 62.5t-59.5 42t-73 15.5h-257v-399z" />
<glyph unicode="&#x42d;" horiz-adv-x="1483" d="M116 1167q51 53 112.5 95.5t131 72.5t145.5 46t157 16q154 0 289.5 -56t236.5 -153t159.5 -227t58.5 -279q0 -148 -58.5 -278.5t-159.5 -227.5t-236.5 -153.5t-289.5 -56.5q-161 0 -301.5 61.5t-243.5 168.5l225 192q58 -70 140.5 -110t179.5 -40q72 0 136 23t116 64 t88.5 97t52.5 122h-667v273h668q-16 66 -52.5 122t-88.5 97.5t-116.5 64.5t-136.5 23q-97 0 -179.5 -40t-140.5 -109z" />
<glyph unicode="&#x42e;" horiz-adv-x="2263" d="M142 0v1360h317v-1360h-317zM373 558h595v255h-595v-255zM711 682q0 149 58.5 278.5t159 226t236 152t289.5 55.5t289.5 -55.5t236.5 -152t159.5 -226t58.5 -278.5q0 -148 -58.5 -278t-159.5 -226.5t-236.5 -152.5t-289.5 -56t-289.5 56t-236 152.5t-159 226.5t-58.5 278 zM1027 681q0 -94 33.5 -174.5t91.5 -139.5t136 -92.5t166 -33.5q90 0 168 33.5t135.5 92.5t91 139.5t33.5 174.5t-33.5 174.5t-91 139.5t-135.5 92.5t-168 33.5q-88 0 -166 -33.5t-136 -92.5t-91.5 -139.5t-33.5 -174.5z" />
<glyph unicode="&#x42f;" horiz-adv-x="1296" d="M62 0l256 525q-90 60 -143 155.5t-53 218.5q0 100 38 184.5t104 146t154.5 96t188.5 34.5h547v-1360h-316v441h-218l-209 -441h-349zM438 899q0 -40 14.5 -74t39 -59t56.5 -39t66 -14h224v375h-225q-36 0 -67.5 -15t-55.5 -41t-38 -60.5t-14 -72.5z" />
<glyph unicode="&#x430;" horiz-adv-x="1241" d="M96 337q0 86 40 143.5t111 91.5t167.5 48t209.5 14q44 0 92.5 -1t96.5 -2v70q-2 51 -54 84t-140 33q-37 0 -70.5 -8.5t-58 -22t-39 -31.5t-14.5 -38l-312 -1q3 89 40 155t100.5 110t151.5 66t194 22q117 0 211.5 -23.5t161.5 -68t103 -110t36 -149.5v-719h-250l-22 96 q-79 -58 -180 -90.5t-201 -32.5q-87 0 -156 23.5t-117.5 70t-74.5 114.5t-26 156zM413 323q0 -30 12.5 -50.5t34.5 -33t51 -18.5t62 -6q29 0 64.5 6t69.5 19t62 33.5t43 48.5v97q-30 1 -64.5 2t-82.5 1q-52 0 -98 -4.5t-80 -15.5t-54 -30t-20 -49z" />
<glyph unicode="&#x431;" horiz-adv-x="1335" d="M96 518v452q0 114 42 215.5t118.5 177t182.5 120t233 44.5q39 0 80 -6.5t83 -15t85 -15t86 -6.5q39 0 74 7l-16 -248q-26 -9 -52 -13t-52 -4q-37 0 -74 5.5t-73 12t-71 12t-68 5.5q-56 0 -105 -21t-85 -59t-57 -91.5t-21 -118.5v-27q56 56 130.5 93t170.5 37 q128 0 229.5 -44t171.5 -120t107 -177t37 -215t-42.5 -215.5t-119 -177t-183.5 -119.5t-236 -44q-127 0 -232.5 44t-181.5 120t-118.5 177t-42.5 215zM406 519q0 -64 21 -117.5t57.5 -92t85.5 -59.5t105 -21t105 21t85.5 59t57.5 91.5t21 118.5q0 64 -21 117t-57.5 91 t-86 59t-105.5 21t-105 -21t-85 -59t-57 -91t-21 -117z" />
<glyph unicode="&#x432;" horiz-adv-x="1151" d="M145 0v1037h493q86 0 154.5 -19t116.5 -56.5t74 -93t26 -129.5q0 -31 -10.5 -61t-28 -55.5t-40 -44t-46.5 -27.5q36 -14 69.5 -36.5t58.5 -52.5t40 -66t15 -77q0 -91 -34 -152.5t-88.5 -98.5t-123 -52.5t-137.5 -15.5h-539zM452 254h207q44 0 71.5 24.5t27.5 61.5 q0 35 -27.5 59.5t-72.5 24.5h-206v-170zM452 639h171q30 0 55.5 20.5t25.5 53.5q0 32 -25 54t-56 22h-171v-150z" />
<glyph unicode="&#x433;" horiz-adv-x="999" d="M156 0v1036h795v-265h-484v-771h-311z" />
<glyph unicode="&#x434;" horiz-adv-x="1516" d="M85 -217v479h83q44 38 78.5 85.5t60 108.5t42.5 136.5t25 169.5l25 275h889v-775h107v-479h-266l-46 217h-687l-46 -217h-265zM491 262h489v512h-298l-12 -119q-7 -70 -21 -126t-36 -103t-52 -86.5t-70 -77.5z" />
<glyph unicode="&#x435;" horiz-adv-x="1212" d="M66 530q0 113 42 213.5t118 176t181 119.5t232 44q111 0 200.5 -26.5t152.5 -74.5t97.5 -115t34.5 -148q0 -64 -18 -122t-61.5 -101.5t-116 -69t-180.5 -25.5h-358q34 -75 102 -118t150 -43q48 0 83 6t62 16.5t48.5 25t43.5 31.5l168 -184q-27 -26 -67.5 -54t-92 -51 t-114.5 -38t-135 -15q-126 0 -231 44t-180.5 119.5t-118 176t-42.5 213.5zM386 651h313q60 0 95.5 21t35.5 57q0 17 -11 34.5t-34 32t-57 23.5t-81 9q-43 0 -82.5 -12.5t-73.5 -36t-61 -56t-44 -72.5z" />
<glyph unicode="&#x436;" horiz-adv-x="1786" d="M44 0l438 487l22 20l-459 530h383l296 -328l11 10v1l-5 317h311l-5 -318l13 -12l298 330h382l-461 -530l22 -20l437 -487h-387l-299 318v-318h-311l2 322l-2 -4l-299 -318h-387z" />
<glyph unicode="&#x437;" horiz-adv-x="1131" d="M71 59l68 220q50 -23 139.5 -36.5t213.5 -13.5q45 0 86 4.5t71.5 15t49 27t18.5 40.5q0 23 -20 38t-53 24t-75.5 12.5t-87.5 3.5h-228l4 278h233q37 0 68.5 4t55 13t36.5 22.5t13 31.5q0 35 -44 55t-120 20q-36 0 -84.5 -3.5t-93.5 -8.5t-80 -10t-45 -8l-60 221 q31 15 77 27.5t96 21.5t100 14t90 5q98 0 184 -16t150.5 -53.5t101.5 -99t37 -152.5q0 -47 -15 -82t-39 -60.5t-54.5 -41.5t-60.5 -24q36 -8 75 -19t72 -35t54.5 -66.5t21.5 -114.5q0 -93 -41.5 -159.5t-113.5 -109t-168 -62.5t-204 -20q-49 0 -107.5 6t-116.5 18t-111 30 t-93 43z" />
<glyph unicode="&#x438;" horiz-adv-x="1326" d="M145 0v1037h306v-512l446 512h269v-1037h-307v516l-447 -516h-267z" />
<glyph unicode="&#x439;" horiz-adv-x="1326" d="M145 0v1037h306v-512l446 512h269v-1037h-307v516l-447 -516h-267zM325 1507l210 14q9 -23 19 -41t24.5 -30.5t35 -19t51.5 -6.5t51.5 6.5t35 19t24.5 30.5t19 41l210 -14q-5 -64 -28.5 -118.5t-66 -94t-104 -61.5t-141.5 -22t-141.5 22t-104 61.5t-66 94t-28.5 118.5z " />
<glyph unicode="&#x43a;" horiz-adv-x="1207" d="M145 0v1037h309v-450l344 450h362l-349 -439l381 -598h-368l-234 396l-136 -168v-228h-309z" />
<glyph unicode="&#x43b;" horiz-adv-x="1418" d="M1 -20l53 258q2 0 11 -1t19.5 -2t19.5 -1.5t12 -0.5q109 0 109 132v671h1033v-1036h-311v771h-411v-422q0 -103 -35.5 -175.5t-93.5 -118.5t-131.5 -67.5t-149.5 -21.5q-38 0 -70 4t-55 10z" />
<glyph unicode="&#x43c;" horiz-adv-x="1491" d="M145 0v1037h269l321 -362v-1l329 363h267v-1037h-306v536l-217 -297v-1h-143l-213 301v-539h-307z" />
<glyph unicode="&#x43d;" horiz-adv-x="1324" d="M145 0v1037h307v-393h404v393h308v-1037h-308v382h-404v-382h-307z" />
<glyph unicode="&#x43e;" horiz-adv-x="1317" d="M81 518q0 114 42 214.5t118.5 175.5t182.5 118.5t233 43.5q129 0 235.5 -43.5t183 -118.5t119 -175.5t42.5 -214.5t-42.5 -214.5t-119 -175.5t-183.5 -118t-236 -43q-127 0 -232.5 43.5t-181.5 118t-118.5 175t-42.5 214.5zM390 519q0 -64 21 -117t58 -91t86 -58.5 t105 -20.5q57 0 106 20.5t85 58t57 90.5t21 118q0 64 -21 116.5t-57.5 90t-86 58t-105.5 20.5t-105 -20.5t-85.5 -58t-57.5 -90t-21 -116.5z" />
<glyph unicode="&#x43f;" horiz-adv-x="1358" d="M145 0v1037h1053v-1037h-310v771h-432v-771h-311z" />
<glyph unicode="&#x440;" horiz-adv-x="1384" d="M145 -354v1391h249l20 -88q29 24 64.5 46t77.5 38.5t89.5 26.5t100.5 10q127 0 229.5 -43.5t175 -118t111.5 -175t39 -214.5t-38 -214.5t-109 -175.5t-173 -118.5t-230 -43.5q-94 0 -167.5 25.5t-129.5 66.5v-413h-309zM439 518q0 -64 22 -116.5t59.5 -90t88 -58 t107.5 -20.5q58 0 108.5 20.5t87.5 57.5t58 90t21 117q0 65 -21.5 118t-59 91t-88 58.5t-107.5 20.5q-58 0 -108 -20.5t-87.5 -58t-59 -91t-21.5 -118.5z" />
<glyph unicode="&#x441;" horiz-adv-x="1127" d="M83 518q0 113 42 213.5t118 176t182 119.5t234 44q116 0 216.5 -37t180.5 -109l-187 -196q-36 36 -89.5 55.5t-118.5 19.5q-54 0 -103 -19.5t-86 -56t-58.5 -89.5t-21.5 -120t21.5 -119.5t58.5 -89.5t86 -56.5t103 -19.5q137 0 211 77l186 -196q-79 -74 -180 -111.5 t-219 -36.5q-127 1 -233 44.5t-182.5 118.5t-118.5 175t-42 213z" />
<glyph unicode="&#x442;" horiz-adv-x="1051" d="M88 774v263h875v-263h-284v-774h-307v774h-284z" />
<glyph unicode="&#x443;" horiz-adv-x="1177" d="M15 1031h341l224 -552l17 -64l246 616l332 1l-443 -1019q-50 -122 -95.5 -193.5t-97.5 -109.5t-116.5 -49t-151.5 -11h-156l-2 253h173q27 0 47 13.5t35.5 37t29 55.5t27.5 68z" />
<glyph unicode="&#x444;" horiz-adv-x="1611" d="M115 518q0 113 41.5 213t116.5 176t179.5 121t230.5 46v418h311v-418q126 -2 230 -47t178.5 -120.5t116 -175.5t41.5 -213t-41 -213t-116 -175t-179 -119.5t-230 -47.5v-398h-311v397q-126 1 -230.5 45.5t-179.5 120.5t-116.5 176.5t-41.5 213.5zM424 519 q0 -63 20 -115.5t55.5 -90.5t82.5 -60t101 -24v578q-55 -2 -102.5 -23.5t-82 -59.5t-54.5 -90t-20 -115zM994 229q54 2 101.5 23.5t82 59.5t54.5 90.5t20 116.5q0 62 -20 114t-55 90t-82 60t-101 24v-578z" />
<glyph unicode="&#x445;" horiz-adv-x="1190" d="M32 0l352 540l-332 497h365l178 -289l179 289h362l-330 -496l353 -541h-368l-199 322l-200 -322h-360z" />
<glyph unicode="&#x446;" horiz-adv-x="1452" d="M145 0v1036h311v-769h432v769h310v-769h127l6 1v-472h-310v204h-876z" />
<glyph unicode="&#x447;" horiz-adv-x="1366" d="M137 719v317h309v-329q0 -72 15.5 -120.5t44 -78t69.5 -42.5t91 -13q52 0 95 22.5t73.5 60.5t47.5 88.5t17 106.5v305h310v-1037h-310l7 348q-23 -41 -56 -71.5t-72.5 -50t-83.5 -29t-89 -9.5q-123 0 -211.5 40t-145.5 111t-84 168.5t-27 212.5z" />
<glyph unicode="&#x448;" horiz-adv-x="2014" d="M145 0v1037h311v-770h388v770h311v-770h389v770h310v-1037h-1709z" />
<glyph unicode="&#x449;" horiz-adv-x="2109" d="M145 0v1037h311v-770h388v770h311v-770h389v770h310v-770l133 1v-472h-311v204h-1531z" />
<glyph unicode="&#x44a;" horiz-adv-x="1287" d="M39 773v264h468v-325h322q75 0 146 -22t126 -66t88.5 -110.5t33.5 -155.5q0 -88 -33.5 -155t-89 -112t-127.5 -68t-148 -23h-629v773h-157zM507 269h305q45 0 74 26t29 63q0 36 -28.5 61t-73.5 25h-306v-175z" />
<glyph unicode="&#x44b;" horiz-adv-x="1833" d="M156 0v1037h311v-325h322q75 0 146 -22t126 -66t88.5 -110.5t33.5 -155.5q0 -88 -33.5 -155t-89 -112t-127.5 -68t-148 -23h-629zM467 269h305q45 0 74 26t29 63q0 36 -28.5 61t-73.5 25h-306v-175zM1362 12v1037h311v-1037h-311z" />
<glyph unicode="&#x44c;" horiz-adv-x="1236" d="M145 0v1037h311v-325h322q75 0 146 -22t126 -66t88.5 -110.5t33.5 -155.5q0 -88 -33.5 -155t-89 -112t-127.5 -68t-148 -23h-629zM456 269h304q45 0 74.5 26t29.5 63q0 36 -29 61t-74 25h-305v-175z" />
<glyph unicode="&#x44d;" horiz-adv-x="1317" d="M102 654q23 90 72 166.5t120.5 132t164 87t201.5 31.5q128 0 234 -44t182 -119.5t118 -176t42 -213.5t-42 -213.5t-118.5 -175.5t-182 -118.5t-233.5 -43.5q-109 0 -202 31.5t-165 87.5t-121 132.5t-69 165.5h315q33 -71 97 -110.5t143 -39.5q80 0 145.5 41t98.5 116 h-391v253h392q-32 77 -98 118.5t-147 41.5q-79 0 -143 -39.5t-97 -111.5z" />
<glyph unicode="&#x44e;" horiz-adv-x="1890" d="M156 0v1037h311v-386h199q22 90 71.5 167.5t122.5 134t166 89t201 32.5q128 0 235 -44t183.5 -120t119 -177t42.5 -215t-42.5 -215.5t-119 -177t-184 -119.5t-236.5 -44q-107 0 -199.5 32t-165 88.5t-122 134t-71.5 167.5h-200v-384h-311zM960 519q0 -64 21 -117.5 t58 -92t86 -59.5t105 -21t105 21t86 59t58 91.5t21 118.5q0 64 -21 117t-58 91t-86 59t-105 21q-57 0 -106 -21t-85.5 -59t-57.5 -91t-21 -117z" />
<glyph unicode="&#x44f;" horiz-adv-x="1152" d="M73 0l219 343q-87 47 -137 129t-50 191q0 81 30.5 149.5t84.5 118.5t129 78t164 28h479v-1037h-307v292h-91l-171 -292h-350zM413 663q0 -22 9 -42t24.5 -34.5t36 -23t43.5 -8.5h159v219h-159q-23 0 -43.5 -9t-36 -24.5t-24.5 -35.5t-9 -42z" />
<glyph unicode="&#x451;" horiz-adv-x="1212" d="M66 530q0 113 42 213.5t118 176t181 119.5t232 44q111 0 200.5 -26.5t152.5 -74.5t97.5 -115t34.5 -148q0 -64 -18 -122t-61.5 -101.5t-116 -69t-180.5 -25.5h-358q34 -75 102 -118t150 -43q48 0 83 6t62 16.5t48.5 25t43.5 31.5l168 -184q-27 -26 -67.5 -54t-92 -51 t-114.5 -38t-135 -15q-126 0 -231 44t-180.5 119.5t-118 176t-42.5 213.5zM324 1349q0 24 9.5 46t27.5 38t43.5 25.5t56.5 9.5q32 0 57.5 -9.5t43.5 -25.5t28 -38t10 -46q0 -25 -10 -46.5t-28 -38t-43.5 -26t-57.5 -9.5q-31 0 -56.5 9.5t-43.5 26t-27.5 38t-9.5 46.5z M386 651h313q60 0 95.5 21t35.5 57q0 17 -11 34.5t-34 32t-57 23.5t-81 9q-43 0 -82.5 -12.5t-73.5 -36t-61 -56t-44 -72.5zM710 1349q0 24 10 46t28 38t43.5 25.5t56.5 9.5q32 0 57.5 -9.5t43.5 -25.5t28 -38t10 -46q0 -25 -10 -46.5t-28 -38t-43.5 -26t-57.5 -9.5 q-31 0 -56.5 9.5t-43.5 26t-28 38t-10 46.5z" />
<glyph unicode="&#x452;" horiz-adv-x="1338" d="M-16 1148v219h161v96h314l-3 -96h161v-219h-169l-7 -221q20 30 49.5 56.5t68 46.5t86.5 32t105 12q123 0 212 -40t146 -111.5t84 -169t27 -212.5v-541h-311v554q0 72 -15 120t-43.5 77.5t-69 42t-91.5 12.5q-52 0 -94.5 -22t-73.5 -59.5t-48 -87.5t-17 -106v-272l1 -25 l-1 -4v-230h-311v1148h-161z" />
<glyph unicode="&#x453;" horiz-adv-x="999" d="M156 0v1036h795v-265h-484v-771h-311zM410 1213l189 320l225 -81l-197 -239h-217z" />
<glyph unicode="&#x454;" horiz-adv-x="1310" d="M95 518q0 113 42 213.5t118.5 176t182.5 119.5t233 44q110 0 202.5 -31.5t164 -87t120.5 -132t71 -166.5l-315 -1q-34 72 -97.5 111.5t-143.5 39.5q-81 0 -147 -41.5t-98 -118.5h393v-253h-392q32 -75 98.5 -116t145.5 -41q80 0 143.5 39.5t97.5 110.5h315 q-21 -89 -69.5 -165.5t-120.5 -132.5t-165 -87.5t-203 -31.5q-127 0 -233 43.5t-182 118.5t-118.5 175.5t-42.5 213.5z" />
<glyph unicode="&#x455;" horiz-adv-x="1050" d="M77 69l86 256q54 -31 100.5 -51.5t87.5 -32.5t77 -17t69 -5q88 0 133 23t45 65q0 25 -15.5 40.5t-47 27t-80 21.5t-115.5 25q-46 9 -101.5 25.5t-104 49.5t-81.5 89t-33 145q0 159 112.5 249.5t333.5 90.5q122 0 228 -22.5t209 -71.5l-80 -241q-81 33 -170.5 58.5 t-177.5 25.5q-39 0 -65.5 -7t-43.5 -19t-24 -27.5t-7 -32.5q0 -38 45.5 -57t150.5 -33q82 -15 156 -33.5t129.5 -52.5t88.5 -88.5t33 -140.5t-37 -153.5t-102 -114t-153.5 -71t-192.5 -24.5q-65 0 -122 4.5t-111 16t-107.5 32t-112.5 51.5z" />
<glyph unicode="&#x456;" horiz-adv-x="626" d="M118 1316q0 33 13 63t37.5 52.5t58.5 35.5t76 13t76 -13t58.5 -35.5t37.5 -52.5t13 -63q0 -34 -13 -63.5t-37.5 -51.5t-59 -35t-76.5 -13q-41 0 -75 13t-58 35.5t-37.5 52t-13.5 62.5zM145 0v1037h311v-1037h-311z" />
<glyph unicode="&#x457;" horiz-adv-x="601" d="M-44 1337q0 24 9.5 46t27.5 38t43.5 25.5t56.5 9.5q32 0 57.5 -9.5t43.5 -25.5t28 -38t10 -46q0 -25 -10 -46.5t-28 -38t-43.5 -26t-57.5 -9.5q-31 0 -56.5 9.5t-43.5 26t-27.5 38t-9.5 46.5zM145 0v1037h311v-1037h-311zM342 1337q0 24 10 46t28 38t43.5 25.5t56.5 9.5 q32 0 57.5 -9.5t43.5 -25.5t28 -38t10 -46q0 -25 -10 -46.5t-28 -38t-43.5 -26t-57.5 -9.5q-31 0 -56.5 9.5t-43.5 26t-28 38t-10 46.5z" />
<glyph unicode="&#x458;" horiz-adv-x="617" d="M-74 -132h106q54 0 83.5 39.5t29.5 112.5v1017h312v-1021q0 -108 -32 -185.5t-87.5 -127.5t-131 -74t-162.5 -24h-118v263z" />
<glyph unicode="&#x459;" horiz-adv-x="2017" d="M1 -20l53 258q2 0 11 -1t19.5 -2t19.5 -1.5t12 -0.5q109 0 109 132v671h701v1h310v-325h322q75 0 146 -22t126 -66t88.5 -110.5t33.5 -155.5q0 -88 -33.5 -155t-89 -112t-127.5 -68t-148 -23h-628v771h-390v-437q0 -103 -35.5 -173t-93.5 -113.5t-131.5 -62.5t-149.5 -19 q-38 0 -70 4t-55 10zM1236 269h304q46 0 74.5 26t28.5 63q0 36 -28.5 61t-73.5 25h-305v-175z" />
<glyph unicode="&#x45a;" horiz-adv-x="1986" d="M145 0v1037h311v-330h437v330h311v-325h322q75 0 146 -22t126 -66t88.5 -110.5t33.5 -155.5q0 -88 -33.5 -155t-89 -112t-127.5 -68t-148 -23h-629v441h-437v-441h-311zM1204 269h305q45 0 74 26t29 63q0 36 -28.5 61t-73.5 25h-306v-175z" />
<glyph unicode="&#x45b;" horiz-adv-x="1365" d="M-5 1162v219h161v126h314l-4 -126h162v-219h-170l-8 -237q20 30 49.5 57t68 47.5t87 32.5t105.5 12q123 0 212 -40t146 -111.5t84 -169t27 -212.5v-541h-310v554q0 72 -15 120t-43.5 77.5t-69 42t-91.5 12.5q-52 0 -94.5 -22t-73.5 -59.5t-48 -87.5t-17 -106v-531h-311 v1162h-161z" />
<glyph unicode="&#x45c;" horiz-adv-x="1207" d="M145 0v1037h309v-450l344 450h362l-349 -439l381 -598h-368l-234 396l-136 -168v-228h-309zM407 1152l189 320l225 -81l-197 -239h-217z" />
<glyph unicode="&#x45e;" horiz-adv-x="1177" d="M15 1031h341l224 -552l17 -64l246 616l332 1l-443 -1019q-50 -122 -95.5 -193.5t-97.5 -109.5t-116.5 -49t-151.5 -11h-156l-2 253h173q27 0 47 13.5t35.5 37t29 55.5t27.5 68zM232 1507l210 14q9 -23 19 -41t24.5 -30.5t35 -19t51.5 -6.5t51.5 6.5t35 19t24.5 30.5 t19 41l210 -14q-5 -64 -28.5 -118.5t-66 -94t-104 -61.5t-141.5 -22t-141.5 22t-104 61.5t-66 94t-28.5 118.5z" />
<glyph unicode="&#x45f;" horiz-adv-x="1360" d="M147 0v1044h310v-770h432v770h311v-1044h-373v-342h-316v342h-364z" />
<glyph unicode="&#x474;" horiz-adv-x="1477" d="M31 1361h335l370 -934h4l370 934h334l-563 -1361h-286z" />
<glyph unicode="&#x475;" horiz-adv-x="1217" d="M26 1037h331l240 -623h2l241 623h332l-435 -1037h-277z" />
<glyph unicode="&#x490;" horiz-adv-x="1159" d="M152 0v1360h641v236h318v-509h-641v-1087h-318z" />
<glyph unicode="&#x491;" horiz-adv-x="1040" d="M156 0v1036h531v204h311v-469h-531v-771h-311z" />
<glyph unicode="&#x4d9;" horiz-adv-x="1361" d="M63 519q0 32 3 50l6 36h827q-12 48 -37 87.5t-59 67t-75 42.5t-86 15q-74 0 -128 -31t-81 -79h-335q23 69 70 134.5t116 116.5t159.5 82t199.5 31q128 0 233.5 -44t182 -119t118.5 -175.5t42 -213.5q0 -114 -42 -214.5t-118 -175.5t-182 -118.5t-234 -43.5t-235 43.5 t-183.5 118.5t-119 175.5t-42.5 214.5zM397 390q32 -75 97 -119.5t148 -44.5q82 0 146.5 44t96.5 120h-488z" />
<glyph unicode="&#x2000;" horiz-adv-x="935" />
<glyph unicode="&#x2001;" horiz-adv-x="1870" />
<glyph unicode="&#x2002;" horiz-adv-x="935" />
<glyph unicode="&#x2003;" horiz-adv-x="1870" />
<glyph unicode="&#x2004;" horiz-adv-x="623" />
<glyph unicode="&#x2005;" horiz-adv-x="467" />
<glyph unicode="&#x2006;" horiz-adv-x="311" />
<glyph unicode="&#x2007;" horiz-adv-x="311" />
<glyph unicode="&#x2008;" horiz-adv-x="233" />
<glyph unicode="&#x2009;" horiz-adv-x="374" />
<glyph unicode="&#x200a;" horiz-adv-x="103" />
<glyph unicode="&#x2010;" d="M122 360v256h614v-256h-614z" />
<glyph unicode="&#x2011;" d="M122 360v256h614v-256h-614z" />
<glyph unicode="&#x2012;" d="M122 360v256h614v-256h-614z" />
<glyph unicode="&#x2013;" horiz-adv-x="992" d="M133 360v256h725v-256h-725z" />
<glyph unicode="&#x2014;" horiz-adv-x="1683" d="M133 360v256h1417v-256h-1417z" />
<glyph unicode="&#x2018;" horiz-adv-x="600" d="M79 926l224 548l221 -8l-173 -566z" />
<glyph unicode="&#x2019;" horiz-adv-x="602" d="M74 908l173 566l272 -25l-225 -549z" />
<glyph unicode="&#x201a;" horiz-adv-x="602" d="M35 -297l173 566l273 -25l-225 -549z" />
<glyph unicode="&#x201c;" horiz-adv-x="1055" d="M79 926l224 548l221 -8l-173 -566zM518 926l225 548l221 -8l-173 -566z" />
<glyph unicode="&#x201d;" horiz-adv-x="1013" d="M71 908l173 566l272 -25l-225 -549zM511 908l172 566l273 -25l-225 -549z" />
<glyph unicode="&#x201e;" horiz-adv-x="1028" d="M36 -297l173 566l273 -25l-225 -549zM476 -297l173 566l272 -25l-225 -549z" />
<glyph unicode="&#x2026;" horiz-adv-x="1561" d="M108 132q0 33 12 62.5t34 51.5t53 35t70 13q38 0 69.5 -13t54 -35t34.5 -51.5t12 -62.5t-12 -62.5t-34.5 -51.5t-54 -34.5t-70.5 -12.5q-38 0 -69 13t-53 34.5t-34 51t-12 62.5zM611 132q0 33 12 62.5t34 51.5t53.5 35t69.5 13q39 0 70.5 -13t54 -35t34.5 -51.5t12 -62.5 t-12 -62.5t-34.5 -51.5t-54 -34.5t-70.5 -12.5q-38 0 -69 13t-53.5 34.5t-34.5 51t-12 62.5zM1115 132q0 33 12 62.5t34.5 51.5t53.5 35t70 13q38 0 69.5 -13t54 -35t34.5 -51.5t12 -62.5t-12 -62.5t-34.5 -51.5t-54 -34.5t-70.5 -12.5q-38 0 -69 13t-53.5 34.5t-34.5 51 t-12 62.5z" />
<glyph unicode="&#x202f;" horiz-adv-x="374" />
<glyph unicode="&#x2039;" horiz-adv-x="841" d="M115 488l282 380h317l-284 -380l284 -380l-317 -1z" />
<glyph unicode="&#x203a;" horiz-adv-x="841" d="M128 108l285 380l-285 380h318l282 -380l-282 -381z" />
<glyph unicode="&#x205f;" horiz-adv-x="467" />
<glyph unicode="&#x20ac;" horiz-adv-x="1210" d="M62 409v183l842 1v-184h-356q52 -86 138 -136.5t192 -50.5q39 0 91.5 11.5t100.5 44.5v-283q-33 -11 -85 -18.5t-107 -7.5q-112 0 -213.5 32.5t-186 91t-148 139.5t-98.5 177h-170zM62 762v184h167q35 98 98 180t148 141.5t187.5 93t215.5 33.5q62 0 112.5 -9t79.5 -19 v-284q-22 16 -47.5 27t-51 17.5t-49.5 9.5t-44 3q-53 0 -102.5 -13.5t-92.5 -39t-78.5 -61t-61.5 -79.5h361v-185z" />
<glyph unicode="&#x2122;" horiz-adv-x="1711" d="M43 1176v215h601v-215h-177v-528h-245v528h-179zM743 648v745l207 3l218 -316l219 316l206 -3v-745h-228v328l-188 -238h-17l-188 238v-328h-229z" />
<glyph unicode="&#x25fc;" horiz-adv-x="1035" d="M0 0v1035h1035v-1035h-1035z" />
</font>
</defs>
</svg>
