<?xml version="1.0" standalone="no"?>
<!DOCTYPE svg PUBLIC "-//W3C//DTD SVG 1.1//EN" "http://www.w3.org/Graphics/SVG/1.1/DTD/svg11.dtd" >
<svg xmlns="http://www.w3.org/2000/svg" xmlns:xlink="http://www.w3.org/1999/xlink" version="1.1">
<metadata></metadata>
<defs>
<font id="codec_warmthin_italic" horiz-adv-x="1019" >
<font-face units-per-em="2048" ascent="1638" descent="-410" />
<missing-glyph horiz-adv-x="437" />
<glyph horiz-adv-x="0" />
<glyph horiz-adv-x="0" />
<glyph unicode="&#xd;" horiz-adv-x="437" />
<glyph horiz-adv-x="1668" />
<glyph unicode=" "  horiz-adv-x="437" />
<glyph unicode="&#x09;" horiz-adv-x="437" />
<glyph unicode="&#xa0;" horiz-adv-x="437" />
<glyph unicode="!" horiz-adv-x="529" d="M215 43q5 23 24 40t42 17q24 0 38 -17t9 -40q-4 -23 -23.5 -39.5t-43.5 -16.5q-23 0 -36.5 16.5t-9.5 39.5zM309 355l44 266l130 739h38l-130 -739l-51 -266h-31z" />
<glyph unicode="&#x22;" horiz-adv-x="695" d="M381 894l85 504h43l-95 -503q-8 0 -16.5 -0.5t-16.5 -0.5zM597 894l85 504h43l-95 -503q-8 0 -16.5 -0.5t-16.5 -0.5z" />
<glyph unicode="#" horiz-adv-x="1187" d="M165 399l7 38h264l145 401h-272l7 37h278l175 485h38l-174 -485h325l174 485h38l-174 -485h242l-7 -37h-248l-144 -401h255l-7 -38h-262l-143 -399h-39l143 399h-324l-143 -399h-40l144 399h-258zM476 437h324l144 401h-324z" />
<glyph unicode="$" horiz-adv-x="1177" d="M75 113l34 29q27 -18 67 -40t93.5 -41.5t121 -32.5t149.5 -13q119 0 216 22t169 66t118 109.5t61 152.5q15 84 -11 142.5t-80 96.5t-129.5 58t-160.5 28q-55 5 -112.5 12t-110 20t-97 34t-74.5 55t-42.5 82.5t-0.5 116.5q11 62 43.5 127.5t93.5 120t154 90.5t224 39 l32 181h38l-32 -181q72 -1 135 -16t116.5 -36t97.5 -45t78 -45l-28 -36q-28 20 -69 44t-94.5 45t-118 35.5t-140.5 14.5q-124 0 -212.5 -30t-147 -78t-90 -108.5t-42.5 -121.5q-14 -78 10 -128t79 -81t136.5 -47.5t182.5 -25.5q44 -4 95 -12t101 -24t94.5 -41.5t75.5 -64.5 t44 -93t0 -128q-15 -84 -57 -153t-111 -119t-165 -80t-219 -36l-31 -180h-38l31 179q-60 0 -124.5 7t-126.5 23t-120 42t-106 65z" />
<glyph unicode="%" horiz-adv-x="1610" d="M301 1063q12 66 45 122t81.5 97.5t109 64.5t126.5 23t118.5 -23.5t87 -64.5t48.5 -98t2 -123q-12 -65 -45 -120.5t-81.5 -96t-109.5 -63.5t-127 -23t-118.5 23t-87 64t-48 96.5t-1.5 121.5zM338 1063q-10 -58 2 -107t42 -85t76.5 -56t104.5 -20t111 20t96 56t72.5 84.5 t39.5 105.5q10 59 -2 109t-42.5 86t-76.5 56.5t-104 20.5t-111 -20t-96 -56t-72.5 -85.5t-39.5 -108.5zM401 0l1069 1360h43l-1069 -1360h-43zM930 299q12 66 45 122t81.5 97.5t109 64.5t126.5 23t118.5 -23.5t87 -64.5t48.5 -98t2 -123q-12 -65 -45 -120.5t-81.5 -96.5 t-109.5 -64t-127 -23t-118.5 23t-87 64t-48 97t-1.5 122zM967 299q-10 -58 2 -107t42.5 -85t76.5 -56t104 -20t111.5 20t96 55.5t72 84.5t39.5 106q10 59 -2 108.5t-42.5 86t-76.5 57t-104 20.5q-57 0 -110.5 -20.5t-96 -56.5t-72 -85.5t-40.5 -107.5z" />
<glyph unicode="&#x26;" horiz-adv-x="1425" d="M206 339q14 80 58 142.5t106 113t135.5 91t147.5 75.5q-27 29 -54.5 68.5t-47.5 84t-30 90.5t-3 89q11 59 41 112t77.5 93.5t111.5 64.5t142 24q65 0 114 -20t80 -55t43 -83t2 -105q-13 -76 -53 -133t-97 -100.5t-126 -77t-140 -63.5l368 -495q75 75 132 165t91 193h40 q-35 -107 -98 -205t-146 -179l170 -229h-51l-149 201q-56 -51 -118 -92t-128 -70t-134.5 -45t-137.5 -16q-92 0 -163 27t-116 75.5t-62.5 114.5t-4.5 144zM244 339q-12 -70 4 -129t57 -102t105 -67t148 -24q132 0 259 56t234 154l-375 505q-63 -29 -133 -64t-131.5 -81.5 t-107.5 -107t-60 -140.5zM556 1093q-7 -43 2.5 -86t30 -83.5t47.5 -77t54 -67.5q55 24 119.5 53t123 69t102 94.5t56.5 128.5q9 49 -1.5 90.5t-38 71.5t-70 46.5t-98.5 16.5q-69 0 -125.5 -20.5t-98 -55.5t-68 -81.5t-35.5 -98.5z" />
<glyph unicode="'" horiz-adv-x="471" d="M376 894l85 504h43l-95 -503q-8 0 -16.5 -0.5t-16.5 -0.5z" />
<glyph unicode="(" horiz-adv-x="646" d="M260.5 422q4.5 127 27.5 258q23 132 63.5 259.5t102 242.5t144.5 214.5t192 174.5l64 1q-111 -71 -198 -165.5t-151.5 -208t-108.5 -244t-69 -273.5q-25 -144 -26.5 -275t23.5 -245t78.5 -207.5t137.5 -162.5h-62q-83 76 -132 175.5t-69.5 214t-16 241.5z" />
<glyph unicode=")" horiz-adv-x="646" d="M48 -209q108 69 194.5 162.5t151.5 207.5t110.5 245t70.5 275q25 143 27 273.5t-23 244t-78 208t-139 165.5l64 -1q82 -75 130 -174.5t68.5 -214.5t16 -242.5t-27.5 -259.5q-23 -131 -63.5 -258t-101.5 -241.5t-144.5 -214t-193.5 -175.5h-62z" />
<glyph unicode="*" horiz-adv-x="855" d="M332 982l254 132l-207 133l26 33l207 -135l47 269h38l-47 -266l255 131l12 -33l-254 -132l206 -135l-24 -32l-207 134l-47 -266h-38l47 267l-255 -133z" />
<glyph unicode="+" horiz-adv-x="1410" d="M351 594l7 37l439 -1l76 436h38l-76 -436h438l-7 -37h-438l-78 -442h-38l78 442z" />
<glyph unicode="," horiz-adv-x="471" d="M87 -170l152 259h46l-164 -259h-34z" />
<glyph unicode="-" horiz-adv-x="701" d="M203 460l6 38h457l-6 -38h-457z" />
<glyph unicode="." horiz-adv-x="471" d="M186 43q5 23 24 40t42 17t37.5 -17t9.5 -40q-4 -23 -24 -39.5t-43 -16.5t-36.5 16.5t-9.5 39.5z" />
<glyph unicode="/" horiz-adv-x="756" d="M-60 -208l945 1636h41l-945 -1636h-41z" />
<glyph unicode="0" horiz-adv-x="1345" d="M262.5 402q-13.5 127 11.5 271q26 149 87 279t148 226.5t196 152t231 55.5q137 0 227.5 -59t140 -157t60 -226t-13.5 -266q-25 -145 -84 -273.5t-145 -223.5t-195.5 -150.5t-236.5 -55.5q-128 0 -218.5 55t-142.5 150t-65.5 222zM300.5 417q12.5 -120 60.5 -209.5 t132 -141.5t203 -52q118 0 219.5 52t181.5 142t135.5 211t79.5 259q23 131 13.5 251.5t-55.5 213.5t-130 148.5t-211 55.5q-113 0 -214 -52t-182 -143t-138.5 -214.5t-82.5 -265.5q-24 -135 -11.5 -255z" />
<glyph unicode="1" horiz-adv-x="675" d="M311 1192l7 42l315 127h39l-239 -1361h-38l231 1318z" />
<glyph unicode="2" horiz-adv-x="1115" d="M143 0l6 39l615 483q67 53 126.5 102.5t107 101.5t79 108.5t43.5 122.5q15 83 -3 151.5t-60.5 117.5t-105.5 76t-138 27q-72 0 -144 -26.5t-132.5 -76t-104.5 -119.5t-59 -157h-39q17 98 66 175.5t116 131.5t146 82.5t157 28.5q83 0 152 -30.5t116 -85t67 -130t4 -165.5 q-13 -74 -47.5 -134.5t-84.5 -115t-113 -106.5t-132 -111l-576 -452h253h553l-6 -38h-862z" />
<glyph unicode="3" horiz-adv-x="1103" d="M174 328h40q6 -91 41.5 -151.5t86.5 -96.5t109.5 -50.5t108.5 -14.5q81 0 161 31t146.5 86t114 130t62.5 163q15 85 -5 154.5t-67 119t-117 76.5t-155 27h-111l4 25l470 495h-674l6 38h729l-6 -33l-459 -486h47q97 0 174 -30t127 -85t70.5 -131.5t3.5 -169.5 q-16 -92 -63.5 -174t-118 -143t-159 -96.5t-187.5 -35.5q-58 0 -123 17t-120.5 57.5t-93.5 108.5t-42 169z" />
<glyph unicode="4" horiz-adv-x="1250" d="M156 350l6 35l968 985h30l-175 -981h272l-6 -37l-273 -1l-61 -351h-38l61 351zM215 387l732 2l161 906z" />
<glyph unicode="5" horiz-adv-x="1164" d="M224 328h40q6 -91 41.5 -151.5t86.5 -96.5t109.5 -50.5t108.5 -14.5q81 0 161 31t146.5 86t114 130t62.5 163q15 85 -4 160t-65 130.5t-115 88t-154 32.5h-322l-33 25l155 500h649l-6 -39h-616l-140 -447h319q97 0 173 -35.5t125 -96.5t68.5 -143t2.5 -175 q-16 -92 -63.5 -174t-118 -143t-159 -96.5t-187.5 -35.5q-58 0 -123 17t-120.5 57.5t-93.5 108.5t-42 169z" />
<glyph unicode="6" horiz-adv-x="1090" d="M192 410q9 50 28.5 96t52.5 97t81 111t113 138l423 508h46l-494 -592q60 37 127 57.5t137 20.5q90 0 163.5 -34t122 -93.5t69 -139t4.5 -169.5q-16 -91 -64 -169.5t-117.5 -137t-155 -92t-175.5 -33.5t-164 33.5t-123 92t-69.5 137t-4.5 169.5zM230 410 q-15 -83 3.5 -154.5t63.5 -124.5t112 -83.5t150 -30.5t161 30.5t141.5 83.5t107 124.5t58.5 154.5t-3.5 155.5t-63 126.5t-111.5 85t-150 31q-100 0 -182 -41.5t-142.5 -102t-97.5 -129.5t-47 -125z" />
<glyph unicode="7" horiz-adv-x="1111" d="M309 0l889 1321h-811l7 39h857l-6 -33l-893 -1327h-43z" />
<glyph unicode="8" horiz-adv-x="1158" d="M201 370q12 69 46.5 131t86 113t116.5 89t138 58q-48 17 -85 45.5t-59.5 66.5t-30 84.5t1.5 98.5q12 67 50 127t94.5 105t127 71t146.5 26q75 0 135.5 -25.5t101 -69t58.5 -102.5t6 -127q-9 -52 -34 -99.5t-62 -87t-83.5 -69t-98.5 -44.5q67 -18 119 -55.5t85 -89 t45.5 -114.5t0.5 -132q-15 -85 -63.5 -157t-119.5 -125t-159 -83t-181 -30t-170 30t-129 83t-75 125t-8 157zM239 370q-13 -76 8 -141.5t68.5 -113t118.5 -74.5t156 -27q86 0 166.5 27t145 74.5t109 113t57.5 141.5q14 77 -7 144.5t-68.5 117.5t-118 79t-156.5 29 q-85 0 -165.5 -29t-146 -79t-109.5 -117.5t-58 -144.5zM454 1061q-10 -59 4.5 -110.5t50.5 -90t91 -60.5t125 -22q68 0 130.5 22t112.5 60.5t84 90t44 110.5t-6 111t-53 90.5t-91 61t-120 22.5q-67 0 -130 -22.5t-113.5 -61t-84.5 -90.5t-44 -111z" />
<glyph unicode="9" horiz-adv-x="1132" d="M331 955q16 90 64 169t118 137.5t155.5 92t175.5 33.5t163.5 -33.5t122.5 -92t69.5 -137.5t4.5 -169q-9 -49 -28.5 -95.5t-52.5 -97.5t-80.5 -111t-112.5 -138l-427 -513h-46l497 597q-60 -38 -126.5 -58t-136.5 -20q-90 0 -164 34t-122.5 93.5t-69 139t-4.5 169.5z M369 955q-15 -83 3.5 -155.5t63.5 -126.5t112 -85t150 -31q100 0 182 41.5t142 102t97 130t47 124.5q15 83 -4 154.5t-63.5 124.5t-111.5 83.5t-150 30.5t-161 -30.5t-141.5 -83.5t-107 -124.5t-58.5 -154.5z" />
<glyph unicode=":" horiz-adv-x="471" d="M184 34q5 23 24 39.5t42 16.5t37.5 -16.5t9.5 -39.5q-4 -23 -23.5 -39.5t-42.5 -16.5t-37 16.5t-10 39.5zM350 971q4 24 23.5 40.5t42.5 16.5t37 -16.5t10 -40.5q-5 -23 -24.5 -39.5t-42.5 -16.5t-37 16.5t-9 39.5z" />
<glyph unicode=";" horiz-adv-x="471" d="M87 -170l152 259h46l-164 -259h-34zM350 971q4 24 23.5 40.5t42.5 16.5t37 -16.5t10 -40.5q-5 -23 -24.5 -39.5t-42.5 -16.5t-37 16.5t-9 39.5z" />
<glyph unicode="&#x3c;" horiz-adv-x="1239" d="M286 493l7 39l817 358l-7 -41l-766 -337l647 -337l-7 -41z" />
<glyph unicode="=" horiz-adv-x="1410" d="M292 257l7 38l914 -1l-6 -37h-915zM374 723l7 37l914 -1l-6 -37z" />
<glyph unicode="&#x3e;" horiz-adv-x="1241" d="M310 134l7 41l767 337l-648 337l7 41l691 -358l-7 -39z" />
<glyph unicode="?" horiz-adv-x="881" d="M220 1042q14 77 52 140t96.5 108.5t134.5 70.5t165 25q92 0 159.5 -25t109.5 -70.5t57.5 -108.5t1.5 -140q-10 -58 -39.5 -107t-70.5 -91t-88.5 -79t-94.5 -72q-36 -27 -70.5 -58t-62 -64.5t-47 -69.5t-26.5 -75l-13 -69h-38l14 75q8 48 34.5 92t64 84.5t82 77.5t89.5 71 q39 30 77 62t68.5 67.5t52.5 74t29 81.5q13 72 -1.5 128.5t-52.5 95.5t-99.5 60t-142.5 21q-79 0 -147 -20.5t-120.5 -59.5t-87 -95.5t-47.5 -129.5h-39zM362 43q5 23 24 40t42 17t37.5 -17t9.5 -40q-4 -23 -24 -39.5t-43 -16.5t-36.5 16.5t-9.5 39.5z" />
<glyph unicode="@" horiz-adv-x="1835" d="M232 470q20 113 65.5 216t112 191.5t150.5 160.5t181.5 123t205.5 78.5t221 27.5q154 0 280 -50.5t210.5 -141.5t120 -218t8.5 -280q-19 -109 -63 -204t-106.5 -165t-139 -110t-160.5 -40q-39 0 -74 13t-57 40.5t-25 69.5t23 99q-30 -38 -73.5 -74t-93.5 -63.5 t-102.5 -44.5t-99.5 -17q-53 0 -96.5 23t-71 65.5t-38 102t2.5 131.5q18 102 63.5 184.5t106.5 140.5t132 89t139 31q39 0 79.5 -15t76.5 -40t64.5 -57.5t42.5 -67.5l52 152h39l-187 -548q-18 -52 -16.5 -86t17 -54.5t42.5 -28.5t60 -8q72 0 140.5 37.5t126.5 102.5 t99.5 153t59.5 189q26 145 -8.5 265t-114.5 206.5t-200 134t-266 47.5q-162 0 -311 -58t-268.5 -160t-201.5 -241t-111 -301q-26 -150 7 -283.5t116.5 -233.5t211.5 -158t291 -56l387 4l-6 -41h-387q-183 0 -319 61t-220.5 165.5t-115 244t-2.5 297.5zM647.5 286.5 q8.5 -52.5 32 -90t60.5 -58t82 -20.5q47 0 108.5 24t120 61.5t104.5 84t62 91.5l86 245q-24 51 -57.5 86.5t-69.5 58t-70 32.5t-58 10q-61 0 -125 -28.5t-119 -81.5t-96 -128.5t-58 -169.5q-11 -64 -2.5 -116.5z" />
<glyph unicode="A" horiz-adv-x="1272" d="M21 0l832 1360h44l354 -1360h-42l-102 394h-804l-241 -394h-41zM327 432h770l-229 884z" />
<glyph unicode="B" horiz-adv-x="1286" d="M208 0l239 1360h557q70 0 126.5 -26.5t94.5 -72.5q37 -45 53 -107q9 -35 9 -73q0 -29 -5 -59q-9 -51 -31.5 -97.5t-55.5 -86t-74.5 -70.5t-88.5 -51q57 -14 102.5 -47t74.5 -80t40 -105q6 -29 5.5 -59.5t-5.5 -62.5q-13 -76 -53.5 -142t-98.5 -115t-129 -77.5t-146 -28.5 h-614zM253 42h576q67 0 130 25.5t114.5 69t87 102t47.5 125.5q5 29 5 57q0 35 -8 68q-15 59 -50.5 102.5t-88.5 69t-119 25.5h-581zM374 727h519q61 0 119 23.5t105.5 63.5t80.5 94.5t44 115.5q5 27 5 52q0 34 -8 64q-14 54 -47 94.5t-83 64t-111 23.5h-519z" />
<glyph unicode="C" horiz-adv-x="1480" d="M240 681q17 99 58.5 189.5t101.5 169t136.5 142.5t163.5 109.5t183 70.5t194 25q157 0 281.5 -60.5t204.5 -165.5l-32 -26q-76 100 -194 157t-267 57q-139 0 -271 -52t-239.5 -142t-182 -212t-99.5 -262q-11 -61 -11 -119q0 -74 18 -142q32 -122 107.5 -211.5t189.5 -141 t253 -51.5q149 0 287.5 57t249.5 157l23 -26q-118 -105 -263 -165.5t-303 -60.5q-148 0 -268 54.5t-201 149.5q-80 96 -113 224q-18 72 -18 149q0 61 11 126z" />
<glyph unicode="D" horiz-adv-x="1478" d="M208 0l239 1360h453q154 0 274 -46t197 -133.5t106 -213.5q15 -64 15 -137q0 -70 -14 -149q-27 -152 -95 -277.5t-172 -215t-241.5 -139t-304.5 -49.5h-457zM252 39h411q159 0 290 46t230 129.5t164 201t90 261.5q13 75 13 145q0 58 -9 111q-20 118 -87 204.5t-182.5 136 t-281.5 49.5h-411z" />
<glyph unicode="E" horiz-adv-x="1152" d="M208 0l239 1360h850l-7 -41h-812l-110 -626h712l-7 -39h-712l-109 -615h821l-6 -39h-859z" />
<glyph unicode="F" horiz-adv-x="1123" d="M208 0l239 1360h850l-7 -41h-812l-113 -642h712l-7 -38h-712l-112 -639h-38z" />
<glyph unicode="G" horiz-adv-x="1567" d="M250 681q17 99 58.5 190t102 170.5t137 145t164 112t183.5 72t194 25.5q147 0 265 -54.5t199 -149.5l-32 -27q-76 91 -188 142t-251 51t-271.5 -53t-240.5 -145t-182.5 -215.5t-99.5 -263.5q-11 -62 -11 -120q0 -73 17 -142q32 -123 107.5 -214.5t189.5 -144.5t253 -53 q67 0 136.5 13.5t137.5 38.5t131 60t117 78l69 392h-279l7 38h317l-79 -446q-57 -47 -124.5 -86.5t-141 -67.5t-149.5 -43.5t-149 -15.5q-148 0 -268.5 53.5t-200.5 149t-112 225.5q-18 72 -18 150q0 65 12 135z" />
<glyph unicode="H" horiz-adv-x="1471" d="M208 0l239 1360h38l-117 -667h977l117 667h39l-239 -1360h-39l115 654h-977l-115 -654h-38z" />
<glyph unicode="I" horiz-adv-x="454" d="M208 0l239 1360h38l-239 -1360h-38z" />
<glyph unicode="J" horiz-adv-x="720" d="M42 0l6 38h106q107 0 182 26.5t125.5 76t80 120t45.5 159.5l165 940h38l-166 -941q-18 -102 -52 -180.5t-90.5 -131.5t-138 -80t-195.5 -27h-106z" />
<glyph unicode="K" horiz-adv-x="1238" d="M208 0l239 1360h38l-180 -1023l1054 1023h50l-615 -595l417 -765h-51l-396 733l-468 -450l-50 -283h-38z" />
<glyph unicode="L" horiz-adv-x="1036" d="M208 0l239 1360h38l-233 -1321h750l-6 -39h-788z" />
<glyph unicode="M" horiz-adv-x="1694" d="M208 0l239 1360h29l472 -787l743 787h34l-239 -1360h-38l227 1291l-724 -763h-24l-454 762l-227 -1290h-38z" />
<glyph unicode="N" horiz-adv-x="1504" d="M208 0l239 1360h22l801 -1287l227 1287h38l-239 -1360h-27l-798 1280l-225 -1280h-38z" />
<glyph unicode="O" horiz-adv-x="1668" d="M240 681q26 148 103 277t188.5 224t249.5 150t286 55t270 -55t204.5 -150t117.5 -224q20 -74 20 -154q0 -60 -11 -123q-26 -147 -103.5 -275.5t-189 -223.5t-250 -149.5t-286.5 -54.5t-270 54.5t-203 149.5q-82 96 -117 224q-20 74 -20 153q0 59 11 122zM278 681 q-11 -61 -11 -119q0 -74 18 -142q32 -122 107.5 -211.5t189.5 -141t253 -51.5q140 0 272.5 51.5t240.5 141.5t182.5 211.5t99.5 260.5q11 61 11 119q0 74 -18 143q-32 122 -108.5 212t-190.5 142t-254 52q-139 0 -271 -52t-239.5 -142t-182 -212t-99.5 -262z" />
<glyph unicode="P" horiz-adv-x="1220" d="M208 0l239 1360h529q90 0 160.5 -31.5t115.5 -86.5q44 -56 62 -132q9 -40 10 -84q0 -40 -8 -83q-16 -90 -60 -166t-108.5 -131.5t-145.5 -87t-171 -31.5h-493l-92 -527h-38zM345 565h496q80 0 153 29t131.5 79.5t98.5 119t54 149.5q7 38 7 73q0 39 -9 77q-16 70 -57 121 t-104.5 80t-144.5 29h-491z" />
<glyph unicode="Q" horiz-adv-x="1668" d="M249 681q17 99 58 190t100.5 170.5t134.5 145t161.5 112t181.5 72t193 25.5q148 0 270 -56t203.5 -153t116.5 -227q20 -75 20 -156q0 -60 -11 -123q-21 -116 -74 -222t-130.5 -194t-175.5 -154t-208 -103q20 -74 57 -121.5t83.5 -74.5t98.5 -37.5t102 -10.5q54 0 111 8.5 t108 27.5l4 -37q-50 -18 -107.5 -26t-109.5 -8q-57 0 -116 12t-110.5 42t-92 82t-60.5 133q-51 -14 -104 -22t-107 -8q-147 0 -268.5 56t-203.5 153t-116 227q-20 74 -20 154q0 60 11 123zM288 681q-11 -62 -11 -120q0 -73 17 -142q32 -123 107.5 -214.5t189 -144.5 t252.5 -53q140 0 273 53t241 144.5t182.5 214.5t99.5 262q11 62 11 121q0 74 -18 142q-31 124 -107 216t-190 145t-254 53q-139 0 -271.5 -53t-240 -145t-182 -215.5t-99.5 -263.5z" />
<glyph unicode="R" horiz-adv-x="1266" d="M208 0l239 1360h559q90 0 161 -28t117 -80t64 -126q9 -38 8 -81q0 -39 -7 -82q-14 -80 -50.5 -147t-90 -117.5t-121.5 -83t-145 -43.5l265 -572h-47l-264 568q-7 -1 -14 -1h-14h-523l-99 -567h-38zM352 605h526q80 0 152.5 26t130 72.5t97 112t53.5 146.5q6 37 6 71 q-1 40 -9 76q-16 66 -57.5 113.5t-105.5 73.5t-145 26h-521z" />
<glyph unicode="S" horiz-adv-x="1232" d="M91 113l34 29q27 -18 67 -40t93.5 -41.5t121 -32.5t149.5 -13q119 0 216 22t169 66t118 109.5t61 152.5q5 31 5 58q0 47 -16 85q-26 58 -80 96t-129.5 58t-160.5 28q-55 5 -112.5 12t-110 20t-97 34t-74.5 55q-31 35 -43 83q-6 25 -6 54t6 62q11 63 43 130t94 122 t157.5 90t232.5 35q75 0 142 -14t124.5 -35.5t104.5 -46.5t82 -46l-28 -36q-28 20 -69 44t-94.5 45t-118 35.5t-140.5 14.5q-124 0 -212.5 -30t-147 -78t-90 -108.5t-42.5 -121.5q-5 -29 -5 -54q0 -43 15 -74q24 -50 79 -81t136.5 -47.5t182.5 -25.5q44 -4 95 -12t101 -24 t94.5 -41.5t75.5 -64.5t44 -93q6 -27 6 -59t-6 -69q-16 -89 -60.5 -161t-119 -122.5t-179 -78t-240.5 -27.5q-64 0 -130 9t-127.5 26.5t-115.5 43t-95 58.5z" />
<glyph unicode="T" horiz-adv-x="1138" d="M304 1322l6 38h1001l-6 -38h-482l-233 -1322h-39l233 1322h-480z" />
<glyph unicode="U" horiz-adv-x="1395" d="M261 529l146 832h37l-146 -829q-9 -54 -10 -105q0 -47 8 -91q16 -94 66.5 -165t134.5 -112.5t202 -41.5q114 0 212 40.5t174 110.5t126.5 162.5t68.5 196.5l147 834h38l-146 -832q-22 -124 -79.5 -226t-140 -175t-184.5 -112.5t-213 -39.5q-112 0 -203 39.5t-151.5 112.5 t-84.5 175q-13 53 -13 112q0 55 11 114z" />
<glyph unicode="V" horiz-adv-x="1275" d="M260 1360h41l342 -1316l805 1316h42l-832 -1360h-44z" />
<glyph unicode="W" horiz-adv-x="2015" d="M260 1360h41l342 -1316l492 804l-133 512h41l342 -1316l805 1316h42l-832 -1360h-44l-208 800l-490 -800h-44z" />
<glyph unicode="X" horiz-adv-x="1232" d="M47 0l666 700l-408 660h50l387 -630l609 630h50l-640 -660l420 -700h-49l-400 669l-636 -669h-49z" />
<glyph unicode="Y" horiz-adv-x="1254" d="M271 1360h48l403 -795h2l682 795h54l-721 -832l-93 -528h-38l93 528z" />
<glyph unicode="Z" horiz-adv-x="1230" d="M86 0l6 38l1204 1284h-932l6 38h980l-6 -37l-1204 -1285h1031l-6 -38h-1079z" />
<glyph unicode="[" horiz-adv-x="613" d="M167 -228l321 1818h359l-7 -37h-322l-307 -1744h322l-7 -37h-359z" />
<glyph unicode="\" horiz-adv-x="785" d="M332 1428h41l370 -1636h-41z" />
<glyph unicode="]" horiz-adv-x="618" d="M9 -228l7 37h323l307 1744h-323l7 37h360l-321 -1818h-360z" />
<glyph unicode="^" horiz-adv-x="836" d="M265 856l398 569l196 -569l-38 -17l-173 503l-352 -503z" />
<glyph unicode="_" horiz-adv-x="917" d="M-4 -198l5 38h857l-6 -38h-856z" />
<glyph unicode="`" horiz-adv-x="485" d="M378 1382l39 13l116 -249h-39z" />
<glyph unicode="a" horiz-adv-x="1399" d="M200 425q0 124 52 235t139 195t200.5 133t236.5 49q85 0 158 -26.5t130.5 -72.5t98 -108t59.5 -134l55 308h38l-177 -1004h-38l52 293q-40 -74 -99 -134.5t-130.5 -103t-152 -66t-163.5 -23.5q-99 0 -183 35.5t-145.5 98t-96 146t-34.5 179.5zM239 430q0 -89 30.5 -166.5 t86 -134.5t132 -90t168.5 -33q114 0 221 45.5t189.5 122.5t132 180t49.5 218q0 89 -30.5 166.5t-86 135.5t-132 91t-168.5 33q-114 0 -221 -45.5t-189.5 -123.5t-132 -181t-49.5 -218z" />
<glyph unicode="b" horiz-adv-x="1399" d="M208 0l248 1407h38l-125 -707q42 74 101 134t129.5 103.5t150.5 67t164 23.5q111 0 202.5 -40.5t153.5 -111.5t89 -167q16 -55 16 -115q0 -45 -9 -92q-19 -111 -77 -207t-141 -167t-186 -111.5t-214 -40.5q-84 0 -158.5 23.5t-133.5 66.5t-99.5 103.5t-57.5 133.5 l-53 -303h-38zM334 502q-8 -45 -8 -87q0 -55 14 -105q24 -89 79.5 -154.5t139 -103t186.5 -37.5t200 37.5t176 103t133.5 154.5t72.5 192q8 45 8 87q0 54 -13 104q-23 89 -78.5 155t-139.5 103.5t-187 37.5t-200 -37.5t-176 -103.5t-134 -155t-73 -191z" />
<glyph unicode="c" horiz-adv-x="1124" d="M214 502q20 111 77.5 207t140.5 167t186 111.5t214 40.5q42 0 88 -7.5t92.5 -24t91 -43t81.5 -64.5l-33 -28q-57 60 -137 94t-179 34q-96 0 -192 -34.5t-176.5 -98.5t-137.5 -154t-77 -200q-8 -47 -8 -91q1 -58 15 -110q26 -90 83.5 -153.5t141 -98t179.5 -34.5 q205 0 361 125l23 -28q-87 -66 -180 -101t-202 -35q-110 3 -201.5 44t-154 111.5t-88.5 164.5q-15 55 -16 116q0 44 8 90z" />
<glyph unicode="d" horiz-adv-x="1399" d="M208 502q20 111 79 207t144 167t189.5 111.5t215.5 40.5q84 0 157 -23.5t130 -67t96 -103.5t56 -134l125 707h38l-248 -1407h-38l52 301q-43 -73 -103.5 -132.5t-132.5 -102.5t-153 -66.5t-165 -23.5q-111 0 -201 40.5t-150 111.5t-85 167q-14 55 -14 114q0 45 8 93z M246 502q-8 -45 -8 -87q0 -55 14 -105q24 -89 79 -154.5t139 -103t187 -37.5q102 0 199 37t176 102.5t134 154.5t74 193q8 44 8 86q0 55 -14 105q-24 89 -79.5 155t-139 103.5t-186.5 37.5t-200.5 -37.5t-176.5 -103.5t-133.5 -155t-72.5 -191z" />
<glyph unicode="e" horiz-adv-x="1158" d="M209 500q19 109 77.5 205t142.5 167.5t187 113t211 41.5q113 0 189.5 -27t122.5 -70q47 -42 63 -94q11 -34 11 -66q0 -18 -4 -36q-10 -55 -37 -101.5t-71.5 -81t-105 -54t-136.5 -19.5h-614q-5 -34 -4 -66q-1 -62 15 -116q24 -84 79 -147t135.5 -99t178.5 -36 q114 0 218.5 46.5t186.5 127.5l27 -23q-90 -88 -203.5 -139t-236.5 -51q-108 0 -196.5 41.5t-146.5 112.5q-60 71 -84 167q-14 54 -13 112q0 45 8 92zM251 516h599q74 0 130 16t96 45t63.5 69t31.5 87q3 15 3 29q0 31 -12 62q-16 46 -59 82.5t-113 59.5t-169 23t-193 -37 t-171 -101t-131.5 -150t-74.5 -185z" />
<glyph unicode="f" horiz-adv-x="700" d="M-87 -230l7 38h89q71 0 122.5 23.5t87.5 65t58 98.5t34 125l148 844h-227l7 40h227l11 62q12 68 36 130.5t65 110.5t101 76.5t145 28.5h88l-7 -38h-89q-71 0 -122.5 -23.5t-87.5 -65t-58 -98.5t-34 -125l-10 -58h328l-7 -40h-328l-149 -848q-12 -68 -36 -130.5 t-65 -110.5t-101 -76.5t-145 -28.5h-88z" />
<glyph unicode="g" horiz-adv-x="1333" d="M145 -34h39q5 -57 32.5 -115t80 -104.5t131 -76t184.5 -29.5q102 0 181 25t139 65.5t102.5 93.5t71 108.5t44.5 110.5t24 100l27 150q-40 -74 -98.5 -133t-129.5 -100t-151.5 -63t-163.5 -22q-99 0 -183.5 34.5t-146 95t-96.5 142.5t-35 178q0 124 52 233.5t138.5 191 t199.5 129t236 47.5q85 0 158 -25t131 -69.5t99 -105t60 -132.5l55 309h38l-150 -852q-9 -52 -27 -113t-48.5 -122t-75.5 -117.5t-108.5 -100.5t-147 -70t-191.5 -26q-117 0 -204 33t-145 85t-88 117t-34 128zM236 431q0 -89 31 -165t86.5 -131.5t132.5 -87t169 -31.5 q114 0 220.5 43.5t188.5 119t131.5 177t49.5 216.5q0 89 -31 165t-86.5 131.5t-132.5 87.5t-169 32q-114 0 -220.5 -44t-188.5 -119.5t-131.5 -177t-49.5 -216.5z" />
<glyph unicode="h" horiz-adv-x="1287" d="M207 -2l249 1409h38l-114 -643q32 59 80.5 107.5t108.5 83.5t130 54t146 19q111 0 193 -26.5t132 -83.5q48 -56 64 -145q6 -37 7 -80q0 -61 -13 -134l-98 -559h-39l98 559q13 70 13 128q0 128 -61 199q-88 103 -294 103q-84 0 -166 -27.5t-150.5 -80.5t-117.5 -129 t-66 -174l-102 -580h-38z" />
<glyph unicode="i" horiz-adv-x="454" d="M208 0l177 1004h38l-177 -1004h-38zM411 1331q4 20 21 35t38 15t33.5 -15t8.5 -35q-4 -21 -21.5 -35.5t-38.5 -14.5t-33 14.5t-8 35.5z" />
<glyph unicode="j" horiz-adv-x="488" d="M-134 -346l8 41h65q58 0 102 19.5t76 54.5t52.5 82.5t30.5 103.5l185 1049h38l-185 -1048q-11 -62 -34 -117t-60 -96t-89 -65t-122 -24h-67zM412 1331q4 20 21 35t38 15t33.5 -15t8.5 -35q-4 -21 -21.5 -35.5t-38.5 -14.5t-33 14.5t-8 35.5z" />
<glyph unicode="k" d="M208 0l248 1407h38l-196 -1112l794 709h49l-484 -442l328 -562h-42l-313 540l-342 -301l-42 -239h-38z" />
<glyph unicode="l" horiz-adv-x="560" d="M240 138v8q0 43 10 101l205 1160h38l-205 -1161q-10 -56 -10 -95t15 -63.5t48.5 -35.5t91.5 -11h36l-7 -41h-28q-70 0 -111.5 15t-61.5 46t-21 77z" />
<glyph unicode="m" horiz-adv-x="1957" d="M208 0l177 1004h38l-42 -232q33 57 78.5 103.5t102.5 80.5t123.5 52.5t141.5 18.5q66 0 121 -18t95 -54t63.5 -90.5t27.5 -128.5q30 63 76.5 116.5t107 92.5t132.5 60.5t153 21.5q82 0 146 -27.5t103.5 -84.5t51.5 -144q5 -32 5 -70q0 -62 -13 -137l-99 -564h-38l98 559 q13 74 13 134q0 32 -4 60q-10 81 -45.5 133.5t-93 77.5t-132.5 25q-84 0 -161.5 -27.5t-140.5 -80t-107.5 -128.5t-62.5 -174l-101 -579h-39l98 559q13 74 13 134q0 32 -4 60q-10 81 -45 133.5t-93 77.5t-133 25q-84 0 -162 -27.5t-141 -80.5t-107.5 -129t-61.5 -174 l-101 -578h-38z" />
<glyph unicode="n" horiz-adv-x="1287" d="M208 0l177 1004h38l-46 -258q33 60 83 111.5t112.5 89.5t134.5 59.5t148 21.5q111 0 191 -28t128 -86q46 -59 60 -149q5 -34 6 -74q0 -64 -14 -141l-96 -550h-39l96 550q13 71 13 130q0 128 -60 202q-87 108 -293 107q-84 0 -166.5 -30.5t-151.5 -87t-118.5 -135.5 t-66.5 -177l-98 -559h-38z" />
<glyph unicode="o" horiz-adv-x="1311" d="M209 502q20 111 77.5 207t140.5 167t186 111.5t214 40.5t202.5 -40.5t153.5 -111.5t89 -167q16 -55 16 -115q0 -45 -9 -92q-19 -111 -77 -207t-141 -167t-186 -111.5t-214 -40.5t-202.5 40.5t-153.5 111.5q-63 71 -89 167q-15 56 -15 117q0 44 8 90zM248 502 q-8 -45 -8 -87q0 -55 14 -105q24 -89 79 -154.5t139 -103t187 -37.5t200 37.5t176 103t134 154.5t73 192q8 44 8 86q0 55 -14 105q-24 89 -79.5 155t-139 103.5t-186.5 37.5t-200.5 -37.5t-176.5 -103.5t-133.5 -155t-72.5 -191z" />
<glyph unicode="p" horiz-adv-x="1399" d="M147 -343l238 1347h38l-53 -301q43 73 103.5 133t132.5 102.5t153 66t165 23.5q111 0 201 -40.5t150 -111.5t85 -167q15 -54 15 -112q0 -46 -9 -95q-19 -111 -78.5 -207t-144.5 -167t-189.5 -111.5t-215.5 -40.5q-84 0 -157 23.5t-130 67t-96 104t-56 133.5l-114 -647 h-38zM334 502q-8 -45 -8 -87q0 -55 14 -105q23 -89 79 -154.5t139.5 -103t186.5 -37.5t200 37.5t176 103t133.5 154.5t72.5 192q8 45 8 88q0 54 -13 104q-23 89 -78.5 154.5t-139.5 103t-187 37.5q-102 0 -198.5 -37.5t-175.5 -102.5t-134.5 -154t-74.5 -193z" />
<glyph unicode="q" horiz-adv-x="1405" d="M215 502q20 111 78.5 207t143.5 167t189.5 111.5t215.5 40.5q84 0 157 -23.5t130.5 -66t96.5 -102.5t56 -133l53 301h38l-238 -1347h-38l113 643q-43 -73 -103 -132.5t-132 -102t-153.5 -66t-165.5 -23.5q-111 0 -201 40.5t-150 111.5t-85 167q-13 54 -13 113q0 46 8 94z M253 502q-8 -45 -8 -87q0 -55 13 -105q24 -89 79.5 -154.5t139 -103t186.5 -37.5t200 37.5t176 103t134 154t73 191.5v1q8 45 8 87q0 55 -14 105q-23 89 -78.5 154.5t-139.5 103t-187 37.5t-200 -37.5t-176 -103t-133.5 -154.5t-72.5 -192z" />
<glyph unicode="r" horiz-adv-x="813" d="M208 0l177 1004h38l-48 -270q32 59 80 108.5t109 85.5t133.5 56t153.5 20h92l-8 -40h-93q-92 0 -175 -28t-149.5 -83.5t-113.5 -138t-66 -190.5l-92 -524h-38z" />
<glyph unicode="s" horiz-adv-x="983" d="M121 77l25 32q62 -47 148 -70.5t174 -23.5q103 0 183.5 18t138.5 51t92 79t44 103q4 21 4 40q0 34 -13 60q-20 40 -63 66.5t-106 41.5t-140 22q-69 7 -139.5 19t-125.5 39t-85 73q-20 32 -20 77q0 20 4 42q8 47 35.5 97t82.5 91t140 67.5t209 26.5q53 0 101.5 -10t91 -26 t77.5 -35t60 -37l-27 -33q-22 17 -54 35t-71 33t-85 25t-97 10q-109 0 -186.5 -21.5t-128 -56.5t-77 -78.5t-34.5 -87.5q-3 -16 -3 -30q0 -75 74 -117q88 -50 265 -64q36 -3 78.5 -8.5t84.5 -17t80 -30t64 -47.5q26 -30 38 -70q6 -22 7 -47q0 -23 -5 -49 q-12 -66 -49.5 -119.5t-100.5 -91.5t-151 -58.5t-200 -20.5q-47 0 -95 6t-92.5 19t-83.5 32t-69 44z" />
<glyph unicode="t" horiz-adv-x="826" d="M221 964l8 40h194l54 308h38l-54 -308h416l-8 -40h-416l-105 -598q-11 -62 -10 -112q0 -33 4 -60q12 -68 44.5 -107.5t80.5 -55.5t102 -16h185l-7 -39h-186q-70 0 -125 22.5t-89 69.5q-35 48 -45 122q-4 27 -3 58q0 53 11 119l105 597h-194z" />
<glyph unicode="u" horiz-adv-x="1249" d="M252 477l93 527h38l-93 -527q-12 -70 -12 -131q0 -128 56 -210q84 -120 292 -121q208 0 334 118t166 344l93 527h38l-93 -527q-43 -244 -182.5 -372.5t-362.5 -128.5q-221 0 -315 130q-65 89 -65 231q0 64 13 140z" />
<glyph unicode="v" horiz-adv-x="1008" d="M218 1004h41l255 -960l595 960h41l-621 -1004h-44z" />
<glyph unicode="w" horiz-adv-x="1661" d="M218 1004h41l246 -960l434 687l-75 273h41l265 -960l2 5l583 955h42l-612 -1004h-45l-188 684l-432 -684h-45z" />
<glyph unicode="x" horiz-adv-x="991" d="M67 0l489 501l-311 503h51l289 -472l461 472h57l-492 -503l310 -501h-51l-290 469l-456 -469h-57z" />
<glyph unicode="y" d="M13 -347l7 39h185q48 0 85 17t70.5 53t69 91.5t81.5 131.5l-273 1019h40l261 -965l601 965h44l-600 -967q-58 -95 -100.5 -166.5t-84.5 -120t-91 -73t-119 -24.5h-176zM520 -58h3l-2 6z" />
<glyph unicode="z" horiz-adv-x="926" d="M67 0l6 37l903 929h-706l7 38h756l-7 -37l-903 -930h765l-6 -37h-815z" />
<glyph unicode="{" horiz-adv-x="616" d="M198 662l7 37q49 19 89 49.5t70.5 69.5t50.5 84.5t29 93.5l37 209q18 104 33 175.5t46.5 117t90 68.5t164.5 29l-7 -38q-72 -8 -118 -18t-75 -32t-44.5 -60.5t-27.5 -103.5l-61 -347q-10 -55 -31.5 -103.5t-52 -89t-68.5 -71.5t-80 -52q73 -47 107 -126t14 -189l-37 -209 q-20 -112 -29.5 -177.5t5 -101t58.5 -49.5t131 -24l-7 -38q-103 6 -153.5 29t-66 68.5t-5 117.5t28.5 175l37 209q10 56 4 103t-24 85t-47.5 65.5t-67.5 43.5z" />
<glyph unicode="|" horiz-adv-x="434" d="M138 -338l335 1900h38l-335 -1900h-38z" />
<glyph unicode="}" horiz-adv-x="616" d="M31 -234l7 38q60 6 101 14t69 22t44.5 37t28.5 60t22 90.5t23 128.5l37 209q20 110 80.5 189t151.5 126q-34 21 -61 52t-43.5 71.5t-21.5 89t5 103.5l61 347q12 65 10 103.5t-23 60.5t-63.5 32t-111.5 18l7 38q103 -6 153.5 -29t65.5 -68.5t4.5 -117t-28.5 -175.5 l-37 -209q-9 -48 -4.5 -93.5t21.5 -84.5t46.5 -69.5t71.5 -49.5l-7 -37q-43 -16 -82 -43.5t-70.5 -65.5t-54 -85t-32.5 -103l-37 -209q-18 -103 -33 -175t-46.5 -117.5t-90 -68.5t-163.5 -29z" />
<glyph unicode="~" horiz-adv-x="1259" d="M262 584q61 54 127 82t134 28q66 0 119.5 -17.5t102 -39t98 -39t107.5 -17.5q131 0 240 98l24 -26q-61 -54 -128.5 -82t-142.5 -28q-63 0 -114 17.5t-100 39t-100 39t-113 17.5q-60 0 -118 -24.5t-113 -74.5z" />
<glyph unicode="&#xa2;" horiz-adv-x="1190" d="M214 502q20 111 79 207t144.5 167t191.5 111.5t218 40.5l29 164h38l-29 -166q76 -6 155 -38.5t145 -98.5l-33 -28q-57 60 -137 94t-179 34q-96 0 -192 -34.5t-176.5 -98.5t-137.5 -154t-77 -200q-19 -111 6.5 -201t83.5 -153.5t141.5 -98t179.5 -34.5q205 0 361 125 l23 -28q-90 -68 -180 -99t-169 -36l-30 -171h-38l25 170q-110 3 -200 44t-150.5 111.5t-85.5 165t-6 205.5z" />
<glyph unicode="&#xa3;" horiz-adv-x="1185" d="M129 0l6 38q65 35 134 97t126.5 138.5t97 159.5t46.5 159h-142l6 36h140q7 75 0 130t-15.5 104.5t-13 100.5t7.5 118q12 71 47 127.5t88 96t122 60.5t148 21q24 0 57 -7.5t67.5 -24t67 -43.5t55.5 -65t32.5 -88t-1.5 -114h-38q15 83 -10 141t-66.5 94t-88.5 52.5 t-78 16.5q-72 0 -133.5 -17.5t-109 -51.5t-79 -84t-42.5 -114q-11 -61 -6 -111t13.5 -100.5t15.5 -108t-1 -133.5l376 -1l-6 -36l-375 1q-1 -8 -2 -16.5t-3 -16.5q-8 -47 -30 -100t-52 -105.5t-66 -102.5t-74.5 -92t-76 -73.5t-70.5 -47.5h897l-6 -38h-965z" />
<glyph unicode="&#xa5;" horiz-adv-x="1181" d="M207 310l7 36l874 -1l-6 -36h-419l-54 -309l-37 1l54 309h-419zM256 587l7 38h408l-366 735h47l352 -712l603 712h47l-623 -735h407l-7 -38h-875z" />
<glyph unicode="&#xa8;" horiz-adv-x="869" d="M476 1253q5 23 22.5 37.5t37.5 14.5q23 0 35 -14.5t7 -37.5q-3 -20 -20 -34.5t-40 -14.5q-20 0 -32.5 14.5t-9.5 34.5zM765 1253q5 23 22 37.5t38 14.5q23 0 34.5 -14.5t6.5 -37.5q-3 -20 -19.5 -34.5t-39.5 -14.5q-21 0 -33 14.5t-9 34.5z" />
<glyph unicode="&#xa9;" horiz-adv-x="1674" d="M243 681q17 99 58.5 190t102 170.5t137 145t164 112t183.5 72t194 25.5q148 0 268.5 -56t200 -153t113 -227.5t7.5 -278.5q-17 -98 -59 -189t-102.5 -170.5t-137 -144.5t-164.5 -111.5t-183.5 -72t-194.5 -25.5q-148 0 -268 56t-199.5 153t-112.5 227t-7 277zM281 681 q-25 -139 6.5 -262t107 -214.5t189.5 -144.5t253 -53q140 0 272.5 53t240.5 144.5t183 214.5t100 262q25 140 -7 263.5t-107.5 215.5t-189.5 145t-254 53q-139 0 -271.5 -53t-240.5 -145t-182.5 -215.5t-99.5 -263.5zM447 681q18 106 74.5 199t138 162.5t181.5 109.5t205 40 q47 0 84 -7.5t67 -20.5t53.5 -30.5t43.5 -37.5l-32 -27q-1 4 -16.5 17.5t-43.5 28.5t-69 26.5t-93 11.5q-98 0 -190.5 -37t-167.5 -101t-127 -150t-69 -184q-17 -97 4.5 -183t74 -150t132 -101t177.5 -37q58 0 104 10t81 25q39 15 70 34l16 -31q-32 -18 -63 -32t-64.5 -24 t-70.5 -15t-81 -5q-105 0 -191 40t-143 109t-80.5 162t-4.5 198z" />
<glyph unicode="&#xab;" horiz-adv-x="1023" d="M219 478l331 349h49l-330 -349l207 -350h-49zM630 478l331 349h49l-330 -349l206 -350h-48z" />
<glyph unicode="&#xad;" horiz-adv-x="701" d="M203 460l6 38h457l-6 -38h-457z" />
<glyph unicode="&#xae;" horiz-adv-x="1674" d="M243 681q17 99 58.5 190t102 170.5t137 145t164 112t183.5 72t194 25.5q148 0 268.5 -56t200 -153t113 -227.5t7.5 -278.5q-17 -98 -59 -189t-102.5 -170.5t-137 -144.5t-164.5 -111.5t-183.5 -72t-194.5 -25.5q-148 0 -268 56t-199.5 153t-112.5 227t-7 277zM281 681 q-25 -139 6.5 -262t107 -214.5t189.5 -144.5t253 -53q140 0 272.5 53t240.5 144.5t183 214.5t100 262q25 140 -7 263.5t-107.5 215.5t-189.5 145t-254 53q-139 0 -271.5 -53t-240.5 -145t-182.5 -215.5t-99.5 -263.5zM569 197l174 988h367q60 0 108.5 -22.5t80.5 -62 t45 -92.5t2 -113q-9 -48 -31.5 -92t-55 -80t-73.5 -62.5t-87 -40.5l138 -423h-44l-134 413q-13 -2 -25.5 -3t-25.5 -1h-328l-72 -409h-39zM687 644h329q53 0 102 20t88 54t66 79.5t36 97.5q9 51 -2 97t-38.5 80.5t-69.5 54.5t-95 20h-327z" />
<glyph unicode="&#xb4;" horiz-adv-x="485" d="M283 1146l201 249l36 -13l-198 -236h-39z" />
<glyph unicode="&#xb8;" horiz-adv-x="428" d="M27 -429l19 35q23 -9 48 -11t51 -2t56 12.5t56.5 33.5t46 48t24.5 57q7 38 -4 61.5t-32.5 37t-50 18.5t-55.5 6l82 151h39l-68 -120q26 -3 51.5 -12.5t44.5 -27.5t28.5 -46t2.5 -68q-6 -38 -30 -72t-56.5 -60t-70 -41t-71.5 -15q-32 0 -59 2t-52 13z" />
<glyph unicode="&#xbb;" horiz-adv-x="1023" d="M199 128l330 350l-208 349h49l209 -349l-332 -350h-48zM610 128l330 350l-208 349h49l209 -349l-332 -350h-48z" />
<glyph unicode="&#x2c6;" horiz-adv-x="791" d="M353 1157l296 204l226 -204l-33 -26l-201 184l-264 -184z" />
<glyph unicode="&#x2da;" horiz-adv-x="565" d="M336 1310q6 35 23.5 64t42.5 51t55.5 34t63.5 12q35 0 61.5 -12t44 -34t23.5 -51t0 -64q-5 -31 -21.5 -59t-41 -49t-55.5 -33t-66 -12q-33 0 -59 12t-43.5 33t-25 49t-2.5 59zM375 1310q-4 -23 2 -44t19 -36.5t32.5 -25t43.5 -9.5q26 0 50 9.5t42.5 25t31 36.5t16.5 44 q10 53 -17.5 88t-80.5 35q-24 0 -47 -9.5t-41.5 -26t-32 -39t-18.5 -48.5z" />
<glyph unicode="&#x2dc;" horiz-adv-x="860" d="M329 1191q71 83 155 83q33 0 67 -12q24 -8 49.5 -20t51.5 -23t53 -19t55 -8q42 0 89 24.5t104 90.5l27 -20q-64 -76 -120.5 -104t-106.5 -28q-41 0 -77 13t-69 28.5t-65 28.5t-65 13q-29 0 -59 -15t-63 -53z" />
<glyph unicode="&#x401;" horiz-adv-x="1152" d="M208 0l239 1360h850l-7 -41h-812l-110 -626h712l-7 -39h-712l-109 -615h821l-6 -39h-859zM729 1637q5 23 22.5 37.5t37.5 14.5q23 0 35 -14.5t7 -37.5q-3 -20 -20 -34.5t-40 -14.5q-20 0 -32.5 14.5t-9.5 34.5zM1018 1637q5 23 22 37.5t38 14.5q23 0 34.5 -14.5 t6.5 -37.5q-3 -20 -19.5 -34.5t-39.5 -14.5q-21 0 -33 14.5t-9 34.5z" />
<glyph unicode="&#x402;" horiz-adv-x="1601" d="M285 1323l6 37h1038l-6 -37h-500l-113 -640q24 52 70 106t107 98.5t133.5 72.5t150.5 28q105 0 175.5 -30t109 -87.5t47 -140.5t-10.5 -188l-95 -542h-1l-11 -64q-10 -60 -27 -112.5t-46 -91.5t-73.5 -62t-111.5 -23q-16 0 -31.5 1.5t-32.5 3.5l11 41q16 -2 30 -3.5 t28 -1.5q55 0 92 18.5t61 51.5t38.5 78.5t23.5 98.5l107 607q17 97 10.5 172.5t-41 128t-98.5 80t-162 27.5q-79 0 -157.5 -33.5t-144.5 -92t-114 -137.5t-66 -170l-91 -517h-39l233 1323h-499z" />
<glyph unicode="&#x403;" horiz-adv-x="1148" d="M203 0l239 1360h850l-7 -41h-811l-232 -1319h-39zM846 1550l201 249l36 -13l-198 -236h-39z" />
<glyph unicode="&#x404;" horiz-adv-x="1497" d="M244 681q17 99 58.5 190t102 170.5t137.5 145t164.5 112t183 72t193.5 25.5q147 0 265 -54.5t199 -149.5l-32 -27q-76 91 -188 142t-251 51q-137 0 -267 -51.5t-237 -140.5t-182.5 -208.5t-103.5 -256.5h1014l-7 -39h-1014q-20 -136 13.5 -255.5t109 -208.5t187.5 -140 t249 -51q139 0 268 50.5t237 140.5l23 -27q-114 -94 -251.5 -148.5t-283.5 -54.5q-147 0 -267 56t-200 153t-113 227t-7 277z" />
<glyph unicode="&#x405;" horiz-adv-x="1143" d="M75 113l34 29q27 -18 67 -40t93.5 -41.5t121 -32.5t149.5 -13q119 0 216 22t169 66t118 109.5t61 152.5q15 84 -11 142.5t-80 96.5t-129.5 58t-160.5 28q-55 5 -112.5 12t-110 20t-97 34t-74.5 55t-42.5 82.5t-0.5 116.5q11 63 43 130t94 122t157.5 90t232.5 35 q75 0 142 -14t124.5 -35.5t104.5 -46.5t82 -46l-28 -36q-28 20 -69 44t-94.5 45t-118 35.5t-140.5 14.5q-124 0 -212.5 -30t-147 -78t-90 -108.5t-42.5 -121.5q-14 -78 10 -128t79 -81t136.5 -47.5t182.5 -25.5q44 -4 95 -12t101 -24t94.5 -41.5t75.5 -64.5t44 -93t0 -128 q-16 -89 -60.5 -161t-119 -122.5t-179 -78t-240.5 -27.5q-64 0 -130 9t-127.5 26.5t-115.5 43t-95 58.5z" />
<glyph unicode="&#x406;" horiz-adv-x="454" d="M208 0l239 1360h38l-239 -1360h-38z" />
<glyph unicode="&#x407;" horiz-adv-x="454" d="M208 0l239 1360h38l-239 -1360h-38zM372 1657q5 23 22.5 37.5t37.5 14.5q23 0 35 -14.5t7 -37.5q-3 -20 -20 -34.5t-40 -14.5q-20 0 -32.5 14.5t-9.5 34.5zM661 1657q5 23 22 37.5t38 14.5q23 0 34.5 -14.5t6.5 -37.5q-3 -20 -19.5 -34.5t-39.5 -14.5q-21 0 -33 14.5 t-9 34.5z" />
<glyph unicode="&#x408;" horiz-adv-x="720" d="M42 0l6 38h106q107 0 182 26.5t125.5 76t80 120t45.5 159.5l165 940h38l-166 -941q-18 -102 -52 -180.5t-90.5 -131.5t-138 -80t-195.5 -27h-106z" />
<glyph unicode="&#x409;" horiz-adv-x="2275" d="M28 -23l11 40h27q55 0 96.5 17t71.5 48.5t49.5 75t28.5 96.5l195 1106h1074l-99 -561h465q83 0 149.5 -31.5t110.5 -86t62 -127t3 -155.5q-15 -82 -58.5 -155t-106.5 -127t-140.5 -85.5t-160.5 -31.5h-503l232 1319h-997l-188 -1064q-10 -60 -32 -111t-57 -88.5 t-84.5 -58.5t-116.5 -21q-5 0 -16 0.5t-16 0.5zM1348 38h464q74 0 144 29t127.5 78.5t97.5 115.5t53 139q13 74 -3.5 139.5t-56 114.5t-98.5 78t-132 29h-468z" />
<glyph unicode="&#x40a;" horiz-adv-x="2258" d="M253 0l239 1360h40l-105 -599h1014l105 599h38l-105 -599h466q83 0 149.5 -28.5t111 -79.5t63 -120.5t4.5 -151.5q-15 -83 -58 -153t-105.5 -120.5t-139.5 -79t-160 -28.5h-503l127 722h-1014l-127 -722h-40zM1351 38h465q73 0 142.5 26t126.5 72.5t96.5 109.5t52.5 136 t-4 135.5t-57 108t-100 71.5t-132 26h-469z" />
<glyph unicode="&#x40b;" horiz-adv-x="1601" d="M285 1323l6 37h1038l-6 -37h-500l-113 -640q24 52 70 106t107 98.5t133.5 72.5t150.5 28q105 0 175.5 -30t109 -87.5t47 -140.5t-10.5 -188l-95 -542h-38l95 542q17 97 10.5 172.5t-41 128t-98.5 80t-162 27.5q-79 0 -157.5 -33.5t-144.5 -92t-114 -137.5t-66 -170 l-91 -517h-39l233 1323h-499z" />
<glyph unicode="&#x40c;" horiz-adv-x="1238" d="M208 0l239 1360h38l-180 -1023l1054 1023h50l-615 -595l417 -765h-51l-396 733l-468 -450l-50 -283h-38zM851 1550l201 249l36 -13l-198 -236h-39z" />
<glyph unicode="&#x40e;" horiz-adv-x="1051" d="M210 -30l11 37h27q69 0 116.5 24.5t81.5 81.5l111 180l-269 1067h42l258 -1017l614 1017h42l-757 -1251q-37 -62 -95.5 -101t-148.5 -39q-6 0 -16.5 0.5t-16.5 0.5zM584 1742l39 7q4 -34 14.5 -62t32.5 -48t58.5 -31t91.5 -11t95.5 11t69.5 31t50 48t37 62l35 -7 q-34 -90 -108 -137t-186 -47t-169.5 47t-59.5 137z" />
<glyph unicode="&#x40f;" horiz-adv-x="1449" d="M206 0l239 1360h38l-232 -1319h960l232 1319h38l-239 -1360h-501l-70 -401h-38l71 401h-498z" />
<glyph unicode="&#x410;" horiz-adv-x="1272" d="M21 0l832 1360h44l354 -1360h-42l-102 394h-804l-241 -394h-41zM327 432h770l-229 884z" />
<glyph unicode="&#x411;" horiz-adv-x="1202" d="M208 0l239 1360h783l-6 -38h-744l-93 -523h465q83 0 149.5 -31.5t110.5 -86t62 -127t3 -155.5q-15 -82 -58.5 -155t-106.5 -127t-140.5 -85.5t-160.5 -31.5h-503zM253 38h464q74 0 144 29t127.5 78.5t97.5 115.5t53 139q13 74 -3.5 139.5t-56 114.5t-99 78t-131.5 29 h-468z" />
<glyph unicode="&#x412;" horiz-adv-x="1286" d="M208 0l239 1360h557q70 0 126.5 -26.5t94.5 -72.5t53.5 -107.5t3.5 -131.5q-9 -51 -31.5 -97.5t-55.5 -86t-74.5 -70.5t-88.5 -51q57 -14 102.5 -47t74.5 -80t40 -105t0 -122q-13 -76 -53.5 -142t-98.5 -115t-129 -77.5t-146 -28.5h-614zM253 42h576q67 0 130 25.5 t114.5 69t87 102t47.5 125.5q12 66 -3 125t-50.5 102.5t-88.5 69t-119 25.5h-581zM374 727h519q61 0 119 23.5t105.5 63.5t80.5 94.5t44 115.5t-3 115.5t-47 95t-83 64t-111 23.5h-519z" />
<glyph unicode="&#x413;" horiz-adv-x="1103" d="M208 0l239 1360h850l-7 -41h-811l-232 -1319h-39z" />
<glyph unicode="&#x414;" horiz-adv-x="1428" d="M21 -291l59 332h80q32 17 67 56.5t70 92t68.5 114t61.5 123t50 118t33 98.5l185 717h730l-232 -1319h170l-59 -332h-39l52 291h-1206l-52 -291h-38zM219 41h936l225 1278h-656l-177 -679q-18 -65 -51 -150.5t-76.5 -170.5t-95 -159.5t-105.5 -118.5z" />
<glyph unicode="&#x415;" horiz-adv-x="1152" d="M208 0l239 1360h850l-7 -41h-812l-110 -626h712l-7 -39h-712l-109 -615h821l-6 -39h-859z" />
<glyph unicode="&#x416;" horiz-adv-x="1872" d="M129 0l716 649l-480 711h52l462 -679l188 170l89 509h40l-89 -509l128 -170l700 679h52l-729 -711l488 -649h-52l-597 794l-140 -794h-40l140 794l-876 -794h-52z" />
<glyph unicode="&#x417;" horiz-adv-x="1304" d="M150 136l34 25q21 -30 65 -58t104 -49t133 -34t151 -13q92 0 182 23.5t164 68.5t125.5 109.5t65.5 146.5q15 81 -1.5 141t-56.5 101.5t-98.5 67.5t-127.5 39h-418l6 38h406q66 11 123.5 32.5t103 57t76.5 86.5t43 121q14 82 -10.5 142t-77.5 99.5t-129.5 59t-165.5 19.5 q-45 0 -101 -7t-111.5 -21.5t-105 -36.5t-81.5 -52l-24 25q35 33 88 57t113 40.5t120 24.5t109 8q102 0 185 -22.5t139.5 -67t81 -111.5t8.5 -157q-12 -71 -40.5 -123t-69 -88.5t-91 -61t-107.5 -39.5q58 -14 110.5 -41t89 -71t52.5 -108t0 -152q-16 -90 -70 -161.5 t-133.5 -122t-177 -77t-201.5 -26.5q-85 0 -162 14t-140 37t-109 53.5t-69 63.5z" />
<glyph unicode="&#x418;" horiz-adv-x="1504" d="M208 0l239 1360h38l-227 -1287l1255 1287h22l-239 -1360h-38l225 1280l-1248 -1280h-27z" />
<glyph unicode="&#x419;" horiz-adv-x="1504" d="M208 0l239 1360h38l-227 -1287l1255 1287h22l-239 -1360h-38l225 1280l-1248 -1280h-27zM756 1742l39 7q4 -34 14.5 -62t32.5 -48t58.5 -31t91.5 -11t95.5 11t69.5 31t50 48t37 62l35 -7q-34 -90 -108 -137t-186 -47t-169.5 47t-59.5 137z" />
<glyph unicode="&#x41a;" horiz-adv-x="1238" d="M208 0l239 1360h38l-180 -1023l1054 1023h50l-615 -595l417 -765h-51l-396 733l-468 -450l-50 -283h-38z" />
<glyph unicode="&#x41b;" horiz-adv-x="1550" d="M28 -23l11 40h27q55 0 96.5 17t71.5 48.5t49.5 75t28.5 96.5l195 1106h1074l-239 -1360h-39l232 1319h-997l-188 -1064q-10 -60 -32 -111t-57 -88.5t-84.5 -58.5t-116.5 -21q-5 0 -16 0.5t-16 0.5z" />
<glyph unicode="&#x41c;" horiz-adv-x="1694" d="M208 0l239 1360h29l472 -787l743 787h34l-239 -1360h-38l227 1291l-724 -763h-24l-454 762l-227 -1290h-38z" />
<glyph unicode="&#x41d;" horiz-adv-x="1471" d="M208 0l239 1360h38l-117 -667h977l117 667h39l-239 -1360h-39l115 654h-977l-115 -654h-38z" />
<glyph unicode="&#x41e;" horiz-adv-x="1668" d="M240 681q26 148 103 277t188.5 224t249.5 150t286 55t270 -55t204.5 -150t117.5 -224t9 -277q-26 -147 -103.5 -275.5t-189 -223.5t-250 -149.5t-286.5 -54.5t-270 54.5t-203.5 149.5t-116.5 223.5t-9 275.5zM278 681q-25 -139 7 -260.5t107.5 -211.5t189.5 -141.5 t253 -51.5q140 0 272.5 51.5t240.5 141.5t182.5 211.5t99.5 260.5q25 140 -7 262t-108.5 212t-190.5 142t-254 52q-139 0 -271 -52t-239.5 -142t-182 -212t-99.5 -262z" />
<glyph unicode="&#x41f;" horiz-adv-x="1471" d="M208 0l239 1360h1102l-239 -1360h-38l232 1319h-1025l-232 -1319h-39z" />
<glyph unicode="&#x420;" horiz-adv-x="1250" d="M208 0l239 1360h529q90 0 160.5 -31.5t115.5 -87t62.5 -132t1.5 -166.5t-60 -166t-108.5 -131.5t-145.5 -87t-171 -31.5h-493l-92 -527h-38zM345 565h496q80 0 153 29t131.5 79.5t98.5 119t54 149.5t-2 150.5t-57 120.5t-104.5 80t-144.5 29h-491z" />
<glyph unicode="&#x421;" horiz-adv-x="1480" d="M240 681q17 99 58.5 189.5t101.5 169t136.5 142.5t163.5 109.5t183 70.5t194 25q157 0 281.5 -60.5t204.5 -165.5l-32 -26q-76 100 -194 157t-267 57q-139 0 -271 -52t-239.5 -142t-182 -212t-99.5 -262q-25 -139 7 -260.5t107.5 -211.5t189.5 -141.5t253 -51.5 q149 0 287.5 57t249.5 157l23 -26q-118 -105 -263 -165.5t-303 -60.5q-148 0 -268 54.5t-200.5 149.5t-113.5 223.5t-7 275.5z" />
<glyph unicode="&#x422;" horiz-adv-x="1138" d="M304 1322l6 38h1001l-6 -38h-482l-233 -1322h-39l233 1322h-480z" />
<glyph unicode="&#x423;" horiz-adv-x="1051" d="M210 -30l11 37h27q69 0 116.5 24.5t81.5 81.5l111 180l-269 1067h42l258 -1017l614 1017h42l-757 -1251q-37 -62 -95.5 -101t-148.5 -39q-6 0 -16.5 0.5t-16.5 0.5z" />
<glyph unicode="&#x424;" horiz-adv-x="1674" d="M244 681q26 146 96.5 254.5t175.5 181.5t239 110t285 39l17 94h38l-17 -94q152 -2 273 -39t201 -110t113 -181.5t7 -254.5q-26 -145 -97 -253.5t-176.5 -180.5t-239.5 -109t-286 -39l-17 -99h-38l17 99q-152 2 -273 39t-200.5 109t-111.5 180.5t-6 253.5zM282 681 q-24 -137 10 -238.5t111 -168.5t190.5 -101t248.5 -36l192 1091q-136 -2 -261.5 -36t-226.5 -101.5t-170.5 -169.5t-93.5 -240zM880 137q137 2 263 36t227 101t170.5 168.5t93.5 238.5q24 138 -9.5 240t-110.5 169.5t-191 101.5t-251 36z" />
<glyph unicode="&#x425;" horiz-adv-x="1232" d="M47 0l666 700l-408 660h50l387 -630l609 630h50l-640 -660l420 -700h-49l-400 669l-636 -669h-49z" />
<glyph unicode="&#x426;" horiz-adv-x="1551" d="M208 0l239 1360h38l-232 -1319h960l232 1319h38l-232 -1319h263l-59 -332h-38l52 291h-1261z" />
<glyph unicode="&#x427;" horiz-adv-x="1298" d="M299.5 630q-13.5 83 5.5 188l95 542h38l-95 -542q-34 -194 47.5 -300.5t277.5 -106.5q79 0 157.5 33.5t144.5 91.5t114 137t66 169l91 518h38l-239 -1360h-38l119 679q-24 -52 -69.5 -107t-106.5 -99t-134 -72.5t-151 -28.5q-105 0 -181 30t-121 87.5t-58.5 140.5z" />
<glyph unicode="&#x428;" horiz-adv-x="2046" d="M208 0l239 1360h38l-232 -1319h758l232 1319h38l-232 -1319h758l232 1319h38l-239 -1360h-1630z" />
<glyph unicode="&#x429;" horiz-adv-x="2161" d="M208 0l239 1360h38l-232 -1319h758l232 1319h38l-232 -1319h758l232 1319h38l-232 -1319h263l-59 -332h-39l52 291h-1854z" />
<glyph unicode="&#x42a;" horiz-adv-x="1433" d="M270 1319l7 41h391l-93 -527h493q90 0 160 -31.5t115 -87t62 -131.5t1 -166t-60 -166.5t-108.5 -132t-146 -87t-171.5 -31.5h-529l232 1319h-353zM435 38h491q81 0 155 29t133 80t99.5 120.5t54.5 150.5t-1.5 149.5t-55.5 119t-103 79.5t-143 29h-496z" />
<glyph unicode="&#x42b;" horiz-adv-x="1680" d="M208 0l239 1360h38l-93 -527h493q90 0 160 -31.5t115 -87t62 -131.5t1 -166t-60 -166.5t-108.5 -132t-146 -87t-171.5 -31.5h-529zM252 38h491q81 0 155 29t133 80t99.5 120.5t54.5 150.5t-1.5 149.5t-55.5 119t-103 79.5t-143 29h-496zM1364 0l239 1360h38l-239 -1360 h-38z" />
<glyph unicode="&#x42c;" horiz-adv-x="1250" d="M208 0l239 1360h38l-93 -527h493q90 0 160 -31.5t115 -87t62 -131.5t1 -166t-60 -166.5t-108.5 -132t-146 -87t-171.5 -31.5h-529zM252 38h491q81 0 155 29t133 80t99.5 120.5t54.5 150.5t-1.5 149.5t-55.5 119t-103 79.5t-143 29h-496z" />
<glyph unicode="&#x42d;" horiz-adv-x="1407" d="M159 171l31 27q76 -90 188.5 -140.5t250.5 -50.5q137 0 267 51t237 140t182 208.5t103 255.5h-1013l7 39h1013q20 137 -13 256.5t-108 208.5t-187 140.5t-250 51.5t-268.5 -51t-238.5 -142l-22 27q115 95 252.5 149.5t283.5 54.5q148 0 268 -56t199.5 -153t112.5 -227.5 t7 -278.5q-17 -98 -59 -189t-102 -170.5t-137 -144.5t-164 -111.5t-182.5 -72t-194.5 -25.5q-146 0 -264 54.5t-199 148.5z" />
<glyph unicode="&#x42e;" horiz-adv-x="2205" d="M208 0l239 1360h38l-239 -1360h-38zM284 668l4 37l410 -1l-3 -38zM726 681q26 148 103 277t188.5 224t249.5 150t286 55t270 -55t204.5 -150t117.5 -224t9 -277q-26 -147 -103.5 -275.5t-189 -223.5t-250 -149.5t-286.5 -54.5t-270 54.5t-203.5 149.5t-116.5 223.5 t-9 275.5zM764 681q-25 -139 7 -260.5t107.5 -211.5t189.5 -141.5t253 -51.5q140 0 272.5 51.5t240.5 141.5t182.5 211.5t99.5 260.5q25 140 -7 262t-108.5 212t-190.5 142t-254 52q-139 0 -271 -52t-239.5 -142t-182 -212t-99.5 -262z" />
<glyph unicode="&#x42f;" horiz-adv-x="1310" d="M184 0l394 581q-57 19 -100.5 56t-71.5 86.5t-37.5 110t2.5 127.5q15 83 58.5 155.5t106.5 126.5t140.5 85.5t160.5 31.5h504l-239 -1360h-38l99 562h-467q-21 0 -40.5 2t-38.5 6l-387 -570h-46zM408 960q-13 -73 3.5 -138.5t56.5 -115t99.5 -78t131.5 -28.5h470l128 723 h-466q-73 0 -143.5 -29.5t-128.5 -79t-98 -115.5t-53 -139z" />
<glyph unicode="&#x430;" horiz-adv-x="1178" d="M300 425q0 124 52 235t139 195t200.5 133t236.5 49q85 0 158 -26.5t130.5 -72.5t98 -108t59.5 -134l55 308h38l-177 -1004h-38l52 293q-40 -74 -99 -134.5t-130.5 -103t-152 -66t-163.5 -23.5q-99 0 -183 35.5t-145.5 98t-96 146t-34.5 179.5zM339 430q0 -89 30.5 -166.5 t86 -134.5t132 -90t168.5 -33q114 0 221 45.5t189.5 122.5t132 180t49.5 218q0 89 -30.5 166.5t-86 135.5t-132 91t-168.5 33q-114 0 -221 -45.5t-189.5 -123.5t-132 -181t-49.5 -218z" />
<glyph unicode="&#x431;" horiz-adv-x="1325" d="M216 502l71 405q20 111 79 208t144.5 170t190 115t215.5 42q39 0 73 -6.5t67 -14t66.5 -14t70.5 -6.5q17 0 34.5 1.5t36.5 5.5l-3 -41q-15 -5 -31 -7t-33 -2q-35 0 -71.5 7t-73.5 16t-73 16t-69 7q-103 0 -200.5 -39t-176.5 -106.5t-134 -158t-73 -193.5l-35 -200 q43 73 103.5 133.5t132.5 104t152.5 68t164.5 24.5q111 0 201 -42t150 -115t85 -170t5 -208q-19 -111 -78.5 -208.5t-145 -170t-190 -115t-215.5 -42.5t-200.5 42t-149.5 115t-84.5 170.5t-5.5 208.5zM255 501q-18 -103 5 -193.5t78.5 -157.5t139 -105.5t186.5 -38.5 t200.5 39t176.5 106t134 157.5t73 193.5q18 102 -5 192.5t-78.5 158t-139.5 106.5t-187 39q-102 0 -197.5 -38t-174 -103.5t-134 -153.5t-75.5 -188z" />
<glyph unicode="&#x432;" horiz-adv-x="1095" d="M208 0l177 1006h446q57 0 103.5 -19.5t77 -53.5t44 -79.5t4.5 -98.5q-7 -37 -24.5 -71.5t-43 -63.5t-58 -52t-69.5 -37q45 -11 81.5 -35t60.5 -58.5t33.5 -77t0.5 -90.5q-10 -57 -42 -106.5t-78 -86t-103 -57t-117 -20.5h-493zM254 40h453q52 0 101 18t89 49.5t67 73.5 t35 91q9 48 -3 90t-40.5 73.5t-70.5 50t-93 18.5h-457zM342 542h407q48 0 93.5 16.5t82 45.5t62 68t33.5 83t-4 83t-38.5 68t-66 46t-87.5 17h-407z" />
<glyph unicode="&#x433;" horiz-adv-x="965" d="M206 0l177 1004h709l-8 -41h-670l-170 -963h-38z" />
<glyph unicode="&#x434;" horiz-adv-x="1305" d="M23 -236l48 274h84q132 107 225.5 257.5t147.5 350.5l98 358h647l-171 -966h128l-48 -274h-38l42 236h-1082l-42 -236h-39zM204 38h860l163 925h-574l-86 -321q-30 -111 -68 -200t-83.5 -161.5t-98.5 -132t-113 -110.5z" />
<glyph unicode="&#x435;" horiz-adv-x="1158" d="M197 512q19 109 77.5 205t142.5 167.5t187 113t211 41.5q113 0 189.5 -27t122.5 -69.5t62.5 -94.5t7.5 -102q-10 -55 -37 -101.5t-71.5 -81t-105 -54t-136.5 -19.5h-614q-13 -97 11.5 -181.5t79 -147.5t135 -99t178.5 -36q114 0 218.5 46.5t186.5 127.5l27 -23 q-90 -88 -203.5 -139t-236.5 -51q-108 0 -196.5 41.5t-147 112.5t-83 167t-5.5 204zM239 528h599q74 0 130 16t96 45t63.5 69t31.5 87q8 45 -8.5 91t-59.5 82.5t-113 59.5t-169 23t-193 -37t-171 -101t-131.5 -150t-74.5 -185z" />
<glyph unicode="&#x436;" horiz-adv-x="1515" d="M65 0l638 499l-451 505h51l432 -480l97 76l72 404h38l-72 -404l74 -81l609 485h51l-637 -510l459 -494h-56l-509 548l-96 -548h-38l96 548l-700 -548h-58z" />
<glyph unicode="&#x437;" horiz-adv-x="1091" d="M137 56l24 33q76 -48 161 -65.5t181 -17.5q83 0 160 14t138.5 45.5t103 82t54.5 124.5q13 71 -16.5 117t-86.5 73t-134 37.5t-160 10.5h-161l7 38h161q74 0 143 12.5t124.5 39.5t92.5 68.5t47 98.5q9 54 -8 96.5t-56.5 72.5t-99.5 46t-136 16q-41 0 -84.5 -5.5t-84 -14 t-75.5 -19t-58 -20.5l-9 38q54 20 136 40t182 20q84 0 150.5 -16.5t110.5 -50t63 -84.5t7 -119q-10 -57 -37 -98t-64.5 -69t-82.5 -44.5t-90 -24.5q50 -7 101.5 -22t90 -44t58.5 -75.5t7 -117.5q-15 -85 -61.5 -143.5t-114 -95t-151.5 -52t-174 -15.5q-41 0 -87 3.5 t-93 13.5t-92.5 27.5t-86.5 45.5z" />
<glyph unicode="&#x438;" horiz-adv-x="1292" d="M208 0l177 1006h39l-167 -944l973 944h30l-177 -1006h-39l165 938l-966 -938h-35z" />
<glyph unicode="&#x439;" horiz-adv-x="1292" d="M208 0l177 1006h39l-167 -944l973 944h30l-177 -1006h-39l165 938l-966 -938h-35zM623 1398l39 7q4 -34 14.5 -62t32.5 -48t58.5 -31t91.5 -11t95.5 11t69.5 31t50 48t37 62l35 -7q-34 -90 -108 -137t-186 -47t-169.5 47t-59.5 137z" />
<glyph unicode="&#x43a;" d="M208 0l176 1003h38l-133 -759l803 760h49l-483 -460l337 -544h-52l-318 514l-346 -326l-33 -188h-38z" />
<glyph unicode="&#x43b;" horiz-adv-x="1358" d="M17 -24l10 40h28q58 0 102.5 18t76 51t51.5 79t30 102l131 738h880l-177 -1004h-38l170 963h-804l-123 -696q-11 -62 -33.5 -115.5t-59.5 -92.5t-89 -61.5t-122 -22.5q-5 0 -16.5 0.5t-16.5 0.5z" />
<glyph unicode="&#x43c;" horiz-adv-x="1506" d="M208 0l177 1006h30l418 -548l611 548h30l-177 -1006h-38l165 936l-591 -525h-18l-403 526l-165 -937h-39z" />
<glyph unicode="&#x43d;" horiz-adv-x="1288" d="M208 0l177 1006h39l-86 -489h793l86 489h39l-177 -1006h-39l84 479h-793l-84 -479h-39z" />
<glyph unicode="&#x43e;" horiz-adv-x="1311" d="M209 502q20 111 77.5 207t140.5 167t186 111.5t214 40.5t202.5 -40.5t153.5 -111.5t89 -167t7 -207q-19 -111 -77 -207t-141 -167t-186 -111.5t-214 -40.5t-202.5 40.5t-153.5 111.5t-88.5 167t-7.5 207zM248 502q-18 -103 5.5 -192t79 -154.5t139.5 -103t187 -37.5 t200 37.5t176 103t134 154.5t73 192q18 102 -5.5 191t-79.5 155t-139.5 103.5t-186.5 37.5t-200.5 -37.5t-176.5 -103.5t-133.5 -155t-72.5 -191z" />
<glyph unicode="&#x43f;" horiz-adv-x="1316" d="M208 0l177 1004h899l-177 -1004h-38l170 963h-823l-170 -963h-38z" />
<glyph unicode="&#x440;" horiz-adv-x="1399" d="M147 -343l238 1347h38l-53 -301q43 73 103.5 133t132.5 102.5t153 66t165 23.5q111 0 201 -40.5t150 -111.5t85.5 -167t5.5 -207q-19 -111 -78.5 -207t-144.5 -167t-189.5 -111.5t-215.5 -40.5q-84 0 -157 23.5t-130 67t-96 104t-56 133.5l-114 -647h-38zM334 502 q-18 -103 5.5 -192t79.5 -154.5t139.5 -103t186.5 -37.5t200 37.5t176 103t133.5 154.5t72.5 192t-5 192t-78.5 154.5t-139.5 103t-187 37.5q-102 0 -198.5 -37.5t-175.5 -102.5t-134.5 -154t-74.5 -193z" />
<glyph unicode="&#x441;" horiz-adv-x="1124" d="M214 502q20 111 77.5 207t140.5 167t186 111.5t214 40.5q42 0 88 -7.5t92.5 -24t91 -43t81.5 -64.5l-33 -28q-57 60 -137 94t-179 34q-96 0 -192 -34.5t-176.5 -98.5t-137.5 -154t-77 -200q-19 -111 6.5 -201t83.5 -153.5t141.5 -98t179.5 -34.5q205 0 361 125l23 -28 q-87 -66 -180 -101t-202 -35q-110 3 -201.5 44t-154 111.5t-89 165t-7.5 205.5z" />
<glyph unicode="&#x442;" horiz-adv-x="1006" d="M274 969l7 37h802l-7 -37h-382l-170 -969h-39l170 969h-381z" />
<glyph unicode="&#x443;" d="M14 -352l7 39h185q48 0 85 17t70.5 53t69 91.5t81.5 131.5l-273 1019h40l261 -965l601 965h44l-600 -967q-58 -95 -100.5 -166.5t-84.5 -120t-91 -73t-119 -24.5h-176zM521 -63h3l-2 6z" />
<glyph unicode="&#x444;" horiz-adv-x="1362" d="M248 502q20 111 78.5 208t143.5 170t189.5 115t215.5 42l66 374h38l-66 -374q110 0 200 -42.5t150 -115t85 -169.5t5 -208q-19 -111 -78.5 -208t-144.5 -170t-190 -115.5t-216 -42.5l-54 -309h-38l54 309q-110 0 -199.5 42t-149 115t-84 170.5t-5.5 208.5zM287 502 q-18 -103 5 -193t78 -157.5t138 -106.5t185 -39l175 992q-103 0 -199.5 -39t-175.5 -106.5t-133.5 -158t-72.5 -192.5zM730 -5l2 11q103 0 200.5 39t176.5 106t133.5 157.5t72.5 193.5q18 102 -5 192.5t-78.5 157.5t-139 106.5t-186.5 39.5z" />
<glyph unicode="&#x445;" horiz-adv-x="991" d="M67 0l489 501l-311 503h51l289 -472l461 472h57l-492 -503l310 -501h-51l-290 469l-456 -469h-57z" />
<glyph unicode="&#x446;" horiz-adv-x="1316" d="M208 0l177 1004h38l-170 -962h823l170 962h38l-170 -962h128l-51 -290h-38l43 248h-988z" />
<glyph unicode="&#x447;" horiz-adv-x="1304" d="M290 481q-14 87 5 198l58 325h38l-58 -324q-36 -205 50.5 -318t291.5 -113q84 0 168.5 37t155 101t120.5 150t67 183l51 284h38l-178 -1009h-38l95 540q-46 -91 -107.5 -153.5t-127.5 -100t-131.5 -54t-119.5 -16.5q-111 0 -190 31.5t-126.5 91.5t-61.5 147z" />
<glyph unicode="&#x448;" horiz-adv-x="1922" d="M208 0l177 1004h38l-170 -962h695l170 962h39l-170 -962h695l170 962h38l-177 -1004h-1505z" />
<glyph unicode="&#x449;" horiz-adv-x="1922" d="M208 0l177 1004h38l-170 -962h695l170 962h39l-170 -962h695l170 962h38l-170 -962h128l-51 -290h-38l44 248h-1595z" />
<glyph unicode="&#x44a;" horiz-adv-x="1216" d="M218 965l7 39h285l-73 -412h513q62 0 111 -23t81.5 -63t46 -94t2.5 -115t-43.5 -115.5t-79 -94.5t-104 -63.5t-119.5 -23.5h-550l172 976l-1 -1l-1 -10h-247zM339 38h513q52 0 102 21t91 56.5t70 82.5t38 99q9 53 -2.5 99.5t-39.5 81t-70.5 55t-94.5 20.5h-516z" />
<glyph unicode="&#x44b;" horiz-adv-x="1560" d="M206 0l177 1004h38l-73 -412h513q62 0 111 -23t81.5 -63t46 -94t2.5 -115t-43.5 -115.5t-79 -94.5t-104 -63.5t-119.5 -23.5h-550zM250 38h513q52 0 102 21t91 56.5t70 82.5t38 99q9 53 -2.5 99.5t-39.5 81t-70.5 55t-94.5 20.5h-516zM1315 12l177 1004h38l-177 -1004 h-38z" />
<glyph unicode="&#x44c;" horiz-adv-x="1128" d="M208 0l177 1004h38l-73 -412h513q62 0 111 -23t81.5 -63t46 -94t2.5 -115t-43.5 -115.5t-79 -94.5t-104 -63.5t-119.5 -23.5h-550zM252 38h513q52 0 102 21t91 56.5t70 82.5t38 99q9 53 -2.5 99.5t-39.5 81t-70.5 55t-94.5 20.5h-516z" />
<glyph unicode="&#x44d;" horiz-adv-x="1311" d="M225 266h41q22 -58 59.5 -104.5t88 -79t113 -50t132.5 -17.5q94 0 187.5 33t173 94t138 147.5t80.5 193.5h-687l7 39h687q15 106 -12.5 192.5t-85.5 147.5t-140 94t-176 33q-71 0 -139.5 -17.5t-130.5 -50.5t-116 -79.5t-96 -104.5h-42q44 66 103 119.5t128 92t145.5 59 t155.5 20.5q111 0 201 -40.5t150 -111.5t85.5 -167t5.5 -207q-19 -111 -78.5 -207t-144.5 -167t-189.5 -111.5t-215.5 -40.5q-79 0 -148.5 21t-125 59t-95 91.5t-59.5 118.5z" />
<glyph unicode="&#x44e;" horiz-adv-x="1747" d="M206 0l177 1004h38l-85 -482h304q23 107 83 201t144.5 164t186.5 110t210 40q111 0 201 -42t150 -115t85.5 -170t5.5 -208q-19 -111 -78.5 -208.5t-145 -170t-190.5 -115t-216 -42.5q-108 0 -196.5 40.5t-148 110.5t-86.5 164t-12 202h-304l-85 -483h-38zM676 502 q-18 -103 5 -193.5t78.5 -157.5t139 -106t186.5 -39q102 0 199.5 39t177 106t134.5 157.5t73 193.5q18 102 -5.5 192.5t-79 158t-139.5 106.5t-186 39q-103 0 -200.5 -39t-176.5 -106.5t-133.5 -158t-72.5 -192.5z" />
<glyph unicode="&#x44f;" horiz-adv-x="1102" d="M91 0l399 389q-59 9 -104 36t-73.5 67t-39 92t-0.5 111q12 68 46.5 125t86 98t117 64.5t138.5 23.5h409l-177 -1006h-39l67 385h-372h-13l-398 -385h-47zM312 695q-10 -58 3 -107.5t45.5 -86t82 -57.5t112.5 -21h373l96 546h-369q-64 0 -122 -21t-103.5 -58t-76.5 -87 t-41 -108z" />
<glyph unicode="&#x451;" horiz-adv-x="1158" d="M197 512q19 109 77.5 205t142.5 167.5t187 113t211 41.5q113 0 189.5 -27t122.5 -69.5t62.5 -94.5t7.5 -102q-10 -55 -37 -101.5t-71.5 -81t-105 -54t-136.5 -19.5h-614q-13 -97 11.5 -181.5t79 -147.5t135 -99t178.5 -36q114 0 218.5 46.5t186.5 127.5l27 -23 q-90 -88 -203.5 -139t-236.5 -51q-108 0 -196.5 41.5t-147 112.5t-83 167t-5.5 204zM239 528h599q74 0 130 16t96 45t63.5 69t31.5 87q8 45 -8.5 91t-59.5 82.5t-113 59.5t-169 23t-193 -37t-171 -101t-131.5 -150t-74.5 -185zM706 1314q5 23 22.5 37.5t37.5 14.5 q23 0 35 -14.5t7 -37.5q-3 -20 -20 -34.5t-40 -14.5q-20 0 -32.5 14.5t-9.5 34.5zM995 1314q5 23 22 37.5t38 14.5q23 0 34.5 -14.5t6.5 -37.5q-3 -20 -19.5 -34.5t-39.5 -14.5q-21 0 -33 14.5t-9 34.5z" />
<glyph unicode="&#x452;" horiz-adv-x="1287" d="M192 1217l7 42h231l27 154h38l-27 -154h259l-7 -42h-260l-88 -504q25 55 73 112.5t112 104.5t140.5 77t158.5 30q111 0 190 -31.5t126.5 -91.5t62 -147t-5.5 -198l-100 -569h-38l100 569q36 205 -50 317t-292 112q-82 0 -164.5 -35t-152 -95.5t-120 -142.5t-70.5 -176 l-49 -279l-46 -270h-39l214 1217h-230zM358 638l3 13l20 116z" />
<glyph unicode="&#x453;" horiz-adv-x="965" d="M206 0l177 1004h709l-8 -41h-670l-170 -963h-38zM681 1207l201 249l36 -13l-198 -236h-39z" />
<glyph unicode="&#x454;" horiz-adv-x="1260" d="M214 502q20 111 79 207t144 167t189.5 111.5t215.5 40.5q79 0 148 -20.5t124.5 -59t95 -92t60.5 -119.5h-42q-21 58 -58.5 104.5t-88 79.5t-112.5 50.5t-133 17.5q-94 0 -187.5 -33t-173 -94t-137.5 -147.5t-81 -192.5h688l-7 -39h-688q-15 -107 12.5 -193.5t85.5 -147.5 t140 -94t176 -33q71 0 139 17.5t130 50t116 79t96 104.5h41q-42 -65 -100.5 -118.5t-127.5 -91.5t-146 -59t-156 -21q-111 0 -201 40.5t-150 111.5t-85 167t-6 207z" />
<glyph unicode="&#x455;" horiz-adv-x="983" d="M121 77l25 32q62 -47 148 -70.5t174 -23.5q103 0 183.5 18t138.5 51t92 79t44 103q11 59 -9 99.5t-63 67t-106 41.5t-140 22q-69 7 -139.5 19t-125.5 39t-84.5 73t-16.5 119q8 47 35.5 97t82.5 91t140 67.5t209 26.5q53 0 101.5 -10t91 -26t77.5 -35t60 -37l-27 -33 q-22 17 -54 35t-71 33t-85 25t-97 10q-109 0 -186.5 -21.5t-128 -56.5t-77 -78.5t-34.5 -87.5q-17 -97 71 -147t265 -64q36 -3 78.5 -8.5t84.5 -17t80 -30t64.5 -47.5t38 -69.5t1.5 -96.5q-12 -66 -49.5 -119.5t-100.5 -91.5t-151 -58.5t-200 -20.5q-47 0 -95 6t-92.5 19 t-83.5 32t-69 44z" />
<glyph unicode="&#x456;" horiz-adv-x="487" d="M208 0l177 1004h38l-177 -1004h-38zM411 1331q4 20 21 35t38 15t33.5 -15t8.5 -35q-4 -21 -21.5 -35.5t-38.5 -14.5t-33 14.5t-8 35.5z" />
<glyph unicode="&#x457;" horiz-adv-x="454" d="M208 0l177 1004h38l-177 -1004h-38zM253 1302q5 23 22.5 37.5t37.5 14.5q23 0 35 -14.5t7 -37.5q-3 -20 -20 -34.5t-40 -14.5q-20 0 -32.5 14.5t-9.5 34.5zM542 1302q5 23 22 37.5t38 14.5q23 0 34.5 -14.5t6.5 -37.5q-3 -20 -19.5 -34.5t-39.5 -14.5q-21 0 -33 14.5 t-9 34.5z" />
<glyph unicode="&#x458;" horiz-adv-x="455" d="M-134 -346l8 41h65q58 0 102 19.5t76 54.5t52.5 82.5t30.5 103.5l185 1049h38l-185 -1048q-11 -62 -34 -117t-60 -96t-89 -65t-122 -24h-67z" />
<glyph unicode="&#x459;" horiz-adv-x="1987" d="M17 -24l10 40h28q58 0 102.5 18t76 51t51.5 79t30 102l131 738h836l-73 -412h513q62 0 111 -23t81.5 -63t46 -94t2.5 -115t-43.5 -115.5t-79 -94.5t-104 -63.5t-119.5 -23.5h-550l170 963h-760l-124 -701q-11 -63 -33.5 -115.5t-59 -90.5t-88.5 -59.5t-122 -21.5 q-5 0 -16.5 0.5t-16.5 0.5zM1111 38h513q53 0 103 21t91 56.5t69.5 82.5t37.5 99q9 53 -2.5 99.5t-39.5 81t-70.5 55t-94.5 20.5h-516z" />
<glyph unicode="&#x45a;" horiz-adv-x="1989" d="M208 0l177 1004h38l-73 -413h823l73 413h38l-73 -412h513q62 0 111 -23t81.5 -63t46 -94t2.5 -115t-43.5 -115.5t-79 -94.5t-104 -63.5t-119.5 -23.5h-550l97 550h-823l-97 -550h-38zM1113 38h513q52 0 102 21t91 56.5t70 82.5t38 99q9 53 -2.5 99.5t-39.5 81t-70.5 55 t-94.5 20.5h-516z" />
<glyph unicode="&#x45b;" horiz-adv-x="1305" d="M190 1217l7 42h231l36 207h38l-37 -207h260l-7 -42h-260l-82 -464l4 21l-10 -61q25 55 73 112.5t112 104.5t140.5 77t158.5 30q111 0 190.5 -31.5t126.5 -91.5t62 -147t-5 -198l-100 -569h-39l100 569q36 205 -50 317t-292 112q-82 0 -164.5 -35t-152 -95.5t-120 -142.5 t-70.5 -176l-49 -279l-46 -270h-39l214 1217h-230zM356 638l3 13l17 102z" />
<glyph unicode="&#x45c;" d="M208 0l176 1003h38l-133 -759l803 760h49l-483 -460l337 -544h-52l-318 514l-346 -326l-33 -188h-38zM668 1146l201 249l36 -13l-198 -236h-39z" />
<glyph unicode="&#x45e;" d="M14 -352l7 39h185q48 0 85 17t70.5 53t69 91.5t81.5 131.5l-273 1019h40l261 -965l601 965h44l-600 -967q-58 -95 -100.5 -166.5t-84.5 -120t-91 -73t-119 -24.5h-176zM495 1398l39 7q4 -34 14.5 -62t32.5 -48t58.5 -31t91.5 -11t95.5 11t69.5 31t50 48t37 62l35 -7 q-34 -90 -108 -137t-186 -47t-169.5 47t-59.5 137zM521 -63h3l-2 6z" />
<glyph unicode="&#x45f;" horiz-adv-x="1321" d="M212 0l177 1004h39l-170 -963h823l170 963h38l-177 -1004h-445l-61 -343h-38l60 343h-416z" />
<glyph unicode="&#x474;" horiz-adv-x="1275" d="M260 1360h41l342 -1316l805 1316h42l-832 -1360h-44z" />
<glyph unicode="&#x475;" horiz-adv-x="1068" d="M238 1004h41l255 -960l595 960h41l-621 -1004h-44z" />
<glyph unicode="&#x490;" horiz-adv-x="1137" d="M213 0l239 1360h812l41 232h38l-48 -273h-811l-232 -1319h-39z" />
<glyph unicode="&#x491;" horiz-adv-x="993" d="M206 0l177 1004h671l43 247h38l-44 -247h1l-8 -41h-670l-170 -963h-38z" />
<glyph unicode="&#x4d9;" horiz-adv-x="1364" d="M199 502q1 3 1 5.5t1 4.5l1 9h1031q15 107 -12.5 193.5t-85.5 148t-140 94.5t-176 33q-70 0 -138.5 -17.5t-130.5 -50.5t-116 -79.5t-96 -104.5h-42q45 66 104 120t127.5 92t144.5 58.5t155 20.5q111 0 201 -41t150 -112t85.5 -167t5.5 -207q-19 -111 -78.5 -207 t-144.5 -167t-189.5 -111.5t-215.5 -40.5t-201 40.5t-150 111.5t-85 167t-6 207zM233 482q-13 -99 12 -184t81 -148t138.5 -99t182.5 -36q101 0 196 36t173 99t133.5 148t76.5 184h-993z" />
<glyph unicode="&#x2000;" horiz-adv-x="899" />
<glyph unicode="&#x2001;" horiz-adv-x="1799" />
<glyph unicode="&#x2002;" horiz-adv-x="899" />
<glyph unicode="&#x2003;" horiz-adv-x="1799" />
<glyph unicode="&#x2004;" horiz-adv-x="599" />
<glyph unicode="&#x2005;" horiz-adv-x="449" />
<glyph unicode="&#x2006;" horiz-adv-x="299" />
<glyph unicode="&#x2007;" horiz-adv-x="299" />
<glyph unicode="&#x2008;" horiz-adv-x="224" />
<glyph unicode="&#x2009;" horiz-adv-x="359" />
<glyph unicode="&#x200a;" horiz-adv-x="99" />
<glyph unicode="&#x2010;" horiz-adv-x="701" d="M203 460l6 38h457l-6 -38h-457z" />
<glyph unicode="&#x2011;" horiz-adv-x="701" d="M203 460l6 38h457l-6 -38h-457z" />
<glyph unicode="&#x2012;" horiz-adv-x="701" d="M203 460l6 38h457l-6 -38h-457z" />
<glyph unicode="&#x2013;" horiz-adv-x="906" d="M241 460l6 38h586l-6 -38h-586z" />
<glyph unicode="&#x2014;" horiz-adv-x="1604" d="M241 460l6 38h1284l-6 -38h-1284z" />
<glyph unicode="&#x2018;" horiz-adv-x="478" d="M326 1030l223 403l29 -5l-212 -410z" />
<glyph unicode="&#x2019;" horiz-adv-x="484" d="M311 1023l211 410l41 -12l-224 -403z" />
<glyph unicode="&#x201a;" horiz-adv-x="486" d="M70 -256l212 410l41 -12l-225 -403z" />
<glyph unicode="&#x201c;" horiz-adv-x="762" d="M326 1030l223 403l29 -5l-212 -410zM606 1030l223 403l29 -5l-211 -410z" />
<glyph unicode="&#x201d;" horiz-adv-x="744" d="M299 1023l212 410l41 -12l-224 -403zM580 1023l211 410l41 -12l-224 -403z" />
<glyph unicode="&#x201e;" horiz-adv-x="734" d="M73 -256l213 410l41 -12l-225 -403zM354 -256l212 410l41 -12l-225 -403z" />
<glyph unicode="&#x2026;" horiz-adv-x="1293" d="M186 43q5 23 24 40t42 17t37.5 -17t9.5 -40q-4 -23 -24 -39.5t-43 -16.5t-36.5 16.5t-9.5 39.5zM597 43q5 23 24 40t42 17q24 0 38 -17t9 -40q-4 -23 -23.5 -39.5t-43.5 -16.5q-23 0 -36.5 16.5t-9.5 39.5zM1009 43q5 23 24 40t42 17t37.5 -17t9.5 -40q-4 -23 -24 -39.5 t-43 -16.5t-36.5 16.5t-9.5 39.5z" />
<glyph unicode="&#x202f;" horiz-adv-x="359" />
<glyph unicode="&#x2039;" horiz-adv-x="620" d="M228 478l331 349h49l-330 -349l206 -350h-48z" />
<glyph unicode="&#x203a;" horiz-adv-x="620" d="M190 128l330 350l-208 349h49l209 -349l-332 -350h-48z" />
<glyph unicode="&#x205f;" horiz-adv-x="449" />
<glyph unicode="&#x20ac;" horiz-adv-x="1159" d="M129 437l6 36l751 -1l-7 -36l-557 1q14 -92 56.5 -169.5t108.5 -133.5t152.5 -87.5t188.5 -31.5q55 0 108 9.5t106 26.5l-7 -40q-105 -33 -213 -33q-109 0 -202.5 34.5t-164 95.5t-115.5 145.5t-58 183.5h-153zM208 885l6 38h152q47 101 121.5 187t167.5 148t199 97 t217 35q55 0 104.5 -9t96.5 -26l-7 -40q-46 18 -96 28t-105 10q-103 0 -201.5 -32t-185 -89t-156.5 -136t-115 -173l559 -1l-7 -38z" />
<glyph unicode="&#x2122;" horiz-adv-x="1538" d="M289 1340l6 38h541l-6 -38h-251l-120 -680h-38l120 680h-252zM818 660l126 718h23l244 -354l368 354h22l-126 -718h-38l112 636l-344 -331h-9l-228 331l-112 -636h-38z" />
<glyph unicode="&#x25fc;" horiz-adv-x="1004" d="M0 0v1005h1005v-1005h-1005z" />
</font>
</defs>
</svg>
