<?xml version="1.0" standalone="no"?>
<!DOCTYPE svg PUBLIC "-//W3C//DTD SVG 1.1//EN" "http://www.w3.org/Graphics/SVG/1.1/DTD/svg11.dtd" >
<svg xmlns="http://www.w3.org/2000/svg" xmlns:xlink="http://www.w3.org/1999/xlink" version="1.1">
<metadata></metadata>
<defs>
<font id="codec_warm_boldbold" horiz-adv-x="565" >
<font-face units-per-em="2048" ascent="1638" descent="-410" />
<missing-glyph horiz-adv-x="468" />
<glyph horiz-adv-x="0" />
<glyph horiz-adv-x="0" />
<glyph unicode="&#xd;" horiz-adv-x="468" />
<glyph horiz-adv-x="1671" />
<glyph unicode=" "  horiz-adv-x="468" />
<glyph unicode="&#x09;" horiz-adv-x="468" />
<glyph unicode="&#xa0;" horiz-adv-x="468" />
<glyph unicode="!" horiz-adv-x="590" d="M153 111q0 28 10 52.5t28.5 43t44.5 29.5t58 11t58.5 -11t45.5 -29.5t29 -43t10 -52.5t-10 -53t-29 -43.5t-45.5 -29t-58.5 -10.5q-31 0 -57 11t-45 29.5t-29 43t-10 52.5zM172 703v657h243v-659l-32 -290h-180z" />
<glyph unicode="&#x22;" horiz-adv-x="887" d="M161 1397h226l-21 -557h-186zM502 1397h227l-21 -557h-187z" />
<glyph unicode="#" horiz-adv-x="1236" d="M83 335l5 182h199l48 282h-183l4 182h210l65 379h215l-64 -379h184l65 379h215l-64 -379h167l-3 -182h-195l-48 -282h178l-3 -182h-206l-52 -310h-216l52 310h-183l-52 -310h-217l52 310h-173zM503 517h184l48 282h-184z" />
<glyph unicode="$" horiz-adv-x="1274" d="M51 104l80 214q39 -19 93 -41.5t116 -42.5t129 -33.5t134 -13.5q162 0 235 54.5t73 148.5q0 50 -25 84.5t-71.5 59.5t-111 44t-144.5 37q-43 9 -93.5 21t-102 30t-99.5 43.5t-85 62t-59.5 85t-22.5 111.5q0 81 23.5 151.5t73 124.5t127 90.5t185.5 49.5v203h236v-202 q115 -14 213 -49.5t179 -72.5l-70 -208q-29 15 -80 35.5t-113.5 39.5t-129.5 32t-127 13q-79 0 -130.5 -16t-82 -41.5t-42.5 -58.5t-12 -67q0 -45 25 -76.5t69 -53t104.5 -35t132.5 -24.5q97 -21 185 -48.5t155 -74t106.5 -118t39.5 -180.5q0 -84 -30 -151.5t-85 -118.5 t-133 -84t-174 -48v-198h-236v190q-146 11 -261.5 49t-193.5 83z" />
<glyph unicode="%" horiz-adv-x="1764" d="M89 1045q0 72 27.5 133.5t76 107t114 71.5t141.5 26q77 0 142.5 -25.5t114 -70.5t76 -107t27.5 -134t-27.5 -133.5t-76 -106.5t-114.5 -71t-142 -26t-141.5 26t-114 71t-76 106.5t-27.5 132.5zM292 1046q0 -35 11.5 -65.5t32 -52.5t49.5 -34.5t64 -12.5t63.5 12.5 t49 34.5t32 52t11.5 64q0 36 -11.5 67t-32 53.5t-49.5 35.5t-64 13q-34 0 -63 -12.5t-49.5 -34.5t-32 -53t-11.5 -67zM373 -1l833 1360h224l-835 -1360h-222zM958 313q0 72 27.5 134t76 107.5t114 71.5t141.5 26t141.5 -25.5t114 -71t76 -107t27.5 -133.5t-27.5 -133.5 t-76 -106.5t-114 -71t-142.5 -26q-76 0 -141.5 26t-113.5 71t-75.5 106t-27.5 132zM1161 314q0 -35 11.5 -65t32.5 -52t50 -34.5t63 -12.5q35 0 63.5 12.5t49 34t32 51.5t11.5 64q0 36 -11.5 67.5t-32.5 54t-49.5 35.5t-63.5 13q-34 0 -62.5 -12.5t-49.5 -35t-32.5 -53.5 t-11.5 -67z" />
<glyph unicode="&#x26;" horiz-adv-x="1486" d="M94 376q0 78 29 138.5t74.5 107.5t101.5 83.5t111 66.5q-29 24 -57.5 56t-51 69.5t-36.5 81t-14 91.5q0 72 28.5 131.5t80 102t122.5 65.5t156 23q87 0 159 -21.5t123 -63t79 -101.5t28 -137q0 -59 -22 -108.5t-59 -91t-85.5 -76.5t-102.5 -64l269 -304q42 57 68 122.5 t33 134.5l221 -1q-8 -118 -55.5 -224t-122.5 -194l234 -263h-292l-105 115q-97 -69 -204.5 -106.5t-213.5 -37.5q-103 0 -193 29.5t-157.5 82.5t-106.5 128t-39 165zM338 382q0 -47 20 -84.5t53.5 -63.5t77.5 -39.5t93 -13.5q75 0 147 23.5t137 66.5l-321 353 q-36 -19 -73 -42t-66.5 -51.5t-48.5 -65t-19 -83.5zM493 1047q0 -27 9.5 -51.5t24.5 -47t33.5 -43.5t36.5 -40q29 14 62 31t61 40t47 54.5t19 73.5q0 58 -38 94.5t-101 36.5q-38 0 -67 -12t-48.5 -32t-29 -47t-9.5 -57z" />
<glyph unicode="'" horiz-adv-x="541" d="M158 1397h227l-22 -557h-186z" />
<glyph unicode="(" horiz-adv-x="718" d="M117 679q0 129 16 253t53.5 241t100.5 227.5t157 213.5h236q-72 -73 -130.5 -180.5t-100.5 -232.5t-65 -259.5t-23 -261.5q0 -128 21.5 -259t62.5 -253.5t100.5 -230.5t134.5 -189h-233q-94 98 -157.5 208.5t-101.5 228.5t-54.5 242.5t-16.5 251.5z" />
<glyph unicode=")" horiz-adv-x="718" d="M29 -252q75 81 135 189t101 230.5t63 253.5t22 259q0 127 -23 261.5t-65 259.5t-101 232.5t-131 180.5h235q94 -103 157 -213.5t101 -227.5t54 -241t16 -253q0 -127 -16.5 -251.5t-54.5 -242.5t-101.5 -228.5t-157.5 -208.5h-234z" />
<glyph unicode="*" horiz-adv-x="844" d="M107 1000l185 95l-185 97l75 129l176 -112l-9 209h149l-9 -207l176 110l75 -129l-187 -97l186 -96l-74 -129l-177 111l9 -207h-148l8 207l-176 -110z" />
<glyph unicode="+" horiz-adv-x="1399" d="M237 522v200h358v369h203l1 -369h362v-201h-362v-368h-204v368z" />
<glyph unicode="," horiz-adv-x="534" d="M53 -219l118 415h236l-174 -415h-180z" />
<glyph unicode="-" horiz-adv-x="811" d="M122 384v204h576v-204h-576z" />
<glyph unicode="." horiz-adv-x="533" d="M124 110q0 28 10 53t29 43.5t45 29.5t58 11t58 -11t45 -29.5t29 -43.5t10 -53t-10 -52.5t-29 -43t-45 -29t-58 -10.5t-58 11t-45 29.5t-29 43t-10 51.5z" />
<glyph unicode="/" horiz-adv-x="883" d="M-54 -209l656 1634h245l-654 -1633z" />
<glyph unicode="0" horiz-adv-x="1393" d="M126 674q0 149 38 280t112 228.5t182.5 153.5t249.5 56q157 0 267.5 -59.5t181 -158.5t103 -228t32.5 -267q0 -145 -36.5 -274t-109 -226t-182 -153.5t-255.5 -56.5q-148 0 -257.5 56.5t-182 153t-108 224.5t-35.5 271zM368 676q0 -96 20 -186t62 -160t106.5 -112 t152.5 -42q86 0 149.5 42t106.5 112.5t64 161.5t21 188q0 92 -19.5 182t-61 161.5t-106.5 116t-155 44.5q-85 0 -148.5 -43t-106 -113.5t-64 -162t-21.5 -189.5z" />
<glyph unicode="1" horiz-adv-x="758" d="M88 1250l286 111h197v-1361h-237l3 1164l-248 -94z" />
<glyph unicode="2" horiz-adv-x="1192" d="M99 0v145l445 387q66 56 118 105t87.5 97t54.5 97t19 105q0 54 -17.5 97.5t-48 75t-72 48.5t-90.5 17q-48 0 -90 -16.5t-73.5 -48.5t-50 -79t-18.5 -108h-246q0 77 25.5 158.5t82 149t146.5 110.5t218 43q113 0 201.5 -35t150 -95.5t94 -141.5t32.5 -173 q0 -72 -18.5 -135t-53 -120t-82.5 -110t-108 -104l-316 -273q22 3 52 6q25 2 60.5 3.5t80.5 1.5h410v-207h-993z" />
<glyph unicode="3" horiz-adv-x="1138" d="M66 390h242q10 -57 35 -98t59.5 -66.5t75.5 -37.5t82 -12q56 0 105 19t85 52.5t57 79.5t21 100q0 53 -19.5 97.5t-55 76.5t-84.5 50.5t-108 18.5l-211 1v128l268 354h-511v207h831v-133l-296 -371q12 -1 23 -2q9 -1 18.5 -3t15.5 -4q70 -9 136.5 -37.5t118.5 -78.5 t83.5 -124t31.5 -175q0 -99 -38 -183.5t-104.5 -146.5t-157.5 -97.5t-196 -35.5q-91 0 -178 21t-157 70t-116 130t-56 200z" />
<glyph unicode="4" horiz-adv-x="1310" d="M79 449l667 916h270l-1 -868h215v-208h-215v-289h-241v289h-678zM368 494l406 1l1 529z" />
<glyph unicode="5" horiz-adv-x="1184" d="M89 390h242q11 -57 36 -98t59.5 -66.5t75.5 -37.5t82 -12q56 0 105 19t85 52.5t56.5 79.5t20.5 100q0 53 -19.5 98.5t-54.5 79t-84 52.5t-108 19l-319 1l-107 95l77 589h757v-208h-541l-34 -271h213q104 0 189.5 -32.5t146 -92t93.5 -142t33 -183.5q0 -99 -38 -183.5 t-104.5 -146.5t-157.5 -97.5t-197 -35.5q-91 0 -178 21t-157 70t-116 130t-56 200z" />
<glyph unicode="6" horiz-adv-x="1155" d="M77 435q0 53 9.5 99.5t30 96t53.5 106.5t80 130l313 493h287l-347 -526q32 20 69.5 32t82.5 12q81 0 156.5 -34.5t133.5 -94t93 -140.5t35 -174q0 -97 -36 -181.5t-101 -147.5t-157 -99t-204 -36t-204 36t-157 99t-101 147.5t-36 181.5zM317 431q0 -54 21 -100.5 t56.5 -80.5t82.5 -53t99 -19q53 0 99.5 19t81 53t55 80.5t20.5 100.5t-20.5 101t-55 81.5t-81 54.5t-99.5 20q-60 0 -108 -24.5t-81.5 -62.5t-51.5 -83t-18 -87z" />
<glyph unicode="7" horiz-adv-x="1118" d="M93 1152v208h949v-131l-590 -1229h-264l558 1152h-653z" />
<glyph unicode="8" horiz-adv-x="1188" d="M88 391q0 71 21 129.5t55.5 103.5t80 75.5t93.5 44.5q-37 13 -70.5 40.5t-58 64.5t-39 81.5t-14.5 90.5q0 88 35 157t95.5 116t140.5 72t170 25q92 0 172 -24.5t139 -71t93 -115t34 -157.5q0 -47 -14.5 -92t-39.5 -83t-58 -65.5t-71 -38.5q51 -13 96.5 -43.5t80 -75.5 t54.5 -104t20 -130q0 -90 -35.5 -167.5t-101.5 -134t-160 -88.5t-210 -32q-117 0 -211 32t-160 88.5t-101.5 134t-35.5 167.5zM331 401q0 -48 21 -89t57 -71t84 -47t102 -17q55 0 103.5 17t84.5 47t57 71t21 89q0 50 -21 92t-57 72.5t-84.5 47.5t-103.5 17q-54 0 -102 -17 t-84 -47.5t-57 -72.5t-21 -92zM398 1011q0 -35 14.5 -66.5t40.5 -55.5t62 -38t80 -14t80 14t61.5 38t40 55.5t14.5 66.5t-14.5 66.5t-41 55.5t-62 38t-77.5 14q-43 0 -79.5 -14t-62.5 -38t-41 -55.5t-15 -66.5z" />
<glyph unicode="9" horiz-adv-x="1177" d="M102 929q0 96 36 180.5t101.5 147.5t157.5 99t204 36t203.5 -36t157 -99t101 -147.5t35.5 -180.5q0 -53 -9.5 -99.5t-30 -96t-53 -106.5t-79.5 -131l-315 -496h-287l348 530q-32 -21 -69.5 -33t-81.5 -12q-81 0 -156.5 34.5t-134 94.5t-93.5 141t-35 174zM343 932 q0 -54 20.5 -101t55.5 -81.5t81.5 -54t98.5 -19.5q60 0 108 24.5t81.5 62t51.5 82.5t18 87q0 54 -21 100.5t-56.5 80.5t-82.5 53t-99 19t-98.5 -19t-81.5 -53t-55.5 -80.5t-20.5 -100.5z" />
<glyph unicode=":" horiz-adv-x="533" d="M124 106q0 28 10 52.5t29 43t45 29.5t58 11t58 -11t45 -29.5t29 -43t10 -52.5t-10 -52.5t-29 -43t-45 -29t-58 -10.5t-58 10.5t-45 29t-29 43t-10 52.5zM124 909q0 28 10 52.5t29 43t45 29.5t58 11t58 -11t45 -29.5t29 -43t10 -52.5t-10 -53t-29 -43.5t-45 -29t-58 -10.5 t-58 10.5t-45 29t-29 43.5t-10 53z" />
<glyph unicode=";" horiz-adv-x="533" d="M53 -219l118 415h236l-174 -415h-180zM124 903v11q0 16 3.5 29.5t10.5 27.5l5 9q22 34 60 52l26 9q8 2 15 2.5t15 1.5h13q3 0 6 -0.5t6 -0.5l18 -3l17 -5l20 -9l22 -15q2 -3 8 -7l13 -16q12 -18 19 -38t7 -42v-6q-1 -7 -1.5 -13.5t-2.5 -13.5q-1 -5 -2.5 -10.5 t-3.5 -10.5l-5 -9q-2 -4 -4 -7t-4 -7l-6 -8q-15 -20 -34 -31t-43 -16l-6 -2q-7 -2 -14.5 -2h-15.5q-21 0 -37 4q-14 3 -31 11q-4 2 -7.5 4t-7.5 4q-10 8 -20 17l-4 3l-10 12q-9 14 -15 28q-2 2 -3 5.5t-4 14.5q-3 14 -3 27z" />
<glyph unicode="&#x3c;" horiz-adv-x="1245" d="M149 496v156l863 405v-233l-576 -250l576 -249v-234z" />
<glyph unicode="=" horiz-adv-x="1399" d="M237 238v201h924v-201h-924zM237 708v201h924v-201h-924z" />
<glyph unicode="&#x3e;" horiz-adv-x="1246" d="M235 38v234l576 249l-576 250v233l862 -405v-156z" />
<glyph unicode="?" horiz-adv-x="957" d="M12 990q0 93 28.5 167t85 126.5t142 80.5t199.5 28q95 0 176 -27.5t140 -78t92.5 -121.5t33.5 -159q0 -67 -21.5 -117t-55.5 -89.5t-76 -72t-84 -64.5q-33 -25 -58.5 -48.5t-43.5 -47.5t-27 -50t-9 -57v-48h-218v50q0 56 12 102.5t33 85.5t50 73t63 65q36 33 70 59 t61 50.5t43.5 50t16.5 56.5q0 85 -52 132t-154 47q-100 0 -152 -49t-52 -144h-243zM290 110q0 28 10 53t29 43.5t45 29.5t58 11t58.5 -11t45 -29.5t29 -43.5t10.5 -53t-10.5 -52.5t-29 -43t-45 -29t-58.5 -10.5q-31 0 -57.5 11t-45 29.5t-29 43t-10.5 51.5z" />
<glyph unicode="@" horiz-adv-x="1983" d="M101 490q0 125 32.5 236t92 205t143.5 169.5t186.5 128.5t220.5 81t246 28q182 0 339.5 -54t273 -152t181.5 -233.5t66 -299.5q0 -146 -41 -252.5t-109.5 -176t-158 -103t-187.5 -33.5q-50 0 -94.5 12t-78 36t-54 59t-22.5 81q-24 -37 -60.5 -64t-78 -44.5t-85 -25.5 t-82.5 -8q-71 0 -124.5 29.5t-89 78.5t-53.5 111t-18 127q0 95 26 174t70 138t104 96.5t127 48.5q7 1 13.5 1.5t14.5 0.5q32 0 68 -8t70 -23t62 -38t44 -53l16 91h234l-76 -490q-7 -42 -2.5 -67.5t17 -39.5t31 -19t39.5 -5q40 0 82 22t77 67t57.5 113t22.5 161 q0 125 -46 225t-129 170t-197 107.5t-251 37.5q-140 0 -264.5 -48t-218 -133.5t-148 -204.5t-54.5 -260q0 -149 47 -270.5t135 -207.5t214.5 -132.5t285.5 -46.5l446 1l1 -202l-442 -1q-231 0 -404 65.5t-288 181t-172 272.5t-57 340zM777 429q-1 -33 8 -64t25.5 -54t40 -37 t52.5 -14q28 0 59.5 15t58.5 38.5t46.5 52.5t23.5 56l32 190q-15 21 -34 37t-39.5 26.5t-40 15.5t-34.5 5q-3 0 -5.5 -0.5t-4.5 -0.5q-36 -4 -69.5 -23.5t-59.5 -53.5t-42 -81.5t-17 -107.5z" />
<glyph unicode="A" horiz-adv-x="1414" d="M22 0l566 1361h236l566 -1361h-264l-107 259h-627l-107 -259h-263zM480 473h450l-216 525l-8 35h-1l-8 -35z" />
<glyph unicode="B" horiz-adv-x="1315" d="M158 0v1360h593q93 0 169.5 -25.5t131 -73.5t84.5 -116t30 -154q0 -45 -13.5 -87t-37 -78t-55 -63.5t-67.5 -42.5q51 -16 96.5 -47.5t79.5 -73.5t54 -94t20 -109q0 -102 -37 -176.5t-98 -123t-139.5 -72.5t-160.5 -24h-650zM406 208h378q35 0 71 13.5t65 39t47 62 t18 83.5q0 43 -16 79t-43 62.5t-63.5 41t-77.5 14.5h-379v-395zM406 794h331q34 0 65.5 13.5t56 37t39 56.5t14.5 72q0 38 -14.5 71t-39 57t-56 38t-65.5 14h-331v-359z" />
<glyph unicode="C" horiz-adv-x="1451" d="M99 682q0 149 58 278.5t157.5 225.5t233.5 151t287 55q80 0 153 -16t138.5 -45.5t123 -70.5t106.5 -91l-153 -161q-67 80 -163 124.5t-205 44.5q-101 0 -189.5 -38t-154.5 -104.5t-104.5 -157.5t-38.5 -196t38.5 -195.5t104.5 -157t154.5 -104.5t189.5 -38 q108 0 204.5 45t164.5 124l152 -161q-46 -47 -103 -88t-123 -71t-140 -47t-155 -17q-153 0 -287 55.5t-233.5 152t-157.5 226t-58 277.5z" />
<glyph unicode="D" horiz-adv-x="1503" d="M158 0v1360h528q155 0 287 -44.5t228 -130.5t150.5 -213t54.5 -291q0 -152 -47.5 -277.5t-138.5 -215t-224.5 -139t-306.5 -49.5h-531zM407 215h274q115 0 203.5 31.5t149 91t91.5 145t31 194.5q0 105 -29 191t-88.5 147.5t-148.5 95.5t-209 34h-274v-930z" />
<glyph unicode="E" horiz-adv-x="1179" d="M158 0v1360h932v-216h-683v-364h590v-214h-590v-351h692v-215h-941z" />
<glyph unicode="F" horiz-adv-x="1155" d="M158 0v1360h932v-216h-683v-404h590v-215h-590v-525h-249z" />
<glyph unicode="G" horiz-adv-x="1578" d="M104 682q0 149 58 279t157.5 227t233.5 153t286 56q159 0 296.5 -60t238.5 -164l-177 -152q-66 75 -158 117.5t-200 42.5q-100 0 -189 -38.5t-155 -106t-104.5 -159t-38.5 -196.5t38.5 -196t104.5 -158.5t155 -106t189 -38.5q90 0 174 31.5t150 86.5v212h-221v183h469 v-480h-2l2 -1q-51 -58 -117.5 -104.5t-141 -78t-154.5 -48.5t-159 -17q-152 0 -286 55t-233.5 151.5t-157.5 227.5t-58 282z" />
<glyph unicode="H" horiz-adv-x="1502" d="M158 0v1360h249v-580h686v580h251v-1360h-251v566h-686v-566h-249z" />
<glyph unicode="I" d="M158 0v1360h249v-1360h-249z" />
<glyph unicode="J" horiz-adv-x="822" d="M49 0v215h158q121 0 173.5 61t52.5 171l1 913h247v-914q0 -109 -32.5 -192.5t-93.5 -140t-149 -85t-199 -28.5h-158z" />
<glyph unicode="K" horiz-adv-x="1356" d="M158 0v1360h249v-771l611 771h291l-485 -603l510 -757h-295l-378 573l-254 -313v-260h-249z" />
<glyph unicode="L" horiz-adv-x="1082" d="M158 0v1360h249v-1145h614v-215h-863z" />
<glyph unicode="M" horiz-adv-x="1690" d="M158 0v1360h217l469 -629l471 629h218v-1360h-249v951l-407 -549h-67l-403 551v-953h-249z" />
<glyph unicode="N" horiz-adv-x="1519" d="M158 0v1360h214l741 -929v929h248v-1360h-214l-740 929v-929h-249z" />
<glyph unicode="O" horiz-adv-x="1671" d="M99 682q0 149 58 278.5t157.5 225.5t233.5 151t287 55q152 0 286.5 -55t234.5 -151t158 -225.5t58 -278.5q0 -148 -58 -277.5t-158 -226t-234.5 -152t-286.5 -55.5q-153 0 -287 55.5t-233.5 152t-157.5 226t-58 277.5zM348 681q0 -105 38.5 -195.5t104.5 -157 t154.5 -104.5t189.5 -38q102 0 191 38t155 104.5t104 157t38 195.5t-38 196t-104 157.5t-155 104.5t-191 38q-101 0 -189.5 -38t-154.5 -104.5t-104.5 -157.5t-38.5 -196z" />
<glyph unicode="P" horiz-adv-x="1254" d="M158 0v1360h573q103 0 189.5 -34.5t149.5 -95.5t98 -145.5t35 -183.5q0 -100 -34.5 -184t-97 -145t-148.5 -94.5t-188 -33.5h-328v-444h-249zM407 659h315q49 0 91.5 18.5t73.5 51t49 76.5t18 95t-18 95.5t-49.5 77.5t-74 52.5t-91.5 19.5h-314v-486z" />
<glyph unicode="Q" horiz-adv-x="1671" d="M103 682q0 149 58 279t158 227t234 153t286 56t286.5 -56t234.5 -153t158 -227t58 -279q0 -109 -32 -209t-89.5 -184.5t-137.5 -151t-176 -108.5q24 -44 57.5 -73.5t73 -47t83 -24.5t88.5 -7q50 0 101.5 6.5t99.5 20.5l70 -186q-11 -5 -32.5 -15t-44.5 -15 q-92 -23 -182 -23q-86 0 -168.5 20t-153 58.5t-126.5 95.5t-89 132q-20 -2 -39.5 -3.5t-39.5 -1.5q-152 0 -286 56.5t-234 153.5t-158 227.5t-58 278.5zM352 681q0 -105 38.5 -196t104.5 -158.5t154.5 -106t189.5 -38.5q102 0 191 38.5t155 106t104 158.5t38 196t-38 196.5 t-104 159t-155 106t-191 38.5q-101 0 -189.5 -38.5t-154.5 -106t-104.5 -159t-38.5 -196.5z" />
<glyph unicode="R" horiz-adv-x="1305" d="M158 0v1360h587q103 0 189.5 -32t149.5 -90.5t98 -140.5t35 -181q0 -74 -19 -138.5t-54.5 -116.5t-86 -91t-112.5 -63l303 -507h-286l-267 473h-288v-473h-249zM407 688h330q49 0 91 16.5t73 46t49 71.5t18 93t-18 93t-49 72.5t-73.5 47.5t-92.5 17h-328v-457z" />
<glyph unicode="S" horiz-adv-x="1283" d="M58 104l81 214q39 -19 93 -41.5t116 -42.5t129 -33.5t134 -13.5q161 0 234 54.5t73 148.5q0 50 -25 84.5t-71.5 59.5t-111 44t-144.5 37q-42 9 -93 21t-102 30t-99 43.5t-85 62t-59.5 85t-22.5 111.5q0 93 30.5 171t95.5 134t167 87.5t245 31.5q75 0 143.5 -11.5 t131 -30.5t119 -41.5t105.5 -45.5l-70 -208q-29 15 -80 35.5t-113.5 39.5t-129.5 32t-128 13q-79 0 -130.5 -16t-82 -41.5t-42.5 -58.5t-12 -67q0 -45 25 -76.5t69 -53t105 -35t133 -24.5q97 -21 185 -48.5t154.5 -74t106 -118t39.5 -180.5q0 -99 -42 -176t-118 -129.5 t-182 -80t-234 -27.5q-86 0 -164 11.5t-146 30.5t-125 43.5t-102 49.5z" />
<glyph unicode="T" horiz-adv-x="1162" d="M53 1145v215h1058v-215h-405v-1145h-249v1145h-404z" />
<glyph unicode="U" horiz-adv-x="1432" d="M134 526v834h248v-834q0 -72 22 -134t64 -108.5t104 -73t143 -26.5q78 0 140 26.5t104.5 72t65 107.5t22.5 134v836h249v-834q0 -122 -42 -224t-118.5 -176t-183.5 -115t-237 -41q-123 0 -229 39t-184.5 111t-123 175t-44.5 231z" />
<glyph unicode="V" horiz-adv-x="1428" d="M29 1361h263l420 -1028h2l420 1028h263l-571 -1361h-226z" />
<glyph unicode="W" horiz-adv-x="2079" d="M29 1361h263l403 -967l16 -61h4l16 61l178 427l-226 540h263l402 -967l16 -61h5l16 61l403 967h263l-571 -1361h-227l-213 508l-214 -508h-226z" />
<glyph unicode="X" horiz-adv-x="1396" d="M33 0l508 711l-466 649h294l328 -477l329 477h293l-466 -649l509 -711h-295l-370 538l-370 -538h-294z" />
<glyph unicode="Y" horiz-adv-x="1366" d="M23 1360h291l368 -615h3l367 615h292l-536 -842v-518h-249v517z" />
<glyph unicode="Z" horiz-adv-x="1269" d="M74 190l763 956h-720v214h1049l-1 -186l-764 -959h795v-215h-1119z" />
<glyph unicode="[" horiz-adv-x="704" d="M158 -276v1913h503v-202h-268v-1509h268v-202h-503z" />
<glyph unicode="\" horiz-adv-x="906" d="M29 1436h246l655 -1634l-246 1z" />
<glyph unicode="]" horiz-adv-x="703" d="M42 -74h269v1509h-269v202h504v-1913h-504v202z" />
<glyph unicode="^" horiz-adv-x="1021" d="M109 793l347 639h103l348 -639l-234 -8l-165 362l-167 -362z" />
<glyph unicode="_" horiz-adv-x="1019" d="M24 -90h971v-204h-971v204z" />
<glyph unicode="`" horiz-adv-x="474" d="M22 1389l180 64l182 -302h-175z" />
<glyph unicode="a" horiz-adv-x="1198" d="M69 321q0 85 41 140.5t111 88.5t163.5 46.5t198.5 13.5q50 0 113.5 -2t120.5 -3v98q-1 32 -17.5 60.5t-47.5 50t-76.5 34t-104.5 12.5q-47 0 -89.5 -11.5t-74 -30t-50 -43.5t-18.5 -52h-246q3 81 39.5 144t99.5 106t148.5 65t184.5 22q119 0 211 -25t155.5 -70.5 t96.5 -108.5t33 -140v-716h-198l-20 117q-39 -34 -87 -60.5t-100.5 -44.5t-108 -27.5t-109.5 -9.5q-83 0 -151 21.5t-116.5 65t-75 108t-26.5 151.5zM319 311q0 -40 15.5 -67.5t41.5 -44.5t62 -24.5t76 -7.5q38 0 84.5 9.5t89.5 28t78 47t51 67.5v117q-45 1 -97 2.5 t-106 1.5q-56 0 -109 -5t-94.5 -19.5t-66.5 -39.5t-25 -65z" />
<glyph unicode="b" horiz-adv-x="1387" d="M160 0v1409h243v-479q62 57 148 94t198 37q124 0 224.5 -43t172 -117.5t110.5 -174t39 -212.5t-40 -212.5t-112 -173.5t-173.5 -117t-224.5 -43q-58 0 -110.5 11.5t-98 31.5t-84.5 46.5t-69 55.5l-14 -113h-209zM392 515q0 -75 26 -136.5t70.5 -106t104.5 -69t129 -24.5 q68 0 128 24.5t105 69t71 106.5t26 136t-25.5 135t-70 105.5t-104.5 69t-129 24.5t-129 -25t-105 -69t-71 -105.5t-26 -134.5z" />
<glyph unicode="c" horiz-adv-x="1126" d="M93 514q0 113 42 212.5t117.5 174t179.5 117.5t227 43q109 0 209 -36t181 -109l-148 -155q-44 42 -105.5 65t-134.5 23q-64 0 -123 -23t-103.5 -66.5t-71 -105.5t-26.5 -139q0 -78 26.5 -140t71.5 -105.5t103.5 -66.5t122.5 -23q78 0 138 22.5t104 66.5l148 -155 q-81 -74 -179.5 -109.5t-207.5 -35.5q-117 0 -220.5 40.5t-181.5 113t-123.5 172.5t-45.5 219z" />
<glyph unicode="d" horiz-adv-x="1399" d="M92 514q0 113 39 212.5t110.5 174t172.5 117.5t224 43q111 0 197 -37t149 -94v479h243v-1409h-208l-15 120q-31 -32 -69.5 -59.5t-84.5 -48t-98 -32.5t-110 -12q-123 0 -224.5 43t-173.5 117t-112 173.5t-40 212.5zM335 515q0 -74 26 -136t71 -106.5t105 -69t129 -24.5 q68 0 128 24.5t104.5 69t70.5 106t26 136.5q0 73 -26 134.5t-71 105.5t-105 69t-128 25q-69 0 -129 -24.5t-105 -69t-70.5 -105.5t-25.5 -135z" />
<glyph unicode="e" horiz-adv-x="1199" d="M91 513q0 113 42 212.5t116.5 174t177.5 118t225 43.5q111 0 199 -27t148.5 -73.5t92.5 -110t32 -137.5q0 -61 -18.5 -116t-60.5 -96.5t-110.5 -65.5t-168.5 -24h-427q16 -53 46.5 -96.5t72 -74.5t91.5 -48t105 -17q50 0 89.5 7.5t71.5 21t58.5 32.5t51.5 42l135 -144 q-30 -30 -71.5 -60t-93 -53.5t-113 -38t-131.5 -14.5q-121 0 -224 43.5t-177.5 117.5t-116.5 173t-42 211zM337 609h388q82 0 125 30.5t43 81.5q0 24 -14.5 48t-43.5 44t-73 32.5t-103 12.5q-57 0 -108.5 -18t-94 -51t-73.5 -79t-46 -101z" />
<glyph unicode="f" horiz-adv-x="826" d="M46 819v210h199v44q0 71 17 140.5t58 124.5t110 89.5t174 34.5h179v-200l-122 1q-48 0 -81 -15t-53.5 -41t-29 -62t-8.5 -77v-39h290v-210h-290v-819h-244v819h-199z" />
<glyph unicode="g" horiz-adv-x="1239" d="M57 -168q0 29 10 58.5t27 57.5t40 54.5t48 48.5q-77 60 -77 158q0 65 32.5 125t80.5 110q-46 51 -70 112.5t-24 130.5q0 81 34 153t96.5 126t151 85.5t198.5 31.5q85 0 157 -19t130 -53q34 27 84 51.5t116 24.5h134v-171h-84q-30 0 -59 -10.5t-53 -24.5q58 -89 58 -194 q0 -82 -34.5 -153t-97.5 -124t-152 -83.5t-199 -30.5q-67 0 -126 11.5t-110 33.5q-16 -22 -23 -46t-7 -44q0 -28 14.5 -44.5t36 -24t46.5 -9.5t46 -2h230q111 0 193.5 -22t136.5 -61.5t80.5 -93.5t26.5 -118q0 -87 -41 -155.5t-114 -116.5t-173.5 -73t-219.5 -25 q-110 0 -208.5 18.5t-173 58.5t-118 101.5t-43.5 147.5zM267 -138q0 -48 26 -80t71 -50.5t105 -26.5t128 -8q71 0 127.5 13t97 36t62 54t21.5 67q0 44 -23 69.5t-57.5 38.5t-74 16t-72.5 3h-302q-24 0 -47 3q-26 -27 -44 -60t-18 -75zM360 690q0 -47 18.5 -87t51.5 -69 t78 -45.5t97 -16.5q53 0 98 16.5t78 45.5t51.5 69t18.5 87q0 46 -18.5 85.5t-51.5 68t-78 44.5t-98 16q-52 0 -97 -16t-78 -44.5t-51.5 -68t-18.5 -85.5z" />
<glyph unicode="h" horiz-adv-x="1326" d="M160 -1v1410h242l-1 -474q60 53 145 89t184 36q120 0 208 -33t145.5 -97t85 -157.5t27.5 -214.5v-558h-245v554q0 84 -18 140.5t-52.5 91t-84 49t-113.5 14.5q-59 0 -110.5 -21t-89 -60t-59 -93.5t-21.5 -120.5v-555h-243z" />
<glyph unicode="i" d="M133 1320q0 28 11 52.5t30.5 43t47.5 29.5t62 11q35 0 63 -11t48 -29.5t31 -43t11 -52.5t-11 -52.5t-31 -43t-48 -29t-63 -10.5q-34 0 -61.5 10.5t-47.5 29t-31 43t-11 52.5zM160 0v1029h245v-1029h-245z" />
<glyph unicode="j" horiz-adv-x="593" d="M-74 -174h96q69 0 103.5 47.5t34.5 130.5v1025h245v-1028q0 -96 -27 -168t-76.5 -120t-118 -72t-151.5 -24h-106v209zM133 1320q0 28 11 52.5t31 43t48 29.5t62 11t62 -11t48 -29.5t31 -43t11 -52.5t-11 -52.5t-31 -43t-48 -29t-63 -10.5q-34 0 -61.5 10.5t-47.5 29 t-31 43t-11 52.5z" />
<glyph unicode="k" horiz-adv-x="1161" d="M160 0v1409h243v-891l424 511h285l-361 -432l393 -597h-291l-277 437l-173 -199v-238h-243z" />
<glyph unicode="l" horiz-adv-x="664" d="M159 342v1067h243v-1064q0 -41 5 -67.5t17.5 -42t34.5 -21.5t56 -6h48v-209h-59q-106 0 -173 17.5t-105 57.5t-52.5 105.5t-14.5 162.5z" />
<glyph unicode="m" horiz-adv-x="1982" d="M160 0v1029h198l17 -95q58 53 142 89.5t189 36.5q108 0 191.5 -41t138.5 -116q30 32 69.5 60.5t87.5 50t105 34t123 12.5q102 0 181.5 -33t134 -97t83 -157t28.5 -212v-561h-244v554q0 152 -55 223.5t-156 71.5q-58 0 -106 -19.5t-83.5 -55.5t-55.5 -88.5t-22 -118.5 v-567h-245v554q0 152 -55 223.5t-156 71.5q-59 0 -108 -20t-84.5 -58.5t-55 -93.5t-19.5 -126v-551h-243z" />
<glyph unicode="n" horiz-adv-x="1327" d="M160 0v1029h198l18 -104q32 28 72 52.5t85.5 43t95.5 29t101 10.5q120 0 208 -33.5t145.5 -98t85 -159t27.5 -215.5v-554h-245v549q0 82 -18 139t-51 93t-80.5 52t-106.5 16q-64 0 -117.5 -23.5t-92.5 -66t-60.5 -101t-21.5 -128.5v-530h-243z" />
<glyph unicode="o" horiz-adv-x="1316" d="M91 514q0 113 42 212.5t117.5 173.5t179.5 117t227 43q124 0 228.5 -43t180 -117t118 -173.5t42.5 -212.5q0 -114 -42 -213t-118 -173t-180.5 -116.5t-229.5 -42.5q-123 0 -226.5 42.5t-178.5 116.5t-117.5 173.5t-42.5 212.5zM334 515q0 -74 25.5 -135.5t69.5 -106 t103.5 -69.5t126.5 -25q68 0 127 24.5t103 69t69 106.5t25 136q0 73 -25.5 134.5t-69 105.5t-102.5 69t-127 25t-127 -24.5t-103 -69t-69.5 -105.5t-25.5 -135z" />
<glyph unicode="p" horiz-adv-x="1387" d="M160 -352v1381h198l19 -120q31 30 70 57.5t85.5 48.5t100 33t112.5 12q123 0 224.5 -42.5t173.5 -116.5t112 -173.5t40 -212.5t-39 -212.5t-110.5 -173.5t-172 -117t-224.5 -43q-112 0 -198 36t-148 93v-450h-243zM392 514q0 -73 26 -134.5t71 -105.5t105 -69t129 -25 t129 24.5t104.5 69t70 106t25.5 134.5q0 74 -26 136t-71 106.5t-105 69t-128 24.5q-69 0 -129 -24.5t-104.5 -69t-70.5 -106t-26 -136.5z" />
<glyph unicode="q" horiz-adv-x="1401" d="M95 515q0 113 40 213t112 174t173.5 117t224.5 43q59 0 111.5 -13.5t98.5 -37t85 -54t69 -63.5l22 136h198v-1381h-241l-1 450q-63 -57 -149 -93.5t-198 -36.5q-123 0 -224 43t-172 117t-110 173.5t-39 212.5zM338 515q0 -74 25.5 -135.5t70 -106t104.5 -69t129 -24.5 t129 25t105 69t71 106t26 135q0 74 -26 136t-70.5 106.5t-104.5 69t-129 24.5q-68 0 -128 -25t-105 -69.5t-71 -106t-26 -135.5z" />
<glyph unicode="r" horiz-adv-x="879" d="M158 0v1029h197l22 -123q52 53 131.5 88t188.5 35h134v-213l-121 -1q-71 0 -128 -20.5t-97.5 -61t-62 -100.5t-21.5 -140v-493h-243z" />
<glyph unicode="s" horiz-adv-x="1044" d="M79 71l70 202q100 -59 181.5 -81.5t153.5 -22.5q116 0 176 34.5t60 93.5q0 33 -18.5 55t-54 37t-88 26.5t-122.5 24.5q-52 8 -112 23t-111 47t-85 85.5t-34 138.5q0 72 26 131.5t79.5 103t136.5 67.5t197 24q118 0 221 -26t195 -72l-66 -190q-37 17 -78 32.5t-84.5 28 t-89 20t-90.5 7.5q-56 0 -94 -10.5t-61.5 -28t-34 -40t-10.5 -45.5q0 -53 58 -79t182 -40q75 -12 147.5 -29.5t129.5 -50t92 -86t35 -138.5q0 -81 -34.5 -145.5t-97.5 -108.5t-151 -67.5t-194 -23.5q-61 0 -115.5 5t-107 16.5t-103.5 31.5t-104 50z" />
<glyph unicode="t" horiz-adv-x="879" d="M35 819v188l165 46l71 268l178 1v-293h329v-210h-329v-421q0 -62 14.5 -102.5t39 -64t57.5 -33t69 -9.5h176l-2 -200h-197q-83 0 -156 17t-127 62.5t-85.5 124.5t-31.5 203v423h-171z" />
<glyph unicode="u" horiz-adv-x="1280" d="M128 483v546h244v-539q0 -83 18 -141.5t52 -96t84 -55t114 -17.5t113.5 17t84 54.5t52.5 96t18 142.5v539h244v-546q0 -136 -37.5 -233.5t-105.5 -160t-162 -91.5t-207 -29t-207 29t-162 91.5t-105.5 160t-37.5 233.5z" />
<glyph unicode="v" horiz-adv-x="1142" d="M25 1029h261l285 -706h1l286 706h261l-437 -1029h-220z" />
<glyph unicode="w" horiz-adv-x="1753" d="M26 1029h260l255 -647l15 -59h5l15 59l171 404l-104 243h261l273 -647l15 -59h5l15 59l254 647h262l-423 -1029h-221l-219 510l-196 -510h-221z" />
<glyph unicode="x" horiz-adv-x="1142" d="M41 0l364 531l-349 498h289l226 -334l227 334h287l-348 -498l364 -531h-291l-241 358l-243 -358h-285z" />
<glyph unicode="y" horiz-adv-x="1139" d="M27 1029h269l274 -654l12 -52l292 705l261 1l-440 -1006q-48 -115 -89.5 -187t-89 -112t-107 -54.5t-142.5 -14.5h-161l-1 200h176q32 0 55 14.5t41.5 41t34.5 64t35 83.5z" />
<glyph unicode="z" horiz-adv-x="1061" d="M67 0v153l556 667h-527v209h871v-156l-552 -663h577v-210h-925z" />
<glyph unicode="{" horiz-adv-x="730" d="M61 583v192q51 9 85.5 26.5t55.5 47.5t29.5 73.5t8.5 104.5v220q0 102 21.5 176.5t72 123t132 71.5t201.5 23l1 -195q-57 -4 -94.5 -10t-59.5 -22.5t-30.5 -47.5t-8.5 -84v-302q0 -115 -41 -187t-111 -114q40 -21 68.5 -53.5t47 -72t27.5 -84t9 -91.5v-237 q0 -76 5.5 -119.5t25 -66.5t58 -31t104.5 -12l-1 -196q-120 0 -201.5 23t-132 72t-72 123.5t-21.5 177.5v219q0 62 -8.5 106.5t-29 74.5t-55 47t-86.5 24z" />
<glyph unicode="|" horiz-adv-x="553" d="M158 -370v1984h236v-1984h-236z" />
<glyph unicode="}" horiz-adv-x="730" d="M57 -88q66 4 104 12t58 31t25.5 66.5t5.5 119.5v237q0 47 9 91.5t27.5 84t47 72t68.5 53.5q-70 42 -111 114t-41 187v302q0 53 -8.5 84t-30.5 47.5t-59.5 22.5t-94.5 10l1 195q120 0 201.5 -23t132 -71.5t72 -123t21.5 -176.5v-220q0 -61 8.5 -104.5t29 -73.5t55 -47.5 t85.5 -26.5v-192q-52 -7 -86.5 -24t-55 -47t-28.5 -74.5t-8 -106.5v-219q0 -103 -21.5 -177.5t-72 -123.5t-132 -72t-201.5 -23z" />
<glyph unicode="~" horiz-adv-x="1230" d="M131 671q23 20 52.5 39t63 33.5t71 23.5t76.5 9q63 0 119.5 -18t109.5 -39t103.5 -39t101.5 -18q76 0 131 23.5t103 61.5l38 -181q-22 -20 -51.5 -39t-64 -34t-73 -24t-79.5 -9q-61 0 -118 18t-110.5 40t-105 40t-101.5 18q-66 0 -124 -23t-106 -64z" />
<glyph unicode="&#xa2;" horiz-adv-x="1279" d="M103 514q0 101 33.5 191t94.5 161.5t146 120t188 65.5v181h231v-185q72 -15 139 -48t124 -84l-148 -155q-44 42 -105.5 65t-135.5 23q-64 0 -123 -23t-103.5 -66.5t-71 -105.5t-26.5 -139q0 -78 26.5 -140t71.5 -105.5t103.5 -66.5t122.5 -23q78 0 138 22.5t105 66.5 l148 -155q-58 -53 -125.5 -86t-141.5 -47v-156h-230v154q-103 18 -187.5 66.5t-145.5 119t-94.5 160t-33.5 189.5z" />
<glyph unicode="&#xa3;" horiz-adv-x="1183" d="M94 0v164q40 21 74.5 59.5t61.5 87t46.5 103.5t29.5 108h-134v206h137q-7 45 -18 83.5t-21.5 74.5t-18 71t-7.5 74q0 92 31 160t87 112.5t133 66.5t169 22q62 0 134.5 -21t135 -69.5t104.5 -128.5t42 -199l-239 -1q0 48 -16 86.5t-40.5 66.5t-54.5 43t-59 15 q-84 0 -132 -42t-48 -128q0 -37 7 -69.5t17 -66t20 -70t17 -81.5h295l2 -205h-300q-9 -49 -25 -98t-36 -91.5t-42.5 -75.5t-45.5 -50h715v-207h-1021z" />
<glyph unicode="&#xa5;" horiz-adv-x="1270" d="M44 1360h272l318 -518l318 518h272l-403 -620h308v-180h-987v179h303zM142 229v178h986v-178h-377v-229h-235v229h-374z" />
<glyph unicode="&#xa8;" horiz-adv-x="868" d="M149 1279q0 43 31.5 73t84.5 30q54 0 85.5 -30t31.5 -73q0 -42 -32 -72t-85 -30t-84.5 30t-31.5 72zM511 1279q0 43 32 73t84 30q54 0 86 -30t32 -73q0 -42 -32 -72t-86 -30q-53 0 -84.5 30t-31.5 72z" />
<glyph unicode="&#xa9;" horiz-adv-x="1654" d="M91 682q0 149 56.5 279t155.5 227t233.5 153t290.5 56t290.5 -56t234 -153t156 -227t56.5 -279q0 -148 -56.5 -278.5t-156 -227.5t-234 -153.5t-290.5 -56.5t-290.5 56.5t-233.5 153.5t-155.5 227.5t-56.5 278.5zM238 682q0 -129 46 -236.5t126 -185t187.5 -120.5 t229.5 -43q123 0 231 43t187.5 120.5t125.5 185t46 236.5t-46 236.5t-125.5 184.5t-187.5 120t-231 43q-122 0 -229.5 -43t-187.5 -120t-126 -184.5t-46 -236.5zM368 680q0 93 34.5 175t96 143.5t146.5 97t185 35.5t169 -32.5t120 -85.5l-101 -85q-1 2 -12.5 13.5t-34.5 24 t-57 23t-79 10.5q-64 0 -119.5 -24t-96.5 -66.5t-64.5 -100.5t-23.5 -127q0 -68 24 -126t65 -100.5t96.5 -66.5t119.5 -24q48 0 82 10t59 23q27 15 46 33l97 -88q-56 -51 -124.5 -80t-166.5 -29q-100 0 -184.5 35.5t-146 96t-96 142t-34.5 173.5z" />
<glyph unicode="&#xab;" horiz-adv-x="1322" d="M120 485l279 373h252l-281 -373l281 -372l-252 -1zM647 485l279 373h252l-281 -373l280 -372l-251 -1z" />
<glyph unicode="&#xad;" horiz-adv-x="811" d="M122 384v204h576v-204h-576z" />
<glyph unicode="&#xae;" horiz-adv-x="1654" d="M91 682q0 149 56.5 279t155.5 227t233.5 153t290.5 56t290.5 -56t234 -153t156 -227t56.5 -279q0 -148 -56.5 -278.5t-156 -227.5t-234 -153.5t-290.5 -56.5t-290.5 56.5t-233.5 153.5t-155.5 227.5t-56.5 278.5zM238 682q0 -129 46 -236.5t126 -185t187.5 -120.5 t229.5 -43q123 0 231 43t187.5 120.5t125.5 185t46 236.5t-46 236.5t-125.5 184.5t-187.5 120t-231 43q-122 0 -229.5 -43t-187.5 -120t-126 -184.5t-46 -236.5zM527 246v874h358q61 0 114.5 -21.5t93 -59t62.5 -89.5t23 -113q0 -85 -41 -149.5t-109 -99.5l170 -342h-170 l-150 309h-191v-309h-160zM687 685h185q30 0 57 12t47 32.5t31.5 48t11.5 59.5q0 31 -11.5 59t-31 49t-46.5 33t-58 12h-185v-305z" />
<glyph unicode="&#xb4;" horiz-adv-x="474" d="M26 1151l182 302l180 -64l-188 -238h-174z" />
<glyph unicode="&#xb8;" horiz-adv-x="417" d="M71 -499l48 128q24 -12 48 -18.5t52 -6.5q17 0 35 7.5t32.5 21t24 31.5t9.5 40q0 27 -13 45.5t-33.5 29.5t-45 16t-46.5 5l87 233l122 -2l-52 -132q68 -20 109.5 -68t41.5 -123q0 -54 -21.5 -100t-56.5 -79t-80.5 -52t-92.5 -19q-51 0 -93.5 9t-74.5 34z" />
<glyph unicode="&#xbb;" horiz-adv-x="1308" d="M147 113l281 372l-281 373h252l279 -373l-279 -373zM674 113l280 372l-280 373h252l279 -373l-279 -373z" />
<glyph unicode="&#x2c6;" horiz-adv-x="780" d="M65 1268l328 207l329 -207l-76 -132l-252 154l-253 -154z" />
<glyph unicode="&#x2da;" horiz-adv-x="554" d="M38 1272q0 44 17 82.5t47.5 67t73 45t94.5 16.5q53 0 96.5 -16.5t74 -45t47.5 -67t17 -82.5q0 -43 -17 -80.5t-47.5 -66t-74 -45t-96.5 -16.5q-52 0 -95 16.5t-73.5 45t-47 66t-16.5 80.5zM176 1272q0 -35 26.5 -61.5t68.5 -26.5t69 26.5t27 61.5q0 38 -26.5 64.5 t-69.5 26.5q-41 0 -68 -26.5t-27 -64.5z" />
<glyph unicode="&#x2dc;" horiz-adv-x="849" d="M92 1200q14 33 34.5 62t47 50.5t58 33.5t67.5 12h12t12 -1q39 -4 71 -14.5t59.5 -21.5t52.5 -20t49 -9q33 0 63.5 20t56.5 70l104 -73q-38 -88 -95 -135.5t-132 -47.5q-44 0 -82.5 10.5t-71.5 23t-60.5 23t-50.5 10.5q-25 0 -48 -12t-46 -54z" />
<glyph unicode="&#x401;" horiz-adv-x="1179" d="M158 0v1360h932v-216h-683v-364h590v-214h-590v-351h692v-215h-941zM322 1669q0 43 31.5 73t84.5 30q54 0 85.5 -30t31.5 -73q0 -42 -32 -72t-85 -30t-84.5 30t-31.5 72zM684 1669q0 43 32 73t84 30q54 0 86 -30t32 -73q0 -42 -32 -72t-86 -30q-53 0 -84.5 30t-31.5 72z " />
<glyph unicode="&#x402;" horiz-adv-x="1580" d="M34 1146v214h1095v-214h-423v-353q20 30 49.5 57.5t67.5 48.5t84.5 33.5t100.5 12.5q113 0 194.5 -35.5t134 -100t78 -153.5t25.5 -196v-488q0 -92 -23.5 -158t-66 -109.5t-102 -64t-131.5 -20.5q-44 0 -78 11.5t-58 25.5t-40 27.5t-24 18.5l100 150q14 -7 26 -14.5 t40 -7.5q62 0 85 40.5t23 112.5v476q0 146 -56 208.5t-172 62.5q-54 0 -100 -22.5t-80.5 -61t-54.5 -90t-22 -110.5v-447h-249v1146h-423z" />
<glyph unicode="&#x403;" horiz-adv-x="1159" d="M157 0v1360h932v-216h-683v-1144h-249zM522 1551l182 302l180 -64l-188 -238h-174z" />
<glyph unicode="&#x404;" horiz-adv-x="1457" d="M101 682q0 149 58 279t158 227t234 153t286 56q158 0 296 -60t239 -164l-177 -152q-67 75 -159 117.5t-199 42.5q-88 0 -166 -30t-139.5 -83t-102.5 -124.5t-54 -155.5h752l1 -215h-752q13 -83 54 -154.5t102.5 -124t139.5 -82.5t165 -30q107 0 199 42t158 117l177 -151 q-101 -104 -238.5 -164t-295.5 -60q-152 0 -286 56.5t-234 153.5t-158 227.5t-58 278.5z" />
<glyph unicode="&#x405;" horiz-adv-x="1166" d="M50 104l81 214q39 -19 93 -41.5t116 -42.5t129 -33.5t134 -13.5q161 0 234 54.5t73 148.5q0 50 -25 84.5t-71.5 59.5t-111 44t-144.5 37q-42 9 -93 21t-102 30t-99 43.5t-85 62t-59.5 85t-22.5 111.5q0 93 30.5 171t95.5 134t167 87.5t245 31.5q75 0 143.5 -11.5 t131 -30.5t119 -41.5t105.5 -45.5l-70 -208q-29 15 -80 35.5t-113.5 39.5t-129.5 32t-128 13q-79 0 -130.5 -16t-82 -41.5t-42.5 -58.5t-12 -67q0 -45 25 -76.5t69 -53t105 -35t133 -24.5q97 -21 185 -48.5t154.5 -74t106 -118t39.5 -180.5q0 -99 -42 -176t-118 -129.5 t-182 -80t-234 -27.5q-86 0 -164 11.5t-146 30.5t-125 43.5t-102 49.5z" />
<glyph unicode="&#x406;" d="M158 0v1360h249v-1360h-249z" />
<glyph unicode="&#x407;" d="M11 1679q0 43 31.5 73t84.5 30q54 0 85.5 -30t31.5 -73q0 -42 -32 -72t-85 -30t-84.5 30t-31.5 72zM158 0v1360h249v-1360h-249zM373 1679q0 43 32 73t84 30q54 0 86 -30t32 -73q0 -42 -32 -72t-86 -30q-53 0 -84.5 30t-31.5 72z" />
<glyph unicode="&#x408;" horiz-adv-x="822" d="M49 0v215h158q121 0 173.5 61t52.5 171l1 913h247v-914q0 -109 -32.5 -192.5t-93.5 -140t-149 -85t-199 -28.5h-158z" />
<glyph unicode="&#x409;" horiz-adv-x="2201" d="M4 -19l43 209q2 0 9.5 -1t16 -1.5l17 -1t11.5 -0.5q62 0 92.5 38t30.5 110v1026h1157v-509h290q106 0 191 -33t145 -91t92 -135t32 -166q0 -96 -36.5 -174.5t-99.5 -134.5t-147.5 -86.5t-180.5 -30.5h-536v1144h-658v-822q0 -91 -30 -157.5t-80.5 -110t-116.5 -64 t-138 -20.5q-30 0 -57 3t-47 8zM1381 215h281q45 0 85 15.5t70 43.5t47.5 67t17.5 86q0 48 -18 86.5t-48 65.5t-69.5 42t-83.5 15h-282v-421z" />
<glyph unicode="&#x40a;" horiz-adv-x="2200" d="M191 0v1360h250v-528h709v528h250v-527h291q105 0 190 -32t145 -87.5t92.5 -131.5t32.5 -164q0 -96 -36.5 -173.5t-99.5 -131.5t-147.5 -83.5t-180.5 -29.5h-537v617h-709v-617h-250zM1400 215h282q45 0 84.5 14t69.5 40.5t47.5 64t17.5 84.5q0 48 -17.5 85.5t-47.5 63 t-69.5 38.5t-83.5 13h-283v-403z" />
<glyph unicode="&#x40b;" horiz-adv-x="1580" d="M34 1146v214h1095v-214h-423v-353q20 30 49.5 57.5t67.5 48.5t84.5 33.5t100.5 12.5q113 0 194.5 -35.5t134 -100t78 -153.5t25.5 -196v-460h-249v460q0 146 -56 208.5t-172 62.5q-54 0 -100 -22.5t-80.5 -61t-54.5 -90t-22 -110.5v-447h-249v1146h-423z" />
<glyph unicode="&#x40c;" horiz-adv-x="1356" d="M158 0v1360h249v-771l611 771h291l-485 -603l510 -757h-295l-378 573l-254 -313v-260h-249zM608 1551l182 302l180 -64l-188 -238h-174z" />
<glyph unicode="&#x40e;" horiz-adv-x="1233" d="M27 1360h274l317 -695l316 695h274l-570 -1204q-24 -48 -59.5 -84t-79 -59t-94 -34.5t-103.5 -11.5q-30 0 -56.5 3t-46.5 7l42 208q2 0 9.5 -1t16.5 -1.5t17 -1t11 -0.5q39 0 68 13.5t44 48.5l76 155zM303 1819l168 12q10 -25 21 -45.5t28.5 -34.5t42 -21.5t61.5 -7.5 t62 7.5t42 21.5t28.5 34.5t20.5 45.5l168 -12q-6 -59 -29 -108.5t-63 -85t-97.5 -55t-131.5 -19.5t-131.5 19.5t-97.5 55t-63 85t-29 108.5z" />
<glyph unicode="&#x40f;" horiz-adv-x="1496" d="M169 0v1360h249v-1144h662v1144h248v-1212h-8l-9 -148h-439v-379h-248v379h-455z" />
<glyph unicode="&#x410;" horiz-adv-x="1414" d="M22 0l566 1361h236l566 -1361h-264l-107 259h-627l-107 -259h-263zM480 473h450l-216 525l-8 35h-1l-8 -35z" />
<glyph unicode="&#x411;" horiz-adv-x="1245" d="M158 0v1360h890v-215h-641v-294h291q106 0 191 -33t145 -91t92 -135t32 -166q0 -96 -36.5 -174.5t-99.5 -134.5t-147.5 -86.5t-180.5 -30.5h-536zM407 215h282q45 0 85 15.5t70 43.5t47.5 67t17.5 86q0 48 -18 86.5t-48 65.5t-69.5 42t-83.5 15h-283v-421z" />
<glyph unicode="&#x412;" horiz-adv-x="1315" d="M158 0v1360h593q93 0 169.5 -25.5t131 -73.5t84.5 -116t30 -154q0 -45 -13.5 -87t-37 -78t-55 -63.5t-67.5 -42.5q51 -16 96.5 -47.5t79.5 -73.5t54 -94t20 -109q0 -102 -37 -176.5t-98 -123t-139.5 -72.5t-160.5 -24h-650zM406 208h378q35 0 71 13.5t65 39t47 62 t18 83.5q0 43 -16 79t-43 62.5t-63.5 41t-77.5 14.5h-379v-395zM406 794h331q34 0 65.5 13.5t56 37t39 56.5t14.5 72q0 38 -14.5 71t-39 57t-56 38t-65.5 14h-331v-359z" />
<glyph unicode="&#x413;" horiz-adv-x="1125" d="M158 0v1360h932v-216h-683v-1144h-249z" />
<glyph unicode="&#x414;" horiz-adv-x="1525" d="M52 216h84q27 19 52 54.5t47 80.5t40.5 96.5t32.5 101t23 93.5t12 76l64 642h901v-1144h160v-517h-249v301h-918v-301h-249v517zM431 216h630v928h-425l-45 -452q-15 -134 -53.5 -256.5t-106.5 -219.5z" />
<glyph unicode="&#x415;" horiz-adv-x="1179" d="M158 0v1360h932v-216h-683v-364h590v-214h-590v-351h692v-215h-941z" />
<glyph unicode="&#x416;" horiz-adv-x="2055" d="M73 1360h312l456 -533l62 67v466h250v-466l62 -67l456 533h313l-606 -710l603 -650h-320l-508 543v-543h-250v543l-508 -543h-319l602 650z" />
<glyph unicode="&#x417;" horiz-adv-x="1275" d="M64 158l154 147q31 -31 74.5 -54.5t93 -38.5t102 -22.5t101.5 -7.5q57 0 114.5 12.5t103.5 38.5t75 65.5t29 92.5q0 54 -20.5 91t-60.5 61t-98 37.5t-132 19.5h-270v215h281q61 6 107.5 17.5t77.5 32.5t46.5 52.5t15.5 77.5q0 50 -23 85.5t-61.5 58t-89 33.5t-106.5 11 q-34 0 -76 -4t-84.5 -14t-83.5 -27.5t-73 -44.5l-128 159q34 38 86.5 65.5t114.5 45.5t129.5 27t130.5 9q114 0 208.5 -26t162 -77.5t105 -127t37.5 -174.5q0 -58 -16.5 -104.5t-44.5 -82t-65 -61t-78 -42.5q48 -14 94.5 -38.5t83 -63.5t59 -94t22.5 -130 q0 -104 -48.5 -181.5t-128 -128.5t-181 -76.5t-207.5 -25.5q-80 0 -158 11t-148 34t-128 59.5t-99 87.5z" />
<glyph unicode="&#x418;" horiz-adv-x="1519" d="M158 0v1360h248v-929l741 929h214v-1360h-249v929l-740 -929h-214z" />
<glyph unicode="&#x419;" horiz-adv-x="1519" d="M158 0v1360h248v-929l741 929h214v-1360h-249v929l-740 -929h-214zM428 1799l168 12q10 -25 21 -45.5t28.5 -34.5t42 -21.5t61.5 -7.5t62 7.5t42 21.5t28.5 34.5t20.5 45.5l168 -12q-6 -59 -29 -108.5t-63 -85t-97.5 -55t-131.5 -19.5t-131.5 19.5t-97.5 55t-63 85 t-29 108.5z" />
<glyph unicode="&#x41a;" horiz-adv-x="1356" d="M158 0v1360h249v-771l611 771h291l-485 -603l510 -757h-295l-378 573l-254 -313v-260h-249z" />
<glyph unicode="&#x41b;" horiz-adv-x="1538" d="M4 -19l43 209q2 0 9.5 -1t16 -1.5l17 -1t11.5 -0.5q62 0 92.5 38t30.5 110v1026h1157v-1360h-249v1144h-659v-822q0 -91 -30 -157.5t-80.5 -110t-116.5 -64t-138 -20.5q-30 0 -57 3t-47 8z" />
<glyph unicode="&#x41c;" horiz-adv-x="1690" d="M158 0v1360h217l469 -629l471 629h218v-1360h-249v951l-407 -549h-67l-403 551v-953h-249z" />
<glyph unicode="&#x41d;" horiz-adv-x="1502" d="M158 0v1360h249v-580h686v580h251v-1360h-251v566h-686v-566h-249z" />
<glyph unicode="&#x41e;" horiz-adv-x="1671" d="M99 682q0 149 58 278.5t157.5 225.5t233.5 151t287 55q152 0 286.5 -55t234.5 -151t158 -225.5t58 -278.5q0 -148 -58 -277.5t-158 -226t-234.5 -152t-286.5 -55.5q-153 0 -287 55.5t-233.5 152t-157.5 226t-58 277.5zM348 681q0 -105 38.5 -195.5t104.5 -157 t154.5 -104.5t189.5 -38q102 0 191 38t155 104.5t104 157t38 195.5t-38 196t-104 157.5t-155 104.5t-191 38q-101 0 -189.5 -38t-154.5 -104.5t-104.5 -157.5t-38.5 -196z" />
<glyph unicode="&#x41f;" horiz-adv-x="1502" d="M158 0v1360h1204v-1360h-248v1144h-707v-1144h-249z" />
<glyph unicode="&#x420;" horiz-adv-x="1256" d="M158 0v1360h573q103 0 189.5 -34.5t149.5 -95.5t98 -145.5t35 -183.5q0 -100 -34.5 -184t-97 -145t-148.5 -94.5t-188 -33.5h-328v-444h-249zM407 659h315q49 0 91.5 18.5t73.5 51t49 76.5t18 95t-18 95.5t-49.5 77.5t-74 52.5t-91.5 19.5h-314v-486z" />
<glyph unicode="&#x421;" horiz-adv-x="1451" d="M99 682q0 149 58 278.5t157.5 225.5t233.5 151t287 55q80 0 153 -16t138.5 -45.5t123 -70.5t106.5 -91l-153 -161q-67 80 -163 124.5t-205 44.5q-101 0 -189.5 -38t-154.5 -104.5t-104.5 -157.5t-38.5 -196t38.5 -195.5t104.5 -157t154.5 -104.5t189.5 -38 q108 0 204.5 45t164.5 124l152 -161q-46 -47 -103 -88t-123 -71t-140 -47t-155 -17q-153 0 -287 55.5t-233.5 152t-157.5 226t-58 277.5z" />
<glyph unicode="&#x422;" horiz-adv-x="1162" d="M53 1145v215h1058v-215h-405v-1145h-249v1145h-404z" />
<glyph unicode="&#x423;" horiz-adv-x="1233" d="M27 1360h274l317 -695l316 695h274l-570 -1204q-24 -48 -59.5 -84t-79 -59t-94 -34.5t-103.5 -11.5q-30 0 -56.5 3t-46.5 7l42 208q2 0 9.5 -1t16.5 -1.5t17 -1t11 -0.5q39 0 68 13.5t44 48.5l76 155z" />
<glyph unicode="&#x424;" horiz-adv-x="1699" d="M89 682q0 134 46 237t129.5 175t201 114t260.5 54v98h248v-98q143 -12 260.5 -54t201 -114t129.5 -175t46 -237t-46 -237t-129.5 -175t-201 -114t-260.5 -54v-102h-248v102q-144 12 -261.5 54t-201 114t-129 175t-45.5 237zM338 681q0 -88 30.5 -152.5t83 -108t123 -68 t151.5 -33.5v725q-81 -10 -151.5 -34.5t-123 -68t-83 -107.5t-30.5 -153zM974 319q81 9 152 33.5t123.5 68t82.5 107.5t30 153t-30 153t-82.5 107.5t-123.5 68t-152 34.5v-725z" />
<glyph unicode="&#x425;" horiz-adv-x="1396" d="M33 0l508 711l-466 649h294l328 -477l329 477h293l-466 -649l509 -711h-295l-370 538l-370 -538h-294z" />
<glyph unicode="&#x426;" horiz-adv-x="1626" d="M158 0v1360h249v-1144h662v1144h248v-1144h232v-517h-248v301h-1143z" />
<glyph unicode="&#x427;" horiz-adv-x="1318" d="M132 850v510h249v-510q0 -73 16.5 -124.5t48 -84t76.5 -47.5t103 -15q55 0 101.5 23.5t81 64t54 94t19.5 114.5v485h250v-1360h-243l-1 524q-19 -31 -48.5 -60t-68.5 -50.5t-86.5 -34.5t-103.5 -13q-112 0 -196 35.5t-140 99.5t-84 153t-28 196z" />
<glyph unicode="&#x428;" horiz-adv-x="2093" d="M158 0v1360h249v-1144h515v1144h248v-1144h517v1144h248v-1360h-1777z" />
<glyph unicode="&#x429;" horiz-adv-x="2256" d="M158 0v1360h249v-1144h515v1144h248v-1144h517v1144h248v-1144h233v-517h-248v301h-1762z" />
<glyph unicode="&#x42a;" horiz-adv-x="1443" d="M33 1144v216h561v-444h329q102 0 187.5 -33.5t148 -94.5t97 -144.5t34.5 -184.5q0 -99 -35 -183.5t-98 -145.5t-149.5 -95.5t-189.5 -34.5h-573v1144h-312zM594 215h314q50 0 92.5 19.5t73.5 52.5t49 77.5t18 95.5t-17.5 95t-48.5 76.5t-73.5 51t-91.5 18.5h-316v-486z " />
<glyph unicode="&#x42b;" horiz-adv-x="1800" d="M158 0v1360h249v-444h328q102 0 188 -33.5t148.5 -94.5t97 -144.5t34.5 -184.5q0 -99 -35 -183.5t-98 -145.5t-149.5 -95.5t-189.5 -34.5h-573zM407 215h314q49 0 91.5 19.5t74 52.5t49.5 77.5t18 95.5t-18 95t-49 76.5t-73.5 51t-91.5 18.5h-315v-486zM1348 0v1360h249 v-1360h-249z" />
<glyph unicode="&#x42c;" horiz-adv-x="1256" d="M158 0v1360h249v-444h328q102 0 188 -33.5t148.5 -94.5t97 -144.5t34.5 -184.5q0 -99 -35 -183.5t-98 -145.5t-149.5 -95.5t-189.5 -34.5h-573zM407 215h314q49 0 91.5 19.5t74 52.5t49.5 77.5t18 95.5t-18 95t-49 76.5t-73.5 51t-91.5 18.5h-315v-486z" />
<glyph unicode="&#x42d;" horiz-adv-x="1465" d="M119 1173q102 104 239.5 164t295.5 60q153 0 287 -56t233.5 -153t157.5 -227t58 -279q0 -148 -58 -278.5t-157.5 -227.5t-233.5 -153.5t-287 -56.5q-158 0 -295 60t-239 164l177 151q66 -75 158 -117t199 -42q88 0 166 30t139 82.5t102 124t54 154.5h-751v215h752 q-13 84 -54 155.5t-102.5 124.5t-139.5 83t-166 30q-107 0 -199.5 -42.5t-158.5 -117.5z" />
<glyph unicode="&#x42e;" horiz-adv-x="2249" d="M158 0v1360h249v-1360h-249zM338 585l549 -1v203h-549v-202zM686 682q0 149 58 278.5t157.5 225.5t233.5 151t287 55q152 0 286.5 -55t234.5 -151t158 -225.5t58 -278.5q0 -148 -58 -277.5t-158 -226t-234.5 -152t-286.5 -55.5q-153 0 -287 55.5t-233.5 152t-157.5 226 t-58 277.5zM935 681q0 -105 38.5 -195.5t104.5 -157t154.5 -104.5t189.5 -38q102 0 191 38t155 104.5t104 157t38 195.5t-38 196t-104 157.5t-155 104.5t-191 38q-101 0 -189.5 -38t-154.5 -104.5t-104.5 -157.5t-38.5 -196z" />
<glyph unicode="&#x42f;" horiz-adv-x="1299" d="M92 0l263 535q-48 29 -87.5 68t-67.5 87.5t-43.5 104.5t-15.5 119q0 96 36.5 177.5t99.5 141.5t147.5 93.5t180.5 33.5h537v-1360h-249v470h-300l-226 -470h-275zM390 914q0 -48 18 -90t48 -72.5t70 -48.5t83 -18h284v461h-283q-45 0 -85 -18.5t-70 -50.5t-47.5 -74 t-17.5 -89z" />
<glyph unicode="&#x430;" horiz-adv-x="1226" d="M116 321q0 85 41 140.5t111 88.5t163.5 46.5t198.5 13.5q50 0 113.5 -2t120.5 -3v98q-1 32 -17.5 60.5t-47.5 50t-76.5 34t-104.5 12.5q-47 0 -89.5 -11.5t-74 -30t-50 -43.5t-18.5 -52h-246q3 81 39.5 144t99.5 106t148.5 65t184.5 22q119 0 211 -25t155.5 -70.5 t96.5 -108.5t33 -140v-716h-198l-20 117q-39 -34 -87 -60.5t-100.5 -44.5t-108 -27.5t-109.5 -9.5q-83 0 -151 21.5t-116.5 65t-75 108t-26.5 151.5zM366 311q0 -40 15.5 -67.5t41.5 -44.5t62 -24.5t76 -7.5q38 0 84.5 9.5t89.5 28t78 47t51 67.5v117q-45 1 -97 2.5 t-106 1.5q-56 0 -109 -5t-94.5 -19.5t-66.5 -39.5t-25 -65z" />
<glyph unicode="&#x431;" horiz-adv-x="1332" d="M104 514v441q0 113 42 213t117.5 175t179.5 119t227 44q39 0 78 -6.5t79.5 -14.5t81 -14.5t82.5 -6.5q18 0 36.5 1.5t36.5 5.5l-11 -198q-23 -8 -46 -11.5t-47 -3.5q-36 0 -73.5 6t-74.5 13t-72.5 13t-68.5 6q-67 0 -126 -25.5t-103 -70.5t-69 -107.5t-25 -136.5v-61 q30 36 67 67t80.5 54t94 36t106.5 13q124 0 224 -43.5t171 -118.5t109.5 -175.5t38.5 -213.5q0 -114 -42.5 -214t-118 -175t-180 -118.5t-229.5 -43.5q-123 0 -226.5 43.5t-178.5 118.5t-117.5 175.5t-42.5 213.5zM348 515q0 -74 25.5 -136.5t69 -107.5t103 -70.5 t126.5 -25.5q68 0 127 25.5t103 70.5t69 107.5t25 136.5q0 73 -25.5 135t-69.5 107.5t-103 71t-127 25.5q-67 0 -126 -25.5t-103 -70.5t-69 -107t-25 -136z" />
<glyph unicode="&#x432;" horiz-adv-x="1137" d="M160 0v1029h482q79 0 143 -19t109.5 -55.5t70 -90t24.5 -121.5q0 -33 -11 -64t-29 -57t-42 -46t-50 -30q39 -13 74 -36t61.5 -54t42 -69t15.5 -80q0 -83 -31.5 -141.5t-82.5 -95t-116 -53.5t-132 -17h-528zM402 202h267q29 0 54 9t43 25.5t28.5 39t10.5 48.5 q0 24 -10.5 46t-28.5 38.5t-43 26t-54 9.5h-267v-242zM402 615h228q23 0 44.5 8.5t38 23t26 34.5t9.5 43t-9.5 42.5t-25.5 34.5t-37.5 23.5t-44.5 8.5h-229v-218z" />
<glyph unicode="&#x433;" horiz-adv-x="990" d="M168 0v1029h774v-211h-529v-818h-245z" />
<glyph unicode="&#x434;" horiz-adv-x="1465" d="M80 207h83q93 83 149 209.5t72 316.5l27 296h831v-822h111v-429h-210l-35 222h-783l-35 -222h-210v429zM417 207h582v613h-365l-17 -168q-8 -80 -24 -144t-40.5 -117t-58 -98t-77.5 -86z" />
<glyph unicode="&#x435;" horiz-adv-x="1199" d="M76 525q0 113 42 212.5t116.5 174t177.5 118t225 43.5q111 0 199 -27t148.5 -73.5t92.5 -110t32 -137.5q0 -61 -18.5 -116t-60.5 -96.5t-110.5 -65.5t-168.5 -24h-427q16 -53 46.5 -96.5t72 -74.5t91.5 -48t105 -17q50 0 89.5 7.5t71.5 21t58.5 32.5t51.5 42l135 -144 q-30 -30 -71.5 -60t-93 -53.5t-113 -38t-131.5 -14.5q-121 0 -224 43.5t-177.5 117.5t-116.5 173t-42 211zM322 621h388q82 0 125 30.5t43 81.5q0 24 -14.5 48t-43.5 44t-73 32.5t-103 12.5q-57 0 -108.5 -18t-94 -51t-73.5 -79t-46 -101z" />
<glyph unicode="&#x436;" horiz-adv-x="1720" d="M49 0l450 476l32 29l-479 524h303l349 -366l29 27v1l-3 338h244l-4 -339l32 -29l352 368h302l-482 -526l30 -27l450 -476h-307l-373 374v-374h-244l1 377l-1 -3l-374 -374h-307z" />
<glyph unicode="&#x437;" horiz-adv-x="1121" d="M85 58l56 175q58 -29 147.5 -43.5t205.5 -14.5q54 0 103 7t86 22.5t59 40.5t22 61q0 35 -24 57.5t-63.5 35.5t-91 18t-106.5 5h-211l2 220h216q46 0 86 6t70 19t47 33.5t17 48.5q0 53 -55.5 83t-151.5 30q-37 0 -84 -4t-90.5 -9.5t-78 -12t-47.5 -11.5l-49 176 q30 14 72.5 26t90 21t96 14t90.5 5q95 0 177 -16t142.5 -52.5t95.5 -95t35 -144.5q0 -49 -16 -86t-42 -63t-59 -42t-67 -24q39 -8 82 -19.5t79 -37t59 -69t23 -115.5q0 -91 -40.5 -156t-110 -105.5t-162 -59.5t-196.5 -19q-47 0 -102 5.5t-110.5 16.5t-108 29.5t-93.5 43.5z " />
<glyph unicode="&#x438;" horiz-adv-x="1318" d="M160 0v1029h241v-617l534 617h211v-1029h-242v619l-533 -619h-211z" />
<glyph unicode="&#x439;" horiz-adv-x="1318" d="M160 0v1029h241v-617l534 617h211v-1029h-242v619l-533 -619h-211zM337 1480l168 12q10 -25 21 -45.5t28.5 -34.5t42 -21.5t61.5 -7.5t62 7.5t42 21.5t28.5 34.5t20.5 45.5l168 -12q-6 -59 -29 -108.5t-63 -85t-97.5 -55t-131.5 -19.5t-131.5 19.5t-97.5 55t-63 85 t-29 108.5z" />
<glyph unicode="&#x43a;" horiz-adv-x="1161" d="M160 0v1029h243v-531l424 531h285l-361 -444l393 -585h-291l-277 424l-173 -209v-215h-243z" />
<glyph unicode="&#x43b;" horiz-adv-x="1404" d="M6 -21l41 205q2 0 10 -1t17 -1.5t16.5 -1t10.5 -0.5q69 0 102 42t33 119v688h996v-1029h-245v818h-507v-489q0 -93 -30 -161t-81 -112.5t-118 -66t-142 -21.5q-30 0 -56.5 3t-46.5 8z" />
<glyph unicode="&#x43c;" horiz-adv-x="1494" d="M160 0v1029h211l368 -409l374 409h209v-1029h-240v633l-286 -353h-112l-282 356v-636h-242z" />
<glyph unicode="&#x43d;" horiz-adv-x="1315" d="M160 0v1029h242v-416h499v416h242v-1029h-242v405h-499v-405h-242z" />
<glyph unicode="&#x43e;" horiz-adv-x="1316" d="M91 514q0 113 42 212.5t117.5 173.5t179.5 117t227 43q124 0 228.5 -43t180 -117t118 -173.5t42.5 -212.5q0 -114 -42 -213t-118 -173t-180.5 -116.5t-229.5 -42.5q-123 0 -226.5 42.5t-178.5 116.5t-117.5 173.5t-42.5 212.5zM334 515q0 -74 25.5 -135.5t69.5 -106 t103.5 -69.5t126.5 -25q68 0 127 24.5t103 69t69 106.5t25 136q0 73 -25.5 134.5t-69 105.5t-102.5 69t-127 25t-127 -24.5t-103 -69t-69.5 -105.5t-25.5 -135z" />
<glyph unicode="&#x43f;" horiz-adv-x="1348" d="M160 0v1029h1016v-1029h-244v818h-527v-818h-245z" />
<glyph unicode="&#x440;" horiz-adv-x="1387" d="M160 -352v1381h198l19 -120q31 30 70 57.5t85.5 48.5t100 33t112.5 12q123 0 224.5 -42.5t173.5 -116.5t112 -173.5t40 -212.5t-39 -212.5t-110.5 -173.5t-172 -117t-224.5 -43q-112 0 -198 36t-148 93v-450h-243zM392 514q0 -73 26 -134.5t71 -105.5t105 -69t129 -25 t129 24.5t104.5 69t70 106t25.5 134.5q0 74 -26 136t-71 106.5t-105 69t-128 24.5q-69 0 -129 -24.5t-104.5 -69t-70.5 -106t-26 -136.5z" />
<glyph unicode="&#x441;" horiz-adv-x="1126" d="M93 514q0 113 42 212.5t117.5 174t179.5 117.5t227 43q109 0 209 -36t181 -109l-148 -155q-44 42 -105.5 65t-134.5 23q-64 0 -123 -23t-103.5 -66.5t-71 -105.5t-26.5 -139q0 -78 26.5 -140t71.5 -105.5t103.5 -66.5t122.5 -23q78 0 138 22.5t104 66.5l148 -155 q-81 -74 -179.5 -109.5t-207.5 -35.5q-117 0 -220.5 40.5t-181.5 113t-123.5 172.5t-45.5 219z" />
<glyph unicode="&#x442;" horiz-adv-x="1040" d="M92 822v207h857v-207h-307v-822h-242v822h-308z" />
<glyph unicode="&#x443;" horiz-adv-x="1139" d="M27 1024h269l274 -654l12 -52l292 705l261 1l-440 -1006q-48 -115 -89.5 -187t-89 -112t-107 -54.5t-142.5 -14.5h-161l-1 200h176q32 0 55 14.5t41.5 41t34.5 64t35 83.5z" />
<glyph unicode="&#x444;" horiz-adv-x="1551" d="M126 514q0 112 41.5 212t116 175t177 119t225.5 45v407h244v-407q122 -2 224.5 -46t176.5 -119t115.5 -174.5t41.5 -211.5t-41.5 -211.5t-115.5 -174t-176.5 -119t-224.5 -46.5v-376h-244v376q-122 1 -225 44.5t-177.5 118.5t-116 175t-41.5 213zM369 515q0 -73 25 -135 t67.5 -107t100.5 -70.5t124 -27.5v678q-67 -1 -124.5 -27t-100.5 -71t-67.5 -106.5t-24.5 -133.5zM930 175q66 2 124 27.5t100.5 70.5t67 107t24.5 135q0 72 -24.5 133t-67.5 106t-100.5 71.5t-123.5 27.5v-678z" />
<glyph unicode="&#x445;" horiz-adv-x="1142" d="M41 0l364 531l-349 498h289l226 -334l227 334h287l-348 -498l364 -531h-291l-241 358l-243 -358h-285z" />
<glyph unicode="&#x446;" horiz-adv-x="1419" d="M160 0v1029h245v-817h527v817h244v-817h126l6 1v-427h-244v214h-904z" />
<glyph unicode="&#x447;" horiz-adv-x="1351" d="M146 709v320h244v-329q0 -79 18 -135t52.5 -92t84.5 -52.5t113 -16.5q60 0 111 26t88.5 70t59 103.5t21.5 125.5v300h244v-1031h-244l6 396q-24 -54 -61.5 -92t-82 -62t-93 -35.5t-96.5 -11.5q-120 0 -207.5 38t-145 106t-85 163t-27.5 209z" />
<glyph unicode="&#x448;" horiz-adv-x="1992" d="M160 0v1029h245v-817h463v817h244v-817h464v817h244v-1029h-1660z" />
<glyph unicode="&#x449;" horiz-adv-x="2063" d="M160 0v1029h245v-817h463v817h244v-817h464v817h244v-817l132 1v-427h-245v214h-1547z" />
<glyph unicode="&#x44a;" horiz-adv-x="1270" d="M41 819v210h424v-346h368q72 0 139 -22t118 -65.5t82 -106.5t31 -146q0 -81 -31 -145t-83 -108t-119.5 -67t-139.5 -23h-610v819h-179zM465 212h355q30 0 55.5 10.5t44 28.5t29.5 41.5t11 50.5t-10.5 50t-29 40.5t-44 27.5t-55.5 10h-356v-259z" />
<glyph unicode="&#x44b;" horiz-adv-x="1767" d="M168 0v1029h245v-346h368q72 0 139 -22t118 -65.5t82 -106.5t31 -146q0 -81 -31 -145t-83 -108t-119.5 -67t-139.5 -23h-610zM413 212h355q30 0 55.5 10.5t44 28.5t29.5 41.5t11 50.5t-10.5 50t-29 40.5t-43.5 27.5t-55 10h-357v-259zM1350 12v1029h245v-1029h-245z" />
<glyph unicode="&#x44c;" horiz-adv-x="1210" d="M160 0v1029h245v-346h368q72 0 139 -22t118 -65.5t82 -106.5t31 -146q0 -81 -31 -145t-83 -108t-119.5 -67t-139.5 -23h-610zM405 212h355q30 0 55.5 10.5t44 28.5t29.5 41.5t11 50.5t-10.5 50t-29 40.5t-44 27.5t-55.5 10h-356v-259z" />
<glyph unicode="&#x44d;" horiz-adv-x="1316" d="M121 356h249q41 -83 117.5 -129.5t170.5 -46.5q53 0 102 16t90.5 46t72 73.5t45.5 98.5h-468v200h469q-15 55 -45.5 98.5t-71.5 74t-91 46.5t-103 16q-95 0 -171 -46.5t-117 -128.5h-249q25 84 74 155t118.5 122.5t157 80.5t189.5 29q123 0 227 -43t179.5 -117.5 t117.5 -174t42 -212.5q0 -112 -42.5 -211.5t-118 -173.5t-179 -117t-226.5 -43q-102 0 -190 29t-158 81t-119 122.5t-72 154.5z" />
<glyph unicode="&#x44e;" horiz-adv-x="1856" d="M168 0v1029h245v-409h223q18 94 66.5 175.5t121 141.5t166 94t202.5 34q124 0 228.5 -43.5t180 -118.5t118 -175.5t42.5 -213.5q0 -114 -42.5 -214t-118 -175t-180 -118.5t-229.5 -43.5q-108 0 -201.5 34t-166 94t-121 141.5t-66.5 175.5h-223v-408h-245zM870 515 q0 -74 25.5 -136.5t69.5 -107.5t103.5 -70.5t126.5 -25.5t126 25.5t103.5 70.5t70 107.5t25.5 136.5q0 73 -25.5 135t-70 107.5t-103.5 71t-126 25.5q-68 0 -127.5 -25.5t-103.5 -70.5t-69 -107t-25 -136z" />
<glyph unicode="&#x44f;" horiz-adv-x="1140" d="M77 0l243 352q-94 43 -149 125.5t-55 193.5q0 78 29 143.5t80.5 113t123.5 74.5t157 27h462v-1029h-242v315h-165l-207 -315h-277zM358 671q0 -31 12 -58.5t33.5 -47t50 -31t61.5 -11.5h211v299h-210q-33 0 -62 -12t-50.5 -33t-33.5 -48.5t-12 -57.5z" />
<glyph unicode="&#x451;" horiz-adv-x="1199" d="M76 525q0 113 42 212.5t116.5 174t177.5 118t225 43.5q111 0 199 -27t148.5 -73.5t92.5 -110t32 -137.5q0 -61 -18.5 -116t-60.5 -96.5t-110.5 -65.5t-168.5 -24h-427q16 -53 46.5 -96.5t72 -74.5t91.5 -48t105 -17q50 0 89.5 7.5t71.5 21t58.5 32.5t51.5 42l135 -144 q-30 -30 -71.5 -60t-93 -53.5t-113 -38t-131.5 -14.5q-121 0 -224 43.5t-177.5 117.5t-116.5 173t-42 211zM322 621h388q82 0 125 30.5t43 81.5q0 24 -14.5 48t-43.5 44t-73 32.5t-103 12.5q-57 0 -108.5 -18t-94 -51t-73.5 -79t-46 -101zM361 1340q0 43 31.5 73t84.5 30 q54 0 85.5 -30t31.5 -73q0 -42 -32 -72t-85 -30t-84.5 30t-31.5 72zM723 1340q0 43 32 73t84 30q54 0 86 -30t32 -73q0 -42 -32 -72t-86 -30q-53 0 -84.5 30t-31.5 72z" />
<glyph unicode="&#x452;" horiz-adv-x="1326" d="M-17 1165v176h177v110h248l-3 -110h185v-176h-190l-7 -286q20 36 52 69.5t74.5 59.5t95.5 41.5t116 15.5q120 0 208 -38t145.5 -106.5t85 -163.5t27.5 -209v-548h-244v558q0 79 -18 135t-52 91.5t-84 52t-113 16.5q-60 0 -111.5 -25.5t-89 -69.5t-59 -102.5t-21.5 -124.5 v-531h-245v1165h-177z" />
<glyph unicode="&#x453;" horiz-adv-x="990" d="M168 0v1029h774v-211h-529v-818h-245zM424 1212l182 302l180 -64l-188 -238h-174z" />
<glyph unicode="&#x454;" horiz-adv-x="1298" d="M103 514q0 113 42 212.5t117.5 174t179.5 117.5t227 43q102 0 189.5 -29t157 -80.5t118.5 -122.5t74 -155h-249q-41 82 -117.5 128.5t-171.5 46.5q-54 0 -103.5 -16t-90.5 -46.5t-71.5 -74t-45.5 -98.5h470v-200h-470q15 -55 46 -98.5t72 -73.5t90.5 -46t102.5 -16 q95 0 171 46.5t118 129.5h248q-23 -84 -71.5 -154.5t-118.5 -122.5t-158 -81t-190 -29q-123 0 -227 43t-179.5 117t-117.5 173.5t-42 211.5z" />
<glyph unicode="&#x455;" horiz-adv-x="1034" d="M84 71l70 202q100 -59 181.5 -81.5t153.5 -22.5q116 0 176 34.5t60 93.5q0 33 -18.5 55t-54 37t-88 26.5t-122.5 24.5q-52 8 -112 23t-111 47t-85 85.5t-34 138.5q0 72 26 131.5t79.5 103t136.5 67.5t197 24q118 0 221 -26t195 -72l-66 -190q-37 17 -78 32.5t-84.5 28 t-89 20t-90.5 7.5q-56 0 -94 -10.5t-61.5 -28t-34 -40t-10.5 -45.5q0 -53 58 -79t182 -40q75 -12 147.5 -29.5t129.5 -50t92 -86t35 -138.5q0 -81 -34.5 -145.5t-97.5 -108.5t-151 -67.5t-194 -23.5q-61 0 -115.5 5t-107 16.5t-103.5 31.5t-104 50z" />
<glyph unicode="&#x456;" horiz-adv-x="592" d="M133 1320q0 28 11 52.5t30.5 43t47.5 29.5t62 11q35 0 63 -11t48 -29.5t31 -43t11 -52.5t-11 -52.5t-31 -43t-48 -29t-63 -10.5q-34 0 -61.5 10.5t-47.5 29t-31 43t-11 52.5zM160 0v1029h245v-1029h-245z" />
<glyph unicode="&#x457;" d="M-27 1328q0 43 31.5 73t84.5 30q54 0 85.5 -30t31.5 -73q0 -42 -32 -72t-85 -30t-84.5 30t-31.5 72zM160 0v1029h245v-1029h-245zM335 1328q0 43 32 73t84 30q54 0 86 -30t32 -73q0 -42 -32 -72t-86 -30q-53 0 -84.5 30t-31.5 72z" />
<glyph unicode="&#x458;" horiz-adv-x="577" d="M-74 -174h96q69 0 103.5 47.5t34.5 130.5v1025h245v-1028q0 -96 -27 -168t-76.5 -120t-118 -72t-151.5 -24h-106v209z" />
<glyph unicode="&#x459;" horiz-adv-x="2010" d="M6 -21l41 205q2 0 10 -1t17 -1.5t16.5 -1t10.5 -0.5q69 0 102 42t33 119v688h968v-346h368q72 0 139 -22t118 -65.5t82 -106.5t31 -146q0 -81 -31 -145t-82.5 -108t-119 -67t-140.5 -23h-609v818h-480v-502q0 -93 -30 -159t-81 -108t-118 -61.5t-142 -19.5q-30 0 -56.5 3 t-46.5 8zM1204 212h355q30 0 55.5 10.5t44.5 28.5t29.5 41.5t10.5 50.5t-10.5 50t-29 40.5t-43.5 27.5t-55 10h-357v-259z" />
<glyph unicode="&#x45a;" horiz-adv-x="1986" d="M160 0v1029h245v-351h531v351h245v-346h368q72 0 138.5 -22t118 -65.5t82 -106.5t30.5 -146q0 -81 -31 -145t-82.5 -108t-119 -67t-139.5 -23h-610v467h-531v-467h-245zM1181 212h355q29 0 54.5 10.5t44.5 28.5t30 41.5t11 50.5t-10.5 50t-29.5 40.5t-44 27.5t-55 10 h-356v-259z" />
<glyph unicode="&#x45b;" horiz-adv-x="1351" d="M-10 1175v176h178v146h247l-4 -146h187v-176h-191l-7 -297q20 36 52 69.5t74.5 60t96 42t116.5 15.5q120 0 208 -38t145.5 -106.5t85 -163.5t27.5 -209v-548h-245v558q0 79 -18 135t-52 91.5t-83.5 52t-113.5 16.5q-60 0 -111 -25.5t-89 -69.5t-59.5 -102.5t-21.5 -124.5 v-274l1 -32l-1 -5v-220h-244v1175h-178z" />
<glyph unicode="&#x45c;" horiz-adv-x="1161" d="M160 0v1029h243v-531l424 531h285l-361 -444l393 -585h-291l-277 424l-173 -209v-215h-243zM421 1151l182 302l180 -64l-188 -238h-174z" />
<glyph unicode="&#x45e;" horiz-adv-x="1139" d="M27 1024h269l274 -654l12 -52l292 705l261 1l-440 -1006q-48 -115 -89.5 -187t-89 -112t-107 -54.5t-142.5 -14.5h-161l-1 200h176q32 0 55 14.5t41.5 41t34.5 64t35 83.5zM236 1480l168 12q10 -25 21 -45.5t28.5 -34.5t42 -21.5t61.5 -7.5t62 7.5t42 21.5t28.5 34.5 t20.5 45.5l168 -12q-6 -59 -29 -108.5t-63 -85t-97.5 -55t-131.5 -19.5t-131.5 19.5t-97.5 55t-63 85t-29 108.5z" />
<glyph unicode="&#x45f;" horiz-adv-x="1351" d="M163 0v1034h244v-817h527v817h245v-1034h-391v-342h-248v342h-377z" />
<glyph unicode="&#x474;" horiz-adv-x="1428" d="M29 1361h263l420 -1028h2l420 1028h263l-571 -1361h-226z" />
<glyph unicode="&#x475;" horiz-adv-x="1181" d="M34 1029h261l285 -706h1l286 706h261l-437 -1029h-220z" />
<glyph unicode="&#x490;" horiz-adv-x="1153" d="M167 0v1360h683v235h249v-451h-682v-1144h-250z" />
<glyph unicode="&#x491;" horiz-adv-x="1028" d="M168 0v1029h565v214h244v-426l-381 1h-183v-818h-245z" />
<glyph unicode="&#x4d9;" horiz-adv-x="1361" d="M75 515q0 25 2 40t4 29h880q-11 63 -41 113.5t-72.5 86.5t-95.5 55.5t-110 19.5q-90 0 -159 -40t-105 -104h-263q25 68 72.5 130.5t115 110t153.5 76t188 28.5q123 0 227 -43t179.5 -117t117.5 -173t42 -212t-42 -212.5t-117.5 -173.5t-179.5 -117t-227 -43 q-124 0 -228.5 43t-180 117t-118 173.5t-42.5 212.5zM331 412q15 -53 45 -96.5t70.5 -75t90.5 -48.5t105 -17t105 17t90.5 48t70.5 75t45 97h-622z" />
<glyph unicode="&#x2000;" horiz-adv-x="926" />
<glyph unicode="&#x2001;" horiz-adv-x="1853" />
<glyph unicode="&#x2002;" horiz-adv-x="926" />
<glyph unicode="&#x2003;" horiz-adv-x="1853" />
<glyph unicode="&#x2004;" horiz-adv-x="617" />
<glyph unicode="&#x2005;" horiz-adv-x="463" />
<glyph unicode="&#x2006;" horiz-adv-x="308" />
<glyph unicode="&#x2007;" horiz-adv-x="308" />
<glyph unicode="&#x2008;" horiz-adv-x="231" />
<glyph unicode="&#x2009;" horiz-adv-x="370" />
<glyph unicode="&#x200a;" horiz-adv-x="102" />
<glyph unicode="&#x2010;" horiz-adv-x="811" d="M122 384v204h576v-204h-576z" />
<glyph unicode="&#x2011;" horiz-adv-x="811" d="M122 384v204h576v-204h-576z" />
<glyph unicode="&#x2012;" horiz-adv-x="811" d="M122 384v204h576v-204h-576z" />
<glyph unicode="&#x2013;" horiz-adv-x="971" d="M140 384v204h691v-204h-691z" />
<glyph unicode="&#x2014;" horiz-adv-x="1664" d="M140 384v204h1384v-204h-1384z" />
<glyph unicode="&#x2018;" horiz-adv-x="570" d="M95 951l207 513l174 -7l-165 -528z" />
<glyph unicode="&#x2019;" horiz-adv-x="573" d="M88 936l165 528l216 -22l-207 -513z" />
<glyph unicode="&#x201a;" horiz-adv-x="574" d="M55 -287l165 528l216 -22l-207 -513z" />
<glyph unicode="&#x201c;" horiz-adv-x="984" d="M95 951l207 513l174 -7l-165 -528zM495 951l207 513l175 -7l-165 -528z" />
<glyph unicode="&#x201d;" horiz-adv-x="948" d="M82 936l165 528l217 -22l-208 -513zM484 936l164 528l217 -22l-207 -513z" />
<glyph unicode="&#x201e;" horiz-adv-x="956" d="M56 -287l165 528l217 -22l-207 -513zM458 -287l164 528l217 -22l-208 -513z" />
<glyph unicode="&#x2026;" horiz-adv-x="1496" d="M125 110q0 28 10 53t28.5 43.5t45 29.5t58.5 11t58 -11t45 -29.5t29 -43.5t10 -53t-10 -52.5t-29 -43t-45.5 -29t-58.5 -10.5q-31 0 -57 11t-45 29.5t-29 43t-10 51.5zM606 110q0 28 10 53t29 43.5t45 29.5t58 11t58 -11t45 -29.5t29 -43.5t10 -53t-10 -52.5t-29 -43 t-45.5 -29t-58.5 -10.5q-31 0 -57 11t-44.5 29.5t-29 43t-10.5 51.5zM1088 110q0 28 10 53t29 43.5t45 29.5t58 11t58 -11t45 -29.5t29 -43.5t10 -53t-10 -52.5t-29 -43t-45.5 -29t-58.5 -10.5q-31 0 -57 11t-45 29.5t-29 43t-10 51.5z" />
<glyph unicode="&#x202f;" horiz-adv-x="370" />
<glyph unicode="&#x2039;" horiz-adv-x="787" d="M122 485l279 373h252l-281 -373l281 -372l-252 -1z" />
<glyph unicode="&#x203a;" horiz-adv-x="787" d="M137 858h253l279 -373l-279 -373l-252 1l281 372z" />
<glyph unicode="&#x205f;" horiz-adv-x="463" />
<glyph unicode="&#x20ac;" horiz-adv-x="1198" d="M60 416v147h820v-148h-408q28 -55 68.5 -100t91.5 -77t110.5 -49.5t123.5 -17.5q42 0 94.5 11.5t100.5 40.5v-224q-37 -13 -89 -20.5t-106 -7.5q-112 0 -213.5 33t-185 92.5t-146 141t-96.5 178.5h-165zM60 792v148h162q33 99 95.5 182t147 143t186.5 94t215 34 q60 0 110.5 -9t84.5 -20v-225q-46 29 -99.5 41t-95.5 12q-66 0 -126.5 -18t-112 -51t-92.5 -79.5t-68 -103.5h413v-149z" />
<glyph unicode="&#x2122;" horiz-adv-x="1669" d="M45 1216v172h587v-172h-195v-565h-194v565h-198zM733 651v738l162 2l240 -324l240 324l161 -2v-738h-182v403l-212 -261h-15l-212 261v-403h-182z" />
<glyph unicode="&#x25fc;" horiz-adv-x="1030" d="M0 0v1030h1030v-1030h-1030z" />
</font>
</defs>
</svg>
