<?xml version="1.0" standalone="no"?>
<!DOCTYPE svg PUBLIC "-//W3C//DTD SVG 1.1//EN" "http://www.w3.org/Graphics/SVG/1.1/DTD/svg11.dtd" >
<svg xmlns="http://www.w3.org/2000/svg" xmlns:xlink="http://www.w3.org/1999/xlink" version="1.1">
<metadata></metadata>
<defs>
<font id="codec_warm_bold_italicBdIt" horiz-adv-x="1396" >
<font-face units-per-em="2048" ascent="1638" descent="-410" />
<missing-glyph horiz-adv-x="468" />
<glyph horiz-adv-x="0" />
<glyph horiz-adv-x="0" />
<glyph unicode="&#xd;" horiz-adv-x="468" />
<glyph horiz-adv-x="1671" d="M86 490l7 44h100l-8 -44h-99zM116 660l8 44h99l-1 -5q7 32 15.5 62.5t19.5 60.5h-113l11 60h128q19 39 44 80l70 398h249l-18 -100q103 63 217 97.5t235 34.5q150 0 273.5 -54t207 -148.5t120 -222t13.5 -273.5l2 12h99l-7 -44h-100q-30 -145 -111.5 -271t-198 -219.5 t-258 -147t-291.5 -53.5q-20 0 -39.5 1t-39.5 3q-43 -6 -90 -6q-72 0 -134 14.5t-115 41.5l-4 -25h-249l47 267q-18 56 -22 118t8 129q6 37 18 73q1 35 6 73h-99zM484 441q36 -100 116.5 -166t192.5 -83q53 14 101 43.5t86.5 71t65 94.5t37.5 114q13 73 -1.5 134.5 t-50.5 105.5t-90.5 69t-122.5 25q-54 0 -108 -17l-1 -8h-24q-44 -17 -82 -44t-70 -62zM673 1035q43 12 88 18.5t92 6.5q121 0 216.5 -41t158 -112.5t89.5 -167t12 -205.5h66q17 35 29 71.5t19 75.5q19 105 -3.5 196t-77 157.5t-137 104.5t-184.5 38q-101 0 -195.5 -38 t-172.5 -104zM1281 369q19 20 36 40t32 43h-34l6 39q-7 -32 -17 -62.5t-23 -59.5z" />
<glyph unicode=" "  horiz-adv-x="468" />
<glyph unicode="&#x09;" horiz-adv-x="468" />
<glyph unicode="&#xa0;" horiz-adv-x="468" />
<glyph unicode="!" horiz-adv-x="590" d="M172 111q5 28 19.5 52.5t36 43t49.5 29.5t60 11t56.5 -11t40 -29.5t21.5 -43t1 -52.5t-19.5 -53t-36.5 -43.5t-50.5 -29t-60.5 -10.5q-31 0 -55.5 11t-39.5 29.5t-21 43t-1 52.5zM275 411l20 292l116 657h243l-116 -659l-83 -290h-180z" />
<glyph unicode="&#x22;" horiz-adv-x="887" d="M327 840l80 557h226l-120 -557h-186zM668 840l80 557h227l-120 -557h-187z" />
<glyph unicode="#" horiz-adv-x="1236" d="M142 335l36 182h201l97 282h-184l36 182h211l131 379h215l-131 -379h185l131 379h215l-131 -379h168l-35 -182h-196l-97 -282h177l-34 -182h-206l-107 -310h-215l107 310h-184l-107 -310h-216l107 310h-174zM594 517h185l97 282h-185z" />
<glyph unicode="$" horiz-adv-x="1264" d="M142 409h249q-8 -47 6.5 -88t49 -71.5t87.5 -48t121 -17.5q162 0 247.5 52t102.5 146q10 58 -10 94.5t-63 61.5t-106 42t-139 35q-41 9 -90 19.5t-97 27.5t-91.5 41.5t-74 61t-44 86.5t-1.5 117q14 80 48 148.5t90.5 122t136.5 90.5t185 52l36 206h236l-36 -200 q93 -10 161.5 -43.5t110 -86t56 -122.5t-0.5 -153h-249q7 41 -2.5 76t-37 61t-73 41t-109.5 15q-79 0 -133 -16t-89 -41.5t-53 -58.5t-24 -67q-8 -45 11 -76.5t59.5 -53t99 -35t128.5 -24.5q93 -21 177 -48.5t143.5 -74t87.5 -118t8 -180.5q-15 -87 -59 -157t-111.5 -121 t-156 -83.5t-192.5 -44.5l-33 -194h-236l33 195q-109 15 -183.5 57.5t-117.5 102t-56.5 130t-1.5 142.5z" />
<glyph unicode="%" horiz-adv-x="1764" d="M273 1045q13 72 51.5 133.5t94.5 107t126.5 71.5t146.5 26t137 -25.5t101.5 -70.5t57.5 -107t4 -134t-51.5 -133.5t-95 -106.5t-126.5 -71t-147 -26q-76 0 -137 26t-101 71t-57 106.5t-4 132.5zM372 -1l1073 1360h224l-1075 -1360h-222zM476 980.5q6 -30.5 23 -52.5 t43.5 -34.5t61.5 -12.5t65.5 12.5t55 34.5t41.5 52t23 64q6 36 0 67t-22.5 53.5t-43 35.5t-61.5 13q-34 0 -65 -12.5t-56 -34.5t-42 -53t-23 -67q-6 -35 0 -65.5zM1013 313q12 72 50.5 134t95 107.5t127 71.5t146.5 26t137 -25.5t101.5 -71t57 -107t3.5 -133.5t-51.5 -133.5 t-94.5 -106.5t-126.5 -71t-146.5 -26t-137 26t-101 71t-57 106t-4 132zM1216 249q6 -30 22.5 -52t43.5 -34.5t61 -12.5q35 0 65.5 12.5t55.5 34t41.5 51.5t22.5 64q6 36 0 67.5t-22.5 54t-43 35.5t-61.5 13q-34 0 -65 -12.5t-55.5 -35t-41.5 -53.5t-23 -67q-6 -35 0 -65z " />
<glyph unicode="&#x26;" horiz-adv-x="1486" d="M159 376q14 78 54 138.5t94 107.5t116.5 83.5t122.5 66.5q-25 24 -48 56t-39 69.5t-22.5 81t2.5 91.5q13 72 52 131.5t98 102t134 65.5t160 23q87 0 155 -21.5t112 -63t61.5 -101.5t3.5 -137q-10 -59 -41 -108.5t-75.5 -91t-99 -76.5t-112.5 -64l215 -304q52 58 89.5 123 t56.5 134l221 -1q-28 -118 -94 -224t-157 -194l187 -263h-292l-85 115q-109 -69 -223.5 -106.5t-220.5 -37.5q-102 0 -187 29.5t-143 82.5t-84 128t-11 165zM404 382q-8 -47 5 -84.5t42.5 -63.5t71.5 -39.5t91 -13.5q75 0 151.5 23.5t148.5 66.5l-259 353q-40 -19 -81 -42 t-76 -51.5t-60 -65t-34 -83.5zM677 1047q-4 -27 1 -51.5t16 -47t25.5 -43.5t29.5 -40q31 14 67 31t68.5 40t57 54.5t31.5 73.5q10 58 -21.5 94.5t-94.5 36.5q-38 0 -69 -12t-53.5 -32t-37 -47t-20.5 -57z" />
<glyph unicode="'" horiz-adv-x="541" d="M325 840l79 557h227l-120 -557h-186z" />
<glyph unicode="(" horiz-adv-x="718" d="M208.5 427.5q5.5 124.5 27.5 251.5q23 129 60.5 253t96 241t141.5 227.5t195 213.5h235q-84 -73 -162 -180.5t-142 -232.5t-110.5 -259.5t-69.5 -261.5q-22 -128 -23.5 -259t18 -253.5t59.5 -230.5t101 -189h-233q-77 98 -121 208.5t-61 228.5t-11.5 242.5z" />
<glyph unicode=")" horiz-adv-x="718" d="M-15 -252q90 81 168 189t141 230.5t108 253.5t67 259q23 127 23.5 261.5t-20 259.5t-60 232.5t-98.5 180.5h236q76 -103 119 -213.5t60.5 -227.5t11.5 -241t-29 -253q-22 -127 -60 -251.5t-97.5 -242.5t-142.5 -228.5t-194 -208.5h-233z" />
<glyph unicode="*" horiz-adv-x="844" d="M282 1000l203 95l-168 97l97 129l157 -112l28 209h148l-46 -208l197 111l51 -129l-203 -96l169 -97l-97 -129l-157 112l-28 -208h-148l45 207l-196 -110z" />
<glyph unicode="+" horiz-adv-x="1169" d="M212 522l36 200h358l65 369h203l-64 -369h362l-35 -201h-363l-65 -368h-203l65 368z" />
<glyph unicode="," horiz-adv-x="534" d="M15 -219l190 415h236l-247 -415h-179z" />
<glyph unicode="-" horiz-adv-x="811" d="M190 384l35 204h576l-35 -204h-576z" />
<glyph unicode="." horiz-adv-x="533" d="M143 110q5 28 20 53t36.5 43.5t49.5 29.5t60 11t56.5 -11t40 -29.5t21 -43.5t0.5 -53t-19.5 -52.5t-36.5 -43t-50 -29t-60 -10.5t-56 11t-39.5 29.5t-21 43t-1.5 51.5z" />
<glyph unicode="/" horiz-adv-x="883" d="M-90 -209l942 1634h246l-942 -1633z" />
<glyph unicode="0" horiz-adv-x="1393" d="M238 403q-13 128 12 271q26 149 87.5 280t152.5 228.5t209.5 153.5t259.5 56q156 0 256.5 -59.5t153.5 -158.5t62.5 -228t-14.5 -267q-25 -145 -84.5 -274t-149.5 -226t-209 -153.5t-265 -56.5q-148 0 -247.5 56.5t-155 153t-68.5 224.5zM479 490q4 -90 34 -160t87 -112 t145 -42q86 0 157 42t126 112.5t92 161.5t55 188q16 92 12.5 182t-32.5 161.5t-86 116t-147 44.5q-85 0 -156.5 -43t-126.5 -113.5t-92.5 -162t-54.5 -189.5q-17 -96 -13 -186z" />
<glyph unicode="1" horiz-adv-x="758" d="M277 1070l30 180l306 111h197l-239 -1361h-237l208 1164z" />
<glyph unicode="2" horiz-adv-x="1192" d="M88 0l24 145l515 387q76 56 136.5 105t104.5 97t71.5 97t37.5 105q9 54 -0.5 97.5t-34.5 75t-63.5 48.5t-86.5 17t-93.5 -16.5t-83 -48.5t-64 -79t-37.5 -108h-246q14 77 54 158.5t108.5 149t166 110.5t225.5 43q113 0 195.5 -35t133 -95.5t69 -141.5t1.5 -173 q-13 -72 -42.5 -135t-74 -120t-102 -110t-126.5 -104l-364 -273q23 3 53 6q25 2 61 3.5t81 1.5h410l-36 -207h-993z" />
<glyph unicode="3" horiz-adv-x="1138" d="M148 390h242q0 -57 18 -98t48 -66.5t68.5 -37.5t79.5 -12q57 0 109 19t94 52.5t71 79.5t38 100q9 53 -2.5 97.5t-41 76.5t-75 50.5t-104.5 18.5l-211 1l22 128l332 354h-512l36 207h831l-23 -133l-361 -371l22 -2q9 -1 18 -3t15 -4q69 -9 130.5 -37.5t104.5 -78.5 t61.5 -124t0.5 -175q-17 -99 -70 -183.5t-131 -146.5t-175 -97.5t-202 -35.5q-91 0 -174.5 21t-144.5 70t-93 130t-21 200z" />
<glyph unicode="4" horiz-adv-x="1310" d="M150 289l11 160l829 916h270l-153 -868h214l-36 -208h-215l-50 -289h-242l51 289h-679zM458 494l407 1l94 529z" />
<glyph unicode="5" horiz-adv-x="1203" d="M157 390h243q0 -57 18 -98t48 -66.5t68.5 -37.5t79.5 -12q56 0 108.5 19t94.5 52.5t70.5 79.5t38.5 100q9 53 -2 98.5t-40.5 79t-75 52.5t-104.5 19l-319 1l-90 95l180 589h757l-36 -208h-540l-83 -271h213q104 0 183.5 -32.5t130 -92t69 -142t0.5 -183.5 q-18 -99 -71 -183.5t-130.5 -146.5t-174.5 -97.5t-203 -35.5q-91 0 -174.5 21t-144 70t-92.5 130t-22 200z" />
<glyph unicode="6" horiz-adv-x="1163" d="M153 435q9 53 27 99.5t47.5 96t72 106.5t102.5 130l400 493h287l-439 -526q35 20 75 32t84 12q81 0 150.5 -34.5t117 -94t68.5 -140.5t5 -174q-17 -97 -68 -181.5t-127.5 -147.5t-174.5 -99t-211 -36q-112 0 -197 36t-139.5 99t-75.5 147.5t-4 181.5zM393 431 q-10 -54 3 -100.5t42.5 -80.5t73 -53t95.5 -19t102 19t91 53t69.5 80.5t38.5 100.5t-2.5 101t-41.5 81.5t-72 54.5t-95 20q-60 0 -112 -24.5t-92.5 -62.5t-66 -83t-33.5 -87z" />
<glyph unicode="7" horiz-adv-x="1118" d="M188 0l761 1152h-654l37 208h949l-23 -131l-806 -1229h-264z" />
<glyph unicode="8" horiz-adv-x="1218" d="M176 391q12 71 43 129.5t74 103.5t93.5 75.5t101.5 44.5q-36 13 -64 40.5t-46 64.5t-24.5 81.5t1.5 90.5q15 88 62.5 157t116 116t153 72t174.5 25q92 0 167.5 -24.5t126.5 -71t72.5 -115t6.5 -157.5q-9 -47 -31.5 -92t-54 -83t-69.5 -65.5t-77 -38.5q48 -13 88 -43.5 t66.5 -75.5t36.5 -104t-2 -130q-16 -90 -65.5 -167.5t-125.5 -134t-175.5 -88.5t-215.5 -32q-117 0 -205.5 32t-144.5 88.5t-77.5 134t-5.5 167.5zM420 401q-8 -48 5.5 -89t44.5 -71t76 -47t99 -17q55 0 106 17t92.5 47t69.5 71t37 89q9 50 -4.5 92t-44.5 72.5t-76 47.5 t-100 17q-54 0 -105.5 -17t-92.5 -47.5t-69.5 -72.5t-37.5 -92zM595 1011q-6 -35 2.5 -66.5t30.5 -55.5t55.5 -38t77.5 -14t82.5 14t68.5 38t50 55.5t26 66.5t-3 66.5t-31 55.5t-55.5 38t-75.5 14q-43 0 -82 -14t-69.5 -38t-50.5 -55.5t-26 -66.5z" />
<glyph unicode="9" horiz-adv-x="1192" d="M265 929q17 96 68 180.5t127.5 147.5t175 99t210.5 36t197.5 -36t139.5 -99t75 -147.5t4 -180.5q-9 -53 -27 -99.5t-47.5 -96t-72 -106.5t-102.5 -131l-402 -496h-287l441 530q-35 -21 -75 -33t-84 -12q-81 0 -150.5 34.5t-117.5 94.5t-68.5 141t-4.5 174zM507 932 q-9 -54 3 -101t41 -81.5t72 -54t95 -19.5q60 0 112 24.5t92 62t66 82.5t33 87q10 54 -3 100.5t-42 80.5t-72.5 53t-95.5 19t-102 -19t-91 -53t-69.5 -80.5t-38.5 -100.5z" />
<glyph unicode=":" horiz-adv-x="533" d="M142 106q5 28 20 52.5t36.5 43t49.5 29.5t60 11t56.5 -11t40 -29.5t21 -43t0.5 -52.5t-19.5 -52.5t-36 -43t-50 -29t-60.5 -10.5q-31 0 -55.5 10.5t-39.5 29t-21 43t-2 52.5zM284 909q5 28 19.5 52.5t36.5 43t50 29.5t60 11t56 -11t39.5 -29.5t21.5 -43t1 -52.5 t-19.5 -53t-36.5 -43.5t-50 -29t-60 -10.5t-56 10.5t-39.5 29t-21.5 43.5t-1 53z" />
<glyph unicode=";" horiz-adv-x="533" d="M15 -219l190 415h236l-247 -415h-179zM281.5 881.5q-0.5 5.5 0.5 10.5q0 5 0.5 8.5t1.5 8.5l1 5q3 14 8 27l7 15q15 27 40 49q6 4 9 7l19 12q3 2 5.5 3t5.5 2l5 3q6 2 11 4l18 5q8 2 15 2.5t15 1.5h13q16 -1 29.5 -4.5t25.5 -8.5l13 -8q30 -20 40 -53q10 -31 4 -62 q-2 -6 -3 -12t-3 -11q-4 -11 -8.5 -21t-11.5 -19l-6 -9l-12 -13q-13 -15 -31 -25l-10 -6q-4 -2 -7.5 -4t-8.5 -4l-11 -4q-8 -2 -17 -4t-18 -3q-3 -1 -6.5 -1h-6.5h-6q-11 0 -21 1t-20 4l-10 3q-11 4 -19 9.5t-16 11.5l-7 7q-5 7 -10 13.5t-8 14.5q-2 2 -3 5.5t-3 13.5 q-1 2 -1.5 5t-1.5 10q0 5 -0.5 10.5z" />
<glyph unicode="&#x3c;" horiz-adv-x="1245" d="M236 496l27 156l935 405l-41 -233l-621 -250l533 -249l-41 -234z" />
<glyph unicode="=" horiz-adv-x="1399" d="M278 238l36 201h924l-35 -201h-925zM361 708l36 201h924l-35 -201h-925z" />
<glyph unicode="&#x3e;" horiz-adv-x="1246" d="M241 38l41 234l620 249l-532 250l41 233l791 -405l-27 -156z" />
<glyph unicode="?" horiz-adv-x="957" d="M186 990q16 93 57.5 167t107.5 126.5t156.5 80.5t204.5 28q95 0 171 -27.5t126 -78t71 -121.5t5 -159q-12 -67 -42 -117t-70.5 -89.5t-88.5 -72t-96 -64.5q-37 -25 -67 -48.5t-51.5 -47.5t-35.5 -50t-19 -57l-9 -48h-218l10 50q10 56 29.5 102.5t47.5 85.5t62.5 73 t74.5 65q42 33 81 59t70 50.5t52 50t27 56.5q15 85 -29 132t-146 47q-99 0 -160 -49t-78 -144h-243zM309 110q5 28 19.5 53t36.5 43.5t50 29.5t60 11t56.5 -11t40 -29.5t21.5 -43.5t1 -53t-19.5 -52.5t-37 -43t-50.5 -29t-60 -10.5q-31 0 -55.5 11t-39.5 29.5t-21 43 t-2 51.5z" />
<glyph unicode="@" horiz-adv-x="1983" d="M183.5 150q-29.5 157 2.5 340q22 125 74.5 236t128.5 205t173.5 169.5t209 128.5t235 81t251.5 28q182 0 329.5 -54t246 -152t140.5 -233.5t13 -299.5q-25 -146 -85 -252.5t-140.5 -176t-176 -103t-193.5 -33.5q-50 0 -92.5 12t-72 36t-43.5 59t-8 81q-31 -37 -72.5 -64 t-86 -44.5t-89.5 -25.5t-84 -8q-14 0 -26.5 1t-23.5 3q-50 11 -88 40t-61 73.5t-29.5 102.5t5.5 126q17 95 56.5 174t94 138t121 96.5t135.5 48.5q7 1 14 1.5t15 0.5q32 0 66.5 -8t65.5 -23t55.5 -38t34.5 -53l32 91h234l-163 -490q-14 -42 -13.5 -67.5t10.5 -39.5t27.5 -19 t38.5 -5q39 0 85.5 22t89 67t77.5 113t51 161q22 125 -7 225t-99.5 170t-178 107.5t-244.5 37.5q-140 0 -273 -48t-241.5 -133.5t-183.5 -204.5t-100 -260q-26 -149 -0.5 -270.5t98 -207.5t191 -132.5t277.5 -46.5l446 1l-35 -202l-441 -1q-231 0 -392.5 65.5t-256.5 181 t-124.5 272.5zM849 365q3 -31 15 -54t33 -37t50 -14t63 15t65 38.5t55.5 52.5t33.5 56l66 190q-11 21 -27 37t-34.5 26.5t-37 15.5t-33.5 5q-3 0 -5.5 -0.5t-4.5 -0.5q-37 -4 -74 -23.5t-69 -53.5t-56.5 -81.5t-36.5 -107.5q-6 -33 -3 -64z" />
<glyph unicode="A" horiz-adv-x="1414" d="M22 0l805 1361h236l327 -1361h-264l-62 259h-627l-152 -259h-263zM563 473h451l-124 525l-1 35h-2l-14 -35z" />
<glyph unicode="B" horiz-adv-x="1316" d="M158 0l239 1360h593q93 0 165 -25.5t118 -73.5t64 -116q10 -37 10 -80q0 -35 -7 -74q-8 -45 -29 -87t-51 -78t-66 -63.5t-74 -42.5q48 -16 88 -47.5t66 -73.5q28 -42 38 -94q5 -27 5 -55q0 -27 -5 -54q-18 -102 -68 -176.5t-119.5 -123t-152 -72.5t-164.5 -24h-650z M443 208h377q35 0 73.5 13.5t72 39t58 62t33.5 83.5q3 18 3 35q0 23 -6 44q-10 36 -32 62.5t-56 41t-75 14.5h-379zM546 794h331q34 0 67.5 13.5t62 37t49 56.5t27.5 72q3 17 3 33q0 20 -4 38q-8 33 -28.5 57t-49.5 38t-63 14h-331z" />
<glyph unicode="C" horiz-adv-x="1639" d="M219 682q17 99 59.5 190t104 170t140 143.5t168.5 110.5t188.5 71t200.5 25q108 0 211.5 -31.5t187 -94t138.5 -156t66 -217.5l-255 1q-15 67 -51 119.5t-87 89t-114.5 55.5t-134.5 19q-100 0 -195.5 -38t-173 -104.5t-132 -157.5t-72.5 -196q-9 -49 -9 -94 q0 -53 12 -101q22 -90 76.5 -157t136.5 -105t183 -38q70 0 140 18.5t133.5 54.5t118 88.5t93.5 119.5h256q-54 -120 -142 -212.5t-193.5 -155.5t-220.5 -95.5t-223 -32.5q-153 0 -277 55.5t-207 151.5t-117 226q-20 74 -20 154q0 60 11 124z" />
<glyph unicode="D" horiz-adv-x="1509" d="M158 0l239 1360h528q155 0 279.5 -44.5t205.5 -130.5t113 -213q17 -67 17 -143q0 -70 -14 -148q-27 -152 -96.5 -277.5t-176 -215t-248.5 -139t-315 -49.5h-532zM445 215h274q115 0 209 31.5t164.5 91t117 145t65.5 194.5q11 60 11 115q0 40 -6 76q-14 86 -62 147.5 t-131 95.5t-203 34h-275z" />
<glyph unicode="E" horiz-adv-x="1184" d="M158 0l239 1360h932l-38 -216h-683l-64 -364h590l-38 -214h-589l-63 -351h692l-37 -215h-941z" />
<glyph unicode="F" horiz-adv-x="1155" d="M158 0l239 1360h932l-38 -216h-683l-71 -404h590l-38 -215h-590l-92 -525h-249z" />
<glyph unicode="G" horiz-adv-x="1628" d="M219 682q17 99 59.5 190t104 170t140 143.5t168.5 110.5t188.5 71t200.5 25q154 0 279.5 -55t214.5 -163l-193 -165q-24 36 -58 67t-77 53.5t-94.5 35t-110.5 12.5q-100 0 -195.5 -38t-173 -104.5t-132 -157.5t-72.5 -196q-9 -49 -9 -94q0 -53 12 -101 q22 -91 76.5 -157.5t136.5 -104.5t183 -38q96 0 176 25t142.5 70.5t107 109.5t69.5 142h-446l33 183h693q-23 -165 -95.5 -302t-181 -235.5t-246 -153t-290.5 -54.5t-277 55.5t-207 152t-117 225.5q-20 74 -20 154q0 60 11 124z" />
<glyph unicode="H" horiz-adv-x="1502" d="M158 0l239 1360h249l-102 -580h687l101 580h251l-239 -1360h-251l100 566h-686l-100 -566h-249z" />
<glyph unicode="I" horiz-adv-x="565" d="M158 0l239 1360h249l-239 -1360h-249z" />
<glyph unicode="J" horiz-adv-x="816" d="M40 0l37 215h158q121 0 184.5 61t82.5 171l161 913h248l-161 -914q-19 -109 -66 -192.5t-118 -140t-164.5 -85t-204.5 -28.5h-157z" />
<glyph unicode="K" horiz-adv-x="1360" d="M158 0l239 1360h249l-135 -770l746 770h291l-591 -603l377 -757h-295l-277 573l-309 -313l-46 -260h-249z" />
<glyph unicode="L" horiz-adv-x="1091" d="M158 0l239 1360h249l-202 -1145h614l-37 -215h-863z" />
<glyph unicode="M" horiz-adv-x="1690" d="M158 0l239 1360h217l358 -629l582 629h218l-239 -1360h-249l168 951l-505 -549h-66l-306 551l-168 -953h-249z" />
<glyph unicode="N" horiz-adv-x="1519" d="M158 0l239 1360h214l577 -929l164 929h248l-239 -1360h-214l-576 929l-164 -929h-249z" />
<glyph unicode="O" horiz-adv-x="1671" d="M219 682q17 99 59.5 190t104 170t140 143.5t168.5 110.5t188.5 71t200.5 25q152 0 276.5 -55t207.5 -151q82 -96 118 -226q20 -75 21 -156q0 -60 -11 -122q-18 -99 -60 -190t-104 -170t-141 -143.5t-169 -111t-188.5 -71.5t-200.5 -25q-153 0 -277 55.5t-207 151.5 t-117 226q-20 74 -20 154q0 60 11 124zM468 681q-9 -49 -9 -94q0 -53 12 -101q22 -90 76.5 -157t136.5 -105t183 -38q102 0 197.5 38t173.5 104.5t132 157t73 195.5q9 48 9 93q0 53 -12 103q-22 91 -77 157.5t-137.5 104.5t-184.5 38q-100 0 -195.5 -38t-173 -104.5 t-132 -157.5t-72.5 -196z" />
<glyph unicode="P" horiz-adv-x="1264" d="M158 0l239 1360h573q103 0 183.5 -34.5t132.5 -95.5q52 -62 72 -146q11 -46 11 -96q0 -42 -7 -87q-18 -100 -68 -184t-122.5 -145t-164.5 -94.5t-194 -33.5h-328l-78 -444h-249zM522 659h316q49 0 94.5 18.5t82.5 51t62.5 76.5t34.5 95q4 24 4 47q0 25 -5 49 q-10 44 -35.5 77t-64.5 52.5t-88 19.5h-314z" />
<glyph unicode="Q" horiz-adv-x="1671" d="M219 682q17 99 59.5 190t104 170t140 143.5t168.5 110.5t188.5 71t200.5 25q152 0 276.5 -55t207.5 -151t118 -226q21 -74 21 -156q0 -59 -11 -122q-23 -131 -89 -247t-163 -209l174 -211l-196 -169l-186 229q-94 -50 -195.5 -77t-207.5 -27q-153 0 -277 55.5t-207 152 t-117 225.5q-20 74 -20 154q0 60 11 124zM468 681q-9 -49 -9 -94q0 -53 12 -101q22 -91 76.5 -157.5t136.5 -104.5t183 -38q102 0 197.5 38t173.5 104.5t132 157t73 195.5q9 48 9 93q0 54 -12 103q-23 91 -77.5 157.5t-137 104.5t-184.5 38q-100 0 -195.5 -38t-173 -104.5 t-132 -157.5t-72.5 -196z" />
<glyph unicode="R" horiz-adv-x="1308" d="M158 0l239 1360h587q103 0 184 -32t133.5 -90.5t73.5 -140.5q11 -44 11 -93q0 -42 -8 -88q-13 -74 -43.5 -138.5t-75 -116.5t-102 -91t-123.5 -63l214 -507h-286l-184 473h-288l-83 -473h-249zM528 688h329q49 0 94.5 16.5t82 46t61.5 71.5t34 93q4 24 4 45q1 25 -5 48 q-10 42 -36.5 72.5t-66 47.5t-88.5 17h-328z" />
<glyph unicode="S" horiz-adv-x="1288" d="M150 409h249q-3 -17 -3 -33q0 -29 10 -55q14 -41 48.5 -71.5t87.5 -48t121 -17.5q162 0 247 51.5t102 146.5q4 21 4 38q0 32 -13 56q-20 36 -63 61.5t-106 42.5t-140 35q-41 9 -89.5 19.5t-97 27.5t-92 41.5t-73.5 60.5q-30 37 -44 87q-7 26 -8 58q0 28 6 59 q16 93 60 171t119 134t182.5 87.5t251.5 31.5q115 0 199.5 -29.5t137.5 -83.5q52 -53 71 -129q10 -41 10 -87q0 -39 -7 -81h-250q3 17 3 34q1 22 -5 42q-10 35 -37 61t-72.5 41t-109.5 15q-79 0 -133.5 -16t-89.5 -41.5t-52.5 -58.5t-23.5 -67q-2 -13 -3 -25q0 -29 14 -51 q19 -32 59.5 -53.5t98.5 -35t128 -24.5q94 -21 178 -48.5t143.5 -74t87.5 -118.5q16 -42 16 -97q0 -38 -8 -83q-18 -99 -72.5 -176t-139 -129.5t-194.5 -80t-238 -27.5q-141 0 -237.5 39t-152.5 102q-58 62 -76 140q-11 45 -10 90q0 35 6 69z" />
<glyph unicode="T" horiz-adv-x="1162" d="M255 1145l37 215h1058l-38 -215h-404l-202 -1145h-249l202 1145h-404z" />
<glyph unicode="U" horiz-adv-x="1432" d="M226 526l147 834h248l-147 -834q-7 -39 -7 -75q0 -31 5 -59q11 -62 45 -108.5t91.5 -73t138.5 -26.5q78 0 144.5 26.5t117 72t84 107.5t46.5 134l147 836h249l-147 -834q-22 -122 -82 -224t-149.5 -176t-203.5 -115t-244 -41q-123 0 -222.5 39t-165 111t-91.5 175 q-14 55 -15 117q0 55 11 114z" />
<glyph unicode="V" horiz-adv-x="1428" d="M268 1361h263l238 -1028h3l601 1028h263l-810 -1361h-226z" />
<glyph unicode="W" horiz-adv-x="2072" d="M264 1361h263l149 -1006h4l461 997h263l110 -997h3l503 1006h264l-707 -1361h-242l-133 952l-469 -952h-241z" />
<glyph unicode="X" d="M33 0l633 711l-352 649h294l245 -476l412 476h293l-580 -649l384 -711h-295l-275 537l-465 -537h-294z" />
<glyph unicode="Y" horiz-adv-x="1366" d="M262 1360h291l260 -615h2l476 615h292l-685 -842l-90 -518h-249l91 517z" />
<glyph unicode="Z" horiz-adv-x="1274" d="M77 0l30 190l932 956h-721l38 214h1049l-33 -186l-933 -959h794l-37 -215h-1119z" />
<glyph unicode="[" horiz-adv-x="704" d="M108 -276l338 1913h503l-36 -202h-268l-266 -1509h268l-36 -202h-503z" />
<glyph unicode="\" horiz-adv-x="906" d="M282 1436h246l367 -1634l-246 1z" />
<glyph unicode="]" horiz-adv-x="703" d="M-7 -276l35 202h269l266 1509h-269l36 202h504l-338 -1913h-503z" />
<glyph unicode="^" horiz-adv-x="1021" d="M248 793l461 639h102l234 -639l-234 -8l-101 362l-231 -362z" />
<glyph unicode="_" horiz-adv-x="1019" d="M-27 -294l34 204h971l-35 -204h-970z" />
<glyph unicode="`" horiz-adv-x="474" d="M266 1389l191 64l129 -302h-174z" />
<glyph unicode="a" d="M190 514q20 113 77 212.5t142.5 173.5t194.5 117t233 43q59 0 109.5 -11.5t92.5 -31t76 -46t59 -55.5l34 113h208l-181 -1029h-208l5 113q-36 -30 -79.5 -56t-93 -45.5t-103.5 -31t-112 -11.5q-123 0 -217 42.5t-153 116.5q-60 74 -82 174q-12 53 -11 109q0 50 9 103z M433 515q-6 -34 -6 -66q0 -37 8 -70q15 -62 52 -106.5t92.5 -69t124.5 -24.5t133.5 24.5t117 69t89 106t49.5 136.5q6 34 6 65q0 36 -8 70q-15 62 -52 105.5t-92.5 68.5t-124.5 25t-133.5 -24.5t-117 -69t-89 -105.5t-49.5 -135z" />
<glyph unicode="b" d="M160 0l248 1409h243l-84 -479q72 57 164.5 94t204.5 37q124 0 217 -43t151 -118q58 -74 80 -174q11 -52 12 -106q0 -51 -10 -106q-20 -113 -77.5 -212.5t-143 -173.5t-194.5 -117t-232 -43q-58 0 -108 11.5t-92.5 31.5t-76.5 46.5t-60 55.5l-33 -113h-209zM482 515 q-6 -35 -6 -67q0 -38 8 -70q15 -62 51.5 -106t92 -68.5t124.5 -24.5t133.5 24.5t117.5 69t90 106.5t50 136q6 34 6 66q0 36 -8 69q-15 61 -51.5 105.5t-92 69t-124.5 24.5t-133.5 -25t-117.5 -69t-90 -105.5t-50 -134.5z" />
<glyph unicode="c" horiz-adv-x="1284" d="M190 514q20 113 79.5 212.5t148 174t200 117.5t234.5 43q102 0 184.5 -29t143 -80.5t97 -122.5t46.5 -155h-250q-25 82 -93 128.5t-163 46.5q-64 0 -127 -23t-115.5 -66.5t-90 -105.5t-51.5 -139q-6 -36 -6 -68q1 -38 9 -72q16 -62 52.5 -105.5t91 -66.5t118.5 -23 q95 0 179.5 46.5t139.5 129.5h249q-38 -84 -99 -154.5t-140 -122.5t-172 -81t-195 -29q-123 0 -219.5 43t-158.5 117q-62 73 -87 173q-14 55 -14 115q0 47 9 97z" />
<glyph unicode="d" horiz-adv-x="1407" d="M190 514q20 113 76.5 212.5t141 174t193 117.5t232.5 43q111 0 190.5 -36.5t131.5 -93.5l85 478h243l-248 -1409h-208l6 121q-36 -32 -80 -60t-93.5 -48.5t-103.5 -32.5t-112 -12q-123 0 -217 43t-153 117q-60 74 -82 174q-12 53 -11 109q0 50 9 103zM433 515 q-6 -34 -6 -66q0 -37 8 -70q15 -62 52 -106.5t92.5 -69t124.5 -24.5t133.5 24.5t117 69t89 106t49.5 136.5q6 34 6 65q0 36 -8 70q-15 62 -52 105.5t-92.5 68.5t-124.5 25t-133.5 -24.5t-117 -69t-89 -105.5t-49.5 -135z" />
<glyph unicode="e" horiz-adv-x="1336" d="M192 514q20 113 79.5 212.5t148 173.5t200 117t234.5 43q124 0 221 -43t159.5 -117t87.5 -174q14 -55 14 -114q0 -48 -9 -98q-5 -25 -9 -40t-9 -29h-890q1 -63 23.5 -114t60.5 -86.5t88.5 -55t107.5 -19.5q90 0 165.5 40t123.5 105h264q-37 -68 -96 -130.5t-134.5 -110.5 t-166.5 -76.5t-193 -28.5q-123 0 -219.5 43t-158.5 117q-62 73 -87 173q-14 55 -14 115q0 47 9 97zM456 617h634q-4 54 -24.5 99.5t-54.5 78.5t-81.5 51.5t-107.5 18.5q-61 0 -117 -18.5t-103.5 -51.5t-84.5 -78.5t-61 -99.5z" />
<glyph unicode="f" horiz-adv-x="831" d="M190 819l37 210h199l7 44q12 71 41.5 140.5t80.5 124.5t126 89.5t180 34.5h179l-35 -200l-122 1q-48 0 -83.5 -15t-60 -41t-39.5 -62t-23 -77l-7 -39h291l-37 -210h-291l-144 -819h-244l144 819h-199z" />
<glyph unicode="g" horiz-adv-x="1391" d="M151 -43l232 1q5 -38 21.5 -73t48 -62t79 -43t112.5 -16q96 0 162 33t108.5 82t64 104t29.5 98l9 47q-37 -30 -80.5 -56t-93.5 -46t-105 -31.5t-114 -11.5q-115 0 -205 40.5t-147.5 112t-79.5 168.5q-12 51 -12 107q0 50 9 103q20 113 77 212.5t142.5 173.5t194.5 117 t233 43q60 0 111.5 -12t94.5 -33t76.5 -48t58.5 -57l40 119h198l-165 -932q-19 -107 -68.5 -204.5t-130 -171t-191 -117t-250.5 -43.5q-135 0 -226 36t-144.5 93t-73.5 128q-16 54 -16 108q0 15 1 31zM433 515q-6 -34 -6 -66q0 -37 8 -70q15 -62 51.5 -106.5t92 -69 t124.5 -24.5t133.5 24.5t117 69t89 106t49.5 136.5q6 34 6 65q0 37 -8 70q-15 61 -52 105t-92.5 69t-124.5 25t-133.5 -24.5t-117 -69t-88.5 -105.5t-49 -135z" />
<glyph unicode="h" horiz-adv-x="1326" d="M160 -1l248 1410h242l-85 -474q35 26 75.5 49t85.5 40t93 26.5t97 9.5q120 0 202.5 -33t128.5 -97t57 -158q4 -32 4 -67q0 -68 -14 -147l-98 -558h-245l97 554q10 55 10 98q0 22 -3 42q-8 56 -36 91t-75.5 49.5t-110.5 14.5q-60 0 -115 -21t-99.5 -60t-75.5 -93.5 t-43 -120.5l-97 -555h-243z" />
<glyph unicode="i" horiz-adv-x="562" d="M160 0l182 1029h244l-181 -1029h-245zM364 1320q5 28 20.5 52.5t38.5 43t53 29.5t64 11q35 0 61 -11t43 -29.5t23.5 -43t1.5 -52.5t-20.5 -52.5t-38.5 -43t-53 -29t-65 -10.5q-34 0 -60 10.5t-42.5 29t-23.5 43t-2 52.5z" />
<glyph unicode="j" horiz-adv-x="563" d="M-141 -383l37 209h95q69 0 112 47.5t58 130.5l181 1025h245l-182 -1028q-17 -96 -57 -168t-97.5 -120t-130 -72t-155.5 -24h-106zM365 1320q5 28 20.5 52.5t38.5 43t53 29.5t64 11t60.5 -11t43 -29.5t23 -43t1.5 -52.5t-20.5 -52.5t-38.5 -43t-53 -29t-65 -10.5 q-34 0 -60 10.5t-42.5 29t-23 43t-1.5 52.5z" />
<glyph unicode="k" horiz-adv-x="1171" d="M160 0l248 1409h243l-157 -891l514 511h286l-438 -432l288 -597h-291l-200 437l-208 -198l-42 -239h-243z" />
<glyph unicode="l" horiz-adv-x="575" d="M160 0l248 1409h243l-248 -1409h-243z" />
<glyph unicode="m" horiz-adv-x="1977" d="M160 0l182 1029h197v-94q34 26 74 48.5t85 39.5t94 27t101 10q108 0 184 -41t118 -116q36 32 80.5 60.5t96.5 50t111 34t125 12.5q102 0 175.5 -33t117 -97t55.5 -157q4 -34 4 -71q0 -65 -13 -141l-99 -561h-244l97 554q10 59 10 106q1 74 -25 118q-42 72 -143 71 q-60 0 -112.5 -20t-94.5 -58.5t-71.5 -93t-41.5 -123.5l-97 -554h-245l97 554q11 59 11 107q0 73 -26 117q-42 72 -143 71q-60 0 -112.5 -20t-94.5 -58.5t-71.5 -93.5t-41.5 -126l-97 -551h-243z" />
<glyph unicode="n" horiz-adv-x="1321" d="M160 0l182 1029h197v-105q37 28 81 53t93 43.5t100.5 29t102.5 10.5q120 0 202 -33.5t128 -98t57 -158.5q4 -32 4 -69q0 -68 -14 -147l-97 -554h-245l96 549q10 53 10 96q0 23 -3 43q-8 57 -34.5 93t-71 52t-103.5 16q-64 0 -122 -23.5t-104 -66t-78 -101t-44 -128.5 l-94 -530h-243z" />
<glyph unicode="o" horiz-adv-x="1336" d="M191 514q20 113 79.5 212.5t148 173.5t200 117t234.5 43q124 0 221 -43t159.5 -117t87.5 -174q14 -55 14 -114q0 -48 -9 -98q-20 -114 -79.5 -213t-148.5 -173t-201 -116.5t-237 -42.5q-123 0 -219 42.5t-158 116.5t-87 174q-14 55 -14 114q0 48 9 98zM434 515 q-6 -34 -6 -66q0 -37 8 -69q15 -62 51 -106.5t91 -69.5t122 -25q68 0 131.5 24.5t115.5 69t88 106.5t49 136q6 35 6 66q0 37 -8 69q-14 62 -50 105.5t-91 68.5t-123 25q-67 0 -131 -24.5t-115.5 -69t-88 -105.5t-49.5 -135z" />
<glyph unicode="p" d="M98 -352l244 1381h197l-2 -120q36 30 80 57.5t94 48.5t105.5 33t114.5 12q123 0 217 -42.5t153.5 -116.5t82.5 -173q11 -53 11 -110q0 -50 -9 -103q-20 -113 -76.5 -212.5t-141 -173.5t-193 -117t-232.5 -43q-112 0 -191.5 36t-131.5 93l-79 -450h-243zM482 514 q-6 -33 -6 -64q0 -37 8 -70q16 -62 53 -106t92.5 -69t124.5 -25t133.5 24.5t116.5 69t88.5 106t49.5 134.5q6 34 6 66q0 37 -8 70q-15 62 -52 106.5t-92.5 69t-124.5 24.5q-68 0 -132.5 -24.5t-117 -69t-89.5 -106t-50 -136.5z" />
<glyph unicode="q" horiz-adv-x="1409" d="M193 515q20 113 77.5 213t143 174t194.5 117t232 43q59 0 109 -14t92 -37t75.5 -53.5t58.5 -63.5l46 136h198l-244 -1381h-242l79 450q-72 -57 -165 -93.5t-205 -36.5q-123 0 -216 43t-151.5 117t-80.5 173q-11 52 -11 107q0 52 10 106zM436 515q-6 -34 -6 -66 q0 -37 8 -69q15 -62 51.5 -106.5t92 -69t124.5 -24.5t133.5 25t117 69t89.5 106t50 135q6 34 6 66q0 37 -8 70q-15 62 -51.5 106.5t-92.5 69t-125 24.5q-68 0 -132.5 -25t-117 -69.5t-89.5 -106t-50 -135.5z" />
<glyph unicode="r" horiz-adv-x="884" d="M158 0l181 1029h197v-123q62 53 147.5 88t194.5 35h134l-38 -213l-121 -1q-71 0 -131.5 -20.5t-108 -61t-80 -100.5t-46.5 -140l-86 -493h-243z" />
<glyph unicode="s" horiz-adv-x="1055" d="M121 311l239 -1q-4 -29 8 -55t36 -45t59 -30t78 -11q116 0 177 34.5t72 93.5q6 33 -10.5 55t-52 37t-88 26.5t-120.5 24.5q-50 8 -107.5 23t-103.5 47q-46 30 -70 84q-15 33 -15 79q0 28 6 61q13 72 49.5 131.5t99 103t151.5 67.5t207 24q93 0 163.5 -24t114.5 -67 t62 -103q10 -34 11 -72q0 -28 -6 -59l-243 1q1 7 1 13q0 45 -36 76q-41 35 -119 35q-51 0 -89 -10.5t-64 -27.5t-40.5 -39.5t-18.5 -46.5q-5 -28 6.5 -47t39 -32t71.5 -21.5t105 -16.5q74 -12 143.5 -29.5t121 -50.5t77.5 -87q16 -34 16 -80q0 -27 -6 -59 q-15 -87 -61.5 -151.5t-118 -107.5t-165.5 -64.5t-205 -21.5q-110 0 -186.5 30.5t-121.5 79.5q-46 48 -62 110q-9 36 -9 73q0 25 4 50z" />
<glyph unicode="t" horiz-adv-x="908" d="M189 819l33 188l175 46l118 268l177 1l-51 -293h329l-37 -210h-330l-74 -421q-7 -37 -6 -66q1 -20 3 -36q8 -40 28 -64t51 -33.5t67 -9.5h176l-36 -200h-198q-83 0 -152.5 17t-115.5 62q-46 46 -64 125q-8 35 -8 79q0 55 12 124l75 423h-172z" />
<glyph unicode="u" horiz-adv-x="1280" d="M209 250q-9 44 -9 96q0 63 13 137l96 546h244l-95 -539q-10 -55 -10 -100q0 -22 2 -42q8 -58 35.5 -95.5t74.5 -55t111 -17.5t116.5 17t93.5 54.5t69.5 96t43.5 142.5l95 539h244l-96 -546q-24 -136 -79 -233.5t-133.5 -160t-178 -91.5t-212.5 -29t-202 29t-146 91.5 t-77 160.5z" />
<glyph unicode="v" horiz-adv-x="1171" d="M216 1029h261l160 -706h1l411 706h261l-619 -1029h-220z" />
<glyph unicode="w" horiz-adv-x="1720" d="M221 1029h261l114 -706h3l350 699h179l104 -699h3l364 706h261l-548 -1029h-221l-117 658l-348 -658h-220z" />
<glyph unicode="x" horiz-adv-x="1133" d="M37 0l457 531l-262 498h289l167 -334l286 334h287l-436 -498l271 -531h-291l-178 358l-306 -358h-284z" />
<glyph unicode="y" horiz-adv-x="1174" d="M202 -353l255 398l-253 984h268l158 -654l3 -52l417 705l262 1l-847 -1382h-263z" />
<glyph unicode="z" horiz-adv-x="1066" d="M62 0l26 153l675 667h-527l36 209h871l-27 -156l-670 -663h578l-37 -210h-925z" />
<glyph unicode="{" horiz-adv-x="730" d="M164 583l34 192q53 9 90 26.5t63 47.5t42.5 73.5t27.5 104.5l38 220q18 102 53 176.5t94 123t144.5 71.5t205.5 23l-34 -195q-58 -4 -96.5 -10t-63 -22.5t-39 -47.5t-23.5 -84l-53 -302q-20 -115 -73.5 -187t-131.5 -114q36 -21 59 -53.5t34.5 -72t12.5 -84t-7 -91.5 l-42 -237q-13 -76 -15 -119.5t13.5 -66.5t52.5 -31t102 -12l-36 -196q-120 0 -197.5 23t-119 72t-50 123.5t9.5 177.5l40 219q11 62 10 106.5t-16.5 74.5t-47 47t-81.5 24z" />
<glyph unicode="|" horiz-adv-x="553" d="M92 -370l350 1984h236l-349 -1984h-237z" />
<glyph unicode="}" horiz-adv-x="730" d="M8 -284l33 196q67 4 106.5 12t63.5 31t37 66.5t26 119.5l42 237q8 47 25 91.5t42.5 84t60 72t77.5 53.5q-62 42 -90.5 114t-8.5 187l53 302q9 53 6 84t-22 47.5t-55 22.5t-92 10l35 195q120 0 198 -23t119.5 -71.5t50 -123t-9.5 -176.5l-40 -220q-11 -61 -10 -104.5 t16.5 -73.5t47 -47.5t81.5 -26.5l-35 -192q-53 -7 -90.5 -24t-63 -47t-41.5 -74.5t-27 -106.5l-39 -219q-18 -103 -52.5 -177.5t-93.5 -123.5t-144.5 -72t-205.5 -23z" />
<glyph unicode="~" horiz-adv-x="1230" d="M248 671q27 20 60 39t69 33.5t75 23.5t78 9q63 0 116.5 -18t102.5 -39t96.5 -39t98.5 -18q76 0 135.5 23.5t113.5 61.5l6 -181q-26 -20 -58.5 -39t-70 -34t-77.5 -24t-81 -9q-61 0 -114.5 18t-103 40t-97.5 40t-98 18q-66 0 -128.5 -23t-117.5 -64z" />
<glyph unicode="&#xa2;" horiz-adv-x="1326" d="M190 323.5q-18 90.5 0 190.5q17 101 67 191.5t124 162t168.5 120t200.5 65.5l32 180h230l-32 -185q74 -16 133.5 -50t103 -83t70.5 -110t36 -131h-250q-25 82 -93 128.5t-163 46.5q-64 0 -127 -23t-115.5 -66.5t-90 -105.5t-51.5 -139q-13 -78 2.5 -140t52.5 -105.5 t91.5 -66.5t118.5 -23q95 0 179.5 46.5t139.5 129.5h249q-32 -70 -80 -131.5t-109.5 -110t-134 -82.5t-152.5 -50l-28 -157h-229l27 152q-100 16 -177.5 64.5t-126 120t-66.5 162z" />
<glyph unicode="&#xa3;" horiz-adv-x="1183" d="M94 0l28 164q44 21 85 59.5t77 87t65 103.5t48 108h-133l36 206h137q1 45 -3.5 83.5t-9 74.5t-5.5 71t6 74q16 92 59.5 160t107 112.5t144.5 66.5t173 22q41 0 86 -9t88 -29t80 -52.5t61.5 -79t33 -108t-5.5 -140.5l-240 -1q9 48 0 86.5t-29 66.5t-47 43t-56 15 q-85 0 -140 -42t-70 -128q-7 -37 -5.5 -69.5t5 -66.5t7.5 -70.5t3 -80.5h294l-34 -205h-299q-18 -49 -42.5 -98t-52 -91.5t-56.5 -75.5t-55 -50h716l-36 -207h-1021z" />
<glyph unicode="&#xa5;" horiz-adv-x="1270" d="M182 229l31 178h986l-31 -178h-377l-40 -229h-235l40 229h-374zM240 560l31 179h304l-292 621h272l227 -518l409 518h272l-512 -620h308l-32 -180h-987z" />
<glyph unicode="&#xa8;" horiz-adv-x="868" d="M373 1279q8 43 45.5 73t89.5 30q54 0 80.5 -30t18.5 -73q-7 -42 -44 -72t-91 -30q-53 0 -79.5 30t-19.5 72zM736 1279q8 43 45 73t90 30q54 0 80.5 -30t18.5 -73q-8 -42 -45 -72t-90 -30q-54 0 -80 30t-19 72z" />
<glyph unicode="&#xa9;" horiz-adv-x="1654" d="M211 682q26 149 105 279t195.5 227t261 153t300.5 56t281 -56t207 -153t115.5 -227t7.5 -279q-18 -99 -59.5 -190.5t-103 -171t-139.5 -145t-168.5 -112t-190 -72t-203.5 -25.5q-156 0 -280.5 56.5t-206 153.5t-115 227.5t-7.5 278.5zM358 682q-22 -129 5 -236.5t93 -185 t165.5 -120.5t221.5 -43q123 0 238.5 43t209 120.5t158.5 185t88 236.5t-4.5 236.5t-93.5 184.5t-166 120t-223 43q-122 0 -237 -43t-208.5 -120t-158.5 -184.5t-88 -236.5zM488 680q16 93 65 175t121.5 143.5t163.5 97t191 35.5t163.5 -32.5t104.5 -85.5l-115 -85 q-1 2 -11 13.5t-30.5 24t-52.5 23t-77 10.5q-64 0 -124 -24t-108.5 -66.5t-82 -100.5t-45.5 -127q-12 -68 1.5 -126t47 -100.5t84.5 -66.5t115 -24q48 0 84 10t63 23q30 15 52 33l81 -88q-65 -51 -138 -80t-171 -29q-100 0 -178 35.5t-129 96t-71 142t-4 173.5z" />
<glyph unicode="&#xab;" horiz-adv-x="1322" d="M205 485l344 373h253l-347 -373l215 -372l-252 -1zM732 485l345 373h252l-347 -373l215 -372l-252 -1z" />
<glyph unicode="&#xad;" horiz-adv-x="811" d="M190 384l35 204h576l-35 -204h-576z" />
<glyph unicode="&#xae;" horiz-adv-x="1654" d="M211 682q26 149 105 279t195.5 227t261 153t300.5 56t281 -56t207 -153t115.5 -227t7.5 -279q-18 -99 -59.5 -190.5t-103 -171t-139.5 -145t-168.5 -112t-190 -72t-203.5 -25.5q-156 0 -280.5 56.5t-206 153.5t-115 227.5t-7.5 278.5zM358 682q-22 -129 5 -236.5t93 -185 t165.5 -120.5t221.5 -43q123 0 238.5 43t209 120.5t158.5 185t88 236.5t-4.5 236.5t-93.5 184.5t-166 120t-223 43q-122 0 -237 -43t-208.5 -120t-158.5 -184.5t-88 -236.5zM570 246l154 874h358q61 0 110.5 -21.5t82.5 -59t47 -89.5t3 -113q-14 -85 -67 -149t-126 -99 l109 -343h-170l-95 309h-192l-55 -309h-159zM807 685h186q30 0 59 12t52.5 32.5t39.5 48t22 59.5q6 31 -0.5 59t-22.5 49t-40.5 33t-55.5 12h-186z" />
<glyph unicode="&#xb4;" horiz-adv-x="474" d="M229 1151l235 302l168 -64l-229 -238h-174z" />
<glyph unicode="&#xb8;" horiz-adv-x="417" d="M-17 -499l70 128q22 -12 45 -18.5t51 -6.5q17 0 36 7.5t36 21t29.5 31.5t16.5 40q5 25 -4 43t-26 30t-39 17.5t-45 5.5h-6v1l-1 -1l129 233l121 -2l-75 -132q65 -20 98 -68t20 -123q-10 -54 -39.5 -100t-71 -79t-90 -52t-95.5 -19q-51 0 -92 9t-68 34z" />
<glyph unicode="&#xbb;" horiz-adv-x="1308" d="M167 113l346 372l-215 373h252l213 -373l-345 -373zM694 113l346 372l-215 373h252l213 -373l-344 -373z" />
<glyph unicode="&#x2c6;" horiz-adv-x="780" d="M288 1268l364 207l293 -207l-99 -132l-226 154l-278 -154z" />
<glyph unicode="&#x2da;" horiz-adv-x="554" d="M261 1272q8 44 32 82.5t59.5 67t81.5 45t98 16.5q53 0 93 -16.5t65.5 -45t35.5 -67t2 -82.5q-7 -43 -30.5 -80.5t-59 -66t-81.5 -45t-99 -16.5q-52 0 -92.5 16.5t-66 45t-35.5 66t-3 80.5zM400 1272q-6 -35 15.5 -61.5t63.5 -26.5q43 0 74 26.5t37 61.5q8 38 -14 64.5 t-65 26.5q-42 0 -73 -26.5t-38 -64.5z" />
<glyph unicode="&#x2dc;" horiz-adv-x="849" d="M303 1200q20 33 46 62t56 50.5t63.5 33.5t69.5 12h12t12 -1q38 -4 68 -14.5t55.5 -21.5t49 -20t47.5 -9q34 0 68 20t69 70l90 -73q-54 -88 -119.5 -135.5t-140.5 -47.5q-44 0 -80 10.5t-67 23t-56.5 23t-48.5 10.5q-25 0 -50.5 -12t-54.5 -54z" />
<glyph unicode="&#x401;" horiz-adv-x="1184" d="M158 0l239 1360h932l-38 -216h-683l-64 -364h590l-38 -214h-589l-63 -351h692l-37 -215h-941zM614 1669q8 43 45.5 73t89.5 30q54 0 80.5 -30t18.5 -73q-7 -42 -44 -72t-91 -30q-53 0 -79.5 30t-19.5 72zM977 1669q8 43 45 73t90 30q54 0 80.5 -30t18.5 -73 q-8 -42 -45 -72t-90 -30q-54 0 -80 30t-19 72z" />
<glyph unicode="&#x402;" horiz-adv-x="1580" d="M236 1146l37 214h1095l-37 -214h-423l-62 -352q26 30 60 57.5t75.5 48.5t90 33t102.5 12q113 0 188 -35.5t117 -100t51.5 -153.5t-9.5 -196l-86 -488q-16 -92 -51 -158t-85.5 -109.5t-113.5 -64t-135 -20.5q-45 0 -76.5 11.5t-53.5 25.5t-35 27.5t-21 18.5l126 150 q14 -7 24.5 -14.5t38.5 -7.5q62 0 92 40.5t43 112.5l26 150l58 326q26 146 -19 208.5t-161 62.5q-55 0 -106 -23.5t-92.5 -64t-70.5 -94t-40 -114.5l-77 -435h-249l202 1146h-423z" />
<glyph unicode="&#x403;" horiz-adv-x="1159" d="M168 0l239 1360h932l-38 -216h-682l-202 -1144h-249zM806 1551l235 302l168 -64l-229 -238h-174z" />
<glyph unicode="&#x404;" horiz-adv-x="1457" d="M221 682q17 99 59.5 190.5t104.5 171t140.5 144.5t168.5 111.5t189 72t200 25.5q158 0 285 -60t211 -164l-205 -152q-53 75 -137.5 117.5t-191.5 42.5q-88 0 -171.5 -30t-154 -83t-124 -124.5t-81.5 -155.5h752l-37 -215h-752q-1 -83 27 -154.5t80 -124t125 -82.5 t160 -30q107 0 206 42t179 117l150 -151q-59 -52 -126.5 -93.5t-141 -70.5t-150.5 -44.5t-156 -15.5q-152 0 -276 56.5t-207 153.5t-117.5 227.5t-8.5 278.5z" />
<glyph unicode="&#x405;" horiz-adv-x="1166" d="M142 409h249q-8 -47 6.5 -88t49 -71.5t87.5 -48t121 -17.5q162 0 247 51.5t102 146.5q11 58 -9 94.5t-63 61.5t-106 42t-140 35q-41 9 -89.5 19.5t-97 27.5t-92 41.5t-74 61t-44 86.5t-1.5 117q16 93 60 171t119 134t182.5 87.5t251.5 31.5q115 0 199.5 -29.5t137 -83.5 t71.5 -129.5t3 -167.5h-250q7 41 -2.5 76t-36.5 61t-72.5 41t-109.5 15q-79 0 -133.5 -16t-89.5 -41.5t-52.5 -58.5t-23.5 -67q-8 -45 11 -76.5t59.5 -53t98.5 -35t128 -24.5q94 -21 178 -48.5t143.5 -74t87 -118t8.5 -180.5q-18 -99 -72.5 -176t-139 -129.5t-194.5 -80 t-238 -27.5q-141 0 -237.5 39t-153 101.5t-75 141t-4.5 158.5z" />
<glyph unicode="&#x406;" horiz-adv-x="565" d="M158 0l239 1360h249l-239 -1360h-249z" />
<glyph unicode="&#x407;" horiz-adv-x="565" d="M158 0l239 1360h249l-239 -1360h-249zM306 1679q8 43 45.5 73t89.5 30q54 0 80.5 -30t18.5 -73q-7 -42 -44 -72t-91 -30q-53 0 -79.5 30t-19.5 72zM669 1679q8 43 45 73t90 30q54 0 80.5 -30t18.5 -73q-8 -42 -45 -72t-90 -30q-54 0 -80 30t-19 72z" />
<glyph unicode="&#x408;" horiz-adv-x="816" d="M40 0l37 215h158q121 0 184.5 61t82.5 171l161 913h248l-161 -914q-19 -109 -66 -192.5t-118 -140t-164.5 -85t-204.5 -28.5h-157z" />
<glyph unicode="&#x409;" horiz-adv-x="2201" d="M1 -19l78 209q2 0 9.5 -1t16 -1.5t16.5 -1t11 -0.5q63 0 100 38t50 110l181 1026h1157l-90 -509h290q106 0 185 -33t129 -91t68.5 -135t3.5 -166q-17 -96 -67.5 -174.5t-123 -134.5t-162.5 -86.5t-186 -30.5h-536l201 1144h-658l-106 -602h-1l-38 -220 q-16 -91 -58 -157.5t-100 -110t-127.5 -64t-141.5 -20.5q-31 0 -57 3t-44 8zM1418 215h282q45 0 87.5 15.5t77 43.5t59 67t33.5 86q8 48 -3 86.5t-36 65.5t-62 42t-81 15h-283z" />
<glyph unicode="&#x40a;" horiz-adv-x="2194" d="M172 0l239 1360h250l-92 -528h708l93 528h250l-93 -527h291q106 0 185.5 -32t129.5 -87.5t69 -131.5t3 -164q-17 -96 -67 -173.5t-122.5 -131.5t-162 -83.5t-185.5 -29.5h-537l108 617h-708l-109 -617h-250zM1418 215h282q45 0 87.5 14t77 40.5t58.5 64t33 84.5 q8 48 -3 85.5t-36.5 63t-63 38.5t-81.5 13h-283z" />
<glyph unicode="&#x40b;" horiz-adv-x="1580" d="M236 1146l37 214h1095l-37 -214h-423l-62 -352q26 30 60 57.5t75.5 48.5t90 33t102.5 12q113 0 188 -35.5t117 -100t51.5 -153.5t-9.5 -196l-81 -460h-249l81 460q26 146 -19 208.5t-161 62.5q-55 0 -106 -23.5t-92.5 -64t-70.5 -94t-40 -114.5l-77 -435h-249l202 1146 h-423z" />
<glyph unicode="&#x40c;" horiz-adv-x="1360" d="M158 0l239 1360h249l-135 -770l746 770h291l-591 -603l377 -757h-295l-277 573l-309 -313l-46 -260h-249zM881 1551l235 302l168 -64l-229 -238h-174z" />
<glyph unicode="&#x40e;" horiz-adv-x="1233" d="M195 -23l78 208q2 0 9.5 -1t16 -1.5t16.5 -1t11 -0.5q39 0 70.5 13.5t52.5 48.5l104 155l-287 962h274l194 -695l439 695h274l-782 -1204q-33 -48 -74.5 -84t-89.5 -59t-100 -34.5t-105 -11.5q-30 0 -56 3t-45 7zM622 1819l170 12q5 -25 13 -45.5t22.5 -34.5t38 -21.5 t60.5 -7.5t63 7.5t46 21.5t35 34.5t29 45.5l165 -12q-16 -59 -48 -108.5t-78.5 -85t-107 -55t-134.5 -19.5t-128 19.5t-88 55t-48 85t-10 108.5z" />
<glyph unicode="&#x40f;" horiz-adv-x="1496" d="M169 0l239 1360h249l-201 -1144h662l201 1144h248l-214 -1212h-7l-35 -148h-440l-66 -379h-248l66 379h-454z" />
<glyph unicode="&#x410;" horiz-adv-x="1414" d="M22 0l805 1361h236l327 -1361h-264l-62 259h-627l-152 -259h-263zM563 473h451l-124 525l-1 35h-2l-14 -35z" />
<glyph unicode="&#x411;" horiz-adv-x="1250" d="M158 0l239 1360h890l-37 -215h-641l-53 -294h291q106 0 185 -33t129 -91t68.5 -135t3.5 -166q-17 -96 -67.5 -174.5t-123 -134.5t-162.5 -86.5t-186 -30.5h-536zM445 215h282q45 0 87.5 15.5t77 43.5t59 67t33.5 86q9 48 -2 86.5t-36.5 65.5t-62.5 42t-81 15h-283z" />
<glyph unicode="&#x412;" horiz-adv-x="1316" d="M158 0l239 1360h593q93 0 165 -25.5t118 -73.5t64 -116t3 -154q-8 -45 -29 -87t-51 -78t-66 -63.5t-74 -42.5q48 -16 88 -47.5t66.5 -73.5t37 -94t0.5 -109q-18 -102 -68 -176.5t-119.5 -123t-152 -72.5t-164.5 -24h-650zM443 208h377q35 0 73.5 13.5t72 39t58 62 t33.5 83.5q7 43 -2.5 79t-32 62.5t-56.5 41t-75 14.5h-379zM546 794h331q34 0 67.5 13.5t62 37t49 56.5t27.5 72q7 38 -1.5 71t-28.5 57t-49 38t-63 14h-331z" />
<glyph unicode="&#x413;" horiz-adv-x="1125" d="M158 0l239 1360h932l-38 -216h-682l-202 -1144h-249z" />
<glyph unicode="&#x414;" horiz-adv-x="1525" d="M-1 -301l91 517h84q30 19 61.5 54.5t61 80.5t57 96.5t50.5 101t39.5 93.5t25.5 76l177 642h901l-201 -1144h159l-91 -517h-249l53 301h-918l-53 -301h-248zM469 216h630l162 928h-424l-125 -452q-38 -134 -98 -256.5t-145 -219.5z" />
<glyph unicode="&#x415;" horiz-adv-x="1184" d="M158 0l239 1360h932l-38 -216h-683l-64 -364h590l-38 -214h-589l-63 -351h692l-37 -215h-941z" />
<glyph unicode="&#x416;" horiz-adv-x="2055" d="M76 0l716 651l-480 709h312l362 -533l74 67l82 466h250l-82 -466l50 -67l550 533h313l-730 -710l488 -650h-320l-412 543l-96 -543h-250l96 543l-604 -543h-319z" />
<glyph unicode="&#x417;" horiz-adv-x="1275" d="M91 158l180 147q26 -31 65 -54.5t85.5 -38.5t98 -22.5t101.5 -7.5q57 0 116.5 12.5t110.5 38.5t87 65.5t45 92.5q9 54 -5 91t-50 61t-91.5 37.5t-128.5 19.5h-270l38 215h281q62 6 110.5 17.5t83 32.5t56 52.5t29.5 77.5q9 50 -7.5 85.5t-51 58t-83.5 33.5t-105 11 q-34 0 -76.5 -4t-87 -14t-88.5 -27.5t-81 -44.5l-99 159q41 38 98 65.5t122 45.5t134 27t132 9q114 0 204 -26t148.5 -77.5t83 -127t6.5 -174.5q-10 -58 -34.5 -104t-59 -81.5t-76 -61.5t-85.5 -43q45 -14 87.5 -38.5t72 -63.5t42.5 -94t-1 -130q-18 -104 -80.5 -181.5 t-151 -128.5t-194.5 -76.5t-211 -25.5q-81 0 -157 11t-141.5 34t-117.5 59.5t-84 87.5z" />
<glyph unicode="&#x418;" horiz-adv-x="1519" d="M158 0l239 1360h248l-164 -929l905 929h214l-239 -1360h-249l163 929l-903 -929h-214z" />
<glyph unicode="&#x419;" horiz-adv-x="1519" d="M158 0l239 1360h248l-164 -929l905 929h214l-239 -1360h-249l163 929l-903 -929h-214zM745 1799l170 12q5 -25 13 -45.5t22.5 -34.5t38 -21.5t60.5 -7.5t63 7.5t46 21.5t35 34.5t29 45.5l165 -12q-16 -59 -48 -108.5t-78.5 -85t-107 -55t-134.5 -19.5t-128 19.5t-88 55 t-48 85t-10 108.5z" />
<glyph unicode="&#x41a;" horiz-adv-x="1360" d="M158 0l239 1360h249l-135 -770l746 770h291l-591 -603l377 -757h-295l-277 573l-309 -313l-46 -260h-249z" />
<glyph unicode="&#x41b;" horiz-adv-x="1538" d="M1 -19l78 209q2 0 9.5 -1t16 -1.5t16.5 -1t11 -0.5q63 0 100 38t50 110l181 1026h1157l-239 -1360h-249l201 1144h-659l-106 -602h-1l-38 -220q-16 -91 -58 -157.5t-100 -110t-127.5 -64t-141.5 -20.5q-31 0 -57 3t-44 8z" />
<glyph unicode="&#x41c;" horiz-adv-x="1690" d="M158 0l239 1360h217l358 -629l582 629h218l-239 -1360h-249l168 951l-505 -549h-66l-306 551l-168 -953h-249z" />
<glyph unicode="&#x41d;" horiz-adv-x="1502" d="M158 0l239 1360h249l-102 -580h687l101 580h251l-239 -1360h-251l100 566h-686l-100 -566h-249z" />
<glyph unicode="&#x41e;" horiz-adv-x="1671" d="M219 682q17 99 59.5 190t104 170t140 143.5t168.5 110.5t188.5 71t200.5 25q152 0 276.5 -55t207.5 -151t118.5 -225.5t9.5 -278.5q-18 -99 -60 -190t-104 -170t-141 -143.5t-169 -111t-188.5 -71.5t-200.5 -25q-153 0 -277 55.5t-207 152t-117.5 226t-8.5 277.5z M468 681q-19 -105 3 -195.5t76.5 -157t136.5 -104.5t183 -38q102 0 197.5 38t173.5 104.5t132 157t73 195.5t-3.5 196t-77 157.5t-137 104.5t-184.5 38q-100 0 -195.5 -38t-173 -104.5t-132 -157.5t-72.5 -196z" />
<glyph unicode="&#x41f;" horiz-adv-x="1502" d="M158 0l239 1360h1204l-239 -1360h-248l201 1144h-706l-202 -1144h-249z" />
<glyph unicode="&#x420;" horiz-adv-x="1256" d="M158 0l239 1360h573q103 0 183.5 -34.5t132.5 -95.5t72.5 -145.5t3.5 -183.5q-18 -100 -68 -184t-122.5 -145t-164.5 -94.5t-194 -33.5h-328l-78 -444h-249zM522 659h316q49 0 94.5 18.5t82.5 51t62.5 76.5t34.5 95t-1 95.5t-35.5 77.5t-64.5 52.5t-88 19.5h-314z" />
<glyph unicode="&#x421;" horiz-adv-x="1639" d="M219 682q17 99 59.5 190t104 170t140 143.5t168.5 110.5t188.5 71t200.5 25q108 0 211.5 -31.5t187 -94t138.5 -156t66 -217.5l-255 1q-15 67 -51 119.5t-87 89t-114.5 55.5t-134.5 19q-100 0 -195.5 -38t-173 -104.5t-132 -157.5t-72.5 -196q-19 -105 3 -195.5 t76.5 -157t136.5 -104.5t183 -38q70 0 140 18.5t133.5 54.5t118 88.5t93.5 119.5h256q-54 -120 -142 -212.5t-193.5 -155.5t-220.5 -95.5t-223 -32.5q-153 0 -277 55.5t-207 152t-117.5 226t-8.5 277.5z" />
<glyph unicode="&#x422;" horiz-adv-x="1162" d="M255 1145l37 215h1058l-38 -215h-404l-202 -1145h-249l202 1145h-404z" />
<glyph unicode="&#x423;" horiz-adv-x="1233" d="M195 -23l78 208q2 0 9.5 -1t16 -1.5t16.5 -1t11 -0.5q39 0 70.5 13.5t52.5 48.5l104 155l-287 962h274l194 -695l439 695h274l-782 -1204q-33 -48 -74.5 -84t-89.5 -59t-100 -34.5t-105 -11.5q-30 0 -56 3t-45 7z" />
<glyph unicode="&#x424;" horiz-adv-x="1699" d="M209 682q23 134 87 237t160.5 175t221.5 114t270 54l17 98h248l-17 -98q141 -12 251 -54t181 -114t99 -175t4 -237t-88 -236.5t-160.5 -175t-221 -114.5t-269.5 -54l-18 -102h-248l18 102q-142 12 -252.5 54t-181 114t-98 175t-3.5 237zM458 681q-16 -88 3 -152.5 t64 -108t111.5 -68t145.5 -33.5l127 725q-82 -10 -157.5 -34.5t-135.5 -68t-101.5 -107.5t-56.5 -153zM1030 319q83 9 158 33.5t135 68t101.5 108t57.5 152.5q16 89 -3 153t-64 107.5t-111.5 68t-146.5 34.5z" />
<glyph unicode="&#x425;" d="M33 0l633 711l-352 649h294l245 -476l412 476h293l-580 -649l384 -711h-295l-275 537l-465 -537h-294z" />
<glyph unicode="&#x426;" horiz-adv-x="1626" d="M158 0l239 1360h249l-201 -1144h661l202 1144h248l-202 -1144h233l-91 -517h-248l52 301h-1142z" />
<glyph unicode="&#x427;" horiz-adv-x="1318" d="M274.5 654q-12.5 89 6.5 196l90 510h249l-90 -510q-13 -73 -5.5 -124.5t33.5 -84t68.5 -47.5t100.5 -15q55 0 106 23.5t92.5 64t70.5 94t39 114.5l85 485h250l-239 -1360h-243l91 524q-25 -31 -60 -60t-77.5 -50.5t-92 -34.5t-105.5 -13q-112 0 -190 35.5t-122.5 99.5 t-57 153z" />
<glyph unicode="&#x428;" horiz-adv-x="2093" d="M158 0l239 1360h249l-201 -1144h514l202 1144h248l-202 -1144h517l202 1144h248l-239 -1360h-1777z" />
<glyph unicode="&#x429;" horiz-adv-x="2256" d="M158 0l239 1360h249l-201 -1144h514l202 1144h248l-202 -1144h517l202 1144h248l-202 -1144h233l-91 -517h-248l53 301h-1761z" />
<glyph unicode="&#x42a;" horiz-adv-x="1443" d="M234 1144l38 216h561l-78 -444h328q102 0 182 -33.5t132 -94.5t72 -144.5t2 -184.5q-18 -99 -67.5 -183.5t-123 -145.5t-166.5 -95.5t-196 -34.5h-573l201 1144h-312zM631 215h315q49 0 95 19.5t83 52.5t62.5 77.5t34.5 95.5t-0.5 95t-35 76.5t-64.5 51t-88 18.5h-315z " />
<glyph unicode="&#x42b;" horiz-adv-x="1800" d="M158 0l239 1360h249l-78 -444h328q102 0 182 -33.5t131.5 -94.5t71.5 -144.5t2 -184.5q-17 -99 -67 -183.5t-123.5 -145.5t-166 -95.5t-195.5 -34.5h-573zM444 215h314q50 0 95.5 19.5t83 52.5t63 77.5t34.5 95.5t-1 95t-35 76.5t-64 51t-88 18.5h-315zM1348 0l239 1360 h249l-239 -1360h-249z" />
<glyph unicode="&#x42c;" horiz-adv-x="1256" d="M158 0l239 1360h249l-78 -444h328q102 0 182 -33.5t131.5 -94.5t71.5 -144.5t2 -184.5q-17 -99 -67 -183.5t-123.5 -145.5t-166 -95.5t-195.5 -34.5h-573zM444 215h314q50 0 95.5 19.5t83 52.5t63 77.5t34.5 95.5t-1 95t-35 76.5t-64 51t-88 18.5h-315z" />
<glyph unicode="&#x42d;" horiz-adv-x="1521" d="M182 190l203 151q53 -75 137.5 -117t191.5 -42q88 0 171.5 30t154 82.5t123.5 124t81 154.5h-751l38 215h751q2 84 -26 155.5t-80 124.5t-125 83t-161 30q-107 0 -206.5 -42.5t-179.5 -117.5l-150 152q60 52 127.5 93.5t140.5 70.5t150 44.5t156 15.5q153 0 277 -56 t207 -153t118 -227t9 -279q-18 -99 -60 -190.5t-104 -171t-141 -145t-169 -112t-188.5 -72t-200.5 -25.5q-158 0 -284.5 60t-209.5 164z" />
<glyph unicode="&#x42e;" horiz-adv-x="2249" d="M158 0l239 1360h249l-239 -1360h-249zM401 585l550 -1l21 203h-550zM806 682q17 99 59.5 190t104 170t140 143.5t168.5 110.5t188.5 71t200.5 25q152 0 276.5 -55t207.5 -151t118.5 -225.5t9.5 -278.5q-18 -99 -60 -190t-104 -170t-141 -143.5t-169 -111t-188.5 -71.5 t-200.5 -25q-153 0 -277 55.5t-207 152t-117.5 226t-8.5 277.5zM1055 681q-19 -105 3 -195.5t76.5 -157t136.5 -104.5t183 -38q102 0 197.5 38t173.5 104.5t132 157t73 195.5t-3.5 196t-77 157.5t-137 104.5t-184.5 38q-100 0 -195.5 -38t-173 -104.5t-132 -157.5 t-72.5 -196z" />
<glyph unicode="&#x42f;" horiz-adv-x="1299" d="M87 0l358 535q-43 29 -75.5 68t-52.5 87.5t-25.5 104.5t5.5 119q17 96 67.5 177.5t124 141.5t164 93.5t186.5 33.5h537l-239 -1360h-249l83 470h-300l-309 -470h-275zM546 914q-9 -48 1.5 -90t35.5 -72.5t61.5 -48.5t79.5 -18h285l81 461h-283q-45 0 -88.5 -18.5 t-79 -50.5t-60.5 -74t-33 -89z" />
<glyph unicode="&#x430;" d="M190 514q20 113 77 212.5t142.5 173.5t194.5 117t233 43q59 0 109.5 -11.5t92.5 -31t76 -46t59 -55.5l34 113h208l-181 -1029h-208l5 113q-36 -30 -79.5 -56t-93 -45.5t-103.5 -31t-112 -11.5q-123 0 -217 42.5t-153 116.5t-81.5 173.5t-2.5 212.5zM433 515 q-13 -74 2 -136t52 -106.5t92.5 -69t124.5 -24.5t133.5 24.5t117 69t89 106t49.5 136.5q13 73 -2 134.5t-52 105.5t-92.5 69t-124.5 25t-133.5 -24.5t-117 -69t-89 -105.5t-49.5 -135z" />
<glyph unicode="&#x431;" horiz-adv-x="1332" d="M194 514l77 441q20 113 80 213t148.5 175t200.5 119t235 44q39 0 77.5 -6.5t77 -14.5t78 -14.5t81.5 -6.5q18 0 36.5 1.5t37.5 5.5l-45 -198q-24 -8 -48 -11.5t-48 -3.5q-36 0 -72.5 6t-72.5 13t-70.5 13t-67.5 6q-67 0 -131 -25.5t-115.5 -70.5t-88 -107.5t-49.5 -136.5 l-11 -63q36 36 78.5 67.5t90.5 54.5t100.5 36.5t109.5 13.5q124 0 216.5 -43.5t150.5 -118.5t78.5 -175.5t0.5 -213.5q-20 -114 -80 -214t-149 -175t-201 -118.5t-237 -43.5q-123 0 -218.5 43.5t-158 118.5t-87 175.5t-4.5 213.5zM438 515q-13 -74 1 -136.5t50 -107.5 t91 -70.5t122 -25.5q68 0 131.5 25.5t115.5 70.5t88 107.5t49 136.5q13 73 -1 135t-50 107.5t-90.5 71t-122.5 25.5t-131.5 -25.5t-115.5 -70.5t-88 -107t-49 -136z" />
<glyph unicode="&#x432;" horiz-adv-x="1137" d="M160 0l182 1029h481q79 0 139.5 -19t99.5 -55.5t54.5 -90t3.5 -121.5q-6 -33 -22.5 -64t-39 -57t-50 -46t-56.5 -30q37 -13 68 -36t52 -54t30 -69t1 -80q-15 -83 -56.5 -141.5t-98.5 -95t-125 -53.5t-135 -17h-528zM437 202h267q29 0 55.5 9t48 25.5t36 39t18.5 48.5 q5 24 -1.5 46t-22 38.5t-39 26t-53.5 9.5h-266zM510 615h228q23 0 46 8.5t41.5 23t32 34.5t17.5 43t-2 42.5t-19.5 34.5t-33.5 23.5t-43 8.5h-229z" />
<glyph unicode="&#x433;" horiz-adv-x="990" d="M168 0l182 1029h773l-37 -211h-529l-144 -818h-245z" />
<glyph unicode="&#x434;" horiz-adv-x="1414" d="M41 -222l75 429h83q108 83 186 209.5t128 316.5l79 296h831l-145 -822h111l-75 -429h-210l4 222h-783l-74 -222h-210zM453 207h582l108 613h-365l-46 -168q-22 -80 -49.5 -144t-61.5 -117t-75.5 -98t-92.5 -86z" />
<glyph unicode="&#x435;" horiz-adv-x="1336" d="M194 526q20 113 79.5 212.5t148 173.5t200 117t234.5 43q124 0 221 -43t159.5 -117t87.5 -173.5t5 -212.5q-5 -25 -9 -40t-9 -29h-890q1 -63 23.5 -114t60.5 -86.5t88.5 -55t107.5 -19.5q90 0 165.5 40t123.5 105h264q-37 -68 -96 -130.5t-134.5 -110.5t-166.5 -76.5 t-193 -28.5q-123 0 -219.5 43t-158.5 117t-87 173.5t-5 211.5zM458 629h634q-4 54 -24.5 99.5t-54.5 78.5t-81.5 51.5t-107.5 18.5q-61 0 -117 -18.5t-103.5 -51.5t-84.5 -78.5t-61 -99.5z" />
<glyph unicode="&#x436;" horiz-adv-x="1720" d="M49 0l533 476l38 29l-387 524h303l284 -366l34 27v1l57 338h244l-64 -339l27 -29l417 368h302l-575 -525l26 -28l366 -476h-307l-308 374l-65 -374h-244l68 378l-3 -4l-439 -374h-307z" />
<glyph unicode="&#x437;" horiz-adv-x="1121" d="M94 58l87 175q53 -29 140 -43.5t203 -14.5q54 0 104.5 7t90.5 22.5t66.5 40.5t32.5 61q6 35 -14.5 57.5t-58 35.5t-88 18t-104.5 5h-212l42 220h215q46 0 87.5 6t74 19t53 33.5t25.5 48.5q9 53 -41.5 83t-145.5 30q-37 0 -85 -4t-92.5 -9.5t-80 -12t-49.5 -11.5l-18 176 q32 14 76.5 26t93.5 21t99 14t92 5q94 0 173.5 -16t134 -52.5t79 -95t9.5 -144.5q-9 -49 -31.5 -86t-53.5 -63t-67 -42t-71 -24q38 -8 79 -19.5t72.5 -37t47 -69t2.5 -115.5q-16 -91 -68 -156t-128.5 -105.5t-172 -59.5t-199.5 -19q-48 0 -102 5.5t-108 16.5t-103 29.5 t-86 43.5z" />
<glyph unicode="&#x438;" horiz-adv-x="1318" d="M160 0l182 1029h240l-109 -617l643 617h211l-181 -1029h-242l109 619l-642 -619h-211z" />
<glyph unicode="&#x439;" horiz-adv-x="1318" d="M160 0l182 1029h240l-109 -617l643 617h211l-181 -1029h-242l109 619l-642 -619h-211zM597 1480l170 12q5 -25 13 -45.5t22.5 -34.5t38 -21.5t60.5 -7.5t63 7.5t46 21.5t35 34.5t29 45.5l165 -12q-16 -59 -48 -108.5t-78.5 -85t-107 -55t-134.5 -19.5t-128 19.5t-88 55 t-48 85t-10 108.5z" />
<glyph unicode="&#x43a;" horiz-adv-x="1171" d="M160 0l181 1029h243l-94 -530l518 530h286l-441 -444l291 -585h-291l-202 424l-210 -208l-38 -216h-243z" />
<glyph unicode="&#x43b;" horiz-adv-x="1404" d="M2 -21l77 205q2 0 9.5 -1t16.5 -1.5t16.5 -1t10.5 -0.5q69 0 109 42t54 119l122 688h996l-181 -1029h-245l144 818h-507l-86 -489q-16 -93 -58.5 -161t-101 -112.5t-129.5 -66t-146 -21.5q-30 0 -56.5 3t-44.5 8z" />
<glyph unicode="&#x43c;" horiz-adv-x="1494" d="M160 0l182 1029h211l295 -409l447 409h209l-182 -1029h-240l111 633l-347 -352v-1h-113l-219 356l-112 -636h-242z" />
<glyph unicode="&#x43d;" horiz-adv-x="1315" d="M160 0l182 1029h241l-73 -416h498l74 416h242l-181 -1029h-242l71 405h-499l-71 -405h-242z" />
<glyph unicode="&#x43e;" horiz-adv-x="1336" d="M191 514q20 113 79.5 212.5t148 173.5t200 117t234.5 43q124 0 221 -43t159.5 -117t87.5 -173.5t5 -212.5q-20 -114 -79.5 -213t-148.5 -173t-201 -116.5t-237 -42.5q-123 0 -219 42.5t-158 116.5t-87 173.5t-5 212.5zM434 515q-13 -74 2 -135.5t51 -106t91 -69.5 t122 -25q68 0 131.5 24.5t115.5 69t88 106.5t49 136q13 73 -1.5 134.5t-50.5 105.5t-91 69t-123 25q-67 0 -131 -24.5t-115.5 -69t-88 -105.5t-49.5 -135z" />
<glyph unicode="&#x43f;" horiz-adv-x="1348" d="M160 0l182 1029h1015l-181 -1029h-244l144 818h-527l-144 -818h-245z" />
<glyph unicode="&#x440;" d="M98 -352l244 1381h197l-2 -120q36 30 80 57.5t94 48.5t105.5 33t114.5 12q123 0 217 -42.5t153.5 -116.5t82 -173.5t2.5 -212.5t-76.5 -212.5t-141 -173.5t-193 -117t-232.5 -43q-112 0 -191.5 36t-131.5 93l-79 -450h-243zM482 514q-13 -73 2.5 -134.5t52.5 -105.5 t92.5 -69t124.5 -25t133.5 24.5t116.5 69t88.5 106t49.5 134.5q13 74 -2 136t-52 106.5t-92.5 69t-124.5 24.5q-68 0 -132.5 -24.5t-117 -69t-89.5 -106t-50 -136.5z" />
<glyph unicode="&#x441;" horiz-adv-x="1345" d="M190 514q20 113 79.5 212.5t148 174t200 117.5t234.5 43q102 0 184.5 -29t143 -80.5t97 -122.5t46.5 -155h-250q-25 82 -93 128.5t-163 46.5q-64 0 -127 -23t-115.5 -66.5t-90 -105.5t-51.5 -139q-13 -78 2.5 -140t52.5 -105.5t91.5 -66.5t118.5 -23q95 0 179.5 46.5 t139.5 129.5h249q-38 -84 -99 -154.5t-140 -122.5t-172 -81t-195 -29q-123 0 -219.5 43t-158.5 117t-87 173.5t-5 211.5z" />
<glyph unicode="&#x442;" horiz-adv-x="1040" d="M236 822l37 207h858l-37 -207h-308l-144 -822h-242l144 822h-308z" />
<glyph unicode="&#x443;" horiz-adv-x="1174" d="M203 -358l255 398l-253 984h268l158 -654l3 -52l417 705l262 1l-847 -1382h-263z" />
<glyph unicode="&#x444;" horiz-adv-x="1551" d="M216 514q20 112 79 212t146.5 175t198 119t233.5 45l72 407h244l-72 -407q122 -2 216.5 -46t155.5 -119t85.5 -174.5t4.5 -211.5t-79 -211.5t-146 -174t-197.5 -119t-233.5 -46.5l-66 -376h-245l66 376q-122 1 -217 45t-156 119t-85 174.5t-4 212.5zM459 515 q-13 -73 1 -134.5t49 -106.5t88 -71t119 -28l120 678q-67 -1 -129.5 -27t-113.5 -71t-86 -106.5t-48 -133.5zM961 175q66 2 128 28t112.5 71t86 106.5t48.5 134.5q13 72 -1 133t-48.5 106t-87.5 71t-119 28z" />
<glyph unicode="&#x445;" horiz-adv-x="1142" d="M42 0l457 531l-262 498h289l167 -334l286 334h287l-436 -498l271 -531h-291l-178 358l-306 -358h-284z" />
<glyph unicode="&#x446;" horiz-adv-x="1348" d="M160 0l182 1029h244l-144 -817h527l144 817h244l-144 -817h125l6 1l-1 -1h1l-1 -1l-74 -425h-244l37 214h-902z" />
<glyph unicode="&#x447;" horiz-adv-x="1351" d="M262 500q-11 95 9 209l57 320h243l-58 -329q-14 -79 -6 -135t36 -92t75 -52.5t110 -16.5q60 0 115.5 26t101.5 70t77.5 103.5t43.5 125.5l53 300h244l-181 -1031h-244l74 395q-34 -54 -77.5 -92t-92 -62t-99 -35t-98.5 -11q-120 0 -201 38t-126 106t-56 163z" />
<glyph unicode="&#x448;" horiz-adv-x="1992" d="M160 0l182 1029h244l-144 -817h463l144 817h245l-145 -817h464l144 817h244l-181 -1029h-1660z" />
<glyph unicode="&#x449;" horiz-adv-x="1992" d="M160 0l182 1029h244l-144 -817h463l144 817h245l-145 -817h464l144 817h244l-144 -817l131 1l-75 -427h-244l38 214h-1547z" />
<glyph unicode="&#x44a;" horiz-adv-x="1270" d="M186 819l36 210h424l-61 -346h368q72 0 135 -22t106.5 -65.5t63 -106.5t4.5 -146q-14 -81 -56.5 -145t-101.5 -108t-130.5 -67t-143.5 -23h-610l145 819h-179zM502 212h355q29 0 56.5 10.5t49.5 28.5t37 41.5t20 50.5t-1.5 50t-22 40.5t-39 27.5t-53.5 10h-356z" />
<glyph unicode="&#x44b;" horiz-adv-x="1737" d="M158 0l181 1029h245l-62 -346h369q72 0 134.5 -22t106 -65.5t63.5 -106.5t5 -146q-15 -81 -57 -145t-101 -108t-130.5 -67t-143.5 -23h-610zM439 212h355q30 0 57.5 10.5t49.5 28.5t37 41.5t20 50.5t-1.5 50t-22 40.5t-39 27.5t-53.5 10h-357zM1339 2l182 1029h244 l-181 -1029h-245z" />
<glyph unicode="&#x44c;" horiz-adv-x="1210" d="M160 0l182 1029h244l-61 -346h368q72 0 135 -22t106.5 -65.5t63 -106.5t4.5 -146q-14 -81 -56.5 -145t-101.5 -108t-130.5 -67t-143.5 -23h-610zM442 212h355q29 0 56.5 10.5t49.5 28.5t37 41.5t20 50.5t-1.5 50t-22 40.5t-39 27.5t-53.5 10h-356z" />
<glyph unicode="&#x44d;" horiz-adv-x="1336" d="M195 356h248q27 -83 95 -129.5t163 -46.5q53 0 105 16t98.5 46t85 73.5t63.5 98.5h-469l35 200h470q-5 55 -28 98.5t-59 74t-82.5 46.5t-100.5 16q-95 0 -179.5 -46.5t-140.5 -128.5h-248q39 84 101 155t140.5 122.5t171 80.5t194.5 29q124 0 220 -43t158.5 -117.5 t87 -174t4.5 -212.5q-20 -112 -80 -211.5t-148.5 -173.5t-200 -117t-234.5 -43q-102 0 -185 29t-143.5 81t-97 122.5t-44.5 154.5z" />
<glyph unicode="&#x44e;" horiz-adv-x="1856" d="M168 0l182 1029h244l-72 -409h222q35 94 97.5 175.5t146 141.5t183 94t208.5 34q124 0 221 -43.5t159 -118.5t87 -175.5t5 -213.5q-20 -114 -80 -214t-148.5 -175t-201 -118.5t-237.5 -43.5q-108 0 -195.5 34t-149.5 94t-96 141.5t-36 175.5h-222l-72 -408h-245zM960 515 q-13 -74 1.5 -136.5t50.5 -107.5t91 -70.5t122 -25.5t130.5 25.5t116 70.5t89 107.5t49.5 136.5q13 73 -2 135t-51 107.5t-90.5 71t-121.5 25.5q-68 0 -131.5 -25.5t-115.5 -70.5t-88.5 -107t-49.5 -136z" />
<glyph unicode="&#x44f;" horiz-adv-x="1140" d="M77 0l305 352q-87 42 -127.5 125t-20.5 194q14 78 54.5 143.5t100.5 113t136.5 74.5t161.5 27h462l-181 -1029h-242l55 315h-165l-262 -315h-277zM476 671q-6 -31 1.5 -58.5t25.5 -47t44.5 -31t59.5 -11.5h210l53 299h-210q-33 0 -64 -12t-56 -33t-42 -48.5t-22 -57.5z " />
<glyph unicode="&#x451;" horiz-adv-x="1336" d="M194 526q20 113 79.5 212.5t148 173.5t200 117t234.5 43q124 0 221 -43t159.5 -117t87.5 -173.5t5 -212.5q-5 -25 -9 -40t-9 -29h-890q1 -63 23.5 -114t60.5 -86.5t88.5 -55t107.5 -19.5q90 0 165.5 40t123.5 105h264q-37 -68 -96 -130.5t-134.5 -110.5t-166.5 -76.5 t-193 -28.5q-123 0 -219.5 43t-158.5 117t-87 173.5t-5 211.5zM458 629h634q-4 54 -24.5 99.5t-54.5 78.5t-81.5 51.5t-107.5 18.5q-61 0 -117 -18.5t-103.5 -51.5t-84.5 -78.5t-61 -99.5zM620 1340q8 43 45.5 73t89.5 30q54 0 80.5 -30t18.5 -73q-7 -42 -44 -72t-91 -30 q-53 0 -79.5 30t-19.5 72zM983 1340q8 43 45 73t90 30q54 0 80.5 -30t18.5 -73q-8 -42 -45 -72t-90 -30q-54 0 -80 30t-19 72z" />
<glyph unicode="&#x452;" horiz-adv-x="1326" d="M160 0l205 1165h-177l30 176h178l20 110h247l-22 -110h184l-30 -176h-190l-57 -285q27 36 64.5 69t84.5 59t102.5 41.5t118.5 15.5q120 0 201.5 -38t126.5 -106.5t56 -163.5t-9 -209l-96 -548h-244l98 558q14 79 6 135t-36 91.5t-75 52t-110 16.5q-60 0 -116 -25.5 t-101.5 -69.5t-77 -102.5t-43.5 -124.5l-51 -290l-2 -16l-40 -225h-245z" />
<glyph unicode="&#x453;" horiz-adv-x="990" d="M168 0l182 1029h773l-37 -211h-529l-144 -818h-245zM637 1212l235 302l168 -64l-229 -238h-174z" />
<glyph unicode="&#x454;" horiz-adv-x="1298" d="M193 514q20 113 79.5 212.5t148 174t200 117.5t235.5 43q102 0 184.5 -29t142.5 -80.5t96.5 -122.5t46.5 -155h-249q-26 82 -94 128.5t-163 46.5q-54 0 -106.5 -16t-99 -46.5t-85 -74t-63.5 -98.5h471l-36 -200h-470q6 -55 29 -98.5t59 -73.5t83 -46t100 -16 q94 0 178.5 46.5t140.5 129.5h248q-37 -84 -98.5 -154.5t-140.5 -122.5t-172 -81t-195 -29q-123 0 -219.5 43t-158.5 117t-87 173.5t-5 211.5z" />
<glyph unicode="&#x455;" horiz-adv-x="1034" d="M121 311l239 -1q-4 -29 8 -55t36 -45t59 -30t78 -11q116 0 177 34.5t72 93.5q6 33 -10.5 55t-52 37t-88 26.5t-120.5 24.5q-50 8 -107.5 23t-103 46.5t-70 85t-9.5 139.5q13 72 49.5 131.5t99 103t151.5 67.5t207 24q93 0 163.5 -24t115 -67t62 -103t4.5 -131l-243 1 q6 54 -35 89t-119 35q-51 0 -89 -10.5t-64 -27.5t-40.5 -39.5t-18.5 -46.5q-5 -28 6.5 -47t39 -32t71.5 -21.5t105 -16.5q74 -12 143.5 -29.5t121 -50.5t77 -87t10.5 -139q-15 -87 -61.5 -151.5t-118 -107.5t-165.5 -64.5t-205 -21.5q-110 0 -186.5 30.5t-122 79.5 t-61.5 110.5t-5 122.5z" />
<glyph unicode="&#x456;" horiz-adv-x="592" d="M160 0l182 1029h244l-181 -1029h-245zM364 1320q5 28 20.5 52.5t38.5 43t53 29.5t64 11q35 0 61 -11t43 -29.5t23.5 -43t1.5 -52.5t-20.5 -52.5t-38.5 -43t-53 -29t-65 -10.5q-34 0 -60 10.5t-42.5 29t-23.5 43t-2 52.5z" />
<glyph unicode="&#x457;" horiz-adv-x="562" d="M160 0l182 1029h244l-181 -1029h-245zM206 1328q8 43 45.5 73t89.5 30q54 0 80.5 -30t18.5 -73q-7 -42 -44 -72t-91 -30q-53 0 -79.5 30t-19.5 72zM569 1328q8 43 45 73t90 30q54 0 80.5 -30t18.5 -73q-8 -42 -45 -72t-90 -30q-54 0 -80 30t-19 72z" />
<glyph unicode="&#x458;" horiz-adv-x="563" d="M-141 -383l37 209h95q69 0 112.5 47.5t57.5 130.5l181 1025h245l-182 -1028q-17 -96 -57 -168t-97.5 -120t-130 -72t-155.5 -24h-106z" />
<glyph unicode="&#x459;" horiz-adv-x="2010" d="M2 -21l77 205q2 0 9.5 -1t16.5 -1.5t16.5 -1t10.5 -0.5q69 0 109 42t54 119l122 688h968l-61 -346h368q72 0 135 -22t106.5 -65.5t63.5 -106.5t5 -146q-14 -81 -56.5 -145t-101.5 -108t-130.5 -67t-144.5 -23h-609l144 818h-480l-88 -502q-16 -93 -58 -159t-100.5 -108 t-129 -61.5t-145.5 -19.5q-30 0 -56.5 3t-44.5 8zM1241 212h355q30 0 57.5 10.5t49 28.5t36.5 41.5t20 50.5t-1.5 50t-22 40.5t-39 27.5t-53.5 10h-356z" />
<glyph unicode="&#x45a;" horiz-adv-x="1986" d="M160 0l182 1029h244l-62 -351h531l62 351h245l-62 -346h369q72 0 134.5 -22t106 -65.5t63.5 -106.5t5 -146q-14 -81 -56.5 -145t-101.5 -108t-130.5 -67t-143.5 -23h-610l82 467h-531l-82 -467h-245zM1217 212h356q29 0 56.5 10.5t49.5 28.5t37 41.5t20 50.5t-1.5 50 t-22 40.5t-39 27.5t-53.5 10h-357z" />
<glyph unicode="&#x45b;" horiz-adv-x="1351" d="M168 0l207 1175h-178l31 176h178l26 146h246l-29 -146h186l-31 -176h-190l-59 -297q26 36 64 69.5t85 60t103 42t119 15.5q120 0 201.5 -38t126.5 -106.5t56 -163.5t-9 -209l-96 -548h-245l98 558q14 79 6 135t-35.5 91.5t-74.5 52t-111 16.5q-60 0 -115.5 -25.5 t-101 -69.5t-77.5 -102.5t-44 -124.5l-51 -289l-2 -17l-40 -225h-244z" />
<glyph unicode="&#x45c;" horiz-adv-x="1171" d="M160 0l181 1029h243l-94 -530l518 530h286l-441 -444l291 -585h-291l-202 424l-210 -208l-38 -216h-243zM624 1151l235 302l168 -64l-229 -238h-174z" />
<glyph unicode="&#x45e;" horiz-adv-x="1174" d="M203 -358l255 398l-253 984h268l158 -654l3 -52l417 705l262 1l-847 -1382h-263zM494 1480l170 12q5 -25 13 -45.5t22.5 -34.5t38 -21.5t60.5 -7.5t63 7.5t46 21.5t35 34.5t29 45.5l165 -12q-16 -59 -48 -108.5t-78.5 -85t-107 -55t-134.5 -19.5t-128 19.5t-88 55t-48 85 t-10 108.5z" />
<glyph unicode="&#x45f;" horiz-adv-x="1351" d="M163 0l182 1034h245l-145 -817h527l144 817h245l-182 -1034h-392l-60 -342h-248l60 342h-376z" />
<glyph unicode="&#x474;" horiz-adv-x="1428" d="M268 1361h263l238 -1028h3l601 1028h263l-810 -1361h-226z" />
<glyph unicode="&#x475;" horiz-adv-x="1181" d="M216 1029h261l160 -706h1l411 706h261l-619 -1029h-220z" />
<glyph unicode="&#x490;" horiz-adv-x="1153" d="M172 0l239 1360h683l42 235h249l-50 -284h-1l-28 -167h-683l-201 -1144h-250z" />
<glyph unicode="&#x491;" horiz-adv-x="1028" d="M168 0l182 1029h564l37 214h245l-75 -426l-382 1h-182l-144 -818h-245z" />
<glyph unicode="&#x4d9;" horiz-adv-x="1361" d="M165 515l5 26q3 13 6.5 23t6.5 20h880q0 63 -21 113.5t-57 86.5t-85 55.5t-106 19.5q-91 0 -166.5 -40t-123.5 -104h-264q37 68 96 130.5t134.5 110t166.5 76t193 28.5q123 0 219.5 -43t159 -117t87 -173t4.5 -212t-79.5 -212.5t-148 -173.5t-200 -117t-234.5 -43 q-124 0 -221 43t-159.5 117t-87.5 173.5t-5 212.5zM404 412q6 -53 27.5 -96.5t57 -75t82 -48.5t101.5 -17q56 0 108.5 17t98.5 48t83.5 75t62.5 97h-621z" />
<glyph unicode="&#x2000;" horiz-adv-x="926" />
<glyph unicode="&#x2001;" horiz-adv-x="1853" />
<glyph unicode="&#x2002;" horiz-adv-x="926" />
<glyph unicode="&#x2003;" horiz-adv-x="1853" />
<glyph unicode="&#x2004;" horiz-adv-x="617" />
<glyph unicode="&#x2005;" horiz-adv-x="463" />
<glyph unicode="&#x2006;" horiz-adv-x="308" />
<glyph unicode="&#x2007;" horiz-adv-x="308" />
<glyph unicode="&#x2008;" horiz-adv-x="231" />
<glyph unicode="&#x2009;" horiz-adv-x="370" />
<glyph unicode="&#x200a;" horiz-adv-x="102" />
<glyph unicode="&#x2010;" horiz-adv-x="811" d="M190 384l35 204h576l-35 -204h-576z" />
<glyph unicode="&#x2011;" horiz-adv-x="811" d="M190 384l35 204h576l-35 -204h-576z" />
<glyph unicode="&#x2012;" horiz-adv-x="811" d="M190 384l35 204h576l-35 -204h-576z" />
<glyph unicode="&#x2013;" horiz-adv-x="971" d="M208 384l35 204h691l-36 -204h-690z" />
<glyph unicode="&#x2014;" horiz-adv-x="1664" d="M208 384l35 204h1384l-35 -204h-1384z" />
<glyph unicode="&#x2018;" horiz-adv-x="570" d="M262 951l297 513l173 -7l-257 -528z" />
<glyph unicode="&#x2019;" horiz-adv-x="573" d="M253 936l257 528l213 -22l-298 -513z" />
<glyph unicode="&#x201a;" horiz-adv-x="574" d="M4 -287l257 528l213 -22l-298 -513z" />
<glyph unicode="&#x201c;" horiz-adv-x="984" d="M262 951l297 513l173 -7l-257 -528zM663 951l297 513l173 -7l-257 -528z" />
<glyph unicode="&#x201d;" horiz-adv-x="948" d="M247 936l258 528l213 -22l-298 -513zM648 936l257 528l214 -22l-298 -513z" />
<glyph unicode="&#x201e;" horiz-adv-x="956" d="M5 -287l258 528l213 -22l-298 -513zM406 -287l258 528l213 -22l-298 -513z" />
<glyph unicode="&#x2026;" horiz-adv-x="1496" d="M144 110q5 28 19.5 53t36 43.5t50 29.5t60.5 11t56 -11t39.5 -29.5t21.5 -43.5t1 -53t-19.5 -52.5t-36.5 -43t-50.5 -29t-60.5 -10.5q-31 0 -55.5 11t-39.5 29.5t-21 43t-1 51.5zM625 110q5 28 19.5 53t36.5 43.5t50 29.5t60 11t56.5 -11t40 -29.5t21 -43.5t0.5 -53 t-19.5 -52.5t-36.5 -43t-50.5 -29t-60.5 -10.5q-31 0 -55 11t-39.5 29.5t-21.5 43t-1 51.5zM1106 110q5 28 20 53t37 43.5t50 29.5t60 11t56 -11t39.5 -29.5t21.5 -43.5t1 -53t-19.5 -52.5t-37 -43t-50.5 -29t-60 -10.5q-31 0 -55.5 11t-39.5 29.5t-21 43t-2 51.5z" />
<glyph unicode="&#x202f;" horiz-adv-x="370" />
<glyph unicode="&#x2039;" horiz-adv-x="787" d="M207 485l345 373h252l-346 -373l214 -372l-251 -1z" />
<glyph unicode="&#x203a;" horiz-adv-x="787" d="M157 113l347 372l-216 373h253l213 -373l-345 -373z" />
<glyph unicode="&#x205f;" horiz-adv-x="463" />
<glyph unicode="&#x20ac;" horiz-adv-x="1198" d="M133 416l26 147h820l-26 -148h-409q18 -55 51 -100t78 -77t101.5 -49.5t120.5 -17.5q43 0 96.5 11.5t107.5 40.5l-39 -224q-39 -13 -92 -20.5t-108 -7.5q-111 0 -206.5 33t-169 92.5t-121.5 141t-65 178.5h-165zM200 792l25 148h163q51 99 128 182t171.5 143t202.5 94 t221 34q60 0 109 -9t81 -20l-40 -225q-40 29 -91.5 41t-93.5 12q-66 0 -129.5 -18t-121 -51t-106.5 -79.5t-86 -103.5h412l-26 -149z" />
<glyph unicode="&#x2122;" horiz-adv-x="1669" d="M259 1216l30 172h587l-30 -172h-195l-100 -565h-194l100 565h-198zM848 651l129 738l163 2l182 -324l298 324l161 -2l-130 -738h-182l71 403l-258 -261h-15l-166 261l-71 -403h-182z" />
<glyph unicode="&#x25fc;" horiz-adv-x="1030" d="M0 0v1030h1030v-1030h-1030z" />
</font>
</defs>
</svg>
