<svg width="150" height="19" viewBox="0 0 150 19" fill="none" xmlns="http://www.w3.org/2000/svg">
<path d="M9.82764 8.49411C8.84487 7.57986 7.717 7.27511 6.39126 7.27511C4.76212 7.27511 3.8585 7.77438 3.8585 8.63027C3.8585 9.51859 4.67637 10.0114 6.45062 10.1216C9.06913 10.2902 12.3868 10.8673 12.3868 14.4919C12.3868 16.8974 10.3883 18.9723 6.41764 18.9723C4.22127 18.9723 2.02489 18.6157 0 16.5408L1.6951 14.1352C2.67787 15.2116 4.93361 16.0156 6.47701 16.0415C7.76977 16.0675 8.98339 15.4061 8.98339 14.4076C8.98339 13.4674 8.19849 13.0783 6.22637 12.9681C3.60786 12.7736 0.488084 11.8334 0.488084 8.73402C0.488084 5.58277 3.80574 4.474 6.34509 4.474C8.51509 4.474 10.1442 4.88898 11.747 6.27008L9.82764 8.49411Z" fill="white"/>
<path d="M27.9395 11.7037C27.9395 15.633 25.2088 18.8167 20.7039 18.8167C16.1991 18.8167 13.5014 15.633 13.5014 11.7037C13.5014 7.8003 16.2584 4.5907 20.6776 4.5907C25.0967 4.5907 27.9395 7.8003 27.9395 11.7037ZM16.9378 11.7037C16.9378 13.7786 18.2042 15.7173 20.7105 15.7173C23.2169 15.7173 24.4833 13.7786 24.4833 11.7037C24.4833 9.65474 23.019 7.66414 20.7105 7.66414C18.2305 7.66414 16.9378 9.65474 16.9378 11.7037Z" fill="white"/>
<path d="M32.8664 4.91492V12.0085C32.8664 14.0834 34.0207 15.659 36.2171 15.659C38.3277 15.659 39.7656 13.9148 39.7656 11.8399V4.85657L43.169 4.86954V18.5379H40.1019L39.8777 16.6835C38.4398 18.0646 37.1207 18.7324 35.1749 18.7324C31.8573 18.7324 29.4366 16.2685 29.4366 12.0344V4.90196L32.8664 4.91492Z" fill="white"/>
<path d="M50.7985 0.924683L50.853 4.8955H54.6785V7.80036H50.82V13.6944C50.82 14.9977 51.5522 15.6331 52.6207 15.6331C52.6207 15.6331 53.4979 15.6396 54.3619 15.3219L54.9951 18.0192C54.9951 18.0192 53.4385 18.6417 52.3964 18.6741C49.3822 18.7843 47.4166 17.0985 47.4166 13.6944V7.80036H44.8245V4.8955H47.4166V1.22553L50.7985 0.924683Z" fill="white"/>
<path d="M60.4695 0V6.72396C61.7095 5.14833 63.2265 4.675 64.8029 4.675C68.7406 4.675 70.4884 7.30104 70.4884 11.3147V18.5055H67.0521V11.3406C67.0521 8.85073 65.7263 7.80031 63.8993 7.80031C61.8744 7.80031 60.4629 9.48616 60.4629 11.5351V18.5055H57.0266V0.356623L60.4695 0Z" fill="white"/>
<path d="M82.0706 18.5962V11.2887C82.0706 9.49263 81.1142 7.85865 79.2278 7.85865C77.3678 7.85865 76.2729 9.49263 76.2729 11.2887V18.5898H72.8365V4.89544L76.0157 4.92786L76.2663 6.58777C76.9985 5.20667 78.6012 4.7074 79.927 4.7074C81.5891 4.7074 83.2446 5.36877 84.0361 7.25563C85.2761 5.3169 86.8789 4.76575 88.6795 4.76575C92.6172 4.76575 94.5629 7.1454 94.5629 11.2368V18.5962H91.1265V11.2368C91.1265 9.44075 90.368 7.917 88.508 7.917C86.648 7.917 85.3025 9.49263 85.3025 11.2952L85.4938 18.5962H82.0706Z" fill="white"/>
<path d="M99.5822 12.8839C99.8065 14.5697 101.297 15.7887 103.718 15.7887C104.984 15.7887 106.646 15.3154 107.431 14.5178L109.628 16.6511C108.163 18.1424 105.769 18.8622 103.658 18.8622C98.8765 18.8622 96.0338 15.9573 96.0338 11.5871C96.0338 7.43727 98.9029 4.44812 103.408 4.44812C108.051 4.44812 110.953 7.26868 110.412 12.8839H99.5822ZM107.121 10.0892C106.897 8.3191 105.492 7.43078 103.52 7.43078C101.66 7.43078 100.143 8.3191 99.635 10.0892H107.121Z" fill="white"/>
<path d="M127.04 0V18.512H123.835L123.611 16.6316C122.542 18.2656 120.827 18.8167 119.139 18.8167C115.056 18.8167 111.989 16.1583 111.989 11.6778C111.989 6.97684 115.003 4.53883 119.053 4.53883C120.517 4.53883 122.793 5.31692 123.611 6.72396V0.363107L127.04 0ZM115.412 11.6778C115.412 14.0574 117.16 15.6914 119.35 15.6914C121.52 15.6914 123.373 14.1417 123.373 11.6778C123.373 9.29813 121.513 7.69657 119.35 7.69657C117.16 7.69008 115.412 9.21383 115.412 11.6778Z" fill="white"/>
<path d="M133.319 1.97112C133.319 4.59716 129.27 4.59716 129.27 1.97112C129.263 -0.654923 133.319 -0.654923 133.319 1.97112ZM129.573 4.79168V18.499H133.009V4.80465L129.573 4.79168Z" fill="white"/>
<path d="M146.689 4.85013L150 4.86959V18.512H146.762L146.59 16.5214C145.799 18.123 143.635 18.9011 142.085 18.927C137.976 18.9529 134.935 16.4631 134.935 11.6778C134.935 6.9769 138.115 4.51296 142.171 4.5389C144.031 4.5389 145.799 5.39479 146.59 6.74996L146.689 4.85013ZM138.378 11.6778C138.378 14.2779 140.205 15.8276 142.487 15.8276C147.889 15.8276 147.889 7.55398 142.487 7.55398C140.205 7.55398 138.378 9.07774 138.378 11.6778Z" fill="white"/>
</svg>
